<svg width="170" height="44" viewBox="0 0 170 44" fill="none" xmlns="http://www.w3.org/2000/svg">
<path d="M125 2H6C3.23858 2 1 4.23858 1 7V37C1 39.7614 3.23858 42 6 42H125" stroke="#7C4FFC" stroke-width="1.8"/>
<path d="M169 1H131C119.402 1 110 10.402 110 22V22C110 33.598 119.402 43 131 43H169" stroke="#7C4FFC" stroke-width="1.8"/>
<circle cx="18" cy="22" r="9.1" stroke="#7C4FFC" stroke-width="1.8"/>
<circle cx="130" cy="22" r="9.1" stroke="#7C4FFC" stroke-width="1.8"/>
<path d="M39 24L37 22L39 20" stroke="#7C4FFC" stroke-width="1.8"/>
<path d="M98 20L100 22L98 24" stroke="#7C4FFC" stroke-width="1.8"/>
<path d="M56.1807 28.9609L56.4712 30H57.4829L55.8833 25.0234H55.0117L53.3813 30H54.3931L54.687 28.9609H56.1807ZM54.9229 28.144L55.4458 26.312L55.9551 28.144H54.9229ZM58.9595 28.1748H59.7012C59.9723 28.1748 60.2173 28.1361 60.436 28.0586C60.6548 27.9811 60.8416 27.8729 60.9966 27.7339C61.1493 27.5972 61.2666 27.4342 61.3486 27.2451C61.4329 27.056 61.4751 26.8498 61.4751 26.6265C61.4751 26.3872 61.4329 26.1696 61.3486 25.9736C61.2666 25.7777 61.1493 25.609 60.9966 25.4678C60.8416 25.3288 60.6548 25.2205 60.436 25.1431C60.2173 25.0633 59.9723 25.0234 59.7012 25.0234H57.999V30H58.9595V28.1748ZM58.9595 27.3955V25.8027H59.7012C59.8379 25.8027 59.9564 25.8244 60.0566 25.8677C60.1569 25.911 60.2412 25.9702 60.3096 26.0454C60.3757 26.1206 60.4246 26.2083 60.4565 26.3086C60.4907 26.4089 60.5078 26.5171 60.5078 26.6333C60.5078 26.7336 60.4907 26.8304 60.4565 26.9238C60.4246 27.015 60.3757 27.0959 60.3096 27.1665C60.2412 27.2371 60.1569 27.293 60.0566 27.334C59.9564 27.375 59.8379 27.3955 59.7012 27.3955H58.9595ZM63.1636 28.1748H63.9053C64.1764 28.1748 64.4214 28.1361 64.6401 28.0586C64.8589 27.9811 65.0457 27.8729 65.2007 27.7339C65.3534 27.5972 65.4707 27.4342 65.5527 27.2451C65.637 27.056 65.6792 26.8498 65.6792 26.6265C65.6792 26.3872 65.637 26.1696 65.5527 25.9736C65.4707 25.7777 65.3534 25.609 65.2007 25.4678C65.0457 25.3288 64.8589 25.2205 64.6401 25.1431C64.4214 25.0633 64.1764 25.0234 63.9053 25.0234H62.2031V30H63.1636V28.1748ZM63.1636 27.3955V25.8027H63.9053C64.042 25.8027 64.1605 25.8244 64.2607 25.8677C64.361 25.911 64.4453 25.9702 64.5137 26.0454C64.5798 26.1206 64.6287 26.2083 64.6606 26.3086C64.6948 26.4089 64.7119 26.5171 64.7119 26.6333C64.7119 26.7336 64.6948 26.8304 64.6606 26.9238C64.6287 27.015 64.5798 27.0959 64.5137 27.1665C64.4453 27.2371 64.361 27.293 64.2607 27.334C64.1605 27.375 64.042 27.3955 63.9053 27.3955H63.1636ZM68.0342 28.1406L68.9707 30H69.9995V29.9556L68.9297 27.9014C69.0664 27.8398 69.1895 27.7669 69.2988 27.6826C69.4105 27.5983 69.5062 27.4992 69.5859 27.3853C69.6634 27.2736 69.7227 27.1471 69.7637 27.0059C69.807 26.8623 69.8286 26.7017 69.8286 26.5239C69.8286 26.2778 69.7853 26.0614 69.6987 25.8745C69.6144 25.6877 69.4937 25.5316 69.3364 25.4062C69.1769 25.2809 68.9855 25.1864 68.7622 25.1226C68.5389 25.0565 68.2894 25.0234 68.0137 25.0234H66.3457V30H67.3062V28.1406H68.0342ZM67.3062 27.3613V25.8027H68.0137C68.1458 25.8027 68.2632 25.8187 68.3657 25.8506C68.4683 25.8825 68.5549 25.9281 68.6255 25.9873C68.7052 26.0534 68.7645 26.1377 68.8032 26.2402C68.8442 26.3405 68.8647 26.4567 68.8647 26.5889C68.8647 26.6982 68.8488 26.7974 68.8169 26.8862C68.7873 26.9751 68.7428 27.0514 68.6836 27.1152C68.613 27.195 68.5207 27.2565 68.4067 27.2998C68.2951 27.3408 68.1652 27.3613 68.0171 27.3613H67.3062ZM74.0225 27.8774V27.1528C74.0225 26.9272 74.0008 26.7142 73.9575 26.5137C73.9165 26.3132 73.8561 26.1286 73.7764 25.96C73.7035 25.8118 73.6157 25.6763 73.5132 25.5532C73.4129 25.4302 73.2956 25.3254 73.1611 25.2388C73.0267 25.1476 72.8752 25.0781 72.7065 25.0303C72.5402 24.9801 72.3613 24.9551 72.1699 24.9551C71.9808 24.9551 71.8053 24.979 71.6436 25.0269C71.4818 25.0747 71.3359 25.1431 71.2061 25.2319C71.0739 25.3231 70.9565 25.4325 70.854 25.5601C70.7537 25.6877 70.6683 25.8301 70.5977 25.9873C70.5247 26.1536 70.4689 26.3348 70.4302 26.5308C70.3937 26.7267 70.3755 26.9341 70.3755 27.1528V27.8774C70.3755 28.0825 70.3914 28.2773 70.4233 28.4619C70.4575 28.6465 70.5065 28.8174 70.5703 28.9746C70.641 29.1455 70.7287 29.2993 70.8335 29.436C70.9383 29.5705 71.0568 29.6855 71.189 29.7812C71.3234 29.8724 71.4727 29.943 71.6367 29.9932C71.8008 30.0433 71.9797 30.0684 72.1733 30.0684C72.3556 30.0684 72.5254 30.0456 72.6826 30C72.8421 29.9567 72.988 29.8952 73.1201 29.8154C73.266 29.7243 73.3958 29.6104 73.5098 29.4736C73.6237 29.3369 73.7194 29.1865 73.7969 29.0225C73.8698 28.8584 73.9256 28.6807 73.9644 28.4893C74.0031 28.2956 74.0225 28.0916 74.0225 27.8774ZM73.0483 27.146V27.8774C73.0483 28.0005 73.0415 28.119 73.0278 28.2329C73.0164 28.3468 72.9982 28.4517 72.9731 28.5474C72.9412 28.6704 72.8979 28.7809 72.8433 28.8789C72.7909 28.9746 72.7259 29.0544 72.6484 29.1182C72.5869 29.1706 72.5163 29.2104 72.4365 29.2378C72.3568 29.2651 72.269 29.2788 72.1733 29.2788C72.0731 29.2788 71.9831 29.264 71.9033 29.2344C71.8258 29.2048 71.7563 29.1626 71.6948 29.1079C71.6287 29.0464 71.5706 28.9666 71.5205 28.8687C71.4727 28.7684 71.4362 28.6579 71.4111 28.5371C71.3883 28.4414 71.3724 28.3377 71.3633 28.2261C71.3542 28.1144 71.3496 27.9982 71.3496 27.8774V27.146C71.3496 27.0184 71.3542 26.8965 71.3633 26.7803C71.3747 26.6641 71.3918 26.557 71.4146 26.459C71.4442 26.3314 71.4852 26.2197 71.5376 26.124C71.5923 26.0283 71.6584 25.9486 71.7358 25.8848C71.7928 25.8415 71.8566 25.8084 71.9272 25.7856C72.0002 25.7629 72.0811 25.7515 72.1699 25.7515C72.2633 25.7515 72.3477 25.764 72.4229 25.7891C72.5003 25.8141 72.5698 25.8494 72.6313 25.895C72.7088 25.9565 72.776 26.0363 72.833 26.1343C72.89 26.23 72.9355 26.3394 72.9697 26.4624C72.9971 26.5604 73.0164 26.6675 73.0278 26.7837C73.0415 26.8976 73.0483 27.0184 73.0483 27.146ZM75.916 30H76.8936L78.4009 25.0234H77.3413L76.4937 28.2705L76.4014 28.6089L76.3159 28.2739L75.4717 25.0234H74.4121L75.916 30ZM82.0205 27.8193V27.0605H79.9766V25.8062H82.3555V25.0234H79.0127V30H82.3657V29.2241H79.9766V27.8193H82.0205Z" fill="#7C4FFC"/>
<path d="M64 15.8L67.6 19.4L73 14" stroke="#7C4FFC" stroke-width="1.8"/>
</svg>
