<svg width="170" height="44" viewBox="0 0 170 44" fill="none" xmlns="http://www.w3.org/2000/svg">
<path fill-rule="evenodd" clip-rule="evenodd" d="M59 9C57.8954 9 57 9.89543 57 11V15.2C57 16.3046 57.8954 17.2 59 17.2H63.2C64.3046 17.2 65.2 16.3046 65.2 15.2V11C65.2 9.89543 64.3046 9 63.2 9H59ZM64.2157 10.7843L63.511 11.4889C64.2657 12.6157 64.1454 14.1547 63.1501 15.15C62.1548 16.1453 60.6158 16.2656 59.489 15.5109L58.7003 16.2997L57.9932 15.5926L58.7658 14.82C57.9275 13.6853 58.0223 12.0778 59.0501 11.05C60.0779 10.0222 61.6854 9.92742 62.8201 10.7657L63.5086 10.0771L64.2157 10.7843ZM59.7572 11.7571C60.3932 11.1211 61.368 11.0305 62.1005 11.4852L59.4853 14.1004C59.0306 13.3679 59.1212 12.3931 59.7572 11.7571ZM62.7824 12.2176L60.2177 14.7823C60.9342 15.1584 61.8406 15.0452 62.443 14.4429C63.0453 13.8405 63.1585 12.9342 62.7824 12.2176Z" fill="#7C4FFC"/>
<path d="M125 2H6C3.23858 2 1 4.23858 1 7V37C1 39.7614 3.23858 42 6 42H125" stroke="#7C4FFC" stroke-width="1.8"/>
<path d="M169 1H131C119.402 1 110 10.402 110 22V22C110 33.598 119.402 43 131 43H169" stroke="#7C4FFC" stroke-width="1.8"/>
<circle cx="18" cy="22" r="9.1" stroke="#7C4FFC" stroke-width="1.8"/>
<circle cx="130" cy="22" r="9.1" stroke="#7C4FFC" stroke-width="1.8"/>
<path d="M97 20L99 22L97 24" stroke="#7C4FFC" stroke-width="1.8"/>
<path d="M49.8574 24.1748H50.5991C50.8703 24.1748 51.1152 24.1361 51.334 24.0586C51.5527 23.9811 51.7396 23.8729 51.8945 23.7339C52.0472 23.5972 52.1646 23.4342 52.2466 23.2451C52.3309 23.056 52.373 22.8498 52.373 22.6265C52.373 22.3872 52.3309 22.1696 52.2466 21.9736C52.1646 21.7777 52.0472 21.609 51.8945 21.4678C51.7396 21.3288 51.5527 21.2205 51.334 21.1431C51.1152 21.0633 50.8703 21.0234 50.5991 21.0234H48.897V26H49.8574V24.1748ZM49.8574 23.3955V21.8027H50.5991C50.7358 21.8027 50.8543 21.8244 50.9546 21.8677C51.0549 21.911 51.1392 21.9702 51.2075 22.0454C51.2736 22.1206 51.3226 22.2083 51.3545 22.3086C51.3887 22.4089 51.4058 22.5171 51.4058 22.6333C51.4058 22.7336 51.3887 22.8304 51.3545 22.9238C51.3226 23.015 51.2736 23.0959 51.2075 23.1665C51.1392 23.2371 51.0549 23.293 50.9546 23.334C50.8543 23.375 50.7358 23.3955 50.5991 23.3955H49.8574ZM53.272 20.75V21.5259H54.3794V25.2275H53.272V26H56.3994V25.2275H55.3398V20.75H53.272ZM59.0723 26.0684C59.43 26.0684 59.7399 25.9989 60.002 25.8599C60.264 25.7209 60.4554 25.5659 60.5762 25.395L60.1011 24.8823C59.9917 25.0236 59.8493 25.1296 59.6738 25.2002C59.4984 25.2708 59.3172 25.3062 59.1304 25.3062C58.9982 25.3062 58.8763 25.2856 58.7646 25.2446C58.653 25.2036 58.5539 25.1455 58.4673 25.0703C58.383 24.9974 58.3158 24.9165 58.2656 24.8276C58.2155 24.7365 58.1745 24.6169 58.1426 24.4688V24.4585H60.6514V24.0552C60.6514 23.784 60.6138 23.5368 60.5386 23.3135C60.4634 23.0879 60.354 22.8953 60.2104 22.7358C60.0646 22.5763 59.8869 22.4533 59.6772 22.3667C59.4699 22.2778 59.2329 22.2334 58.9663 22.2334C58.7088 22.2334 58.4707 22.2801 58.252 22.3735C58.0332 22.467 57.8441 22.598 57.6846 22.7666C57.5251 22.9352 57.4009 23.1369 57.312 23.3716C57.2231 23.604 57.1787 23.8615 57.1787 24.144V24.2808C57.1787 24.5291 57.2231 24.7627 57.312 24.9814C57.4032 25.1979 57.5319 25.3859 57.6982 25.5454C57.8646 25.7072 58.064 25.8348 58.2964 25.9282C58.5288 26.0216 58.7874 26.0684 59.0723 26.0684ZM58.9595 23.0024C59.0802 23.0024 59.1862 23.0218 59.2773 23.0605C59.3708 23.097 59.4494 23.1471 59.5132 23.2109C59.577 23.277 59.6271 23.3545 59.6636 23.4434C59.7 23.5322 59.7183 23.6268 59.7183 23.7271V23.8022H58.1597C58.1825 23.6815 58.2166 23.5721 58.2622 23.4741C58.3078 23.3761 58.3647 23.2918 58.4331 23.2212C58.4992 23.1506 58.5767 23.097 58.6655 23.0605C58.7544 23.0218 58.8524 23.0024 58.9595 23.0024ZM63.7925 26H64.7563V25.9419C64.7085 25.8485 64.672 25.7368 64.647 25.6069C64.6219 25.4771 64.6094 25.313 64.6094 25.1147V23.5288C64.6094 23.3146 64.5695 23.1266 64.4897 22.9648C64.41 22.8008 64.2995 22.6652 64.1582 22.5581C64.0169 22.451 63.8494 22.3701 63.6558 22.3154C63.4644 22.2607 63.257 22.2334 63.0337 22.2334C62.7853 22.2334 62.5643 22.2653 62.3706 22.3291C62.1792 22.3906 62.0174 22.4749 61.8853 22.582C61.7508 22.6891 61.6483 22.8133 61.5776 22.9546C61.5093 23.0959 61.4751 23.2451 61.4751 23.4023H62.4253C62.4253 23.3363 62.4344 23.2759 62.4526 23.2212C62.4731 23.1665 62.5039 23.1198 62.5449 23.0811C62.5905 23.0378 62.6497 23.0047 62.7227 22.9819C62.7956 22.9569 62.8822 22.9443 62.9824 22.9443C63.0964 22.9443 63.1955 22.9591 63.2798 22.9888C63.3664 23.0161 63.4382 23.056 63.4951 23.1084C63.5498 23.1585 63.5908 23.2189 63.6182 23.2896C63.6455 23.3579 63.6592 23.4354 63.6592 23.522V23.7407H63.1294C62.856 23.7407 62.6133 23.7658 62.4014 23.8159C62.1917 23.8638 62.0151 23.9344 61.8716 24.0278C61.7121 24.1304 61.5924 24.2614 61.5127 24.4209C61.4329 24.5781 61.3931 24.7593 61.3931 24.9644C61.3931 25.1239 61.425 25.272 61.4888 25.4087C61.5526 25.5431 61.6414 25.6593 61.7554 25.7573C61.8693 25.8553 62.0049 25.9316 62.1621 25.9863C62.3216 26.041 62.4959 26.0684 62.6851 26.0684C62.8013 26.0684 62.9095 26.057 63.0098 26.0342C63.11 26.0137 63.2023 25.984 63.2866 25.9453C63.3687 25.9089 63.4438 25.8656 63.5122 25.8154C63.5806 25.7653 63.641 25.7118 63.6934 25.6548C63.7048 25.7209 63.7184 25.7835 63.7344 25.8428C63.7503 25.902 63.7697 25.9544 63.7925 26ZM62.8867 25.3335C62.7979 25.3335 62.7192 25.3232 62.6509 25.3027C62.5848 25.2799 62.529 25.2503 62.4834 25.2139C62.4378 25.1751 62.4025 25.1284 62.3774 25.0737C62.3547 25.0168 62.3433 24.9552 62.3433 24.8892C62.3433 24.8049 62.3592 24.7274 62.3911 24.6567C62.423 24.5838 62.472 24.5212 62.5381 24.4688C62.6042 24.4186 62.6896 24.3799 62.7944 24.3525C62.8993 24.3229 63.0257 24.3081 63.1738 24.3081H63.6592V24.9438C63.6318 24.9917 63.5942 25.0396 63.5464 25.0874C63.4985 25.133 63.4416 25.174 63.3755 25.2104C63.3094 25.2469 63.2354 25.2765 63.1533 25.2993C63.0713 25.3221 62.9824 25.3335 62.8867 25.3335ZM68.0718 24.9849C68.0718 25.0418 68.057 25.0942 68.0273 25.1421C68 25.1899 67.9578 25.2321 67.9009 25.2686C67.8416 25.305 67.7653 25.3346 67.6719 25.3574C67.5807 25.3779 67.4736 25.3882 67.3506 25.3882C67.248 25.3882 67.1478 25.3779 67.0498 25.3574C66.9541 25.3369 66.8687 25.3039 66.7935 25.2583C66.7183 25.215 66.6567 25.158 66.6089 25.0874C66.561 25.0145 66.5337 24.9279 66.5269 24.8276H65.6211C65.6211 24.978 65.6576 25.1284 65.7305 25.2788C65.8057 25.4269 65.915 25.5591 66.0586 25.6753C66.2021 25.7938 66.3799 25.8895 66.5918 25.9624C66.806 26.0353 67.0521 26.0718 67.3301 26.0718C67.583 26.0718 67.812 26.0444 68.0171 25.9897C68.2222 25.9328 68.3976 25.8542 68.5435 25.7539C68.687 25.6536 68.7975 25.5352 68.875 25.3984C68.9548 25.2594 68.9946 25.1079 68.9946 24.9438C68.9946 24.7661 68.9548 24.6134 68.875 24.4858C68.7975 24.356 68.6893 24.2454 68.5503 24.1543C68.4113 24.0654 68.2461 23.9925 68.0547 23.9355C67.8633 23.8786 67.6559 23.8319 67.4326 23.7954C67.2777 23.7726 67.1501 23.7464 67.0498 23.7168C66.9495 23.6849 66.8709 23.6496 66.814 23.6108C66.7547 23.5744 66.7137 23.5334 66.6909 23.4878C66.6681 23.4399 66.6567 23.3887 66.6567 23.334C66.6567 23.2793 66.6693 23.228 66.6943 23.1802C66.7217 23.13 66.7604 23.0868 66.8105 23.0503C66.8652 23.0093 66.9359 22.9774 67.0225 22.9546C67.109 22.9318 67.2104 22.9204 67.3267 22.9204C67.4634 22.9204 67.5796 22.9375 67.6753 22.9717C67.7733 23.0059 67.8507 23.0514 67.9077 23.1084C67.9487 23.1517 67.9795 23.2007 68 23.2554C68.0205 23.3078 68.0308 23.3647 68.0308 23.4263H68.981C68.981 23.2554 68.9434 23.097 68.8682 22.9512C68.793 22.8053 68.6847 22.6789 68.5435 22.5718C68.3999 22.467 68.2256 22.3849 68.0205 22.3257C67.8154 22.2642 67.5841 22.2334 67.3267 22.2334C67.0806 22.2334 66.8595 22.2642 66.6636 22.3257C66.4676 22.3872 66.3013 22.4704 66.1646 22.5752C66.0278 22.68 65.923 22.8019 65.8501 22.9409C65.7772 23.0799 65.7407 23.2257 65.7407 23.3784C65.7407 23.5356 65.776 23.6746 65.8467 23.7954C65.9196 23.9162 66.0199 24.0221 66.1475 24.1133C66.2751 24.2067 66.4277 24.2865 66.6055 24.3525C66.7855 24.4163 66.9837 24.4699 67.2002 24.5132C67.3711 24.5451 67.5124 24.577 67.624 24.6089C67.7357 24.6408 67.8257 24.675 67.894 24.7114C67.9601 24.7502 68.0057 24.7912 68.0308 24.8345C68.0581 24.8778 68.0718 24.9279 68.0718 24.9849ZM71.6846 26.0684C72.0423 26.0684 72.3522 25.9989 72.6143 25.8599C72.8763 25.7209 73.0677 25.5659 73.1885 25.395L72.7134 24.8823C72.604 25.0236 72.4616 25.1296 72.2861 25.2002C72.1107 25.2708 71.9295 25.3062 71.7427 25.3062C71.6105 25.3062 71.4886 25.2856 71.377 25.2446C71.2653 25.2036 71.1662 25.1455 71.0796 25.0703C70.9953 24.9974 70.9281 24.9165 70.8779 24.8276C70.8278 24.7365 70.7868 24.6169 70.7549 24.4688V24.4585H73.2637V24.0552C73.2637 23.784 73.2261 23.5368 73.1509 23.3135C73.0757 23.0879 72.9663 22.8953 72.8228 22.7358C72.6769 22.5763 72.4992 22.4533 72.2896 22.3667C72.0822 22.2778 71.8452 22.2334 71.5786 22.2334C71.3211 22.2334 71.083 22.2801 70.8643 22.3735C70.6455 22.467 70.4564 22.598 70.2969 22.7666C70.1374 22.9352 70.0132 23.1369 69.9243 23.3716C69.8354 23.604 69.791 23.8615 69.791 24.144V24.2808C69.791 24.5291 69.8354 24.7627 69.9243 24.9814C70.0155 25.1979 70.1442 25.3859 70.3105 25.5454C70.4769 25.7072 70.6763 25.8348 70.9087 25.9282C71.1411 26.0216 71.3997 26.0684 71.6846 26.0684ZM71.5718 23.0024C71.6925 23.0024 71.7985 23.0218 71.8896 23.0605C71.9831 23.097 72.0617 23.1471 72.1255 23.2109C72.1893 23.277 72.2394 23.3545 72.2759 23.4434C72.3123 23.5322 72.3306 23.6268 72.3306 23.7271V23.8022H70.772C70.7948 23.6815 70.8289 23.5721 70.8745 23.4741C70.9201 23.3761 70.9771 23.2918 71.0454 23.2212C71.1115 23.1506 71.189 23.097 71.2778 23.0605C71.3667 23.0218 71.4647 23.0024 71.5718 23.0024ZM51.5254 30.2334C51.277 30.2334 51.048 30.2938 50.8384 30.4146C50.6287 30.533 50.4487 30.6971 50.2983 30.9067L50.2915 30.8247L50.2539 30.3018H49.3687V34H50.3188V31.7783C50.3621 31.6735 50.4168 31.5824 50.4829 31.5049C50.549 31.4274 50.6287 31.3636 50.7222 31.3135C50.7996 31.2702 50.8874 31.2383 50.9854 31.2178C51.0856 31.195 51.1973 31.1836 51.3203 31.1836C51.4388 31.1836 51.563 31.1916 51.6929 31.2075C51.825 31.2212 51.9538 31.2428 52.0791 31.2725L52.2192 30.3257C52.144 30.3029 52.0449 30.2824 51.9219 30.2642C51.8011 30.2437 51.6689 30.2334 51.5254 30.2334ZM54.8682 34.0684C55.2259 34.0684 55.5358 33.9989 55.7979 33.8599C56.0599 33.7209 56.2513 33.5659 56.3721 33.395L55.897 32.8823C55.7876 33.0236 55.6452 33.1296 55.4697 33.2002C55.2943 33.2708 55.1131 33.3062 54.9263 33.3062C54.7941 33.3062 54.6722 33.2856 54.5605 33.2446C54.4489 33.2036 54.3498 33.1455 54.2632 33.0703C54.1789 32.9974 54.1117 32.9165 54.0615 32.8276C54.0114 32.7365 53.9704 32.6169 53.9385 32.4688V32.4585H56.4473V32.0552C56.4473 31.784 56.4097 31.5368 56.3345 31.3135C56.2593 31.0879 56.1499 30.8953 56.0063 30.7358C55.8605 30.5763 55.6828 30.4533 55.4731 30.3667C55.2658 30.2778 55.0288 30.2334 54.7622 30.2334C54.5047 30.2334 54.2666 30.2801 54.0479 30.3735C53.8291 30.467 53.64 30.598 53.4805 30.7666C53.321 30.9352 53.1968 31.1369 53.1079 31.3716C53.019 31.604 52.9746 31.8615 52.9746 32.144V32.2808C52.9746 32.5291 53.019 32.7627 53.1079 32.9814C53.1991 33.1979 53.3278 33.3859 53.4941 33.5454C53.6605 33.7072 53.8599 33.8348 54.0923 33.9282C54.3247 34.0216 54.5833 34.0684 54.8682 34.0684ZM54.7554 31.0024C54.8761 31.0024 54.9821 31.0218 55.0732 31.0605C55.1667 31.097 55.2453 31.1471 55.3091 31.2109C55.3729 31.277 55.423 31.3545 55.4595 31.4434C55.4959 31.5322 55.5142 31.6268 55.5142 31.7271V31.8022H53.9556C53.9784 31.6815 54.0125 31.5721 54.0581 31.4741C54.1037 31.3761 54.1606 31.2918 54.229 31.2212C54.2951 31.1506 54.3726 31.097 54.4614 31.0605C54.5503 31.0218 54.6483 31.0024 54.7554 31.0024ZM58.4536 34H59.3457L60.7505 30.3018H59.7593L58.9492 32.9097L58.8979 33.1694L58.8467 32.9097L58.0332 30.3018H57.042L58.4536 34ZM61.7349 30.3018V31.0776H62.7876V33.2275H61.7349V34H64.7495V33.2275H63.748V30.3018H61.7349ZM62.7192 29.355C62.7192 29.4279 62.7318 29.4963 62.7568 29.5601C62.7842 29.6216 62.8218 29.674 62.8696 29.7173C62.9175 29.7629 62.9744 29.7982 63.0405 29.8232C63.1089 29.8483 63.1841 29.8608 63.2661 29.8608C63.4347 29.8608 63.568 29.8141 63.666 29.7207C63.7663 29.625 63.8164 29.5031 63.8164 29.355C63.8164 29.2069 63.7663 29.0861 63.666 28.9927C63.568 28.897 63.4347 28.8491 63.2661 28.8491C63.1841 28.8491 63.1089 28.8617 63.0405 28.8867C62.9744 28.9118 62.9175 28.946 62.8696 28.9893C62.8218 29.0348 62.7842 29.0895 62.7568 29.1533C62.7318 29.2148 62.7192 29.2821 62.7192 29.355ZM67.4805 34.0684C67.8382 34.0684 68.1481 33.9989 68.4102 33.8599C68.6722 33.7209 68.8636 33.5659 68.9844 33.395L68.5093 32.8823C68.3999 33.0236 68.2575 33.1296 68.082 33.2002C67.9066 33.2708 67.7254 33.3062 67.5386 33.3062C67.4064 33.3062 67.2845 33.2856 67.1729 33.2446C67.0612 33.2036 66.9621 33.1455 66.8755 33.0703C66.7912 32.9974 66.724 32.9165 66.6738 32.8276C66.6237 32.7365 66.5827 32.6169 66.5508 32.4688V32.4585H69.0596V32.0552C69.0596 31.784 69.022 31.5368 68.9468 31.3135C68.8716 31.0879 68.7622 30.8953 68.6187 30.7358C68.4728 30.5763 68.2951 30.4533 68.0854 30.3667C67.8781 30.2778 67.6411 30.2334 67.3745 30.2334C67.117 30.2334 66.8789 30.2801 66.6602 30.3735C66.4414 30.467 66.2523 30.598 66.0928 30.7666C65.9333 30.9352 65.8091 31.1369 65.7202 31.3716C65.6313 31.604 65.5869 31.8615 65.5869 32.144V32.2808C65.5869 32.5291 65.6313 32.7627 65.7202 32.9814C65.8114 33.1979 65.9401 33.3859 66.1064 33.5454C66.2728 33.7072 66.4722 33.8348 66.7046 33.9282C66.937 34.0216 67.1956 34.0684 67.4805 34.0684ZM67.3677 31.0024C67.4884 31.0024 67.5944 31.0218 67.6855 31.0605C67.779 31.097 67.8576 31.1471 67.9214 31.2109C67.9852 31.277 68.0353 31.3545 68.0718 31.4434C68.1082 31.5322 68.1265 31.6268 68.1265 31.7271V31.8022H66.5679C66.5907 31.6815 66.6248 31.5721 66.6704 31.4741C66.716 31.3761 66.7729 31.2918 66.8413 31.2212C66.9074 31.1506 66.9849 31.097 67.0737 31.0605C67.1626 31.0218 67.2606 31.0024 67.3677 31.0024ZM70.1636 34H70.9976L71.3906 32.0244L71.4658 31.6484L71.5444 32.0244L71.9512 34H72.7852L73.4482 30.3018H72.5767L72.3032 32.4824L72.2554 32.8413L72.1904 32.4893L71.7905 30.3018H71.1548L70.7549 32.4995L70.6899 32.8516L70.6455 32.4995L70.3687 30.3018H69.5005L70.1636 34Z" fill="#7C4FFC"/>
</svg>
