<svg width="28" height="28" viewBox="0 0 28 28" fill="none" xmlns="http://www.w3.org/2000/svg">
<path d="M23.333 15.7498C24.9438 15.7498 26.2497 14.444 26.2497 12.8332C26.2497 11.2223 24.9438 9.9165 23.333 9.9165V15.7498Z" fill="url(#paint0_linear_10867_18578)"/>
<path d="M7.00033 12.8335C8.28899 12.8335 9.33366 14.0274 9.33366 15.5002C9.33366 16.9729 8.28899 18.1668 7.00033 18.1668V21.633C7.00033 21.9275 6.79094 22.1668 6.5332 22.1668H5.13411C4.87638 22.1668 4.66699 21.9275 4.66699 21.633V14.7007C4.66699 14.4061 4.87638 14.1668 5.13411 14.1668H6.5332C6.79094 14.1668 7.00033 14.4061 7.00033 14.7007V12.8335Z" fill="url(#paint1_linear_10867_18578)"/>
<path d="M19.8333 19.8335L8.94444 17.0335H4.04498C3.74429 17.0335 3.5 16.7822 3.5 16.4729V9.19404C3.5 8.88477 3.74429 8.6335 4.04498 8.6335H8.94444L19.8333 5.8335V19.8335Z" fill="url(#paint2_linear_10867_18578)"/>
<path d="M18.667 4.93873C18.667 4.78838 18.7715 4.6665 18.9003 4.6665H21.9337C22.0625 4.6665 22.167 4.78838 22.167 4.93873V20.7276C22.167 20.878 22.0625 20.9998 21.9337 20.9998H18.9003C18.7715 20.9998 18.667 20.878 18.667 20.7276V4.93873Z" fill="url(#paint3_linear_10867_18578)"/>
<path d="M7.76562 8.63135H8.93229V17.035H7.76562V8.63135Z" fill="url(#paint4_linear_10867_18578)"/>
<defs>
<linearGradient id="paint0_linear_10867_18578" x1="25.5437" y1="10.4832" x2="22.164" y2="12.6668" gradientUnits="userSpaceOnUse">
<stop stop-color="#F7F7F8"/>
<stop offset="1" stop-color="#E9E9EE"/>
</linearGradient>
<linearGradient id="paint1_linear_10867_18578" x1="7.00033" y1="12.8335" x2="7.00033" y2="21.8038" gradientUnits="userSpaceOnUse">
<stop stop-color="#929CB3"/>
<stop offset="1" stop-color="#707889"/>
</linearGradient>
<linearGradient id="paint2_linear_10867_18578" x1="18.0104" y1="5.8335" x2="7.26096" y2="18.3795" gradientUnits="userSpaceOnUse">
<stop stop-color="#F7F7F8"/>
<stop offset="1" stop-color="#CACBCE"/>
</linearGradient>
<linearGradient id="paint3_linear_10867_18578" x1="20.417" y1="4.6665" x2="20.417" y2="20.3645" gradientUnits="userSpaceOnUse">
<stop stop-color="#929CB3"/>
<stop offset="1" stop-color="#707889"/>
</linearGradient>
<linearGradient id="paint4_linear_10867_18578" x1="8.34896" y1="8.63135" x2="8.34896" y2="16.7081" gradientUnits="userSpaceOnUse">
<stop stop-color="#929CB3"/>
<stop offset="1" stop-color="#707889"/>
</linearGradient>
</defs>
</svg>
