<svg width="24" height="24" viewBox="0 0 24 24" fill="none" xmlns="http://www.w3.org/2000/svg">
<path fill-rule="evenodd" clip-rule="evenodd" d="M11.9987 9.90102C12.9655 9.90102 13.7493 9.11727 13.7493 8.15047C13.7493 7.18367 12.9655 6.39993 11.9987 6.39993C11.0319 6.39993 10.2482 7.18367 10.2482 8.15047C10.2482 9.11727 11.0319 9.90102 11.9987 9.90102ZM11.9987 11.501C13.8492 11.501 15.3493 10.0009 15.3493 8.15047C15.3493 6.30002 13.8492 4.79993 11.9987 4.79993C10.1483 4.79993 8.64819 6.30002 8.64819 8.15047C8.64819 10.0009 10.1483 11.501 11.9987 11.501Z" fill="white"/>
<path fill-rule="evenodd" clip-rule="evenodd" d="M19 18.8128C18.9764 18.2605 18.8888 17.7248 18.7445 17.2128C17.9148 14.2688 15.2094 12.111 12 12.111C8.79059 12.111 6.08519 14.2688 5.25548 17.2128C5.11119 17.7248 5.02363 18.2605 5 18.8128H19ZM6.93835 17.2128H17.0616C16.2914 15.1669 14.3154 13.711 12 13.711C9.68454 13.711 7.70861 15.1669 6.93835 17.2128Z" fill="white"/>
</svg>
