<svg width="24" height="24" viewBox="0 0 24 24" fill="none" xmlns="http://www.w3.org/2000/svg">
<path fill-rule="evenodd" clip-rule="evenodd" d="M5.5 5.34998C5.5 4.38348 6.2835 3.59998 7.25 3.59998H16.6218C17.5883 3.59998 18.3718 4.38348 18.3718 5.34998V16.4071H18.35V17.2842H7.87454C7.39155 17.2842 7 17.6758 7 18.1588C7 18.6418 7.39155 19.0333 7.87454 19.0333H18.35V20.5333H7.87454C6.62283 20.5333 5.59732 19.5648 5.50653 18.3363H5.5V18.1588V5.34998ZM16.8718 5.34998V15.7842H7.87454C7.56571 15.7842 7.27065 15.8432 7 15.9505V5.34998C7 5.2119 7.11193 5.09998 7.25 5.09998H16.6218C16.7599 5.09998 16.8718 5.21191 16.8718 5.34998ZM9.1436 8.23301H14.931V6.83301H9.1436V8.23301ZM14.931 11.1267H9.1436V9.7267H14.931V11.1267ZM9.1436 14.0205H14.931V12.6205H9.1436V14.0205Z" fill="black"/>
</svg>
