<svg width="24" height="24" viewBox="0 0 24 24" fill="none" xmlns="http://www.w3.org/2000/svg">
<path d="M9.79289 15.2929C9.40237 15.6834 9.40237 16.3166 9.79289 16.7071C10.1834 17.0976 10.8166 17.0976 11.2071 16.7071L9.79289 15.2929ZM14.5 12L15.2071 12.7071C15.5976 12.3166 15.5976 11.6834 15.2071 11.2929L14.5 12ZM11.2071 7.29289C10.8166 6.90237 10.1834 6.90237 9.79289 7.29289C9.40237 7.68342 9.40237 8.31658 9.79289 8.70711L11.2071 7.29289ZM11.2071 16.7071L15.2071 12.7071L13.7929 11.2929L9.79289 15.2929L11.2071 16.7071ZM15.2071 11.2929L11.2071 7.29289L9.79289 8.70711L13.7929 12.7071L15.2071 11.2929Z" fill="#727E91"/>
</svg>
