<svg width="24" height="24" viewBox="0 0 24 24" fill="none" xmlns="http://www.w3.org/2000/svg">
<path fill-rule="evenodd" clip-rule="evenodd" d="M20.2644 8.6072C19.9502 8.29304 19.4409 8.29304 19.1267 8.6072L13.7681 13.9658L11.3733 11.5709C11.0591 11.2568 10.5498 11.2568 10.2356 11.5709C9.92146 11.8851 9.92146 12.3944 10.2356 12.7085L13.1993 15.6723C13.5135 15.9864 14.0228 15.9864 14.337 15.6723L20.2644 9.74484C20.5785 9.43069 20.5785 8.92135 20.2644 8.6072Z" fill="#727E91"/>
<path fill-rule="evenodd" clip-rule="evenodd" d="M10.1335 4.3018C10.2694 4.1855 10.4424 4.12158 10.6212 4.12158H17.875C18.2892 4.12158 18.625 4.45737 18.625 4.87158V8.39908H17.125V5.62158H10.8984L7.25 8.74435V18.1216H17.125V14.7656H18.625V18.8716C18.625 19.2858 18.2892 19.6216 17.875 19.6216H6.5C6.08579 19.6216 5.75 19.2858 5.75 18.8716V8.39908C5.75 8.17995 5.84583 7.97179 6.0123 7.8293L10.1335 4.3018Z" fill="#727E91"/>
<path fill-rule="evenodd" clip-rule="evenodd" d="M11.7762 4.5V8.52277C11.7762 8.93699 11.4404 9.27277 11.0262 9.27277H7.00342V7.77277H10.2762V4.5H11.7762Z" fill="#727E91"/>
</svg>
