<svg width="28" height="28" viewBox="0 0 28 28" fill="none" xmlns="http://www.w3.org/2000/svg">
<path d="M15.5 2C15.5 1.17157 14.8284 0.5 14 0.5C13.1716 0.5 12.5 1.17157 12.5 2L15.5 2ZM12.9393 27.0607C13.5251 27.6464 14.4749 27.6464 15.0607 27.0607L24.6066 17.5147C25.1924 16.9289 25.1924 15.9792 24.6066 15.3934C24.0208 14.8076 23.0711 14.8076 22.4853 15.3934L14 23.8787L5.51472 15.3934C4.92893 14.8076 3.97918 14.8076 3.3934 15.3934C2.80761 15.9792 2.80761 16.9289 3.3934 17.5147L12.9393 27.0607ZM12.5 2L12.5 26L15.5 26L15.5 2L12.5 2Z" fill="#727E91"/>
</svg>
