<svg width="20" height="20" viewBox="0 0 20 20" fill="none" xmlns="http://www.w3.org/2000/svg">
<path fill-rule="evenodd" clip-rule="evenodd" d="M10 4.375C6.8934 4.375 4.375 6.8934 4.375 10C4.375 13.1066 6.8934 15.625 10 15.625C13.1066 15.625 15.625 13.1066 15.625 10C15.625 6.8934 13.1066 4.375 10 4.375ZM3.125 10C3.125 6.20304 6.20304 3.125 10 3.125C13.797 3.125 16.875 6.20304 16.875 10C16.875 13.797 13.797 16.875 10 16.875C6.20304 16.875 3.125 13.797 3.125 10Z" fill="white"/>
<path fill-rule="evenodd" clip-rule="evenodd" d="M10.6254 5.875H9.32908V6.5684C8.85599 6.61594 8.41267 6.82824 8.07823 7.17075C7.70754 7.5504 7.5 8.05995 7.5 8.59058C7.5 9.1212 7.70753 9.63081 8.07823 10.0105C8.38729 10.327 8.78931 10.5322 9.22185 10.5991L9.23836 10.6016H9.34744L10.4639 10.6234H10.4681C10.663 10.6234 10.85 10.7008 10.9879 10.8387C11.1258 10.9766 11.2032 11.1635 11.2032 11.3585C11.2032 11.5534 11.1257 11.7404 10.9879 11.8783C10.85 12.0161 10.6631 12.0936 10.4681 12.0936H7.78571V13.3899H9.32908V14.0899H10.6254V13.3848C11.1068 13.3474 11.5611 13.1395 11.9049 12.7957C12.2859 12.4147 12.5 11.8978 12.5 11.3589C12.5 10.82 12.2859 10.3033 11.9049 9.92223C11.5869 9.60429 11.1745 9.40245 10.7335 9.34435L10.5387 9.3252H9.49206C9.2971 9.3252 9.11014 9.24776 8.97229 9.10991C8.83444 8.97207 8.757 8.78508 8.757 8.59011C8.757 8.39514 8.83444 8.20815 8.97229 8.0703C9.11014 7.93245 9.2971 7.85502 9.49206 7.85502H12.2245V6.5587H10.6254V5.875Z" fill="white"/>
</svg>
