<svg width="24" height="24" viewBox="0 0 24 24" fill="none" xmlns="http://www.w3.org/2000/svg">
<path fill-rule="evenodd" clip-rule="evenodd" d="M18.4482 19.5H5.54876C4.85959 19.5 4.24347 19.144 3.9001 18.5465C3.55674 17.949 3.55674 17.237 3.9001 16.6395L10.3511 5.4535C10.6944 4.85604 11.313 4.5 11.9997 4.5C12.6889 4.5 13.305 4.85604 13.6484 5.4535L20.0993 16.6395C20.4427 17.237 20.4427 17.949 20.0993 18.5465C19.756 19.144 19.1374 19.5 18.4507 19.5H18.4482ZM11.9269 8.63047C12.6464 8.63118 13.2061 9.26005 13.1201 9.97728L12.5917 14.3962C12.5524 14.7354 12.2648 14.991 11.9232 14.991C11.5816 14.991 11.294 14.7354 11.2547 14.3962L10.7337 9.97483C10.6502 9.26004 11.2074 8.63118 11.9269 8.63047ZM11.9269 8.63047C11.9273 8.63047 11.9277 8.63047 11.9281 8.63047H11.9257C11.9261 8.63047 11.9265 8.63047 11.9269 8.63047ZM10.9664 16.4582C10.9664 16.7261 11.0598 16.9547 11.2441 17.139C11.4285 17.3233 11.657 17.4167 11.9249 17.4167C12.1928 17.4167 12.4214 17.3233 12.6057 17.139C12.79 16.9547 12.8834 16.7261 12.8834 16.4582C12.8834 16.1903 12.79 15.9618 12.6057 15.7774C12.4214 15.5931 12.1928 15.4997 11.9249 15.4997C11.657 15.4997 11.4285 15.5931 11.2441 15.7774C11.0598 15.9618 10.9664 16.1903 10.9664 16.4582Z" fill="#FFC658"/>
</svg>
