<svg width="16" height="16" viewBox="0 0 16 16" fill="none" xmlns="http://www.w3.org/2000/svg">
<path fill-rule="evenodd" clip-rule="evenodd" d="M3.82104 4.98428C3.82104 4.65291 4.08967 4.38428 4.42104 4.38428H11.1579C11.4893 4.38428 11.7579 4.65291 11.7579 4.98428V6.66849C11.7579 6.99986 11.4893 7.26849 11.1579 7.26849C10.8265 7.26849 10.5579 6.99986 10.5579 6.66849V5.58428H4.42104C4.08967 5.58428 3.82104 5.31565 3.82104 4.98428Z"/>
<path fill-rule="evenodd" clip-rule="evenodd" d="M12.6 11.0367C12.6 11.3681 12.3314 11.6367 12 11.6367L4.42104 11.6367C4.08967 11.6367 3.82104 11.3681 3.82104 11.0367L3.82104 9.35251C3.82104 9.02114 4.08967 8.75251 4.42104 8.75251C4.75241 8.75251 5.02104 9.02114 5.02104 9.35251L5.02104 10.4367L12 10.4367C12.3314 10.4367 12.6 10.7053 12.6 11.0367Z"/>
<path fill-rule="evenodd" clip-rule="evenodd" d="M6.10847 2.87569C6.34278 3.11 6.34278 3.4899 6.10847 3.72422L4.84852 4.98416L6.10847 6.24411C6.34278 6.47842 6.34278 6.85832 6.10847 7.09264C5.87415 7.32695 5.49425 7.32695 5.25994 7.09264L3.57573 5.40843C3.34142 5.17411 3.34142 4.79421 3.57573 4.5599L5.25994 2.87569C5.49425 2.64137 5.87415 2.64137 6.10847 2.87569Z"/>
<path fill-rule="evenodd" clip-rule="evenodd" d="M9.89152 13.1453C9.6572 12.911 9.6572 12.5311 9.89152 12.2968L11.1515 11.0368L9.89152 9.77689C9.6572 9.54257 9.6572 9.16267 9.89152 8.92836C10.1258 8.69405 10.5057 8.69405 10.74 8.92836L12.4243 10.6126C12.6586 10.8469 12.6586 11.2268 12.4243 11.4611L10.74 13.1453C10.5057 13.3796 10.1258 13.3796 9.89152 13.1453Z"/>
</svg>
