<svg width="16" height="16" viewBox="0 0 16 16" fill="none" xmlns="http://www.w3.org/2000/svg">
<path d="M7.99984 14.6667C11.6738 14.6667 14.6665 11.674 14.6665 8.00002C14.6665 4.32602 11.6738 1.33335 7.99984 1.33335C4.32583 1.33335 1.33317 4.32602 1.33317 8.00002C1.33317 11.674 4.32583 14.6667 7.99984 14.6667ZM7.99984 13.3334C5.04642 13.3334 2.6665 10.9534 2.6665 8.00002C2.6665 5.04661 5.04642 2.66669 7.99984 2.66669C10.9533 2.66669 13.3332 5.0466 13.3332 8.00002C13.3332 10.9534 10.9533 13.3334 7.99984 13.3334Z" fill="#27BD69"/>
<path d="M5 8L7 10L11 6" stroke="#27BD69" stroke-width="1.3"/>
</svg>
