<svg width="16" height="16" viewBox="0 0 16 16" fill="none" xmlns="http://www.w3.org/2000/svg">
<path fill-rule="evenodd" clip-rule="evenodd" d="M11.7534 4.24665C12.0822 4.57551 12.0822 5.1087 11.7534 5.43756L5.43756 11.7534C5.1087 12.0822 4.57551 12.0822 4.24665 11.7534C3.91778 11.4245 3.91778 10.8913 4.24665 10.5624L10.5624 4.24665C10.8913 3.91778 11.4245 3.91778 11.7534 4.24665Z"/>
<path fill-rule="evenodd" clip-rule="evenodd" d="M4.24665 4.24665C4.57551 3.91778 5.1087 3.91778 5.43756 4.24665L11.7534 10.5624C12.0822 10.8913 12.0822 11.4245 11.7534 11.7534C11.4245 12.0822 10.8913 12.0822 10.5624 11.7534L4.24665 5.43756C3.91778 5.1087 3.91778 4.57551 4.24665 4.24665Z"/>
</svg>
