<svg width="24" height="24" viewBox="0 0 24 24" fill="none" xmlns="http://www.w3.org/2000/svg">
<path fill-rule="evenodd" clip-rule="evenodd" d="M19.5659 4.43427C19.8783 4.74669 19.8783 5.25322 19.5659 5.56564L5.56588 19.5656C5.25346 19.8781 4.74693 19.8781 4.43451 19.5656C4.12209 19.2532 4.12209 18.7467 4.43451 18.4343L18.4345 4.43427C18.7469 4.12185 19.2535 4.12185 19.5659 4.43427Z"/>
<path fill-rule="evenodd" clip-rule="evenodd" d="M4.43451 4.43424C4.74693 4.12182 5.25346 4.12182 5.56588 4.43424L19.5659 18.4342C19.8783 18.7467 19.8783 19.2532 19.5659 19.5656C19.2535 19.878 18.7469 19.878 18.4345 19.5656L4.43451 5.56561C4.12209 5.25319 4.12209 4.74666 4.43451 4.43424Z"/>
</svg>
