<svg width="24" height="24" viewBox="0 0 24 24" fill="none" xmlns="http://www.w3.org/2000/svg">
<path fill-rule="evenodd" clip-rule="evenodd" d="M16.2801 8.78039L8.78039 16.2801L7.71973 15.2195L15.2195 7.71973L16.2801 8.78039Z" fill="#7C4FFC"/>
<path fill-rule="evenodd" clip-rule="evenodd" d="M9.49996 9C9.22384 9 9 9.22384 9 9.49996C9 9.77608 9.22384 9.99992 9.49996 9.99992C9.77608 9.99992 9.99992 9.77608 9.99992 9.49996C9.99992 9.22384 9.77608 9 9.49996 9ZM7.5 9.49996C7.5 8.39541 8.39541 7.5 9.49996 7.5C10.6045 7.5 11.4999 8.39541 11.4999 9.49996C11.4999 10.6045 10.6045 11.4999 9.49996 11.4999C8.39541 11.4999 7.5 10.6045 7.5 9.49996Z" fill="#7C4FFC"/>
<path fill-rule="evenodd" clip-rule="evenodd" d="M14.5009 14C14.2248 14 14.001 14.2238 14.001 14.5C14.001 14.7761 14.2248 14.9999 14.5009 14.9999C14.7771 14.9999 15.0009 14.7761 15.0009 14.5C15.0009 14.2238 14.7771 14 14.5009 14ZM12.501 14.5C12.501 13.3954 13.3964 12.5 14.5009 12.5C15.6055 12.5 16.5009 13.3954 16.5009 14.5C16.5009 15.6045 15.6055 16.4999 14.5009 16.4999C13.3964 16.4999 12.501 15.6045 12.501 14.5Z" fill="#7C4FFC"/>
<path fill-rule="evenodd" clip-rule="evenodd" d="M12 19.5C16.1421 19.5 19.5 16.1421 19.5 12C19.5 7.85786 16.1421 4.5 12 4.5C7.85786 4.5 4.5 7.85786 4.5 12C4.5 16.1421 7.85786 19.5 12 19.5ZM12 21C16.9706 21 21 16.9706 21 12C21 7.02944 16.9706 3 12 3C7.02944 3 3 7.02944 3 12C3 16.9706 7.02944 21 12 21Z" fill="#7C4FFC"/>
</svg>
