<svg width="16" height="16" viewBox="0 0 16 16" fill="none" xmlns="http://www.w3.org/2000/svg">
<path fill-rule="evenodd" clip-rule="evenodd" d="M2.3999 7.20708C2.3999 5.99205 3.38488 5.00708 4.5999 5.00708H8.89624C10.1113 5.00708 11.0962 5.99205 11.0962 7.20708V11.6373C11.0962 12.8523 10.1113 13.8373 8.89624 13.8373H4.5999C3.38488 13.8373 2.3999 12.8523 2.3999 11.6373V7.20708ZM4.5999 6.20708C4.04762 6.20708 3.5999 6.6548 3.5999 7.20708V11.6373C3.5999 12.1896 4.04762 12.6373 4.5999 12.6373H8.89624C9.44852 12.6373 9.89624 12.1896 9.89624 11.6373V7.20708C9.89624 6.6548 9.44852 6.20708 8.89624 6.20708H4.5999Z" fill="#727E91"/>
<path fill-rule="evenodd" clip-rule="evenodd" d="M4.90356 4.44657C4.90356 3.31629 5.81983 2.40002 6.95011 2.40002H10.9999C12.4358 2.40002 13.5999 3.56408 13.5999 5.00002V9.25394C13.5999 10.3454 12.7151 11.2302 11.6236 11.2302V10.0302C12.0523 10.0302 12.3999 9.68267 12.3999 9.25394V5.00002C12.3999 4.22683 11.7731 3.60002 10.9999 3.60002H6.95011C6.48258 3.60002 6.10356 3.97904 6.10356 4.44657H4.90356Z" fill="#727E91"/>
</svg>
