<svg width="24" height="24" viewBox="0 0 24 24" fill="none" xmlns="http://www.w3.org/2000/svg">
<path fill-rule="evenodd" clip-rule="evenodd" d="M4.5 10.838C4.5 9.21076 5.81916 7.8916 7.44644 7.8916H13.2005C14.8277 7.8916 16.1469 9.21077 16.1469 10.838V16.7714C16.1469 18.3986 14.8277 19.7178 13.2005 19.7178H7.44644C5.81916 19.7178 4.5 18.3986 4.5 16.7714V10.838ZM7.44644 9.49875C6.70677 9.49875 6.10715 10.0984 6.10715 10.838V16.7714C6.10715 17.511 6.70677 18.1106 7.44644 18.1106H13.2005C13.9401 18.1106 14.5398 17.511 14.5398 16.7714V10.838C14.5398 10.0984 13.9401 9.49875 13.2005 9.49875H7.44644Z" fill="white"/>
<path fill-rule="evenodd" clip-rule="evenodd" d="M7.85303 7.14094C7.85303 5.62717 9.08018 4.40002 10.5939 4.40002H16.0178C17.9409 4.40002 19.4999 5.95904 19.4999 7.88218V13.5794C19.4999 15.0412 18.3149 16.2262 16.8531 16.2262V14.6191C17.4273 14.6191 17.8928 14.1536 17.8928 13.5794V7.88218C17.8928 6.84664 17.0533 6.00717 16.0178 6.00717H10.5939C9.96778 6.00717 9.46017 6.51478 9.46017 7.14094H7.85303Z" fill="white"/>
</svg>
