<svg width="180" height="22" viewBox="0 0 180 22" fill="none" xmlns="http://www.w3.org/2000/svg">
<g clip-path="url(#clip0_349_6811)">
<path d="M14.2311 16.1587L14.3445 16.0312L12.6719 14.4153L12.5514 14.5429C12.0189 15.1169 11.3711 15.5721 10.6506 15.8787C9.93003 16.1852 9.15289 16.3362 8.36998 16.3217C7.32546 16.3366 6.29496 16.0802 5.37919 15.5776C4.49515 15.1072 3.75909 14.4006 3.25304 13.5365C2.76042 12.6434 2.50206 11.6401 2.50206 10.6201C2.50206 9.60016 2.76042 8.59684 3.25304 7.70374C3.75909 6.83963 4.49515 6.13301 5.37919 5.66263C6.29496 5.16005 7.32546 4.90366 8.36998 4.91849C9.15118 4.90222 9.92709 5.05026 10.6474 5.35304C11.3677 5.65583 12.0164 6.10658 12.5514 6.67609L12.6719 6.81075L14.3445 5.1878L14.2311 5.06022C13.5166 4.25839 12.6264 3.63261 11.6301 3.23174C10.5642 2.81671 9.42867 2.60982 8.28492 2.62225C6.8027 2.6012 5.33945 2.95725 4.03262 3.65697C2.80218 4.31518 1.77342 5.29495 1.05601 6.49184C0.354549 7.74446 -0.0137939 9.15611 -0.0137939 10.5918C-0.0137939 12.0274 0.354549 13.4391 1.05601 14.6917C1.76786 15.888 2.79196 16.868 4.01845 17.5266C5.17962 18.1332 6.45735 18.4837 7.7655 18.5546C9.07364 18.6255 10.3818 18.4151 11.6017 17.9376C12.6032 17.5545 13.5029 16.9457 14.2311 16.1587Z"/>
<path d="M30.5245 5.80441L34.7768 1.55211L33.2105 -0.00708008L28.9582 4.24522C28.6646 4.02875 28.3568 3.83224 28.0369 3.657C26.7236 2.97373 25.265 2.617 23.7846 2.617C22.3042 2.617 20.8456 2.97373 19.5323 3.657C18.2963 4.3293 17.2653 5.32358 16.5486 6.53439C15.8383 7.78023 15.4648 9.18959 15.4648 10.6237C15.4648 12.0578 15.8383 13.4671 16.5486 14.713C16.7902 15.1068 17.0653 15.479 17.3707 15.8257L13.5153 19.6811L15.0744 21.2474L19.0433 17.2715C19.2063 17.3778 19.3622 17.4912 19.5323 17.5833C20.8456 18.2666 22.3042 18.6233 23.7846 18.6233C25.265 18.6233 26.7236 18.2666 28.0369 17.5833C29.2703 16.9292 30.3 15.9485 31.0135 14.7484C31.715 13.4958 32.0833 12.0841 32.0833 10.6485C32.0833 9.21283 31.715 7.80118 31.0135 6.54855C30.8636 6.29213 30.7004 6.04375 30.5245 5.80441ZM28.7952 7.70377C29.2878 8.59686 29.5462 9.60018 29.5462 10.6201C29.5462 11.6401 29.2878 12.6434 28.7952 13.5365C28.3064 14.3914 27.5964 15.0988 26.7399 15.5847C25.8381 16.0733 24.8242 16.3176 23.7987 16.2934C22.7634 16.3072 21.7423 16.0507 20.8363 15.5493L20.7796 15.5138L28.7243 7.56911C28.7456 7.63998 28.7739 7.66833 28.7952 7.70377ZM19.1283 14.0822C18.9933 13.9128 18.8724 13.7327 18.7669 13.5436C18.2697 12.652 18.0088 11.6481 18.0088 10.6272C18.0088 9.60638 18.2697 8.60248 18.7669 7.71086C19.2551 6.85257 19.9714 6.14614 20.8363 5.66975C21.7425 5.1689 22.7634 4.91245 23.7987 4.92561C24.8276 4.90988 25.8423 5.16661 26.7399 5.66975C26.9074 5.76528 27.0684 5.87183 27.2218 5.98868L19.1283 14.0822Z"/>
<path d="M43.1396 10.3685C42.2148 10.0256 41.2676 9.74614 40.3048 9.53224C39.4259 9.32671 38.7243 9.13534 38.214 8.95816C37.7585 8.80953 37.3386 8.56823 36.9809 8.24944C36.8234 8.10411 36.6999 7.92593 36.6191 7.7275C36.5382 7.52908 36.5021 7.31529 36.5131 7.10132C36.5088 6.78437 36.5844 6.47146 36.7331 6.1915C36.8817 5.91154 37.0986 5.67359 37.3636 5.49963C38.1704 5.01149 39.1091 4.78612 40.0496 4.8547C41.502 4.8715 42.9208 5.2937 44.146 6.07369L44.3303 6.18709L45.1807 4.11053L45.0673 4.02549C44.3639 3.54921 43.5817 3.2013 42.7569 2.99786C41.8735 2.76386 40.9635 2.64476 40.0496 2.64351C38.9093 2.60792 37.7743 2.81317 36.7186 3.2459C35.8976 3.58507 35.1914 4.15341 34.6846 4.88303C34.2377 5.56747 34.0034 6.36895 34.0113 7.18636C33.9625 8.07294 34.2483 8.94554 34.8122 9.63145C35.3228 10.2224 35.9699 10.6798 36.6974 10.9638C37.6227 11.3053 38.5697 11.5847 39.5322 11.8001C40.4394 12.0127 41.1552 12.2112 41.6584 12.3813C42.105 12.531 42.5154 12.7724 42.8632 13.09C43.0171 13.2377 43.1378 13.4165 43.2172 13.6144C43.2966 13.8124 43.333 14.025 43.3239 14.2381C43.3293 14.553 43.2524 14.8638 43.1008 15.1398C42.9491 15.4157 42.728 15.6473 42.4593 15.8115C41.6228 16.2747 40.6704 16.4863 39.7165 16.4209C38.7794 16.4222 37.8491 16.2616 36.9667 15.9461C36.1673 15.6755 35.4283 15.2519 34.7909 14.6988L34.6138 14.5429L33.6499 16.5769L33.742 16.669C34.4953 17.3177 35.3767 17.8006 36.3289 18.0864C37.4213 18.4495 38.5653 18.6338 39.7165 18.6322C40.8626 18.6617 42.0029 18.4592 43.0687 18.0368C43.9017 17.7049 44.6188 17.1356 45.1311 16.3997C45.5912 15.7221 45.838 14.9224 45.8398 14.1035C45.8797 13.2289 45.5944 12.3705 45.039 11.6938C44.523 11.1042 43.8711 10.6493 43.1396 10.3685Z"/>
<path d="M63.1892 2.79944L56.9951 13.3806L50.7725 2.88448L50.7158 2.79944H48.6464V18.4479H51.0985V7.83133L56.3501 16.5911H57.562L62.8136 7.76755L62.8349 18.4479H65.287L65.2587 2.79944H63.1892Z"/>
<path d="M80.8363 3.65697C79.523 2.97371 78.0644 2.61697 76.584 2.61697C75.1036 2.61697 73.6449 2.97371 72.3316 3.65697C71.0956 4.32928 70.0646 5.32355 69.348 6.53436C68.6377 7.78021 68.2642 9.18956 68.2642 10.6237C68.2642 12.0577 68.6377 13.4671 69.348 14.713C70.0656 15.9212 71.0966 16.9129 72.3316 17.5833C73.6449 18.2665 75.1036 18.6233 76.584 18.6233C78.0644 18.6233 79.523 18.2665 80.8363 17.5833C82.0697 16.9292 83.0994 15.9485 83.8129 14.7484C84.519 13.4973 84.89 12.0851 84.89 10.6485C84.89 9.21187 84.519 7.79962 83.8129 6.54853C83.1056 5.32919 82.0756 4.32863 80.8363 3.65697ZM82.3458 10.6237C82.3574 11.6439 82.0982 12.6491 81.5946 13.5365C81.1058 14.3913 80.3958 15.0988 79.5393 15.5847C78.6327 16.071 77.6199 16.3256 76.591 16.3256C75.5622 16.3256 74.5494 16.071 73.6428 15.5847C72.7759 15.1084 72.0573 14.4021 71.5662 13.5436C71.0736 12.6505 70.8153 11.6471 70.8153 10.6272C70.8153 9.60725 71.0736 8.60393 71.5662 7.71084C72.0573 6.85228 72.7759 6.14596 73.6428 5.66973C74.5462 5.16823 75.565 4.9117 76.5981 4.92558C77.6271 4.90918 78.642 5.16595 79.5393 5.66973C80.3971 6.15082 81.1076 6.85644 81.5946 7.71084C82.0969 8.59877 82.3561 9.60352 82.3458 10.6237Z"/>
<path d="M95.9249 10.3685C94.9996 10.027 94.0525 9.74765 93.09 9.53224C92.2112 9.32671 91.5095 9.13534 90.9993 8.95816C90.5437 8.80953 90.1239 8.56823 89.7661 8.24944C89.6087 8.10411 89.4852 7.92593 89.4043 7.7275C89.3235 7.52908 89.2873 7.31529 89.2984 7.10132C89.294 6.78437 89.3697 6.47146 89.5183 6.1915C89.667 5.91154 89.8838 5.67359 90.1488 5.49963C90.9557 5.01149 91.8943 4.78612 92.8349 4.8547C93.5549 4.85622 94.2709 4.96124 94.961 5.16654C95.6722 5.37025 96.3501 5.67581 96.9738 6.07369L97.151 6.18709L98.0085 4.11053L97.888 4.02549C97.1864 3.55062 96.4067 3.20279 95.5847 2.99786C94.6989 2.76326 93.7866 2.64415 92.8703 2.64351C91.73 2.60792 90.5949 2.81317 89.5393 3.2459C88.7182 3.58507 88.0121 4.15341 87.5053 4.88303C87.0583 5.56747 86.8241 6.36895 86.832 7.18636C86.7832 8.07294 87.069 8.94554 87.6329 9.63145C88.1448 10.2209 88.7915 10.678 89.5181 10.9638C90.4434 11.3053 91.3904 11.5847 92.3529 11.8001C93.2601 12.0127 93.9759 12.2112 94.4791 12.3813C94.9257 12.531 95.3361 12.7724 95.6839 13.09C95.8378 13.2377 95.9584 13.4165 96.0379 13.6144C96.1173 13.8124 96.1537 14.025 96.1446 14.2381C96.15 14.553 96.0731 14.8638 95.9214 15.1398C95.7698 15.4157 95.5486 15.6473 95.2799 15.8115C94.4435 16.2747 93.4911 16.4863 92.5372 16.4209C91.6023 16.4228 90.6743 16.2622 89.7945 15.9461C88.9923 15.6771 88.2507 15.2533 87.6116 14.6988L87.4344 14.5429L86.4706 16.5769L86.5627 16.669C87.316 17.3177 88.1974 17.8006 89.1495 18.0864C90.242 18.4495 91.386 18.6338 92.5372 18.6322C93.6833 18.6617 94.8236 18.4592 95.8894 18.0368C96.7231 17.7028 97.442 17.1341 97.9589 16.3997C98.4194 15.7223 98.6662 14.9225 98.6676 14.1035C98.7095 13.2298 98.4267 12.3715 97.8738 11.6938C97.3401 11.1019 96.6716 10.6473 95.9249 10.3685Z"/>
<path d="M112.034 2.79944H99.022V5.05316H104.266V18.4479H106.79V5.05316H112.034V2.79944Z"/>
<path d="M117.966 2.79236L110.879 18.4692H113.522L115.202 14.6421H123.104L124.784 18.4692H127.47L120.383 2.81362L117.966 2.79236ZM122.183 12.523H116.123L119.15 5.64139L122.183 12.523Z"/>
<path d="M126.322 5.05316H131.566V18.4479H134.082V5.05316H139.327V2.79944H126.322V5.05316Z"/>
<path d="M143.891 2.79944H141.354V18.455H143.891V2.79944Z"/>
<path d="M159.447 3.65697C158.134 2.97371 156.675 2.61697 155.195 2.61697C153.715 2.61697 152.256 2.97371 150.943 3.65697C149.704 4.32825 148.67 5.32261 147.952 6.53436C147.242 7.78021 146.868 9.18956 146.868 10.6237C146.868 12.0577 147.242 13.4671 147.952 14.713C148.671 15.9221 149.705 16.9139 150.943 17.5833C152.255 18.27 153.714 18.6287 155.195 18.6287C156.676 18.6287 158.135 18.27 159.447 17.5833C160.681 16.9292 161.71 15.9484 162.424 14.7484C163.13 13.4973 163.501 12.0851 163.501 10.6485C163.501 9.21187 163.13 7.79962 162.424 6.54853C161.717 5.32919 160.687 4.32863 159.447 3.65697ZM160.957 10.6237C160.963 11.6344 160.704 12.6291 160.206 13.5081C159.719 14.3625 159.008 15.0681 158.15 15.5492C157.244 16.0356 156.231 16.2901 155.202 16.2901C154.173 16.2901 153.16 16.0356 152.254 15.5492C151.387 15.073 150.668 14.3667 150.177 13.5081C149.685 12.615 149.426 11.6117 149.426 10.5918C149.426 9.57182 149.685 8.56848 150.177 7.67539C150.668 6.81683 151.387 6.11053 152.254 5.6343C153.159 5.13191 154.181 4.87534 155.216 4.89013C156.243 4.87431 157.255 5.1311 158.15 5.6343C159.008 6.11539 159.719 6.82099 160.206 7.67539C160.714 8.57373 160.973 9.59154 160.957 10.6237Z"/>
<path d="M177.456 2.79944V13.8767L168.597 2.86322L168.54 2.79944H166.485V18.4479H169.029V7.37067L177.888 18.3841L177.945 18.4479H180V2.79944H177.456Z"/>
</g>
<defs>
<clipPath id="clip0_349_6811">
<rect width="180" height="21.2473"/>
</clipPath>
</defs>
</svg>
