<svg width="112" height="14" viewBox="0 0 112 14" fill="none" xmlns="http://www.w3.org/2000/svg">
<g clip-path="url(#clip0_421_2229)">
<path d="M8.85486 10.4544L8.92542 10.375L7.8847 9.36957L7.80974 9.44894C7.47838 9.80615 7.07535 10.0894 6.62701 10.2801C6.17866 10.4708 5.69511 10.5648 5.20796 10.5558C4.55804 10.565 3.91684 10.4055 3.34703 10.0928C2.79696 9.8001 2.33897 9.36043 2.02409 8.82276C1.71757 8.26705 1.55681 7.64275 1.55681 7.00812C1.55681 6.37349 1.71757 5.7492 2.02409 5.19349C2.33897 4.65582 2.79696 4.21615 3.34703 3.92347C3.91684 3.61075 4.55804 3.45122 5.20796 3.46045C5.69405 3.45032 6.17683 3.54244 6.62504 3.73084C7.07324 3.91923 7.47686 4.1997 7.80974 4.55407L7.8847 4.63785L8.92542 3.62802L8.85486 3.54863C8.4103 3.04972 7.85641 2.66034 7.23646 2.41091C6.57326 2.15267 5.86671 2.02394 5.15504 2.03168C4.23277 2.01858 3.3223 2.24012 2.50916 2.6755C1.74356 3.08506 1.10344 3.69469 0.657049 4.43942C0.220585 5.21883 -0.00860596 6.09719 -0.00860596 6.99049C-0.00860596 7.88379 0.220585 8.76215 0.657049 9.54156C1.09998 10.2859 1.7372 10.8957 2.50035 11.3055C3.22285 11.6829 4.01788 11.901 4.83184 11.9452C5.6458 11.9893 6.45976 11.8584 7.21883 11.5612C7.84194 11.3228 8.40175 10.9441 8.85486 10.4544V10.4544Z"/>
<path d="M18.993 4.01167L21.6389 1.36579L20.6643 0.39563L18.0184 3.04151C17.8357 2.90681 17.6442 2.78454 17.4452 2.6755C16.628 2.25036 15.7204 2.02839 14.7993 2.02839C13.8781 2.02839 12.9706 2.25036 12.1534 2.6755C11.3843 3.09382 10.7428 3.71248 10.2969 4.46588C9.85493 5.24107 9.62251 6.118 9.62251 7.01032C9.62251 7.90265 9.85493 8.77959 10.2969 9.55478C10.4472 9.7998 10.6184 10.0314 10.8084 10.2471L8.40948 12.646L9.37964 13.6206L11.8491 11.1467C11.9506 11.2129 12.0476 11.2834 12.1534 11.3407C12.9706 11.7659 13.8781 11.9879 14.7993 11.9879C15.7204 11.9879 16.628 11.7659 17.4452 11.3407C18.2126 10.9338 18.8534 10.3235 19.2973 9.57683C19.7337 8.79742 19.9629 7.91906 19.9629 7.02576C19.9629 6.13246 19.7337 5.2541 19.2973 4.47469C19.204 4.31514 19.1024 4.16059 18.993 4.01167V4.01167ZM17.917 5.19349C18.2235 5.74919 18.3843 6.37348 18.3843 7.00812C18.3843 7.64275 18.2235 8.26705 17.917 8.82276C17.6128 9.35465 17.1711 9.79486 16.6382 10.0972C16.077 10.4012 15.4461 10.5532 14.8081 10.5382C14.1639 10.5468 13.5285 10.3872 12.9648 10.0751L12.9295 10.0531L17.8729 5.1097C17.8861 5.1538 17.9038 5.17144 17.917 5.19349ZM11.902 9.16231C11.8181 9.05692 11.7428 8.94482 11.6771 8.82716C11.3678 8.27237 11.2054 7.64773 11.2054 7.01253C11.2054 6.37734 11.3678 5.75269 11.6771 5.1979C11.981 4.66386 12.4266 4.2243 12.9648 3.92788C13.5287 3.61624 14.1639 3.45667 14.8081 3.46486C15.4483 3.45507 16.0797 3.61481 16.6382 3.92788C16.7424 3.98732 16.8426 4.05362 16.938 4.12633L11.902 9.16231Z"/>
<path d="M26.8425 6.85155C26.267 6.63815 25.6777 6.4643 25.0785 6.3312C24.5317 6.20331 24.0952 6.08424 23.7777 5.97399C23.4942 5.88151 23.233 5.73137 23.0103 5.53301C22.9124 5.44259 22.8355 5.33172 22.7852 5.20825C22.7349 5.08479 22.7124 4.95177 22.7193 4.81863C22.7166 4.62142 22.7637 4.42672 22.8562 4.25252C22.9487 4.07832 23.0836 3.93026 23.2485 3.82202C23.7505 3.51829 24.3346 3.37806 24.9198 3.42073C25.8235 3.43118 26.7063 3.69388 27.4687 4.17922L27.5833 4.24977L28.1125 2.95769L28.0419 2.90478C27.6042 2.60843 27.1175 2.39195 26.6043 2.26537C26.0546 2.11977 25.4884 2.04566 24.9198 2.04488C24.2103 2.02274 23.504 2.15045 22.8472 2.4197C22.3363 2.63074 21.8969 2.98437 21.5816 3.43836C21.3035 3.86424 21.1577 4.36293 21.1626 4.87154C21.1323 5.42319 21.3101 5.96614 21.661 6.39293C21.9787 6.76062 22.3813 7.04521 22.834 7.22197C23.4097 7.43446 23.999 7.60829 24.5979 7.74233C25.1623 7.87462 25.6077 7.9981 25.9208 8.10393C26.1987 8.19709 26.454 8.3473 26.6705 8.54491C26.7662 8.63682 26.8413 8.74806 26.8907 8.87123C26.9402 8.99441 26.9628 9.1267 26.9571 9.2593C26.9605 9.4552 26.9126 9.6486 26.8183 9.82032C26.7239 9.99203 26.5863 10.1361 26.4191 10.2383C25.8987 10.5265 25.3061 10.6582 24.7125 10.6175C24.1294 10.6183 23.5506 10.5183 23.0015 10.3221C22.5041 10.1537 22.0443 9.89008 21.6477 9.54593L21.5375 9.44891L20.9377 10.7145L20.9951 10.7719C21.4638 11.1755 22.0122 11.476 22.6046 11.6538C23.2844 11.8797 23.9962 11.9944 24.7125 11.9934C25.4257 12.0118 26.1352 11.8858 26.7984 11.623C27.3166 11.4164 27.7628 11.0622 28.0816 10.6043C28.3679 10.1827 28.5215 9.6851 28.5226 9.17551C28.5474 8.63134 28.3699 8.09724 28.0243 7.67618C27.7032 7.30932 27.2976 7.02628 26.8425 6.85155V6.85155Z"/>
<path d="M39.3178 2.14191L35.4636 8.72573L31.5918 2.19482L31.5565 2.14191H30.2689V11.8787H31.7946V5.27286L35.0623 10.7234H35.8164L39.084 5.23317L39.0973 11.8787H40.6231L40.6054 2.14191H39.3178Z"/>
<path d="M50.2981 2.67549C49.4809 2.25035 48.5734 2.02838 47.6522 2.02838C46.7311 2.02838 45.8235 2.25035 45.0063 2.67549C44.2373 3.09381 43.5958 3.71248 43.1498 4.46587C42.7079 5.24106 42.4755 6.11799 42.4755 7.01032C42.4755 7.90264 42.7079 8.77958 43.1498 9.55478C43.5964 10.3065 44.2378 10.9236 45.0063 11.3407C45.8235 11.7659 46.7311 11.9878 47.6522 11.9878C48.5734 11.9878 49.4809 11.7659 50.2981 11.3407C51.0656 10.9337 51.7063 10.3235 52.1502 9.57682C52.5896 8.79836 52.8204 7.91963 52.8204 7.02575C52.8204 6.13187 52.5896 5.25314 52.1502 4.47468C51.7101 3.71598 51.0692 3.09341 50.2981 2.67549ZM51.2374 7.01032C51.2446 7.64516 51.0833 8.27058 50.77 8.82275C50.4658 9.35465 50.0241 9.79485 49.4911 10.0972C48.927 10.3998 48.2968 10.5582 47.6566 10.5582C47.0165 10.5582 46.3863 10.3998 45.8222 10.0972C45.2828 9.80085 44.8357 9.36136 44.5301 8.82715C44.2236 8.27144 44.0628 7.64716 44.0628 7.01252C44.0628 6.37789 44.2236 5.7536 44.5301 5.1979C44.8357 4.66368 45.2828 4.2242 45.8222 3.92787C46.3843 3.61583 47.0182 3.45621 47.6611 3.46485C48.3013 3.45464 48.9328 3.61441 49.4911 3.92787C50.0248 4.22722 50.4669 4.66627 50.77 5.1979C51.0825 5.75039 51.2438 6.37557 51.2374 7.01032V7.01032Z"/>
<path d="M59.6866 6.85155C59.1109 6.63907 58.5216 6.46523 57.9227 6.3312C57.3759 6.20331 56.9393 6.08424 56.6218 5.97399C56.3384 5.88151 56.0771 5.73137 55.8545 5.53301C55.7565 5.44259 55.6797 5.33172 55.6294 5.20825C55.5791 5.08479 55.5566 4.95177 55.5635 4.81863C55.5608 4.62142 55.6078 4.42672 55.7003 4.25252C55.7928 4.07832 55.9278 3.93026 56.0926 3.82202C56.5947 3.51829 57.1787 3.37806 57.764 3.42073C58.212 3.42168 58.6575 3.48702 59.0869 3.61476C59.5294 3.74152 59.9512 3.93164 60.3393 4.17922L60.4495 4.24977L60.9831 2.95769L60.9081 2.90478C60.4716 2.6093 59.9865 2.39288 59.4749 2.26537C58.9238 2.11939 58.3561 2.04528 57.786 2.04488C57.0765 2.02274 56.3702 2.15045 55.7134 2.4197C55.2025 2.63074 54.7631 2.98437 54.4478 3.43836C54.1697 3.86424 54.0239 4.36293 54.0289 4.87154C53.9985 5.42319 54.1763 5.96614 54.5272 6.39293C54.8457 6.7597 55.2481 7.04412 55.7002 7.22197C56.2759 7.43446 56.8652 7.60829 57.4641 7.74233C58.0285 7.87462 58.4739 7.9981 58.787 8.10393C59.0649 8.19709 59.3203 8.3473 59.5367 8.54491C59.6324 8.63682 59.7075 8.74806 59.7569 8.87123C59.8064 8.99441 59.829 9.1267 59.8233 9.2593C59.8267 9.4552 59.7788 9.6486 59.6845 9.82032C59.5901 9.99203 59.4525 10.1361 59.2853 10.2383C58.7649 10.5265 58.1723 10.6582 57.5787 10.6175C56.9971 10.6187 56.4196 10.5187 55.8722 10.3221C55.373 10.1546 54.9116 9.89095 54.5139 9.54593L54.4037 9.44891L53.804 10.7145L53.8613 10.7719C54.33 11.1755 54.8784 11.476 55.4709 11.6538C56.1506 11.8797 56.8624 11.9944 57.5787 11.9934C58.2919 12.0118 59.0014 11.8858 59.6646 11.623C60.1833 11.4151 60.6306 11.0612 60.9522 10.6043C61.2388 10.1828 61.3924 9.68514 61.3932 9.17551C61.4193 8.63191 61.2433 8.09788 60.8993 7.67618C60.5672 7.30788 60.1512 7.02502 59.6866 6.85155V6.85155Z"/>
<path d="M69.71 2.14191H61.6136V3.54422H64.8769V11.8787H66.4468V3.54422H69.71V2.14191Z"/>
<path d="M73.4011 2.13751L68.9913 11.892H70.6361L71.6813 9.51069H76.5982L77.6433 11.892H79.3146L74.9048 2.15074L73.4011 2.13751ZM76.0249 8.19215H72.2545L74.1375 3.91025L76.0249 8.19215Z"/>
<path d="M78.6002 3.54422H81.8635V11.8787H83.4289V3.54422H86.6922V2.14191H78.6002V3.54422Z"/>
<path d="M89.5321 2.14191H87.9534V11.8831H89.5321V2.14191Z"/>
<path d="M99.2116 2.67549C98.3944 2.25035 97.4869 2.02838 96.5657 2.02838C95.6446 2.02838 94.737 2.25035 93.9198 2.67549C93.1491 3.09317 92.506 3.71189 92.0589 4.46587C91.6169 5.24106 91.3845 6.11799 91.3845 7.01031C91.3845 7.90264 91.6169 8.77958 92.0589 9.55477C92.5067 10.3071 93.1497 10.9243 93.9198 11.3407C94.7363 11.768 95.6442 11.9912 96.5657 11.9912C97.4873 11.9912 98.3951 11.768 99.2116 11.3407C99.979 10.9337 100.62 10.3235 101.064 9.57682C101.503 8.79836 101.734 7.91963 101.734 7.02575C101.734 6.13187 101.503 5.25314 101.064 4.47468C100.624 3.71598 99.9827 3.09341 99.2116 2.67549V2.67549ZM100.151 7.01031C100.155 7.63919 99.9938 8.25812 99.6834 8.8051C99.3804 9.33673 98.9383 9.77578 98.4046 10.0751V10.0751C97.8405 10.3777 97.2103 10.5361 96.5701 10.5361C95.93 10.5361 95.2998 10.3777 94.7356 10.0751C94.1963 9.7788 93.7491 9.33932 93.4436 8.8051C93.1371 8.2494 92.9763 7.62511 92.9763 6.99048C92.9763 6.35584 93.1371 5.73154 93.4436 5.17584C93.7491 4.64162 94.1963 4.20215 94.7356 3.90583C95.2991 3.59323 95.9346 3.43359 96.5789 3.44279C97.2177 3.43294 97.8477 3.59273 98.4046 3.90583C98.9383 4.20517 99.3804 4.64422 99.6834 5.17584C99.9998 5.73481 100.161 6.36811 100.151 7.01031V7.01031Z"/>
<path d="M110.417 2.14191V9.03442L104.905 2.18159L104.869 2.14191H103.591V11.8787H105.174V4.98623L110.686 11.8391L110.721 11.8787H112V2.14191H110.417Z"/>
</g>
<defs>
<clipPath id="clip0_421_2229">
<rect width="112" height="13.2206" transform="translate(0 0.400024)"/>
</clipPath>
</defs>
</svg>
