<svg width="28" height="28" viewBox="0 0 28 28" fill="none" xmlns="http://www.w3.org/2000/svg">
<path fill-rule="evenodd" clip-rule="evenodd" d="M12.557 5.8832C10.9476 5.8832 9.64297 7.18785 9.64297 8.7972C9.64297 10.4066 10.9476 11.7112 12.557 11.7112C14.1663 11.7112 15.471 10.4066 15.471 8.7972C15.471 7.18785 14.1663 5.8832 12.557 5.8832ZM8.04297 8.7972C8.04297 6.30419 10.064 4.2832 12.557 4.2832C15.05 4.2832 17.071 6.30419 17.071 8.7972C17.071 11.2902 15.05 13.3112 12.557 13.3112C10.064 13.3112 8.04297 11.2902 8.04297 8.7972Z" fill="#7C4FFC"/>
<path fill-rule="evenodd" clip-rule="evenodd" d="M13.2548 14.6346C11.9543 14.5049 10.6434 14.7418 9.4707 15.3186C8.29793 15.8954 7.31 16.789 6.61888 17.8983C6.06967 18.7798 5.72523 19.7695 5.60646 20.7946H15.54C15.9818 20.7946 16.34 21.1528 16.34 21.5946C16.34 22.0364 15.9818 22.3946 15.54 22.3946H4.75996C4.54769 22.3946 4.34412 22.3103 4.19408 22.1601C4.04403 22.0099 3.95981 21.8063 3.95996 21.5941C3.96109 19.9884 4.41181 18.415 5.2609 17.0522C6.11001 15.6894 7.32374 14.5915 8.76455 13.8828C10.2054 13.1742 11.8159 12.8831 13.4136 13.0425C15.0113 13.2018 16.5325 13.8054 17.805 14.7846C18.1551 15.054 18.2205 15.5563 17.9511 15.9065C17.6816 16.2566 17.1793 16.322 16.8292 16.0526C15.7934 15.2555 14.5552 14.7643 13.2548 14.6346Z" fill="#7C4FFC"/>
<path fill-rule="evenodd" clip-rule="evenodd" d="M22.0399 14.917L22.0399 22.917L20.4399 22.917L20.4399 14.917L22.0399 14.917Z" fill="#7C4FFC"/>
<path fill-rule="evenodd" clip-rule="evenodd" d="M17.2402 18.1168L25.2402 18.1168L25.2402 19.7168L17.2402 19.7168L17.2402 18.1168Z" fill="#7C4FFC"/>
</svg>
