<svg width="24" height="24" viewBox="0 0 24 24" fill="none" xmlns="http://www.w3.org/2000/svg">
<path fill-rule="evenodd" clip-rule="evenodd" d="M12 18.4C15.5346 18.4 18.4 15.5346 18.4 12C18.4 8.46538 15.5346 5.6 12 5.6C8.46538 5.6 5.6 8.46538 5.6 12C5.6 15.5346 8.46538 18.4 12 18.4ZM12 20C16.4183 20 20 16.4183 20 12C20 7.58172 16.4183 4 12 4C7.58172 4 4 7.58172 4 12C4 16.4183 7.58172 20 12 20Z"/>
<path fill-rule="evenodd" clip-rule="evenodd" d="M12.3893 7.69452H11.3983V8.4809L11.3358 8.48085L11.3323 8.48094C10.7874 8.49394 10.2693 8.71956 9.8885 9.10953C9.50773 9.4995 9.29456 10.0229 9.29456 10.5679C9.29456 11.113 9.50773 11.6364 9.8885 12.0264C10.206 12.3515 10.6189 12.5624 11.0632 12.631H11.1719L12.4584 12.656C12.7489 12.656 13.0276 12.7715 13.2331 12.9769C13.4385 13.1824 13.5539 13.461 13.5539 13.7515C13.5539 14.0421 13.4385 14.3207 13.2331 14.5262C13.0276 14.7316 12.749 14.847 12.4584 14.847H9.62317V15.838H11.3983V16.6432H12.3893V15.8392H12.4584C13.0119 15.8392 13.5428 15.6192 13.9342 15.2278C14.3256 14.8364 14.5455 14.3056 14.5455 13.7521C14.5455 13.1985 14.3256 12.6677 13.9342 12.2764C13.6076 11.9498 13.184 11.7426 12.731 11.6829L12.5273 11.6629H11.3358C11.0452 11.6629 10.7666 11.5475 10.5612 11.342C10.3557 11.1366 10.2403 10.8579 10.2403 10.5674C10.2403 10.2768 10.3557 9.99819 10.5612 9.79275C10.7666 9.58731 11.0452 9.4719 11.3358 9.4719H14.2286V8.4809H12.3893V7.69452Z"/>
<path fill-rule="evenodd" clip-rule="evenodd" d="M11.1483 7.44452H12.6393V8.2309H14.4786V9.7219H11.3358C11.1115 9.7219 10.8965 9.81097 10.738 9.96952C10.5794 10.1281 10.4903 10.3431 10.4903 10.5674C10.4903 10.7917 10.5794 11.0067 10.738 11.1653C10.8965 11.3238 11.1115 11.4129 11.3358 11.4129H12.5396L12.7637 11.4349C13.2709 11.5017 13.7453 11.7339 14.111 12.0996C14.5492 12.5378 14.7955 13.1322 14.7955 13.7521C14.7955 14.3719 14.5492 14.9663 14.111 15.4046C13.7155 15.8 13.193 16.0392 12.6393 16.0822V16.8932H11.1483V16.088H9.37317V14.597H12.4584C12.6827 14.597 12.8977 14.5079 13.0563 14.3494C13.2148 14.1908 13.3039 13.9758 13.3039 13.7515C13.3039 13.5273 13.2148 13.3123 13.0563 13.1537C12.8977 12.9951 12.6826 12.906 12.4584 12.906H12.4535L11.1694 12.881H11.044L11.025 12.8781C10.5275 12.8012 10.0651 12.5651 9.70963 12.2011C9.28325 11.7644 9.04456 11.1782 9.04456 10.5679C9.04456 9.95761 9.28326 9.37154 9.70963 8.93488C10.0943 8.54092 10.6042 8.29674 11.1483 8.24206V7.44452ZM11.3383 8.73087C10.8587 8.74231 10.4026 8.94091 10.0674 9.28419C9.7322 9.62746 9.54456 10.0882 9.54456 10.5679C9.54456 11.0477 9.7322 11.5085 10.0674 11.8518C10.3424 12.1334 10.6989 12.3177 11.083 12.381H11.1767L12.461 12.406C12.8169 12.4067 13.1581 12.5484 13.4098 12.8002C13.6622 13.0525 13.8039 13.3947 13.8039 13.7515C13.8039 14.1084 13.6622 14.4506 13.4098 14.7029C13.1575 14.9553 12.8152 15.097 12.4584 15.097H9.87317V15.588H11.6483V16.3932H12.1393V15.5892H12.4584C12.9456 15.5892 13.4129 15.3956 13.7574 15.0511C14.1019 14.7065 14.2955 14.2393 14.2955 13.7521C14.2955 13.2649 14.1019 12.7976 13.7574 12.4531C13.4709 12.1666 13.0995 11.9845 12.7024 11.9313L12.5151 11.9129H11.3358C10.979 11.9129 10.6367 11.7711 10.3844 11.5188C10.1321 11.2665 9.99033 10.9242 9.99033 10.5674C9.99033 10.2106 10.1321 9.8683 10.3844 9.61597C10.6367 9.36364 10.979 9.2219 11.3358 9.2219H13.9786V8.7309H12.1393V7.94452H11.6483V8.73106L11.3383 8.73087Z"/>
</svg>
