<svg width="24" height="24" viewBox="0 0 24 24" fill="none" xmlns="http://www.w3.org/2000/svg">
<path fill-rule="evenodd" clip-rule="evenodd" d="M12 18.4C15.5346 18.4 18.4 15.5346 18.4 12C18.4 8.46538 15.5346 5.6 12 5.6C8.46538 5.6 5.6 8.46538 5.6 12C5.6 15.5346 8.46538 18.4 12 18.4ZM12 20C16.4183 20 20 16.4183 20 12C20 7.58172 16.4183 4 12 4C7.58172 4 4 7.58172 4 12C4 16.4183 7.58172 20 12 20ZM12.6392 7.44458H11.1482V8.24212C10.6041 8.2968 10.0942 8.54098 9.70951 8.93494C9.28314 9.3716 9.04443 9.95767 9.04443 10.568C9.04443 11.1783 9.28313 11.7644 9.70951 12.2011C10.065 12.5652 10.5274 12.8013 11.0249 12.8782L11.0439 12.8811H11.1693L12.4534 12.9061H12.4583C12.6825 12.9061 12.8976 12.9952 13.0562 13.1538C13.2147 13.3123 13.3038 13.5273 13.3038 13.7516C13.3038 13.9758 13.2147 14.1909 13.0562 14.3495C12.8976 14.508 12.6825 14.5971 12.4583 14.5971H9.37305V16.0881H11.1482V16.8933H12.6392V16.0822C13.1929 16.0392 13.7154 15.8001 14.1108 15.4047C14.5491 14.9664 14.7954 14.372 14.7954 13.7521C14.7954 13.1323 14.5491 12.5379 14.1108 12.0996C13.7451 11.734 13.2708 11.5018 12.7636 11.435L12.5395 11.413H11.3357C11.1114 11.413 10.8964 11.3239 10.7378 11.1653C10.5793 11.0068 10.4902 10.7917 10.4902 10.5675C10.4902 10.3432 10.5793 10.1281 10.7378 9.96959C10.8964 9.81103 11.1114 9.72196 11.3357 9.72196H14.4785V8.23096H12.6392V7.44458Z" fill="black"/>
</svg>
