<svg width="24" height="24" viewBox="0 0 24 24" fill="none" xmlns="http://www.w3.org/2000/svg">
<path fill-rule="evenodd" clip-rule="evenodd" d="M5 5.08C5.58242 5.41699 6.11836 5.82464 6.59593 6.2913C8.07972 7.74121 9 9.76072 9 12C9 14.2393 8.07972 16.2588 6.59593 17.7087C6.11836 18.1754 5.58242 18.583 5 18.92C5.61755 19.2771 6.28805 19.557 6.99643 19.7422C7.63702 19.9098 8.30859 20 9 20C13.416 20 17 16.416 17 12C17 7.584 13.416 4 9 4C8.30859 4 7.63702 4.0902 6.99643 4.25775C6.28805 4.44304 5.61755 4.72291 5 5.08ZM8.5946 5.81343C9.97188 7.49744 10.8 9.64917 10.8 12C10.8 14.3508 9.97188 16.5026 8.5946 18.1866C8.7287 18.1955 8.86388 18.2 9 18.2C12.4219 18.2 15.2 15.4219 15.2 12C15.2 8.57811 12.4219 5.8 9 5.8C8.86388 5.8 8.7287 5.80453 8.5946 5.81343Z" fill="black"/>
</svg>
