<svg width="24" height="24" viewBox="0 0 24 24" fill="none" xmlns="http://www.w3.org/2000/svg">
<path fill-rule="evenodd" clip-rule="evenodd" d="M3.40002 5.1999C3.40002 4.20579 4.20591 3.3999 5.20002 3.3999H9.47464C10.4687 3.3999 11.2746 4.20579 11.2746 5.1999V9.47451C11.2746 10.4686 10.4687 11.2745 9.47464 11.2745H5.20002C4.20591 11.2745 3.40002 10.4686 3.40002 9.47451V5.1999ZM5.20002 4.9999C5.08957 4.9999 5.00002 5.08945 5.00002 5.1999V9.47451C5.00002 9.58497 5.08957 9.67451 5.20002 9.67451H9.47464C9.58509 9.67451 9.67464 9.58497 9.67464 9.47451V5.1999C9.67464 5.08945 9.58509 4.9999 9.47464 4.9999H5.20002Z"/>
<path fill-rule="evenodd" clip-rule="evenodd" d="M3.40002 14.6118C3.40002 13.6177 4.20591 12.8118 5.20002 12.8118H9.47464C10.4687 12.8118 11.2746 13.6177 11.2746 14.6118V18.8864C11.2746 19.8805 10.4687 20.6864 9.47464 20.6864H5.20002C4.20591 20.6864 3.40002 19.8805 3.40002 18.8864V14.6118ZM5.20002 14.4118C5.08957 14.4118 5.00002 14.5013 5.00002 14.6118V18.8864C5.00002 18.9968 5.08957 19.0864 5.20002 19.0864H9.47464C9.58509 19.0864 9.67464 18.9968 9.67464 18.8864V14.6118C9.67464 14.5013 9.58509 14.4118 9.47464 14.4118H5.20002Z"/>
<path fill-rule="evenodd" clip-rule="evenodd" d="M12.8118 5.1999C12.8118 4.20579 13.6177 3.3999 14.6118 3.3999H18.8864C19.8806 3.3999 20.6864 4.20579 20.6864 5.1999V9.47451C20.6864 10.4686 19.8806 11.2745 18.8864 11.2745H14.6118C13.6177 11.2745 12.8118 10.4686 12.8118 9.47451V5.1999ZM14.6118 4.9999C14.5014 4.9999 14.4118 5.08945 14.4118 5.1999V9.47451C14.4118 9.58497 14.5014 9.67451 14.6118 9.67451H18.8864C18.9969 9.67451 19.0864 9.58497 19.0864 9.47451V5.1999C19.0864 5.08945 18.9969 4.9999 18.8864 4.9999H14.6118Z"/>
<path fill-rule="evenodd" clip-rule="evenodd" d="M12.6025 16.8013C12.6025 14.4824 14.4824 12.6025 16.8013 12.6025C19.1202 12.6025 21 14.4824 21 16.8013C21 19.1202 19.1202 21 16.8013 21C14.4824 21 12.6025 19.1202 12.6025 16.8013ZM16.8013 14.2025C15.366 14.2025 14.2025 15.366 14.2025 16.8013C14.2025 18.2365 15.366 19.4 16.8013 19.4C18.2365 19.4 19.4 18.2365 19.4 16.8013C19.4 15.366 18.2365 14.2025 16.8013 14.2025Z"/>
</svg>
