<svg width="16" height="16" viewBox="0 0 16 16" fill="none" xmlns="http://www.w3.org/2000/svg">
<path d="M6.99988 3L6.49988 3.5H3.99988V4.5H4.49988V12C4.49988 12.2611 4.59554 12.5273 4.78406 12.7158C4.97257 12.9043 5.23877 13 5.49988 13H10.4999C10.761 13 11.0272 12.9043 11.2157 12.7158C11.4042 12.5273 11.4999 12.2611 11.4999 12V4.5H11.9999V3.5H9.49988L8.99988 3H6.99988ZM5.49988 4.5H10.4999V12H5.49988V4.5ZM6.49988 5.5V11H7.49988V5.5H6.49988ZM8.49988 5.5V11H9.49988V5.5H8.49988Z" fill="#727E91"/>
</svg>
