<svg width="80" height="80" viewBox="0 0 80 80" fill="none" xmlns="http://www.w3.org/2000/svg">
<path d="M40.0006 73.333C58.3707 73.333 73.334 58.3697 73.334 39.9997C73.334 21.6297 58.3707 6.66634 40.0006 6.66634C21.6306 6.66634 6.66731 21.6297 6.66731 39.9997C6.66731 58.3697 21.6306 73.333 40.0006 73.333ZM40.0006 66.6663C25.2336 66.6663 13.334 54.7667 13.334 39.9997C13.334 25.2326 25.2336 13.333 40.0006 13.333C54.7677 13.333 66.6673 25.2326 66.6673 39.9997C66.6673 54.7667 54.7677 66.6663 40.0006 66.6663ZM43.334 56.6663V49.9997H36.6673V56.6663H43.334ZM43.334 43.333L43.334 23.333H36.6673V43.333H43.334Z" fill="#CD1A1A"/>
</svg>
