<svg width="24" height="24" viewBox="0 0 24 24" fill="none" xmlns="http://www.w3.org/2000/svg">
<path fill-rule="evenodd" clip-rule="evenodd" d="M9.39251 19.5715C9.7321 19.5715 10.0074 19.2962 10.0074 18.9566C10.0074 18.617 9.7321 18.3417 9.39251 18.3417L6.52908 18.3417L9.96317 14.9076C10.1283 14.7426 10.0674 14.4141 9.8273 14.1739C9.58717 13.9338 9.25868 13.873 9.0936 14.0381L5.65951 17.4722L5.65951 14.6087C5.65951 14.2691 5.38422 13.9938 5.04463 13.9938C4.70503 13.9938 4.42974 14.2691 4.42974 14.6087L4.42974 18.9566C4.42974 19.2962 4.70503 19.5715 5.04462 19.5715L9.39251 19.5715Z" fill="black"/>
<path d="M10.0074 18.9566L9.8574 18.9566L9.8574 18.9566L10.0074 18.9566ZM9.39251 19.5715L9.39251 19.7215L9.39251 19.7215L9.39251 19.5715ZM9.39251 18.3417L9.39251 18.4917L9.39251 18.4917L9.39251 18.3417ZM6.52908 18.3417L6.42302 18.2357C6.38012 18.2786 6.36729 18.3431 6.3905 18.3991C6.41372 18.4552 6.46841 18.4917 6.52908 18.4917L6.52908 18.3417ZM5.65951 17.4722L5.50951 17.4722C5.50951 17.5328 5.54606 17.5875 5.60211 17.6107C5.65816 17.6339 5.72268 17.6211 5.76557 17.5782L5.65951 17.4722ZM5.65951 14.6087L5.50951 14.6087L5.65951 14.6087ZM5.04463 13.9938L5.04462 14.1438L5.04463 14.1438L5.04463 13.9938ZM4.42974 14.6087L4.57974 14.6087L4.57974 14.6087L4.42974 14.6087ZM4.42974 18.9566L4.27974 18.9566L4.42974 18.9566ZM5.04462 19.5715L5.04462 19.4215L5.04462 19.4215L5.04462 19.5715ZM9.8574 18.9566C9.8574 19.2134 9.64926 19.4215 9.39251 19.4215L9.39251 19.7215C9.81495 19.7215 10.1574 19.379 10.1574 18.9566L9.8574 18.9566ZM9.39251 18.4917C9.64926 18.4917 9.8574 18.6999 9.8574 18.9566L10.1574 18.9566C10.1574 18.5342 9.81495 18.1917 9.39251 18.1917L9.39251 18.4917ZM6.52908 18.4917L9.39251 18.4917L9.39251 18.1917L6.52908 18.1917L6.52908 18.4917ZM9.85711 14.8016L6.42302 18.2357L6.63515 18.4478L10.0692 15.0137L9.85711 14.8016ZM9.72124 14.28C9.82261 14.3814 9.88131 14.4969 9.8997 14.5962C9.91824 14.6963 9.89467 14.764 9.85711 14.8016L10.0692 15.0137C10.1968 14.8862 10.2253 14.7071 10.1947 14.5416C10.1639 14.3754 10.0721 14.2066 9.93337 14.0679L9.72124 14.28ZM9.19966 14.1441C9.23722 14.1066 9.30489 14.083 9.405 14.1015C9.5043 14.1199 9.61986 14.1786 9.72124 14.28L9.93337 14.0679C9.79462 13.9291 9.62586 13.8373 9.45962 13.8066C9.29417 13.7759 9.11506 13.8045 8.98753 13.932L9.19966 14.1441ZM5.76557 17.5782L9.19966 14.1441L8.98753 13.932L5.55344 17.3661L5.76557 17.5782ZM5.50951 14.6087L5.50951 17.4722L5.80951 17.4722L5.80951 14.6087L5.50951 14.6087ZM5.04463 14.1438C5.30137 14.1438 5.50951 14.352 5.50951 14.6087L5.80951 14.6087C5.80951 14.1863 5.46706 13.8438 5.04463 13.8438L5.04463 14.1438ZM4.57974 14.6087C4.57974 14.352 4.78788 14.1438 5.04462 14.1438L5.04463 13.8438C4.62219 13.8438 4.27974 14.1863 4.27974 14.6087L4.57974 14.6087ZM4.57974 18.9566L4.57974 14.6087L4.27974 14.6087L4.27974 18.9566L4.57974 18.9566ZM5.04462 19.4215C4.78788 19.4215 4.57974 19.2134 4.57974 18.9566L4.27974 18.9566C4.27974 19.379 4.62219 19.7215 5.04462 19.7215L5.04462 19.4215ZM9.39251 19.4215L5.04462 19.4215L5.04462 19.7215L9.39251 19.7215L9.39251 19.4215Z" fill="black"/>
<path fill-rule="evenodd" clip-rule="evenodd" d="M14.608 4.42847C14.2684 4.42847 13.9931 4.70376 13.9931 5.04336C13.9931 5.38295 14.2684 5.65824 14.608 5.65824L17.4714 5.65824L14.0373 9.09233C13.8722 9.25742 13.9331 9.58591 14.1732 9.82603C14.4133 10.0662 14.7418 10.127 14.9069 9.96191L18.341 6.52782L18.341 9.39124C18.341 9.73083 18.6163 10.0061 18.9559 10.0061C19.2955 10.0061 19.5707 9.73083 19.5707 9.39124V5.04336C19.5707 4.70376 19.2955 4.42847 18.9559 4.42847H14.608Z" fill="black"/>
<path d="M13.9931 5.04336L14.1431 5.04336L14.1431 5.04336H13.9931ZM14.608 4.42847L14.608 4.57847L14.608 4.57847L14.608 4.42847ZM14.608 5.65824L14.608 5.50824L14.608 5.65824ZM17.4714 5.65824L17.5775 5.76431C17.6204 5.72141 17.6332 5.65689 17.61 5.60084C17.5868 5.54479 17.5321 5.50824 17.4714 5.50824L17.4714 5.65824ZM18.341 6.52782L18.491 6.52782C18.491 6.46715 18.4544 6.41245 18.3984 6.38924C18.3423 6.36602 18.2778 6.37885 18.2349 6.42175L18.341 6.52782ZM18.341 9.39124L18.491 9.39124L18.341 9.39124ZM18.9559 10.0061L18.9559 9.85613L18.9559 10.0061ZM19.5707 9.39124L19.4207 9.39124L19.5707 9.39124ZM19.5707 5.04336L19.4207 5.04336L19.5707 5.04336ZM18.9559 4.42847L18.9559 4.57847L18.9559 4.42847ZM14.1431 5.04336C14.1431 4.78661 14.3512 4.57847 14.608 4.57847V4.27847C14.1855 4.27847 13.8431 4.62092 13.8431 5.04336L14.1431 5.04336ZM14.608 5.50824C14.3512 5.50824 14.1431 5.3001 14.1431 5.04336L13.8431 5.04336C13.8431 5.46579 14.1855 5.80824 14.608 5.80824L14.608 5.50824ZM17.4714 5.50824L14.608 5.50824L14.608 5.80824L17.4714 5.80824L17.4714 5.50824ZM14.1434 9.19839L17.5775 5.76431L17.3653 5.55217L13.9312 8.98626L14.1434 9.19839ZM14.2793 9.71997C14.1779 9.61859 14.1192 9.50304 14.1008 9.40373C14.0823 9.30363 14.1058 9.23595 14.1434 9.19839L13.9312 8.98626C13.8037 9.11379 13.7752 9.29291 13.8058 9.45835C13.8366 9.6246 13.9284 9.79335 14.0671 9.9321L14.2793 9.71997ZM14.8008 9.85584C14.7633 9.8934 14.6956 9.91697 14.5955 9.89843C14.4962 9.88004 14.3806 9.82134 14.2793 9.71997L14.0671 9.9321C14.2059 10.0709 14.3746 10.1626 14.5409 10.1934C14.7063 10.2241 14.8854 10.1955 15.013 10.068L14.8008 9.85584ZM18.2349 6.42175L14.8008 9.85584L15.013 10.068L18.447 6.63389L18.2349 6.42175ZM18.491 9.39124V6.52782H18.191V9.39124H18.491ZM18.9559 9.85613C18.6991 9.85613 18.491 9.64799 18.491 9.39124H18.191C18.191 9.81368 18.5334 10.1561 18.9559 10.1561V9.85613ZM19.4207 9.39124C19.4207 9.64799 19.2126 9.85613 18.9559 9.85613L18.9559 10.1561C19.3783 10.1561 19.7207 9.81368 19.7207 9.39124H19.4207ZM19.4207 5.04336V9.39124H19.7207V5.04336H19.4207ZM18.9559 4.57847C19.2126 4.57847 19.4207 4.78661 19.4207 5.04336L19.7207 5.04336C19.7207 4.62092 19.3783 4.27847 18.9559 4.27847L18.9559 4.57847ZM14.608 4.57847L18.9559 4.57847L18.9559 4.27847L14.608 4.27847L14.608 4.57847Z" fill="black"/>
<path fill-rule="evenodd" clip-rule="evenodd" d="M19.5713 14.6083C19.5713 14.2687 19.2961 13.9934 18.9565 13.9934C18.6169 13.9934 18.3416 14.2687 18.3416 14.6083L18.3416 17.4703L14.9089 14.0376C14.7438 13.8725 14.4153 13.9334 14.1752 14.1735C13.935 14.4136 13.8742 14.7421 14.0393 14.9072L17.4734 18.3413L14.6086 18.3413C14.269 18.3413 13.9937 18.6166 13.9937 18.9562C13.9937 19.2958 14.269 19.5711 14.6086 19.5711L18.9565 19.5711C19.2961 19.5711 19.5713 19.2958 19.5713 18.9562L19.5713 14.6083Z" fill="black"/>
<path d="M18.9565 13.9934L18.9565 14.1434L18.9565 14.1434L18.9565 13.9934ZM19.5713 14.6083L19.7213 14.6083L19.7213 14.6083L19.5713 14.6083ZM18.3416 14.6083L18.4916 14.6083L18.4916 14.6083L18.3416 14.6083ZM18.3416 17.4703L18.2355 17.5764C18.2784 17.6193 18.3429 17.6321 18.399 17.6089C18.455 17.5857 18.4916 17.531 18.4916 17.4703L18.3416 17.4703ZM14.0393 14.9072L14.1454 14.8011L14.0393 14.9072ZM17.4734 18.3413L17.4734 18.4913C17.5341 18.4913 17.5888 18.4548 17.612 18.3987C17.6352 18.3427 17.6224 18.2781 17.5795 18.2352L17.4734 18.3413ZM14.6086 18.3413L14.6086 18.4913L14.6086 18.4913L14.6086 18.3413ZM13.9937 18.9562L14.1437 18.9562L14.1437 18.9562L13.9937 18.9562ZM14.6086 19.5711L14.6086 19.4211L14.6086 19.4211L14.6086 19.5711ZM18.9565 19.5711L18.9565 19.4211L18.9565 19.5711ZM19.5713 18.9562L19.4213 18.9562L19.5713 18.9562ZM18.9565 14.1434C19.2132 14.1434 19.4213 14.3516 19.4213 14.6083L19.7213 14.6083C19.7213 14.1859 19.3789 13.8434 18.9565 13.8434L18.9565 14.1434ZM18.4916 14.6083C18.4916 14.3516 18.6997 14.1434 18.9565 14.1434L18.9565 13.8434C18.534 13.8434 18.1916 14.1859 18.1916 14.6083L18.4916 14.6083ZM18.4916 17.4703L18.4916 14.6083L18.1916 14.6083L18.1916 17.4703L18.4916 17.4703ZM14.8028 14.1437L18.2355 17.5764L18.4476 17.3643L15.0149 13.9316L14.8028 14.1437ZM14.2812 14.2796C14.3826 14.1782 14.4982 14.1195 14.5975 14.1011C14.6976 14.0826 14.7653 14.1061 14.8028 14.1437L15.0149 13.9316C14.8874 13.804 14.7083 13.7755 14.5429 13.8061C14.3766 13.8369 14.2079 13.9287 14.0691 14.0674L14.2812 14.2796ZM14.1454 14.8011C14.1078 14.7636 14.0842 14.6959 14.1028 14.5958C14.1212 14.4965 14.1799 14.3809 14.2812 14.2796L14.0691 14.0674C13.9304 14.2062 13.8386 14.3749 13.8078 14.5412C13.7771 14.7066 13.8057 14.8858 13.9332 15.0133L14.1454 14.8011ZM17.5795 18.2352L14.1454 14.8011L13.9332 15.0133L17.3673 18.4474L17.5795 18.2352ZM14.6086 18.4913L17.4734 18.4913L17.4734 18.1913L14.6086 18.1913L14.6086 18.4913ZM14.1437 18.9562C14.1437 18.6994 14.3518 18.4913 14.6086 18.4913L14.6086 18.1913C14.1861 18.1913 13.8437 18.5338 13.8437 18.9562L14.1437 18.9562ZM14.6086 19.4211C14.3518 19.4211 14.1437 19.2129 14.1437 18.9562L13.8437 18.9562C13.8437 19.3786 14.1861 19.7211 14.6086 19.7211L14.6086 19.4211ZM18.9565 19.4211L14.6086 19.4211L14.6086 19.7211L18.9565 19.7211L18.9565 19.4211ZM19.4213 18.9562C19.4213 19.2129 19.2132 19.4211 18.9565 19.4211L18.9565 19.7211C19.3789 19.7211 19.7213 19.3786 19.7213 18.9562L19.4213 18.9562ZM19.4213 14.6083L19.4213 18.9562L19.7213 18.9562L19.7213 14.6083L19.4213 14.6083Z" fill="black"/>
<path fill-rule="evenodd" clip-rule="evenodd" d="M4.42866 9.39167C4.42866 9.73127 4.70395 10.0066 5.04354 10.0066C5.38313 10.0066 5.65842 9.73127 5.65842 9.39167L5.65842 6.52965L9.09112 9.96235C9.25621 10.1274 9.5847 10.0666 9.82483 9.82648C10.065 9.58635 10.1258 9.25786 9.9607 9.09277L6.5266 5.65867L9.39143 5.65867C9.73102 5.65867 10.0063 5.38338 10.0063 5.04379C10.0063 4.7042 9.73102 4.4289 9.39143 4.4289H5.04354C4.70395 4.4289 4.42866 4.7042 4.42866 5.04379L4.42866 9.39167Z" fill="black"/>
<path d="M5.04354 10.0066L5.04354 9.85656L5.04354 9.85656V10.0066ZM4.42866 9.39167L4.57866 9.39167L4.57866 9.39167L4.42866 9.39167ZM5.65842 9.39167H5.50842H5.65842ZM5.65842 6.52965L5.76449 6.42359C5.72159 6.38069 5.65707 6.36785 5.60102 6.39107C5.54497 6.41429 5.50842 6.46898 5.50842 6.52965L5.65842 6.52965ZM9.09112 9.96235L9.19719 9.85628L9.09112 9.96235ZM9.9607 9.09277L10.0668 8.98671L9.9607 9.09277ZM6.5266 5.65867L6.5266 5.50867C6.46593 5.50867 6.41123 5.54522 6.38802 5.60127C6.3648 5.65732 6.37763 5.72184 6.42053 5.76474L6.5266 5.65867ZM9.39143 5.65867L9.39143 5.50867L9.39143 5.65867ZM10.0063 5.04379L9.85631 5.04379L9.85631 5.04379L10.0063 5.04379ZM9.39143 4.4289L9.39143 4.5789L9.39143 4.4289ZM5.04354 4.4289V4.5789L5.04354 4.5789L5.04354 4.4289ZM4.42866 5.04379L4.57866 5.04379L4.57866 5.04379H4.42866ZM5.04354 9.85656C4.78679 9.85656 4.57866 9.64842 4.57866 9.39167L4.27866 9.39167C4.27866 9.81411 4.62111 10.1566 5.04354 10.1566L5.04354 9.85656ZM5.50842 9.39167C5.50842 9.64842 5.30029 9.85656 5.04354 9.85656L5.04354 10.1566C5.46597 10.1566 5.80842 9.81411 5.80842 9.39167L5.50842 9.39167ZM5.50842 6.52965L5.50842 9.39167L5.80842 9.39167V6.52965H5.50842ZM9.19719 9.85628L5.76449 6.42359L5.55236 6.63572L8.98506 10.0684L9.19719 9.85628ZM9.71876 9.72041C9.61739 9.82179 9.50183 9.88049 9.40252 9.89888C9.30242 9.91741 9.23475 9.89384 9.19719 9.85628L8.98506 10.0684C9.11258 10.1959 9.2917 10.2245 9.45715 10.1939C9.62339 10.1631 9.79214 10.0713 9.93089 9.93254L9.71876 9.72041ZM9.85463 9.19884C9.89219 9.2364 9.91576 9.30407 9.89723 9.40417C9.87884 9.50348 9.82014 9.61904 9.71876 9.72041L9.93089 9.93254C10.0696 9.79379 10.1614 9.62504 10.1922 9.4588C10.2228 9.29335 10.1943 9.11423 10.0668 8.98671L9.85463 9.19884ZM6.42053 5.76474L9.85463 9.19884L10.0668 8.98671L6.63266 5.5526L6.42053 5.76474ZM9.39143 5.50867H6.5266V5.80867H9.39143V5.50867ZM9.85631 5.04379C9.85631 5.30054 9.64818 5.50867 9.39143 5.50867L9.39143 5.80867C9.81386 5.80867 10.1563 5.46622 10.1563 5.04379L9.85631 5.04379ZM9.39143 4.5789C9.64818 4.5789 9.85631 4.78704 9.85631 5.04379L10.1563 5.04379C10.1563 4.62135 9.81386 4.2789 9.39143 4.2789L9.39143 4.5789ZM5.04354 4.5789H9.39143V4.2789H5.04354V4.5789ZM4.57866 5.04379C4.57866 4.78704 4.78679 4.5789 5.04354 4.5789L5.04354 4.2789C4.62111 4.2789 4.27866 4.62135 4.27866 5.04379L4.57866 5.04379ZM4.57866 9.39167L4.57866 5.04379H4.27866L4.27866 9.39167L4.57866 9.39167Z" fill="black"/>
<path fill-rule="evenodd" clip-rule="evenodd" d="M4.42866 9.39167C4.42866 9.73127 4.70395 10.0066 5.04354 10.0066C5.38313 10.0066 5.65842 9.73127 5.65842 9.39167L5.65842 6.52965L9.09112 9.96235C9.25621 10.1274 9.5847 10.0666 9.82483 9.82648C10.065 9.58635 10.1258 9.25786 9.9607 9.09277L6.5266 5.65867L9.39143 5.65867C9.73102 5.65867 10.0063 5.38338 10.0063 5.04379C10.0063 4.7042 9.73102 4.4289 9.39143 4.4289H5.04354C4.70395 4.4289 4.42866 4.7042 4.42866 5.04379L4.42866 9.39167Z" fill="black"/>
<path d="M5.04354 10.0066L5.04354 9.85656L5.04354 9.85656V10.0066ZM4.42866 9.39167L4.57866 9.39167L4.57866 9.39167L4.42866 9.39167ZM5.65842 9.39167H5.50842H5.65842ZM5.65842 6.52965L5.76449 6.42359C5.72159 6.38069 5.65707 6.36785 5.60102 6.39107C5.54497 6.41429 5.50842 6.46898 5.50842 6.52965L5.65842 6.52965ZM9.09112 9.96235L9.19719 9.85628L9.09112 9.96235ZM9.9607 9.09277L10.0668 8.98671L9.9607 9.09277ZM6.5266 5.65867L6.5266 5.50867C6.46593 5.50867 6.41123 5.54522 6.38802 5.60127C6.3648 5.65732 6.37763 5.72184 6.42053 5.76474L6.5266 5.65867ZM9.39143 5.65867L9.39143 5.50867L9.39143 5.65867ZM10.0063 5.04379L9.85631 5.04379L9.85631 5.04379L10.0063 5.04379ZM9.39143 4.4289L9.39143 4.5789L9.39143 4.4289ZM5.04354 4.4289V4.5789L5.04354 4.5789L5.04354 4.4289ZM4.42866 5.04379L4.57866 5.04379L4.57866 5.04379H4.42866ZM5.04354 9.85656C4.78679 9.85656 4.57866 9.64842 4.57866 9.39167L4.27866 9.39167C4.27866 9.81411 4.62111 10.1566 5.04354 10.1566L5.04354 9.85656ZM5.50842 9.39167C5.50842 9.64842 5.30029 9.85656 5.04354 9.85656L5.04354 10.1566C5.46597 10.1566 5.80842 9.81411 5.80842 9.39167L5.50842 9.39167ZM5.50842 6.52965L5.50842 9.39167L5.80842 9.39167V6.52965H5.50842ZM9.19719 9.85628L5.76449 6.42359L5.55236 6.63572L8.98506 10.0684L9.19719 9.85628ZM9.71876 9.72041C9.61739 9.82179 9.50183 9.88049 9.40252 9.89888C9.30242 9.91741 9.23475 9.89384 9.19719 9.85628L8.98506 10.0684C9.11258 10.1959 9.2917 10.2245 9.45715 10.1939C9.62339 10.1631 9.79214 10.0713 9.93089 9.93254L9.71876 9.72041ZM9.85463 9.19884C9.89219 9.2364 9.91576 9.30407 9.89723 9.40417C9.87884 9.50348 9.82014 9.61904 9.71876 9.72041L9.93089 9.93254C10.0696 9.79379 10.1614 9.62504 10.1922 9.4588C10.2228 9.29335 10.1943 9.11423 10.0668 8.98671L9.85463 9.19884ZM6.42053 5.76474L9.85463 9.19884L10.0668 8.98671L6.63266 5.5526L6.42053 5.76474ZM9.39143 5.50867H6.5266V5.80867H9.39143V5.50867ZM9.85631 5.04379C9.85631 5.30054 9.64818 5.50867 9.39143 5.50867L9.39143 5.80867C9.81386 5.80867 10.1563 5.46622 10.1563 5.04379L9.85631 5.04379ZM9.39143 4.5789C9.64818 4.5789 9.85631 4.78704 9.85631 5.04379L10.1563 5.04379C10.1563 4.62135 9.81386 4.2789 9.39143 4.2789L9.39143 4.5789ZM5.04354 4.5789H9.39143V4.2789H5.04354V4.5789ZM4.57866 5.04379C4.57866 4.78704 4.78679 4.5789 5.04354 4.5789L5.04354 4.2789C4.62111 4.2789 4.27866 4.62135 4.27866 5.04379L4.57866 5.04379ZM4.57866 9.39167L4.57866 5.04379H4.27866L4.27866 9.39167L4.57866 9.39167Z" fill="black"/>
</svg>
