<svg width="16" height="16" viewBox="0 0 16 16" fill="none" xmlns="http://www.w3.org/2000/svg">
<path fill-rule="evenodd" clip-rule="evenodd" d="M5.3301 4.25785C4.74243 4.25785 4.26603 4.73425 4.26603 5.32192V10.9993C4.26603 11.587 4.74243 12.0634 5.3301 12.0634H10.8504C11.4381 12.0634 11.9145 11.587 11.9145 10.9993V6.98745H13.0604V10.9993C13.0604 12.2198 12.071 13.2093 10.8504 13.2093H5.3301C4.10956 13.2093 3.12012 12.2198 3.12012 10.9993V5.32192C3.12012 4.10138 4.10956 3.11194 5.3301 3.11194H9.26343V4.25785H5.3301Z" fill="black"/>
<path fill-rule="evenodd" clip-rule="evenodd" d="M10.6279 2.97293C10.6279 2.6565 10.8845 2.39997 11.2009 2.39997H13.5472C13.8636 2.39997 14.1202 2.6565 14.1202 2.97293V5.31925C14.1202 5.63568 13.8636 5.89221 13.5472 5.89221C13.2308 5.89221 12.9742 5.63568 12.9742 5.31925V3.54589H11.2009C10.8845 3.54589 10.6279 3.28937 10.6279 2.97293Z" fill="black"/>
<path fill-rule="evenodd" clip-rule="evenodd" d="M13.4987 3.03551C13.7133 3.26803 13.6988 3.63051 13.4663 3.84515L10.0446 7.00363C9.81208 7.21827 9.44959 7.20377 9.23496 6.97125C9.02032 6.73873 9.03482 6.37624 9.26734 6.16161L12.689 3.00312C12.9216 2.78849 13.284 2.80299 13.4987 3.03551Z" fill="black"/>
</svg>
