<svg width="24" height="24" viewBox="0 0 24 24" fill="none" xmlns="http://www.w3.org/2000/svg">
<path fill-rule="evenodd" clip-rule="evenodd" d="M7.6938 6.73352C6.89243 6.73352 6.24279 7.38315 6.24279 8.18452V15.9264C6.24279 16.7278 6.89243 17.3774 7.6938 17.3774H15.2215C16.0229 17.3774 16.6725 16.7278 16.6725 15.9264V10.4557H18.2352V15.9264C18.2352 17.5908 16.8859 18.94 15.2215 18.94H7.6938C6.02942 18.94 4.68018 17.5908 4.68018 15.9264V8.18452C4.68018 6.52014 6.02942 5.1709 7.6938 5.1709H13.0574V6.73352H7.6938Z"/>
<path fill-rule="evenodd" clip-rule="evenodd" d="M14.9181 4.98126C14.9181 4.54976 15.2679 4.19995 15.6994 4.19995H18.8989C19.3304 4.19995 19.6802 4.54976 19.6802 4.98126V8.18079C19.6802 8.61229 19.3304 8.96209 18.8989 8.96209C18.4674 8.96209 18.1176 8.61229 18.1176 8.18079V5.76257H15.6994C15.2679 5.76257 14.9181 5.41277 14.9181 4.98126Z"/>
<path fill-rule="evenodd" clip-rule="evenodd" d="M18.8328 5.06655C19.1255 5.38362 19.1057 5.87793 18.7886 6.17061L14.1227 10.4776C13.8056 10.7703 13.3113 10.7506 13.0186 10.4335C12.7259 10.1164 12.7457 9.62211 13.0628 9.32943L17.7287 5.02239C18.0458 4.72971 18.5401 4.74948 18.8328 5.06655Z"/>
</svg>
