<svg width="24" height="24" viewBox="0 0 24 24" fill="none" xmlns="http://www.w3.org/2000/svg">
<path d="M11.1667 7.83333H16.1667V9.5H11.1667V7.83333ZM11.1667 11.1667H16.1667V12.8333H11.1667V11.1667ZM11.1667 14.5H16.1667V16.1667H11.1667V14.5ZM7.83333 7.83333H9.5V9.5H7.83333V7.83333ZM7.83333 11.1667H9.5V12.8333H7.83333V11.1667ZM7.83333 14.5H9.5V16.1667H7.83333V14.5ZM18.75 4.5H5.25C4.83333 4.5 4.5 4.83333 4.5 5.25V18.75C4.5 19.0833 4.83333 19.5 5.25 19.5H18.75C19.0833 19.5 19.5 19.0833 19.5 18.75V5.25C19.5 4.83333 19.0833 4.5 18.75 4.5ZM17.8333 17.8333H6.16667V6.16667H17.8333V17.8333Z" fill="#727E91"/>
</svg>
