<svg width="24" height="24" viewBox="0 0 24 24" fill="none" xmlns="http://www.w3.org/2000/svg">
<path d="M11.2 16.8H12.8V15.2H11.2V16.8ZM12 4C7.584 4 4 7.584 4 12C4 16.416 7.584 20 12 20C16.416 20 20 16.416 20 12C20 7.584 16.416 4 12 4ZM12 18.4C8.472 18.4 5.6 15.528 5.6 12C5.6 8.472 8.472 5.6 12 5.6C15.528 5.6 18.4 8.472 18.4 12C18.4 15.528 15.528 18.4 12 18.4ZM12 7.2C10.232 7.2 8.8 8.632 8.8 10.4H10.4C10.4 9.52 11.12 8.8 12 8.8C12.88 8.8 13.6 9.52 13.6 10.4C13.6 12 11.2 11.8 11.2 14.4H12.8C12.8 12.6 15.2 12.4 15.2 10.4C15.2 8.632 13.768 7.2 12 7.2Z"/>
</svg>
