<svg width="28" height="28" viewBox="0 0 28 28" fill="none" xmlns="http://www.w3.org/2000/svg">
<path fill-rule="evenodd" clip-rule="evenodd" d="M4.42491 10.8373C5.17708 8.53114 6.74976 6.48584 9.01491 5.17805C13.887 2.36515 20.1169 4.03445 22.9298 8.90654C25.7427 13.7786 24.0734 20.0085 19.2013 22.8214C14.3292 25.6343 8.09933 23.965 5.28643 19.093C5.03633 18.6598 4.48244 18.5114 4.04926 18.7615C3.61609 19.0116 3.46768 19.5655 3.71777 19.9986C7.03086 25.7371 14.3686 27.7032 20.107 24.3901C25.8454 21.077 27.8116 13.7393 24.4985 8.00088C21.1854 2.26244 13.8477 0.29631 8.10925 3.6094C5.51575 5.10675 3.69262 7.42722 2.77946 10.0487L2.0113 8.02725C1.83362 7.55968 1.31054 7.32469 0.842982 7.50237C0.375419 7.68005 0.140422 8.20312 0.318101 8.67068L1.87748 12.7742C2.05516 13.2418 2.57824 13.4768 3.0458 13.2991L7.14931 11.7397C7.61687 11.562 7.85187 11.0389 7.67419 10.5714C7.49651 10.1038 6.97344 9.86882 6.50588 10.0465L4.42491 10.8373ZM13.1087 6.61749H14.92V13.3542L19.482 14.8369L18.9222 16.5595L13.1087 14.6702V6.61749Z" fill="#7C4FFC"/>
</svg>
