<svg width="24" height="24" viewBox="0 0 24 24" fill="none" xmlns="http://www.w3.org/2000/svg">
<path d="M7.91797 9.52147V14.3776H6.59961V9.52147H7.91797Z" fill="#7C4FFC"/>
<path d="M8.85585 14.3776V9.52147H10.9614C11.3313 9.52147 11.6419 9.57126 11.8933 9.67085C12.1462 9.77044 12.3367 9.91113 12.4647 10.0929C12.5944 10.2747 12.6592 10.4889 12.6592 10.7355C12.6592 10.9141 12.6197 11.0769 12.5406 11.224C12.4632 11.371 12.3541 11.4943 12.2134 11.5939C12.0727 11.6919 11.9083 11.7598 11.7202 11.7978V11.8452C11.9289 11.8531 12.1185 11.9061 12.2893 12.0041C12.46 12.1005 12.5959 12.2341 12.6971 12.4048C12.7983 12.5739 12.8489 12.7731 12.8489 13.0023C12.8489 13.2679 12.7793 13.5042 12.6402 13.7113C12.5027 13.9184 12.3067 14.0812 12.0522 14.1997C11.7977 14.3183 11.4941 14.3776 11.1416 14.3776H8.85585ZM10.1742 13.3248H10.7907C11.012 13.3248 11.178 13.2837 11.2886 13.2015C11.3993 13.1177 11.4546 12.9944 11.4546 12.8316C11.4546 12.7178 11.4285 12.6213 11.3764 12.5423C11.3242 12.4633 11.2499 12.4032 11.1535 12.3621C11.0586 12.321 10.944 12.3005 10.8097 12.3005H10.1742V13.3248ZM10.1742 11.4848H10.7148C10.8302 11.4848 10.9322 11.4666 11.0207 11.4302C11.1092 11.3939 11.178 11.3417 11.227 11.2737C11.2776 11.2042 11.3029 11.1196 11.3029 11.02C11.3029 10.8699 11.2491 10.7553 11.1416 10.6762C11.0341 10.5956 10.8982 10.5553 10.7338 10.5553H10.1742V11.4848Z" fill="#7C4FFC"/>
<path d="M17.8496 11.3425H16.5123C16.5028 11.2319 16.4775 11.1315 16.4364 11.0414C16.3969 10.9513 16.3416 10.8738 16.2704 10.809C16.2009 10.7426 16.1163 10.692 16.0167 10.6572C15.9171 10.6209 15.8041 10.6027 15.6776 10.6027C15.4563 10.6027 15.269 10.6565 15.1157 10.764C14.9639 10.8714 14.8485 11.0256 14.7695 11.2263C14.692 11.4271 14.6533 11.6681 14.6533 11.9495C14.6533 12.2467 14.6928 12.4957 14.7719 12.6964C14.8525 12.8956 14.9687 13.0458 15.1204 13.147C15.2722 13.2465 15.4548 13.2963 15.6682 13.2963C15.7899 13.2963 15.8989 13.2813 15.9954 13.2513C16.0918 13.2197 16.1756 13.1746 16.2467 13.1161C16.3178 13.0576 16.3755 12.9873 16.4198 12.9051C16.4656 12.8213 16.4965 12.7273 16.5123 12.6229L17.8496 12.6324C17.8338 12.8379 17.7761 13.0474 17.6765 13.2608C17.5769 13.4726 17.4354 13.6686 17.2521 13.8488C17.0703 14.0274 16.845 14.1713 16.5763 14.2804C16.3076 14.3894 15.9954 14.444 15.6397 14.444C15.1939 14.444 14.794 14.3483 14.4399 14.1571C14.0874 13.9658 13.8084 13.6844 13.6029 13.3129C13.399 12.9415 13.297 12.487 13.297 11.9495C13.297 11.4089 13.4013 10.9536 13.61 10.5837C13.8187 10.2123 14.1 9.93168 14.4541 9.74199C14.8082 9.55071 15.2034 9.45508 15.6397 9.45508C15.9464 9.45508 16.2285 9.49697 16.4862 9.58075C16.7439 9.66453 16.9699 9.78704 17.1643 9.94828C17.3588 10.1079 17.5153 10.3047 17.6338 10.5387C17.7524 10.7726 17.8243 11.0406 17.8496 11.3425Z" fill="#7C4FFC"/>
<path fill-rule="evenodd" clip-rule="evenodd" d="M12 4.34961C7.85786 4.34961 4.5 7.70747 4.5 11.8496C4.5 15.9917 7.85786 19.3496 12 19.3496C12.4142 19.3496 12.75 19.6854 12.75 20.0996C12.75 20.5138 12.4142 20.8496 12 20.8496C7.02944 20.8496 3 16.8202 3 11.8496C3 6.87905 7.02944 2.84961 12 2.84961C16.9706 2.84961 21 6.87905 21 11.8496C21 12.2638 20.6642 12.5996 20.25 12.5996C19.8358 12.5996 19.5 12.2638 19.5 11.8496C19.5 7.70747 16.1421 4.34961 12 4.34961Z" fill="#7C4FFC"/>
<path fill-rule="evenodd" clip-rule="evenodd" d="M13.5 17.3994C13.5 16.9852 13.8358 16.6494 14.25 16.6494H21.75C22.1642 16.6494 22.5 16.9852 22.5 17.3994C22.5 17.8136 22.1642 18.1494 21.75 18.1494H14.25C13.8358 18.1494 13.5 17.8136 13.5 17.3994Z" fill="#7C4FFC"/>
<path fill-rule="evenodd" clip-rule="evenodd" d="M18.2197 13.8691C18.5126 13.5762 18.9874 13.5762 19.2803 13.8691L22.2803 16.8691C22.5732 17.162 22.5732 17.6369 22.2803 17.9297L19.2803 20.9297C18.9874 21.2226 18.5126 21.2226 18.2197 20.9297C17.9268 20.6369 17.9268 20.162 18.2197 19.8691L20.6893 17.3994L18.2197 14.9297C17.9268 14.6369 17.9268 14.162 18.2197 13.8691Z" fill="#7C4FFC"/>
</svg>
