<svg width="50" height="50" viewBox="0 0 50 50" fill="none" xmlns="http://www.w3.org/2000/svg">
<path d="M17.4108 21.1198V29.8802H15V21.1198H17.4108Z" fill="#727E91"/>
<path d="M18.5534 29.8802V21.1198H22.4038C23.0802 21.1198 23.6482 21.2096 24.1079 21.3893C24.5704 21.5689 24.9187 21.8227 25.1528 22.1507C25.3899 22.4786 25.5084 22.865 25.5084 23.3099C25.5084 23.6321 25.4361 23.9259 25.2916 24.1911C25.15 24.4563 24.9505 24.6787 24.6932 24.8584C24.436 25.0352 24.1353 25.1578 23.7913 25.2262V25.3118C24.1729 25.326 24.5198 25.4216 24.832 25.5984C25.1442 25.7723 25.3928 26.0133 25.5778 26.3213C25.7628 26.6264 25.8553 26.9857 25.8553 27.3992C25.8553 27.8783 25.7281 28.3047 25.4737 28.6782C25.2222 29.0518 24.8638 29.3455 24.3984 29.5594C23.933 29.7733 23.378 29.8802 22.7333 29.8802H18.5534ZM20.9642 27.981H22.0916C22.4963 27.981 22.7998 27.9068 23.0022 27.7586C23.2045 27.6074 23.3057 27.385 23.3057 27.0913C23.3057 26.8859 23.258 26.712 23.1626 26.5694C23.0672 26.4268 22.9313 26.3184 22.755 26.2443C22.5816 26.1702 22.372 26.1331 22.1263 26.1331H20.9642V27.981ZM20.9642 24.6616H21.9528C22.1639 24.6616 22.3503 24.6288 22.5122 24.5632C22.6741 24.4976 22.7998 24.4035 22.8894 24.2809C22.9819 24.1554 23.0282 24.0029 23.0282 23.8232C23.0282 23.5523 22.9299 23.3455 22.7333 23.2029C22.5368 23.0575 22.2882 22.9848 21.9875 22.9848H20.9642V24.6616Z" fill="#727E91"/>
<path d="M35 24.4049H32.5545C32.5371 24.2053 32.4909 24.0242 32.4157 23.8617C32.3435 23.6991 32.2423 23.5594 32.1122 23.4425C31.985 23.3227 31.8304 23.2315 31.6482 23.1687C31.4661 23.1031 31.2594 23.0703 31.0282 23.0703C30.6235 23.0703 30.2809 23.1673 30.0005 23.3612C29.723 23.5551 29.512 23.8332 29.3675 24.1953C29.2258 24.5575 29.155 24.9924 29.155 25.5C29.155 26.0361 29.2273 26.4853 29.3718 26.8474C29.5192 27.2067 29.7317 27.4777 30.0092 27.6602C30.2867 27.8398 30.6206 27.9297 31.0108 27.9297C31.2334 27.9297 31.4329 27.9026 31.6092 27.8484C31.7855 27.7913 31.9388 27.7101 32.0688 27.6046C32.1989 27.499 32.3044 27.3721 32.3854 27.2239C32.4692 27.0727 32.5256 26.903 32.5545 26.7148L35 26.7319C34.9711 27.1027 34.8656 27.4805 34.6835 27.8655C34.5014 28.2476 34.2426 28.6012 33.9073 28.9263C33.5749 29.2486 33.163 29.5081 32.6715 29.7048C32.1801 29.9016 31.6092 30 30.9588 30C30.1436 30 29.4123 29.8275 28.7648 29.4824C28.1201 29.1374 27.6099 28.6298 27.2341 27.9596C26.8612 27.2894 26.6748 26.4696 26.6748 25.5C26.6748 24.5247 26.8656 23.7034 27.2472 23.0361C27.6287 22.366 28.1433 21.8598 28.7908 21.5176C29.4383 21.1725 30.161 21 30.9588 21C31.5196 21 32.0356 21.0756 32.5068 21.2267C32.978 21.3779 33.3913 21.5989 33.7469 21.8897C34.1024 22.1778 34.3886 22.5328 34.6054 22.9548C34.8222 23.3769 34.9537 23.8603 35 24.4049Z" fill="#727E91"/>
<path d="M37.0042 40.9973V39.3361H35.343V40.9973H37.0042ZM37.0042 37.9812V33.4132H35.343V37.9812H37.0042Z" fill="#CD1A1A"/>
<mask id="path-3-inside-1_6279_9570" fill="white">
<path d="M36.2 44.2C40.0577 44.2 43.2 41.0577 43.2 37.2C43.2 33.3423 40.0577 30.2 36.2 30.2C32.3422 30.2 29.2 33.3423 29.2 37.2C29.2 41.0577 32.3422 44.2 36.2 44.2ZM36.2 42.8C33.0989 42.8 30.6 40.3011 30.6 37.2C30.6 34.0989 33.0989 31.6 36.2 31.6C39.301 31.6 41.8 34.0989 41.8 37.2C41.8 40.3011 39.301 42.8 36.2 42.8Z"/>
</mask>
<path d="M36.2 44.2C40.0577 44.2 43.2 41.0577 43.2 37.2C43.2 33.3423 40.0577 30.2 36.2 30.2C32.3422 30.2 29.2 33.3423 29.2 37.2C29.2 41.0577 32.3422 44.2 36.2 44.2ZM36.2 42.8C33.0989 42.8 30.6 40.3011 30.6 37.2C30.6 34.0989 33.0989 31.6 36.2 31.6C39.301 31.6 41.8 34.0989 41.8 37.2C41.8 40.3011 39.301 42.8 36.2 42.8Z" fill="#CD1A1A"/>
<path d="M36.2 46.2C41.1622 46.2 45.2 42.1623 45.2 37.2H41.2C41.2 39.9531 38.9531 42.2 36.2 42.2V46.2ZM45.2 37.2C45.2 32.2377 41.1622 28.2 36.2 28.2V32.2C38.9531 32.2 41.2 34.4469 41.2 37.2H45.2ZM36.2 28.2C31.2377 28.2 27.2 32.2377 27.2 37.2H31.2C31.2 34.4469 33.4468 32.2 36.2 32.2V28.2ZM27.2 37.2C27.2 42.1623 31.2377 46.2 36.2 46.2V42.2C33.4468 42.2 31.2 39.9531 31.2 37.2H27.2ZM36.2 40.8C34.2034 40.8 32.6 39.1965 32.6 37.2H28.6C28.6 41.4057 31.9943 44.8 36.2 44.8V40.8ZM32.6 37.2C32.6 35.2035 34.2034 33.6 36.2 33.6V29.6C31.9943 29.6 28.6 32.9944 28.6 37.2H32.6ZM36.2 33.6C38.1965 33.6 39.8 35.2035 39.8 37.2H43.8C43.8 32.9944 40.4056 29.6 36.2 29.6V33.6ZM39.8 37.2C39.8 39.1965 38.1965 40.8 36.2 40.8V44.8C40.4056 44.8 43.8 41.4057 43.8 37.2H39.8Z" fill="#CD1A1A" mask="url(#path-3-inside-1_6279_9570)"/>
<path d="M41.8228 28C41.9396 27.1835 42 26.3488 42 25.5C42 15.835 34.165 8 24.5 8C14.835 8 7 15.835 7 25.5C7 35.165 14.835 43 24.5 43C25.3488 43 26.1835 42.9396 27 42.8228" stroke="#727E91" stroke-width="1.6"/>
</svg>
