<svg width="28" height="28" viewBox="0 0 28 28" fill="none" xmlns="http://www.w3.org/2000/svg">
<path fill-rule="evenodd" clip-rule="evenodd" d="M5.00001 18.6992C5.44184 18.6992 5.80001 19.0574 5.80001 19.4992V21.1605H22.2V19.4992C22.2 19.0574 22.5582 18.6992 23 18.6992C23.4418 18.6992 23.8 19.0574 23.8 19.4992V21.9605C23.8 22.4023 23.4418 22.7605 23 22.7605H5.00001C4.55818 22.7605 4.20001 22.4023 4.20001 21.9605V19.4992C4.20001 19.0574 4.55818 18.6992 5.00001 18.6992Z" fill="#7C4FFC"/>
<path fill-rule="evenodd" clip-rule="evenodd" d="M14 5.23926C14.4418 5.23926 14.8 5.59743 14.8 6.03926V16.4239C14.8 16.8657 14.4418 17.2239 14 17.2239C13.5582 17.2239 13.2 16.8657 13.2 16.4239V6.03926C13.2 5.59743 13.5582 5.23926 14 5.23926Z" fill="#7C4FFC"/>
<path fill-rule="evenodd" clip-rule="evenodd" d="M8.58792 11.7021C8.90034 11.3897 9.40687 11.3897 9.71929 11.7021L13.9998 15.9826L18.2802 11.7021C18.5927 11.3897 19.0992 11.3897 19.4116 11.7021C19.724 12.0145 19.724 12.521 19.4116 12.8335L14.5654 17.6796C14.253 17.992 13.7465 17.992 13.4341 17.6796L8.58792 12.8335C8.2755 12.521 8.2755 12.0145 8.58792 11.7021Z" fill="#7C4FFC"/>
</svg>
