<svg width="16" height="16" viewBox="0 0 16 16" fill="none" xmlns="http://www.w3.org/2000/svg">
<path d="M8.00004 1.33325C4.32604 1.33325 1.33337 4.32592 1.33337 7.99992C1.33337 11.6739 4.32604 14.6666 8.00004 14.6666C11.674 14.6666 14.6667 11.6739 14.6667 7.99992C14.6667 4.32592 11.674 1.33325 8.00004 1.33325ZM8.00004 2.66659C10.9535 2.66659 13.3334 5.0465 13.3334 7.99992C13.3334 10.9533 10.9535 13.3333 8.00004 13.3333C5.04663 13.3333 2.66671 10.9533 2.66671 7.99992C2.66671 5.0465 5.04663 2.66659 8.00004 2.66659ZM7.33337 4.66659V5.99992H8.66671V4.66659H7.33337ZM7.33337 7.33325V11.3333H8.66671V7.33325H7.33337Z"/>
</svg>
