<svg width="16" height="16" viewBox="0 0 16 16" fill="none" xmlns="http://www.w3.org/2000/svg">
<path d="M9.06868 4.26863C7.82241 3.02236 5.77769 3.02236 4.53141 4.26863C3.28514 5.51491 3.28514 7.55963 4.53141 8.8059C5.43076 9.70525 6.72703 9.90914 7.86031 9.54207L8.74459 10.4264L7.77232 11.3986L9.71686 13.3432L10.6891 12.3709L11.3373 13.0191L13.2819 11.0745L12.9578 10.7504L9.80991 7.60259C10.202 6.48806 9.98883 5.18878 9.06868 4.26863ZM8.4205 4.91682C9.15951 5.65582 9.28631 6.70369 8.88322 7.53676L8.74079 7.82983L11.9855 11.0745L11.3373 11.7227L10.6891 11.0745L9.71686 12.0468L9.06868 11.3986L10.041 10.4264L8.10211 8.48751L7.816 8.61284C6.9409 8.99569 5.88096 8.85909 5.1796 8.15772C4.28687 7.265 4.28687 5.80954 5.1796 4.91682C6.07232 4.02409 7.52778 4.02409 8.4205 4.91682ZM7.77232 5.565C7.23919 5.03186 6.36091 5.03186 5.82778 5.565C5.29464 6.09813 5.29464 6.97641 5.82778 7.50954C6.36091 8.04267 7.23919 8.04267 7.77232 7.50954C8.30545 6.97641 8.30545 6.09813 7.77232 5.565ZM7.12414 6.21318C7.30697 6.39601 7.30697 6.67853 7.12414 6.86136C6.94131 7.04419 6.65879 7.04419 6.47596 6.86136C6.29313 6.67853 6.29313 6.39601 6.47596 6.21318C6.65879 6.03035 6.94131 6.03035 7.12414 6.21318Z" fill="#727E91"/>
</svg>
