<svg width="28" height="28" viewBox="0 0 28 28" fill="none" xmlns="http://www.w3.org/2000/svg">
<path d="M15.2964 6.22184C12.8038 3.72929 8.71438 3.72929 6.22182 6.22184C3.72927 8.71439 3.72927 12.8038 6.22182 15.2964C8.02052 17.0951 10.6131 17.5029 12.8796 16.7687L14.6482 18.5373L12.7036 20.4818L16.5927 24.3709L18.5373 22.4264L19.8336 23.7227L23.7227 19.8336L23.0745 19.1855L16.7788 12.8898C17.5631 10.6607 17.1367 8.06213 15.2964 6.22184ZM14 7.5182C15.478 8.99622 15.7316 11.092 14.9254 12.7581L14.6406 13.3442L21.13 19.8336L19.8336 21.13L18.5373 19.8336L16.5927 21.7782L15.2964 20.4818L17.2409 18.5373L13.3632 14.6596L12.791 14.9103C11.0408 15.676 8.92092 15.4027 7.51818 14C5.73274 12.2146 5.73274 9.30365 7.51819 7.5182C9.30363 5.73276 12.2146 5.73276 14 7.5182ZM12.7036 8.81457C11.6374 7.7483 9.88081 7.7483 8.81455 8.81457C7.74828 9.88083 7.74828 11.6374 8.81455 12.7037C9.88081 13.7699 11.6374 13.7699 12.7036 12.7037C13.7699 11.6374 13.7699 9.88083 12.7036 8.81457ZM11.4073 10.1109C11.7729 10.4766 11.7729 11.0416 11.4073 11.4073C11.0416 11.7729 10.4766 11.7729 10.1109 11.4073C9.74525 11.0416 9.74525 10.4766 10.1109 10.1109C10.4766 9.74527 11.0416 9.74527 11.4073 10.1109Z" fill="#7C4FFC"/>
</svg>
