<svg width="24" height="24" viewBox="0 0 24 24" fill="none" xmlns="http://www.w3.org/2000/svg">
<path d="M5.6 4C4.71562 4 4 4.71562 4 5.6V12.8C4 13.6844 4.71562 14.4 5.6 14.4H6.4V16L8 17.6H9.6V18.4C9.6 19.2844 10.3156 20 11.2 20H18.4C19.2844 20 20 19.2844 20 18.4V11.2C20 10.3156 19.2844 9.6 18.4 9.6H14.4V5.6C14.4 4.71562 13.6844 4 12.8 4H5.6ZM5.6 5.6H12.8V9.6H11.2C10.6719 9.6 10.2156 9.85625 9.925 10.25C9.79688 10.1625 9.6875 10.0594 9.575 9.975C10.0813 9.44375 10.5875 8.8 11 8H12V7.2H9.6V6.4H8.8V7.2H6.4V8H7.3C7.20312 8.10938 7.175 8.2625 7.225 8.4C7.225 8.4 7.35938 8.80625 7.775 9.35C7.925 9.54688 8.13438 9.76562 8.375 10C7.45938 10.7781 6.675 11.125 6.675 11.125C6.46875 11.2094 6.36562 11.4438 6.45 11.65C6.53438 11.8563 6.76875 11.9594 6.975 11.875C6.975 11.875 7.93125 11.4844 9 10.55C9.1875 10.6938 9.4 10.8281 9.625 10.975C9.61562 11.05 9.6 11.1219 9.6 11.2V12.8H5.6V5.6ZM7.9 8H10.05C9.70938 8.57812 9.3375 9.075 8.95 9.475C8.72188 9.25938 8.53438 9.05 8.4 8.875C8.05 8.41875 8 8.175 8 8.175C7.98125 8.10938 7.94688 8.05 7.9 8ZM14.275 12H15.325L17.6 18.4H16.675L16.075 16.65H13.475L12.9 18.4H12L14.275 12ZM14.75 12.725C14.65 13.1063 13.725 16 13.725 16H15.85C15.85 16 14.875 13.0969 14.775 12.725H14.75ZM8 14.4H9.6V16H8V14.4Z"/>
</svg>
