<svg width="50" height="50" viewBox="0 0 50 50" fill="none" xmlns="http://www.w3.org/2000/svg">
<path d="M24.5 28.6021L22.7244 26.8685L12.6911 16.7983C11.9115 16.0159 11.9139 14.7495 12.6963 13.9699L18.6745 8.01366C19.457 7.23405 20.7233 7.23638 21.5029 8.01886L46.5879 33.1961C47.3675 33.9786 47.3652 35.2449 46.5827 36.0245L40.6019 41.9834C39.8205 42.762 38.5562 42.7608 37.7761 41.9808L36.3974 40.6021" stroke="#727E91" stroke-width="1.2"/>
<path d="M34 28.9523L34.7913 28.1611V28.1611C35.3192 27.6351 35.3208 26.7807 34.7948 26.2528L26.3862 17.8133C25.6066 17.0308 24.3403 17.0285 23.5578 17.8081L22.5705 18.7918C21.787 19.5724 21.7858 20.8408 22.5679 21.6228L29.5471 28.6021" stroke="#727E91" stroke-width="1.2"/>
<path d="M2.6 30.2002C2.6 29.427 3.2268 28.8002 4 28.8002H39.1877C42.4024 28.8002 45.0083 31.4062 45.0083 34.6208C45.0083 37.8354 42.4024 40.4414 39.1877 40.4414H4C3.2268 40.4414 2.6 39.8146 2.6 39.0414V30.2002Z" stroke="#727E91" stroke-width="1.2"/>
<circle cx="38.3039" cy="34.6213" r="2.72099" stroke="#727E91" stroke-width="1.2"/>
<circle cx="19.7049" cy="14.7935" r="2.2782" stroke="#727E91" stroke-width="1.2"/>
<path d="M37.3515 7.46842L36.3873 6.66699L33 10.7493L36.3873 14.8316L37.3515 14.0301L34.6279 10.7493L37.3515 7.46842ZM36.8694 11.3754H38.1216V10.1232H36.8694V11.3754ZM43.1306 10.1232H41.8784V11.3754H43.1306V10.1232ZM39.3739 11.3754H40.6261V10.1232H39.3739V11.3754ZM43.6127 6.66699L42.6485 7.46842L45.3721 10.7493L42.6485 14.0301L43.6127 14.8316L47 10.7493L43.6127 6.66699Z" fill="#27BD69"/>
</svg>
