<svg width="24" height="24" viewBox="0 0 24 24" fill="none" xmlns="http://www.w3.org/2000/svg">
<path fill-rule="evenodd" clip-rule="evenodd" d="M3.57868 11.0995C2.89527 10.4161 2.89527 9.30804 3.57868 8.62462L6.43354 5.76976C7.11696 5.08635 8.225 5.08635 8.90842 5.76976L17.1048 13.9661C18.5765 15.4379 18.5765 17.8241 17.1048 19.2959C15.633 20.7676 13.2468 20.7676 11.775 19.2959L3.57868 11.0995ZM4.63934 9.68528C4.54171 9.78291 4.54171 9.94121 4.63935 10.0388L12.8357 18.2352C13.7217 19.1212 15.1581 19.1212 16.0441 18.2352C16.9301 17.3492 16.9301 15.9128 16.0441 15.0268L7.84776 6.83043C7.75013 6.73279 7.59183 6.73279 7.4942 6.83042L4.63934 9.68528Z" fill="#727E91"/>
<path fill-rule="evenodd" clip-rule="evenodd" d="M11.9078 4.5C11.9078 3.94772 12.3556 3.5 12.9078 3.5H17.3097C17.862 3.5 18.3097 3.94772 18.3097 4.5V19.5511C18.3097 20.1034 17.862 20.5511 17.3097 20.5511H12.9078C12.3556 20.5511 11.9078 20.1034 11.9078 19.5511V18.3676L12.3057 18.7655C13.4845 19.9443 15.3959 19.9443 16.5747 18.7655C17.7536 17.5866 17.7536 15.6753 16.5747 14.4964L11.9078 9.82948V4.5ZM15.0923 8.28657C16.0579 8.28657 16.8406 7.50387 16.8406 6.53836C16.8406 5.57286 16.0579 4.79016 15.0923 4.79016C14.1268 4.79016 13.3441 5.57286 13.3441 6.53836C13.3441 7.50387 14.1268 8.28657 15.0923 8.28657Z" fill="#727E91"/>
<path d="M16.1023 6.5236C16.1023 7.06755 15.6614 7.5085 15.1174 7.5085C14.5735 7.5085 14.1325 7.06755 14.1325 6.5236C14.1325 5.97965 14.5735 5.5387 15.1174 5.5387C15.6614 5.5387 16.1023 5.97965 16.1023 6.5236Z" fill="#727E91"/>
<path d="M15.4865 16.6805C15.4865 17.2244 15.0456 17.6654 14.5016 17.6654C13.9577 17.6654 13.5167 17.2244 13.5167 16.6805C13.5167 16.1365 13.9577 15.6956 14.5016 15.6956C15.0456 15.6956 15.4865 16.1365 15.4865 16.6805Z" fill="#727E91"/>
</svg>
