<svg width="14" height="14" viewBox="0 0 14 14" fill="none" xmlns="http://www.w3.org/2000/svg">
<path fill-rule="evenodd" clip-rule="evenodd" d="M2.08756 6.47477C1.6889 6.07611 1.6889 5.42975 2.08756 5.03109L3.7529 3.36576C4.15156 2.9671 4.79791 2.9671 5.19657 3.36576L9.97778 8.14696C10.8363 9.00549 10.8363 10.3974 9.97778 11.256C9.11925 12.1145 7.7273 12.1145 6.86877 11.256L2.08756 6.47477ZM2.70628 5.64981C2.64933 5.70676 2.64933 5.7991 2.70628 5.85605L7.48749 10.6373C8.00431 11.1541 8.84224 11.1541 9.35906 10.6373C9.87588 10.1204 9.87588 9.2825 9.35906 8.76568L4.57785 3.98448C4.5209 3.92752 4.42856 3.92752 4.37161 3.98448L2.70628 5.64981Z" fill="white"/>
<path fill-rule="evenodd" clip-rule="evenodd" d="M6.94629 2.62484C6.94629 2.30267 7.20746 2.0415 7.52962 2.0415H10.0974C10.4195 2.0415 10.6807 2.30267 10.6807 2.62484V11.4047C10.6807 11.7268 10.4195 11.988 10.0974 11.988H7.52962C7.20746 11.988 6.94629 11.7268 6.94629 11.4047V10.7143L7.17836 10.9464C7.86604 11.634 8.98098 11.634 9.66865 10.9464C10.3563 10.2587 10.3563 9.14374 9.66865 8.45607L6.94629 5.7337V2.62484ZM8.80392 4.83367C9.36713 4.83367 9.82371 4.3771 9.82371 3.81388C9.82371 3.25067 9.36713 2.7941 8.80392 2.7941C8.24071 2.7941 7.78413 3.25067 7.78413 3.81388C7.78413 4.3771 8.24071 4.83367 8.80392 4.83367Z" fill="white"/>
<path d="M9.3932 3.80548C9.3932 4.12279 9.13597 4.38001 8.81867 4.38001C8.50137 4.38001 8.24414 4.12279 8.24414 3.80548C8.24414 3.48818 8.50137 3.23096 8.81867 3.23096C9.13597 3.23096 9.3932 3.48818 9.3932 3.80548Z" fill="white"/>
<path d="M9.03382 9.73029C9.03382 10.0476 8.7766 10.3048 8.45929 10.3048C8.14199 10.3048 7.88477 10.0476 7.88477 9.73029C7.88477 9.41299 8.14199 9.15576 8.45929 9.15576C8.7766 9.15576 9.03382 9.41299 9.03382 9.73029Z" fill="white"/>
</svg>
