<svg width="24" height="24" viewBox="0 0 24 24" fill="none" xmlns="http://www.w3.org/2000/svg">
<path fill-rule="evenodd" clip-rule="evenodd" d="M7.87876 5.69995C8.39135 5.69995 8.80688 6.15471 8.80688 6.71567L8.80689 16.4967C8.80689 17.0577 8.39135 17.5124 7.87876 17.5124C7.36617 17.5124 6.95064 17.0577 6.95064 16.4967L6.95064 6.71567C6.95064 6.15471 7.36617 5.69995 7.87876 5.69995Z" fill="white"/>
<path fill-rule="evenodd" clip-rule="evenodd" d="M11.2843 14.8656C11.6468 15.228 11.6468 15.8157 11.2843 16.1782L8.53432 18.9282C8.17186 19.2906 7.58421 19.2906 7.22175 18.9282L4.47175 16.1782C4.1093 15.8157 4.1093 15.228 4.47175 14.8656C4.83421 14.5031 5.42186 14.5031 5.78432 14.8656L7.87803 16.9593L9.97175 14.8656C10.3342 14.5031 10.9219 14.5031 11.2843 14.8656Z" fill="white"/>
<path fill-rule="evenodd" clip-rule="evenodd" d="M15.9774 19.2C15.4649 19.2 15.0493 18.7452 15.0493 18.1842L15.0493 8.40319C15.0493 7.84222 15.4649 7.38747 15.9774 7.38747C16.49 7.38747 16.9056 7.84222 16.9056 8.40319L16.9056 18.1842C16.9056 18.7452 16.49 19.2 15.9774 19.2Z" fill="white"/>
<path fill-rule="evenodd" clip-rule="evenodd" d="M12.5716 10.0343C12.2092 9.67186 12.2092 9.0842 12.5716 8.72175L15.3216 5.97175C15.6841 5.6093 16.2718 5.6093 16.6342 5.97175L19.3842 8.72175C19.7467 9.0842 19.7467 9.67186 19.3842 10.0343C19.0217 10.3968 18.4341 10.3968 18.0716 10.0343L15.9779 7.9406L13.8842 10.0343C13.5218 10.3968 12.9341 10.3968 12.5716 10.0343Z" fill="white"/>
</svg>
