<svg width="16" height="16" viewBox="0 0 16 16" fill="none" xmlns="http://www.w3.org/2000/svg">
<path d="M7.99994 3C6.33803 3 4.99994 4.3381 4.99994 6V6.5C4.45341 6.5 3.99994 6.95347 3.99994 7.5V12.5C3.99994 13.0465 4.45341 13.5 4.99994 13.5H10.9999C11.5465 13.5 11.9999 13.0465 11.9999 12.5V7.5C11.9999 6.95347 11.5465 6.5 10.9999 6.5V6C10.9999 4.3381 9.66184 3 7.99994 3ZM7.99994 4C9.13803 4 9.99994 4.8619 9.99994 6V6.5H5.99994V6C5.99994 4.8619 6.86184 4 7.99994 4ZM4.99994 7.5H10.9999V12.5H4.99994V7.5ZM7.99994 9C7.44994 9 6.99994 9.45 6.99994 10C6.99994 10.55 7.44994 11 7.99994 11C8.54994 11 8.99994 10.55 8.99994 10C8.99994 9.45 8.54994 9 7.99994 9Z"/>
</svg>
