<svg width="24" height="24" viewBox="0 0 24 24" fill="none" xmlns="http://www.w3.org/2000/svg">
<rect width="24" height="24" rx="8" fill="white"/>
<path d="M9.51517 16.2202L6.61189 11.1916C6.53952 11.0662 6.5014 10.924 6.5014 10.7793C6.5014 10.6345 6.53952 10.4923 6.61189 10.367L9.51517 5.34083C9.58755 5.21547 9.69165 5.11137 9.81701 5.039C9.94238 4.96662 10.0846 4.92852 10.2293 4.92853H16.0335C16.1782 4.92852 16.3204 4.96662 16.4458 5.039C16.5712 5.11137 16.6753 5.21547 16.7476 5.34083L19.6607 10.3719L18.2324 11.1965L15.5672 6.58264H10.7055L8.27827 10.7842L10.9435 15.4005L9.51517 16.2202Z" fill="#1A1D26" stroke="#1A1D26" stroke-width="0.2"/>
<path d="M13.7707 18.9566H7.95429C7.80954 18.9566 7.66734 18.9185 7.54198 18.8461C7.41661 18.7737 7.31251 18.6696 7.24013 18.5443L4.33929 13.5206L5.76517 12.696L8.4304 17.3123H13.2799L15.7046 13.1083L13.0418 8.49441L14.4677 7.6698L17.371 12.696C17.4433 12.8213 17.4815 12.9635 17.4815 13.1083C17.4815 13.253 17.4433 13.3952 17.371 13.5206L14.4677 18.5492C14.3965 18.6715 14.295 18.7732 14.1728 18.8446C14.0507 18.916 13.9122 18.9546 13.7707 18.9566Z" fill="#1A1D26" stroke="#1A1D26" stroke-width="0.2"/>
</svg>
