<svg width="32" height="32" viewBox="0 0 32 32" fill="none" xmlns="http://www.w3.org/2000/svg">
<path d="M11.7833 23.1616L6.8565 14.6282C6.73368 14.4155 6.66901 14.1742 6.66901 13.9286C6.66901 13.6829 6.73368 13.4416 6.8565 13.2289L11.7833 4.69966C11.9061 4.48693 12.0828 4.31028 12.2955 4.18747C12.5082 4.06465 12.7496 3.99999 12.9952 4H22.8446C23.0903 3.99999 23.3316 4.06465 23.5443 4.18747C23.7571 4.31028 23.9337 4.48693 24.0566 4.69966L29 13.2372L26.5762 14.6366L22.0534 6.80698H13.8032L9.6843 13.9369L14.2071 21.7706L11.7833 23.1616Z" fill="#9663FF"/>
<path d="M19.0048 27.8052H9.13454C8.8889 27.8052 8.64759 27.7406 8.43486 27.6178C8.22212 27.4949 8.04546 27.3183 7.92264 27.1055L3 18.5805L5.41967 17.1812L9.94249 25.0149H18.1719L22.2866 17.8808L17.7679 10.0512L20.1876 8.6519L25.1144 17.1812C25.2372 17.3939 25.3019 17.6352 25.3019 17.8808C25.3019 18.1264 25.2372 18.3677 25.1144 18.5805L20.1876 27.1139C20.0669 27.3214 19.8945 27.4941 19.6872 27.6152C19.4799 27.7364 19.2449 27.8018 19.0048 27.8052Z" fill="#05D2DD"/>
</svg>
