<svg width="40" height="40" viewBox="0 0 40 40" fill="none" xmlns="http://www.w3.org/2000/svg">
<path fill-rule="evenodd" clip-rule="evenodd" d="M12 0C5.37258 0 0 5.37258 0 12V28C0 34.6274 5.37258 40 12 40H28C34.6274 40 40 34.6274 40 28V12C40 5.37258 34.6274 0 28 0H12ZM15.8595 27.0333L11.0207 18.6523C10.9001 18.4434 10.8366 18.2064 10.8366 17.9652C10.8366 17.7239 10.9001 17.4869 11.0207 17.278L15.8595 8.90106C15.9802 8.69212 16.1537 8.51863 16.3626 8.39801C16.5715 8.27739 16.8086 8.21388 17.0498 8.21389H26.7234C26.9646 8.21388 27.2016 8.27739 27.4106 8.39801C27.6195 8.51863 27.793 8.69212 27.9136 8.90106L32.7688 17.2862L30.3883 18.6605L25.9462 10.9707H17.8433L13.798 17.9733L18.2401 25.6672L15.8595 27.0333ZM22.9523 31.594H13.2583C13.0171 31.594 12.7801 31.5305 12.5711 31.4099C12.3622 31.2892 12.1887 31.1157 12.0681 30.9068L7.23332 22.534L9.60978 21.1596L14.0518 28.8535H22.1343L26.1755 21.8468L21.7375 14.1571L24.114 12.7827L28.9528 21.1596C29.0734 21.3686 29.1369 21.6056 29.1369 21.8468C29.1369 22.0881 29.0734 22.3251 28.9528 22.534L24.114 30.915C23.9954 31.1188 23.8261 31.2884 23.6225 31.4074C23.419 31.5264 23.1881 31.5907 22.9523 31.594Z" fill="white"/>
</svg>
