<svg width="24" height="24" viewBox="0 0 24 24" fill="none" xmlns="http://www.w3.org/2000/svg">
<rect width="24" height="24" rx="8" fill="white"/>
<path d="M9.51511 16.2203L6.61183 11.1917C6.53945 11.0663 6.50134 10.9241 6.50134 10.7794C6.50134 10.6346 6.53945 10.4924 6.61183 10.3671L9.51511 5.34089C9.58749 5.21553 9.69159 5.11143 9.81695 5.03906C9.94232 4.96669 10.0845 4.92858 10.2293 4.92859H16.0334C16.1782 4.92858 16.3204 4.96669 16.4457 5.03906C16.5711 5.11143 16.6752 5.21553 16.7476 5.34089L19.6607 10.372L18.2324 11.1966L15.5671 6.5827H10.7054L8.27821 10.7843L10.9434 15.4006L9.51511 16.2203Z" fill="#1A1D26" stroke="#1A1D26" stroke-width="0.2"/>
<path d="M13.7707 18.9567H7.95426C7.80951 18.9567 7.66731 18.9186 7.54195 18.8462C7.41658 18.7739 7.31248 18.6697 7.2401 18.5444L4.33926 13.5207L5.76514 12.6961L8.43037 17.3124H13.2798L15.7046 13.1084L13.0418 8.49454L14.4677 7.66992L17.3709 12.6961C17.4433 12.8214 17.4814 12.9636 17.4814 13.1084C17.4814 13.2531 17.4433 13.3953 17.3709 13.5207L14.4677 18.5493C14.3965 18.6716 14.2949 18.7734 14.1728 18.8447C14.0507 18.9161 13.9121 18.9547 13.7707 18.9567Z" fill="#1A1D26" stroke="#1A1D26" stroke-width="0.2"/>
</svg>
