<svg width="24" height="24" viewBox="0 0 24 24" fill="none" xmlns="http://www.w3.org/2000/svg">
<path d="M10.2812 3.5L9.85724 5.68243C9.14444 5.95125 8.48989 6.32805 7.91636 6.79899L5.82008 6.07601L3.7998 9.57264L5.47886 11.0321C5.41431 11.4284 5.38089 11.7957 5.38089 12.1487C5.38089 12.5022 5.41531 12.8688 5.47886 13.2652V13.2669L3.7998 14.7264L5.82008 18.2213L7.91467 17.5C8.48825 17.9712 9.14429 18.3459 9.85724 18.6149L10.2812 20.7973H14.3184L14.7424 18.6149C15.4556 18.3459 16.1095 17.9697 16.6833 17.4983L18.7795 18.2213L20.7981 14.7264L19.1208 13.2652C19.1853 12.8689 19.2187 12.5016 19.2187 12.1487C19.2187 11.7962 19.1851 11.4294 19.1208 11.0338V11.0321L20.7998 9.57095L18.7795 6.07601L16.6849 6.7973C16.1114 6.3261 15.4553 5.9514 14.7424 5.68243L14.3184 3.5H10.2812ZM11.7069 5.22973H12.8927L13.2289 6.95946L14.1309 7.30068C14.6746 7.5056 15.1631 7.78692 15.587 8.13514L16.3336 8.74662L17.9958 8.17568L18.5887 9.20101L17.261 10.3564L17.413 11.3074V11.3091C17.4659 11.6334 17.489 11.9054 17.489 12.1487C17.489 12.3919 17.4659 12.6639 17.413 12.9882L17.2593 13.9392L18.587 15.0946L17.9941 16.1216L16.3336 15.549L15.5853 16.1622C15.1614 16.5104 14.6746 16.7917 14.1309 16.9966H14.1292L13.2272 17.3378L12.891 19.0676H11.7069L11.3708 17.3378L10.4687 16.9966C9.92501 16.7917 9.43652 16.5104 9.01264 16.1622L8.26602 15.5507L6.60386 16.1216L6.01095 15.0963L7.34035 13.9392L7.18663 12.9916V12.9899C7.1345 12.6642 7.11062 12.3914 7.11062 12.1487C7.11062 11.9054 7.13374 11.6334 7.18663 11.3091L7.34035 10.3581L6.01095 9.2027L6.60386 8.17568L8.26602 8.74831L9.01264 8.13514C9.43652 7.78692 9.92501 7.5056 10.4687 7.30068L11.3708 6.95946L11.7069 5.22973ZM12.2998 8.68919C10.4001 8.68919 8.84035 10.249 8.84035 12.1487C8.84035 14.0483 10.4001 15.6081 12.2998 15.6081C14.1995 15.6081 15.7593 14.0483 15.7593 12.1487C15.7593 10.249 14.1995 8.68919 12.2998 8.68919ZM12.2998 10.4189C13.2611 10.4189 14.0295 11.1874 14.0295 12.1487C14.0295 13.1099 13.2611 13.8784 12.2998 13.8784C11.3385 13.8784 10.5701 13.1099 10.5701 12.1487C10.5701 11.1874 11.3385 10.4189 12.2998 10.4189Z" fill="white"/>
</svg>
