<svg width="24" height="24" viewBox="0 0 24 24" fill="none" xmlns="http://www.w3.org/2000/svg">
<path fill-rule="evenodd" clip-rule="evenodd" d="M2 5.20002C2 4.7582 2.35817 4.40002 2.8 4.40002H21.2C21.6418 4.40002 22 4.7582 22 5.20002C22 5.64185 21.6418 6.00002 21.2 6.00002H2.8C2.35817 6.00002 2 5.64185 2 5.20002Z"/>
<path fill-rule="evenodd" clip-rule="evenodd" d="M2 12.2C2 11.7582 2.35817 11.4 2.8 11.4H21.2C21.6418 11.4 22 11.7582 22 12.2C22 12.6419 21.6418 13 21.2 13H2.8C2.35817 13 2 12.6419 2 12.2Z"/>
<path fill-rule="evenodd" clip-rule="evenodd" d="M2 19.199C2 18.7572 2.35817 18.399 2.8 18.399H21.2C21.6418 18.399 22 18.7572 22 19.199C22 19.6409 21.6418 19.999 21.2 19.999H2.8C2.35817 19.999 2 19.6409 2 19.199Z"/>
</svg>
