<svg width="42" height="42" viewBox="0 0 42 42" fill="none" xmlns="http://www.w3.org/2000/svg">
<path fill-rule="evenodd" clip-rule="evenodd" d="M13.0657 16.146C13.0657 15.4539 13.6267 14.8929 14.3187 14.8929H19.0175C19.7095 14.8929 20.2705 15.4539 20.2705 16.146C20.2705 16.838 19.7095 17.399 19.0175 17.399H14.3187C13.6267 17.399 13.0657 16.838 13.0657 16.146Z" fill="#CD1A1A"/>
<path fill-rule="evenodd" clip-rule="evenodd" d="M13.0657 22.4111C13.0657 21.7191 13.6267 21.1581 14.3187 21.1581H19.0175C19.7095 21.1581 20.2705 21.7191 20.2705 22.4111C20.2705 23.1031 19.7095 23.6641 19.0175 23.6641H14.3187C13.6267 23.6641 13.0657 23.1031 13.0657 22.4111Z" fill="#CD1A1A"/>
<path fill-rule="evenodd" clip-rule="evenodd" d="M13.0657 28.6761C13.0657 27.9841 13.6267 27.4231 14.3187 27.4231H19.0175C19.7095 27.4231 20.2705 27.9841 20.2705 28.6761C20.2705 29.3681 19.7095 29.9291 19.0175 29.9291H14.3187C13.6267 29.9291 13.0657 29.3681 13.0657 28.6761Z" fill="#CD1A1A"/>
<path fill-rule="evenodd" clip-rule="evenodd" d="M22.4631 16.146C22.4631 15.4539 23.0241 14.8929 23.7161 14.8929H28.4149C29.107 14.8929 29.668 15.4539 29.668 16.146C29.668 16.838 29.107 17.399 28.4149 17.399H23.7161C23.0241 17.399 22.4631 16.838 22.4631 16.146Z" fill="#CD1A1A"/>
<path fill-rule="evenodd" clip-rule="evenodd" d="M22.4631 22.4111C22.4631 21.7191 23.0241 21.1581 23.7161 21.1581H28.4149C29.107 21.1581 29.668 21.7191 29.668 22.4111C29.668 23.1031 29.107 23.6641 28.4149 23.6641H23.7161C23.0241 23.6641 22.4631 23.1031 22.4631 22.4111Z" fill="#CD1A1A"/>
<path fill-rule="evenodd" clip-rule="evenodd" d="M22.4631 28.6761C22.4631 27.9841 23.0241 27.4231 23.7161 27.4231H28.4149C29.107 27.4231 29.668 27.9841 29.668 28.6761C29.668 29.3681 29.107 29.9291 28.4149 29.9291H23.7161C23.0241 29.9291 22.4631 29.3681 22.4631 28.6761Z" fill="#CD1A1A"/>
<path d="M33.6667 13.8334V21.8334V33.8334C33.6667 35.4902 32.3236 36.8334 30.6667 36.8334H11.6667C10.0099 36.8334 8.66675 35.4902 8.66675 33.8334V9.83337C8.66675 8.17652 10.0099 6.83337 11.6667 6.83337H21.1667H26.4167" stroke="#CD1A1A" stroke-width="1.6"/>
<path d="M32.6666 14.5C36.3406 14.5 39.3333 11.5073 39.3333 7.83333C39.3333 4.15933 36.3406 1.16667 32.6666 1.16667C28.9926 1.16667 25.9999 4.15933 25.9999 7.83333C25.9999 11.5073 28.9926 14.5 32.6666 14.5ZM32.6666 13.1667C29.7132 13.1667 27.3333 10.7867 27.3333 7.83333C27.3333 4.87992 29.7132 2.5 32.6666 2.5C35.62 2.5 37.9999 4.87992 37.9999 7.83333C37.9999 10.7867 35.62 13.1667 32.6666 13.1667ZM33.3333 11.1667L33.3333 9.83333L31.9999 9.83333L31.9999 11.1667L33.3333 11.1667ZM33.3333 8.5L33.3333 4.5L31.9999 4.5L31.9999 8.5L33.3333 8.5Z" fill="#CD1A1A" stroke="#CD1A1A" stroke-width="0.3"/>
</svg>
