<svg width="28" height="28" viewBox="0 0 28 28" fill="none" xmlns="http://www.w3.org/2000/svg">
<path fill-rule="evenodd" clip-rule="evenodd" d="M5.70001 6.19941C5.70001 5.2053 6.5059 4.39941 7.50001 4.39941H20.5C21.4941 4.39941 22.3 5.2053 22.3 6.19941V22.1994C22.3 23.1935 21.4941 23.9994 20.5 23.9994H7.50001C6.5059 23.9994 5.70001 23.1935 5.70001 22.1994V6.19941ZM7.50001 5.99941C7.38956 5.99941 7.30001 6.08896 7.30001 6.19941V22.1994C7.30001 22.3099 7.38955 22.3994 7.50001 22.3994H20.5C20.6105 22.3994 20.7 22.3099 20.7 22.1994V6.19941C20.7 6.08896 20.6105 5.99941 20.5 5.99941H7.50001Z" fill="#7C4FFC"/>
<path fill-rule="evenodd" clip-rule="evenodd" d="M8.70001 10.09C8.70001 9.64821 9.05818 9.29004 9.50001 9.29004H12.5C12.9418 9.29004 13.3 9.64821 13.3 10.09C13.3 10.5319 12.9418 10.89 12.5 10.89H9.50001C9.05818 10.89 8.70001 10.5319 8.70001 10.09Z" fill="#7C4FFC"/>
<path fill-rule="evenodd" clip-rule="evenodd" d="M8.70001 14.09C8.70001 13.6482 9.05818 13.29 9.50001 13.29H12.5C12.9418 13.29 13.3 13.6482 13.3 14.09C13.3 14.5319 12.9418 14.89 12.5 14.89H9.50001C9.05818 14.89 8.70001 14.5319 8.70001 14.09Z" fill="#7C4FFC"/>
<path fill-rule="evenodd" clip-rule="evenodd" d="M8.70001 18.09C8.70001 17.6482 9.05818 17.29 9.50001 17.29H12.5C12.9418 17.29 13.3 17.6482 13.3 18.09C13.3 18.5319 12.9418 18.89 12.5 18.89H9.50001C9.05818 18.89 8.70001 18.5319 8.70001 18.09Z" fill="#7C4FFC"/>
<path fill-rule="evenodd" clip-rule="evenodd" d="M14.7 10.09C14.7 9.64821 15.0582 9.29004 15.5 9.29004H18.5C18.9418 9.29004 19.3 9.64821 19.3 10.09C19.3 10.5319 18.9418 10.89 18.5 10.89H15.5C15.0582 10.89 14.7 10.5319 14.7 10.09Z" fill="#7C4FFC"/>
<path fill-rule="evenodd" clip-rule="evenodd" d="M14.7 14.09C14.7 13.6482 15.0582 13.29 15.5 13.29H18.5C18.9418 13.29 19.3 13.6482 19.3 14.09C19.3 14.5319 18.9418 14.89 18.5 14.89H15.5C15.0582 14.89 14.7 14.5319 14.7 14.09Z" fill="#7C4FFC"/>
<path fill-rule="evenodd" clip-rule="evenodd" d="M14.7 18.09C14.7 17.6482 15.0582 17.29 15.5 17.29H18.5C18.9418 17.29 19.3 17.6482 19.3 18.09C19.3 18.5319 18.9418 18.89 18.5 18.89H15.5C15.0582 18.89 14.7 18.5319 14.7 18.09Z" fill="#7C4FFC"/>
</svg>
