<svg width="40" height="40" viewBox="0 0 29 28" fill="none" xmlns="http://www.w3.org/2000/svg">
<path d="M22 27C25.3066 27 28 24.3066 28 21C28 17.6934 25.3066 15 22 15C18.6934 15 16 17.6934 16 21C16 24.3066 18.6934 27 22 27ZM22 25.8C19.3419 25.8 17.2 23.6581 17.2 21C17.2 18.3419 19.3419 16.2 22 16.2C24.6581 16.2 26.8 18.3419 26.8 21C26.8 23.6581 24.6581 25.8 22 25.8ZM22.6 24L22.6 22.8L21.4 22.8L21.4 24L22.6 24ZM22.6 21.6L22.6 18L21.4 18L21.4 21.6L22.6 21.6Z" fill="#CD1A1A" stroke="#CD1A1A" stroke-width="0.3"/>
<path fill-rule="evenodd" clip-rule="evenodd" d="M14.6001 2.72737L23.4623 7.84395C23.8336 8.05831 24.0623 8.45446 24.0623 8.88318V13.1058C24.0623 13.6028 24.4652 14.0058 24.9623 14.0058C25.4594 14.0058 25.8623 13.6028 25.8623 13.1058V8.88318C25.8623 7.81139 25.2905 6.82101 24.3623 6.28511L15.5001 1.16853C14.5719 0.632627 13.4283 0.632627 12.5001 1.16853L3.63794 6.28511C2.70974 6.82101 2.13794 7.81139 2.13794 8.88318V19.1163C2.13794 20.1881 2.70974 21.1785 3.63794 21.7144L12.5001 26.831C13.4283 27.3669 14.5719 27.3669 15.5001 26.831L15.5504 26.802C15.8288 26.6412 16.0004 26.3441 16.0004 26.0226C16.0004 25.3298 15.2504 24.8967 14.6504 25.2432L14.6001 25.2722C14.2288 25.4865 13.7714 25.4865 13.4001 25.2722L4.53794 20.1556C4.16666 19.9412 3.93794 19.5451 3.93794 19.1163V8.88318C3.93794 8.45446 4.16666 8.05831 4.53794 7.84395L13.4001 2.72737C13.7714 2.51301 14.2288 2.51301 14.6001 2.72737Z" fill="#7C4FFC"/>
<path fill-rule="evenodd" clip-rule="evenodd" d="M10.8213 16.5414H9.60305L7.80188 13.3788V16.5414H6.57666V11.459H7.80188L9.59956 14.6215V11.459H10.8213V16.5414ZM15.7265 14.5168H13.7508V16.5414H12.5256V11.459H15.9254V12.4049H13.7508V13.5743H15.7265V14.5168ZM21.4241 12.4049H19.8986V14.3397C19.4757 14.4089 19.066 14.5173 18.6734 14.6611V12.4049H17.1759V11.459H21.4241V12.4049Z" fill="#7C4FFC"/>
</svg>
