<svg width="28" height="28" viewBox="0 0 28 28" fill="none" xmlns="http://www.w3.org/2000/svg">
<path fill-rule="evenodd" clip-rule="evenodd" d="M14.5999 2.72737L23.4621 7.84395C23.8333 8.05831 24.0621 8.45446 24.0621 8.88318V14.9375C24.0621 15.4346 24.465 15.8375 24.9621 15.8375C25.4591 15.8375 25.8621 15.4346 25.8621 14.9375V8.88318C25.8621 7.81139 25.2903 6.82101 24.3621 6.28511L15.4999 1.16853C14.5717 0.632627 13.4281 0.632627 12.4999 1.16853L3.6377 6.28511C2.70949 6.82101 2.1377 7.81139 2.1377 8.88318V19.1163C2.1377 20.1881 2.70949 21.1785 3.6377 21.7144L12.4999 26.831C13.4281 27.3669 14.5717 27.3669 15.4999 26.831L16.428 26.2951C16.7065 26.1344 16.878 25.8372 16.878 25.5157C16.878 24.8229 16.128 24.3899 15.528 24.7363L14.5999 25.2722C14.2286 25.4865 13.7712 25.4865 13.3999 25.2722L4.5377 20.1556C4.16641 19.9412 3.9377 19.5451 3.9377 19.1163V8.88318C3.9377 8.45446 4.16641 8.05831 4.5377 7.84395L13.3999 2.72737C13.7712 2.51301 14.2286 2.51301 14.5999 2.72737Z" fill="#7C4FFC"/>
<path fill-rule="evenodd" clip-rule="evenodd" d="M10.8213 16.5414H9.60305L7.80188 13.3788V16.5414H6.57666V11.459H7.80188L9.59956 14.6215V11.459H10.8213V16.5414ZM15.7265 14.5168H13.7508V16.5414H12.5256V11.459H15.9254V12.4049H13.7508V13.5743H15.7265V14.5168ZM21.4241 12.4049H19.8986V14.2616C19.772 14.2546 19.6444 14.251 19.516 14.251C19.2306 14.251 18.9495 14.2687 18.6734 14.303V12.4049H17.1759V11.459H21.4241V12.4049Z" fill="#7C4FFC"/>
<path d="M23.5763 22.5472H23.0343L22.8422 22.3619C23.5146 21.5798 23.9194 20.5643 23.9194 19.4597C23.9194 16.9966 21.9228 15 19.4597 15C16.9966 15 15 16.9966 15 19.4597C15 21.9228 16.9966 23.9194 19.4597 23.9194C20.5643 23.9194 21.5798 23.5146 22.3619 22.8422L22.5472 23.0343V23.5763L25.9777 27L27 25.9777L23.5763 22.5472ZM19.4597 22.5472C17.7513 22.5472 16.3722 21.1681 16.3722 19.4597C16.3722 17.7513 17.7513 16.3722 19.4597 16.3722C21.1681 16.3722 22.5472 17.7513 22.5472 19.4597C22.5472 21.1681 21.1681 22.5472 19.4597 22.5472Z" fill="#7C4FFC" stroke="#7C4FFC" stroke-width="0.1"/>
</svg>
