<svg width="24" height="24" viewBox="0 0 24 24" fill="none" xmlns="http://www.w3.org/2000/svg">
<path d="M6.49369 9.38244H5.89794L5.01713 7.83589V9.38244H4.41797V6.89704H5.01713L5.89623 8.44359V6.89704H6.49369V9.38244Z" fill="#7C4FFC"/>
<path d="M8.89244 8.39238H7.92627V9.38244H7.32711V6.89704H8.98974V7.35964H7.92627V7.93149H8.89244V8.39238Z" fill="#7C4FFC"/>
<path d="M10.9327 7.35964H11.6787V6.89704H9.60125V7.35964H10.3336V9.38244H10.9327V7.35964Z" fill="#7C4FFC"/>
<path d="M6.49369 9.38244H5.89794L5.01713 7.83589V9.38244H4.41797V6.89704H5.01713L5.89623 8.44359V6.89704H6.49369V9.38244Z" stroke="#7C4FFC" stroke-width="0.2"/>
<path d="M8.89244 8.39238H7.92627V9.38244H7.32711V6.89704H8.98974V7.35964H7.92627V7.93149H8.89244V8.39238Z" stroke="#7C4FFC" stroke-width="0.2"/>
<path d="M10.9327 7.35964H11.6787V6.89704H9.60125V7.35964H10.3336V9.38244H10.9327V7.35964Z" stroke="#7C4FFC" stroke-width="0.2"/>
<path fill-rule="evenodd" clip-rule="evenodd" d="M8.4998 2.44324L12.5621 4.78861C12.8715 4.96724 13.0621 5.29737 13.0621 5.65463V7.92609C13.0621 8.20224 13.286 8.42609 13.5621 8.42609C13.8382 8.42609 14.0621 8.20224 14.0621 7.92609V5.65463C14.0621 4.9401 13.6809 4.27985 13.0621 3.92258L8.9998 1.57721C8.381 1.21995 7.6186 1.21995 6.9998 1.57721L2.9375 3.92258C2.3187 4.27985 1.9375 4.9401 1.9375 5.65463V10.3454C1.9375 11.0599 2.3187 11.7202 2.9375 12.0774L6.9998 14.4228C7.6186 14.7801 8.381 14.7801 8.9998 14.4228L9.42394 14.1779C9.71029 14.0126 9.73172 13.6043 9.48802 13.3809C9.33399 13.2396 9.10652 13.2065 8.92554 13.311L8.4998 13.5568C8.1904 13.7354 7.8092 13.7354 7.4998 13.5568L3.4375 11.2114C3.1281 11.0328 2.9375 10.7026 2.9375 10.3454V5.65463C2.9375 5.29737 3.1281 4.96724 3.4375 4.78861L7.4998 2.44324C7.8092 2.26461 8.1904 2.26461 8.4998 2.44324Z" fill="#7C4FFC"/>
<path fill-rule="evenodd" clip-rule="evenodd" d="M9 11.6C9 11.3238 9.22386 11.1 9.5 11.1H14.5C14.7761 11.1 15 11.3238 15 11.6C15 11.8761 14.7761 12.1 14.5 12.1H9.5C9.22386 12.1 9 11.8761 9 11.6Z" fill="#7C4FFC"/>
<path fill-rule="evenodd" clip-rule="evenodd" d="M12.1464 9.24642C12.3417 9.05116 12.6583 9.05116 12.8536 9.24642L14.8536 11.2464C15.0488 11.4417 15.0488 11.7583 14.8536 11.9535L12.8536 13.9535C12.6583 14.1488 12.3417 14.1488 12.1464 13.9535C11.9512 13.7583 11.9512 13.4417 12.1464 13.2464L13.7929 11.6L12.1464 9.95353C11.9512 9.75827 11.9512 9.44168 12.1464 9.24642Z" fill="#7C4FFC"/>
</svg>
