<svg width="28" height="28" viewBox="0 0 28 28" fill="none" xmlns="http://www.w3.org/2000/svg">
<path d="M12.95 1.94818C13.5997 1.57305 14.4003 1.57305 15.05 1.94818L23.9122 7.06476C24.5619 7.43989 24.9622 8.13316 24.9622 8.88342V19.1166C24.9622 19.8668 24.5619 20.5601 23.9122 20.9352L15.05 26.0518C14.4003 26.4269 13.5997 26.4269 12.95 26.0518L4.08782 20.9352C3.43808 20.5601 3.03782 19.8668 3.03782 19.1166V8.88342C3.03782 8.13316 3.43808 7.43989 4.08782 7.06476L12.95 1.94818Z" stroke="#7C4FFC" stroke-width="1.8"/>
<path d="M10.8213 16.5414H9.60305L7.80188 13.3788V16.5414H6.57666V11.459H7.80188L9.59956 14.6215V11.459H10.8213V16.5414Z" fill="#7C4FFC"/>
<path d="M15.7265 14.5168H13.7508V16.5414H12.5256V11.459H15.9254V12.4049H13.7508V13.5743H15.7265V14.5168Z" fill="#7C4FFC"/>
<path d="M19.8986 12.4049H21.4241V11.459H17.1759V12.4049H18.6734V16.5414H19.8986V12.4049Z" fill="#7C4FFC"/>
</svg>
