<svg width="40" height="40" viewBox="0 0 40 40" fill="none" xmlns="http://www.w3.org/2000/svg">
<path d="M18.9501 2.07807C19.5999 1.70294 20.4004 1.70294 21.0501 2.07807L34.9961 10.1298C35.6459 10.5049 36.0461 11.1982 36.0461 11.9484V28.0519C36.0461 28.8021 35.6459 29.4954 34.9961 29.8705L21.0501 37.9222C20.4004 38.2973 19.5999 38.2973 18.9501 37.9222L5.00417 29.8705C4.35443 29.4954 3.95417 28.8021 3.95417 28.0519V11.9484C3.95417 11.1982 4.35443 10.5049 5.00417 10.1298L18.9501 2.07807Z" stroke="#727E91" stroke-width="1.8"/>
<path d="M15.4593 23.6307H13.7189L11.1458 19.1128V23.6307H9.39551V16.3701H11.1458L13.7139 20.888V16.3701H15.4593V23.6307Z" fill="#727E91"/>
<path d="M22.4667 20.7384H19.6442V23.6307H17.8939V16.3701H22.7509V17.7215H19.6442V19.392H22.4667V20.7384Z" fill="#727E91"/>
<path d="M28.4269 17.7215H30.6061V16.3701H24.5373V17.7215H26.6766V23.6307H28.4269V17.7215Z" fill="#727E91"/>
</svg>
