<svg width="70" height="70" viewBox="0 0 70 70" fill="none" xmlns="http://www.w3.org/2000/svg">
<rect x="2.86841" y="23.7588" width="36" height="42" rx="4" transform="rotate(-15 2.86841 23.7588)" fill="#C6CFDD"/>
<rect x="11.1802" y="30.9082" width="24" height="2" rx="1" transform="rotate(-15 11.1802 30.9082)" fill="#ACB0CC"/>
<rect x="13.2507" y="38.6348" width="24" height="2" rx="1" transform="rotate(-15 13.2507 38.6348)" fill="#ACB0CC"/>
<rect x="15.3213" y="46.3623" width="24" height="2" rx="1" transform="rotate(-15 15.3213 46.3623)" fill="#ACB0CC"/>
<path d="M19.3684 14.4414C19.3684 12.2323 21.1593 10.4414 23.3684 10.4414L51.3684 10.4414C53.5775 10.4414 55.3684 12.2323 55.3684 14.4414L55.3684 48.4414C55.3684 50.6505 53.5775 52.4414 51.3684 52.4414L23.3684 52.4414C21.1593 52.4414 19.3684 50.6505 19.3684 48.4414L19.3684 14.4414Z" fill="#E7EEF6"/>
<path d="M48.1348 44.2066L51.8452 47.917" stroke="#A3A9C9" stroke-width="3"/>
<path d="M53.8713 46.4086L52.1035 44.6408L48.568 48.1763L50.3357 49.9441L53.8713 46.4086ZM57.4068 57.0152C58.3831 57.9915 59.966 57.9915 60.9424 57.0152C61.9187 56.0389 61.9187 54.4559 60.9424 53.4796L57.4068 57.0152ZM50.3357 49.9441L57.4068 57.0152L60.9424 53.4796L53.8713 46.4086L50.3357 49.9441Z" fill="#7C4FFC"/>
<circle cx="38.954" cy="35.0269" r="11.8491" transform="rotate(-45 38.954 35.0269)" stroke="#ACB0CC" stroke-width="4"/>
<path d="M34.9541 31.0269L42.9541 39.0269" stroke="#62667D" stroke-width="2.2" stroke-linecap="round"/>
<path d="M42.9541 31.0269L34.9541 39.0269" stroke="#62667D" stroke-width="2.2" stroke-linecap="round"/>
</svg>
