<svg width="16" height="16" viewBox="0 0 16 16" fill="none" xmlns="http://www.w3.org/2000/svg">
<path fill-rule="evenodd" clip-rule="evenodd" d="M7.99984 14.6666C11.6738 14.6666 14.6665 11.674 14.6665 7.99996C14.6665 4.32596 11.6738 1.33329 7.99984 1.33329C4.32583 1.33329 1.33317 4.32596 1.33317 7.99996C1.33317 11.674 4.32583 14.6666 7.99984 14.6666ZM7.99984 13.3333C5.04642 13.3333 2.6665 10.9534 2.6665 7.99996C2.6665 5.04654 5.04642 2.66663 7.99984 2.66663C10.9533 2.66663 13.3332 5.04654 13.3332 7.99996C13.3332 10.9534 10.9533 13.3333 7.99984 13.3333ZM5.54048 10.4596C5.28664 10.2058 5.28664 9.79425 5.54048 9.5404L7.08076 8.00012L5.54028 6.45964C5.28644 6.2058 5.28644 5.79425 5.54028 5.5404C5.79412 5.28656 6.20568 5.28656 6.45952 5.5404L8 7.08088L9.54048 5.54041C9.79432 5.28656 10.2059 5.28656 10.4597 5.54041C10.7136 5.79425 10.7136 6.2058 10.4597 6.45964L8.91924 8.00012L10.4595 9.54041C10.7134 9.79425 10.7134 10.2058 10.4595 10.4596C10.2057 10.7135 9.79412 10.7135 9.54028 10.4596L8 8.91936L6.45972 10.4596C6.20588 10.7135 5.79432 10.7135 5.54048 10.4596Z" fill="#727E91"/>
</svg>
