<svg width="45" height="18" viewBox="0 0 45 18" fill="none" xmlns="http://www.w3.org/2000/svg">
<mask id="mask0_8874_32102" style="mask-type:luminance" maskUnits="userSpaceOnUse" x="1" y="1" width="43" height="16">
<path d="M43.8234 1H1V17H43.8234V1Z" fill="white"/>
</mask>
<path d="M18.1294 5.00005H19.8423V11.8572H21.5553V3.28577H19.8423C18.9002 3.28577 18.1294 4.05721 18.1294 5.00005Z" fill="white"/>
<path d="M23.2681 11.8572H24.981V8.42861C24.981 7.48576 24.2102 6.71432 23.2681 6.71432V11.8572Z" fill="white"/>
<path d="M26.6938 6.71432V11.8572H28.4068V8.42861H30.1197V10.1429C30.1197 11.0858 30.8907 11.8572 31.8326 11.8572V8.42861C31.8326 7.48576 31.0619 6.71432 30.1197 6.71432H26.6938Z" fill="white"/>
<path d="M42.1102 6.71433H40.3973V5.00005C40.3973 4.05721 39.6266 3.28577 38.6844 3.28577V10.1429H35.2586V8.42861H36.9715V6.71433H35.2586C34.3164 6.71433 33.5454 7.48577 33.5454 8.42861V10.1429C33.5454 11.0858 34.3164 11.8572 35.2586 11.8572H40.3973V8.42861H42.1102V10.1429C42.1102 11.0858 42.8811 11.8572 43.823 11.8572V8.42861C43.823 7.48577 43.0524 6.71433 42.1102 6.71433Z" fill="white"/>
<path d="M23.2681 5.00005H24.981C24.981 4.05721 24.2102 3.28577 23.2681 3.28577V5.00005Z" fill="white"/>
<path fill-rule="evenodd" clip-rule="evenodd" d="M20.7999 13.5715V14.6795H20.643L20.0265 13.9118V14.6795H19.8423V13.5715H19.9992L20.6158 14.3424V13.5715H20.7999ZM24.2844 14.6795H23.6198V13.5715H24.2683V13.7535H23.8167V14.029H24.2203V14.211H23.8167V14.4975H24.2844V14.6795ZM27.1042 13.7535H27.4677V14.6795H27.6647V13.7535H28.0282V13.5715H27.1042V13.7535ZM32.2204 13.5715H32.4094L32.0891 14.6795H31.9048L31.6343 13.8786L31.3685 14.6795H31.1827L30.8479 13.5715H31.069L31.2947 14.3614L31.5445 13.5715H31.7401L31.9961 14.3629L32.2204 13.5715ZM35.3925 13.7361C35.2838 13.8459 35.2292 13.9815 35.2292 14.1429C35.2292 14.3128 35.2844 14.4505 35.3943 14.5561C35.5042 14.6616 35.6435 14.7143 35.8121 14.7143C35.9798 14.7143 36.119 14.6605 36.2301 14.5529C36.3412 14.4453 36.3967 14.3086 36.3967 14.1429C36.3967 13.9741 36.3412 13.8364 36.2301 13.7298C36.1202 13.6242 35.981 13.5715 35.8121 13.5715C35.6435 13.5715 35.5036 13.6264 35.3925 13.7361ZM35.5448 14.4215C35.4731 14.3477 35.4375 14.2548 35.4375 14.1429C35.4375 14.029 35.4728 13.9356 35.543 13.8628C35.6147 13.7899 35.7042 13.7535 35.8121 13.7535C35.9178 13.7535 36.007 13.7899 36.0796 13.8628C36.1522 13.9366 36.1887 14.03 36.1887 14.1429C36.1887 14.2548 36.1543 14.3477 36.0861 14.4215C36.0189 14.4954 35.9276 14.5323 35.8121 14.5323C35.7054 14.5323 35.6162 14.4954 35.5448 14.4215ZM39.4135 14.268V14.6827H39.2165V13.5747C39.2719 13.5747 39.3324 13.5741 39.3975 13.5731C39.4624 13.572 39.5161 13.5715 39.5575 13.5715C39.8287 13.5715 39.9644 13.6855 39.9644 13.9134C39.9644 13.9978 39.9424 14.0675 39.8986 14.1223C39.855 14.1751 39.8047 14.211 39.7481 14.23L40.0989 14.6827H39.8604L39.5513 14.268H39.4135ZM39.5481 13.7535C39.5427 13.7535 39.5341 13.7541 39.5223 13.7551C39.5107 13.7551 39.4941 13.7557 39.4728 13.7567H39.4135V14.0859H39.5415C39.6047 14.0859 39.6559 14.0706 39.6953 14.04C39.7359 14.0094 39.7561 13.9677 39.7561 13.915C39.7561 13.8074 39.6867 13.7535 39.5481 13.7535ZM42.9187 14.6795H43.1155V14.1081L43.5735 14.6795H43.8233L43.3332 14.0875L43.7946 13.5715H43.5575L43.1155 14.097V13.5715H42.9187V14.6795Z" fill="white"/>
<path d="M8.14819 4.55438C8.43545 4.2169 8.32303 3.71689 8.32303 3.71689L7.4862 4.95438C7.4737 4.95438 7.78597 4.96689 8.14819 4.55438Z" fill="white"/>
<path d="M5.3378 11.3169L5.43771 10.8169C5.43771 10.8169 5.02553 11.5419 4.98808 11.6419C4.9506 11.7544 5.01306 11.9544 5.17543 11.9419C5.3378 11.9294 5.53765 11.6919 5.53765 11.5169C5.53765 11.2919 5.3378 11.3169 5.3378 11.3169Z" fill="white"/>
<path d="M12.7571 3.36691C12.7571 3.36691 13.3816 3.39191 14.0311 3.46691C12.5697 2.31691 11.1833 1.97941 10.0592 1.97941C8.51041 1.97941 7.46122 2.61691 7.39879 2.65441L7.8859 1.87941C7.8859 1.87941 5.93743 1.69191 5.25047 3.75441C5.07559 3.31691 4.91322 2.67941 4.91322 2.67941C4.91322 2.67941 3.90153 3.56691 4.37616 5.04191C3.21457 4.6169 1.55337 4.02941 1.49092 4.0169C1.40349 4.0044 1.37851 4.04191 1.37851 4.04191C1.37851 4.04191 1.35353 4.07942 1.42847 4.14191C1.56586 4.25441 4.18881 6.1919 4.76336 6.56692C4.63844 7.0169 4.63844 7.22941 4.76336 7.44191C4.9382 7.72941 4.9507 7.87939 4.92573 8.0919C4.90075 8.3044 4.67592 10.1419 4.62596 10.3669C4.57601 10.5919 4.05142 11.3919 4.07639 11.6294C4.10137 11.8669 4.42611 12.8794 4.7134 12.9919C4.92573 13.0669 5.45032 13.2294 5.80004 13.2294C5.92493 13.2294 6.03734 13.2044 6.08733 13.1544C6.29965 12.9669 6.36208 12.9294 6.51198 12.9294C6.52448 12.9294 6.53696 12.9294 6.54946 12.9294C6.61189 12.9294 6.68685 12.9419 6.77426 12.9419C6.97411 12.9419 7.23642 12.9044 7.42377 12.7294C7.69856 12.4544 8.17316 12.0794 8.32306 11.9044C8.51041 11.6669 8.61032 11.3419 8.56036 11.0169C8.52291 10.7169 8.68528 10.4544 8.87263 10.1919C9.10993 9.87939 9.54709 9.3169 9.54709 9.3169C10.4089 9.96692 10.946 10.9544 10.946 12.0544C10.946 14.0044 9.24733 15.5794 7.14899 15.5794C6.82424 15.5794 6.51198 15.5419 6.19971 15.4669C7.16146 15.8044 7.97334 15.9169 8.63533 15.9169C10.0467 15.9169 10.7961 15.4044 10.7961 15.4044C10.7961 15.4044 10.5338 15.7419 10.1092 16.1294C10.1216 16.1294 10.1216 16.1294 10.1216 16.1294C12.4573 15.8044 13.5939 13.8794 13.5939 13.8794C13.5939 13.8794 13.5065 14.5044 13.3941 14.9294C16.5041 12.5919 15.9796 9.66692 15.9671 9.56692C15.992 9.6044 16.3043 9.97939 16.4667 10.1794C16.9663 5.02941 12.7571 3.36691 12.7571 3.36691ZM7.97334 11.5919C7.92339 11.6544 7.71103 11.8419 7.56116 11.9794C7.41127 12.1169 7.2489 12.2544 7.12401 12.3794C7.07405 12.4294 6.97411 12.4544 6.82424 12.4544C6.77426 12.4544 6.7243 12.4544 6.68685 12.4544C6.66187 12.4544 6.63687 12.4544 6.61189 12.4544C6.58691 12.4544 6.57444 12.4544 6.56193 12.4544C6.52448 12.4544 6.487 12.4544 6.44952 12.4544C6.63687 12.2044 7.18644 11.6294 7.37382 11.5044C7.59862 11.3544 7.71103 11.2044 7.57364 10.9419C7.43625 10.6794 7.07405 10.7419 7.07405 10.7419C7.07405 10.7419 7.28638 10.6544 7.47373 10.6544C7.23642 10.5919 6.93666 10.6544 6.79927 10.7919C6.64937 10.9294 6.67435 11.4169 6.61189 11.7294C6.54946 12.0544 6.3371 12.2169 6.01236 12.5169C5.83752 12.6794 5.7126 12.7294 5.61269 12.7294C5.40036 12.6919 5.15056 12.6294 4.97568 12.5669C4.85079 12.4044 4.66342 11.8669 4.61346 11.6419C4.65094 11.5169 4.80081 11.2544 4.87577 11.1044C5.02564 10.8169 5.11307 10.6544 5.13805 10.5044C5.18801 10.2919 5.35038 8.97939 5.41284 8.42941C5.57521 8.64191 5.80004 8.9919 5.75008 9.2169C6.1123 8.7044 5.84999 8.2044 5.7251 8.0044C5.61269 7.8044 5.46279 7.4044 5.58771 6.97939C5.7126 6.55441 6.16226 5.37939 6.16226 5.37939C6.16226 5.37939 6.31213 5.64191 6.52448 5.5919C6.73681 5.54191 8.44795 2.96691 8.44795 2.96691C8.44795 2.96691 8.91011 3.97939 8.42297 4.7169C7.92339 5.45441 7.43624 5.5919 7.43624 5.5919C7.43624 5.5919 8.12321 5.7169 8.76022 5.25441C9.0225 5.86692 9.2723 6.5044 9.28481 6.5919C9.24733 6.67939 8.74771 7.87939 8.69776 7.95441C8.67278 7.97939 8.49793 8.02941 8.37302 8.05441C8.16069 8.1169 8.03577 8.15441 7.98582 8.1919C7.89838 8.26692 7.4987 9.36692 7.31136 9.9044C7.08653 9.96692 6.8617 10.0919 6.69933 10.3419C6.78676 10.2794 7.06155 10.2419 7.2614 10.2169C7.43625 10.2044 7.97334 10.4919 8.11073 11.0294C8.11073 11.0419 8.11073 11.0419 8.11073 11.0544C8.13571 11.2544 8.07325 11.4419 7.97334 11.5919ZM6.79927 11.7419C6.91165 11.5794 6.89918 11.3044 6.91165 11.2169C6.92416 11.1294 6.94913 10.9669 7.04905 10.9419C7.14899 10.9169 7.38629 10.9544 7.38629 11.1294C7.38629 11.2919 7.21144 11.3294 7.08653 11.4419C6.99909 11.5294 6.82425 11.7169 6.79927 11.7419ZM11.7829 9.35441C11.9077 8.7169 11.9202 8.16692 11.8828 7.7169C12.3699 8.36692 12.6696 9.15441 12.7571 9.96692C12.7696 10.0669 12.8695 10.1669 12.9694 10.2669C13.0568 10.3419 13.1568 10.4419 13.1568 10.5044C13.1568 10.7919 13.1318 11.0794 13.0818 11.3669C13.0693 11.4044 12.9569 11.4669 12.8695 11.5169C12.7446 11.5794 12.6322 11.6419 12.6072 11.7419C12.3324 12.7044 11.7454 13.5544 10.9585 14.1544C12.1201 12.9419 12.6821 10.9419 11.7829 9.35441ZM10.9959 14.2669C11.8078 13.6419 12.4323 12.7669 12.7071 11.7794C12.7196 11.7419 12.832 11.6794 12.907 11.6294C13.0319 11.5669 13.1568 11.4919 13.1818 11.3919C13.2317 11.1044 13.2567 10.8044 13.2567 10.5044C13.2567 10.3919 13.1443 10.2794 13.0319 10.1669C12.9694 10.0919 12.8695 10.0044 12.8695 9.94191C12.7696 9.02941 12.4074 8.16692 11.8453 7.45441C11.5955 5.95441 10.5963 5.4919 10.5713 5.47939C10.5963 5.5169 11.2458 6.45441 10.7961 7.55441C10.334 8.66692 9.14742 8.4919 9.0475 8.5044C8.94756 8.5044 8.56036 9.0044 8.07325 9.92941C8.01079 9.9044 7.74851 9.84191 7.44875 9.8919C7.67358 9.26692 8.01079 8.37939 8.07325 8.3044C8.09823 8.27939 8.28558 8.22941 8.4105 8.1919C8.6478 8.12941 8.76022 8.0919 8.7977 8.04191C8.82267 8.0044 8.94756 7.7169 9.07248 7.4169C9.18487 7.4169 9.47216 7.3919 9.49713 7.37939C9.52211 7.35441 9.75942 6.74191 9.75942 6.66692C9.75942 6.6044 9.2723 5.3919 9.08496 4.92941C9.17239 4.82941 9.25983 4.7044 9.34727 4.56692C11.9077 4.84191 13.9062 7.0169 13.9062 9.65441C13.9062 11.6794 12.7196 13.4419 10.9959 14.2669Z" fill="white"/>
<path d="M7.67337 7.51689C7.91067 7.2419 7.78578 6.72939 7.34863 6.6419C7.46101 6.37938 7.62341 5.8544 7.62341 5.8544C7.62341 5.8544 6.3494 7.8544 6.23698 7.89188C6.12457 7.92939 6.01215 7.49188 6.01215 7.49188C5.77485 8.40439 6.41186 8.52939 6.48679 8.2419C6.83651 8.1544 7.43603 7.77938 7.67337 7.51689Z" fill="white"/>
<defs>
<clipPath id="clip0_8874_32102">
<rect width="42.963" height="16" fill="white" transform="translate(1 1)"/>
</clipPath>
</defs>
</svg>
