<svg width="45" height="18" viewBox="0 0 45 18" fill="none" xmlns="http://www.w3.org/2000/svg">
<g clip-path="url(#clip0_8871_15399)">
<mask id="mask0_8871_15399" style="mask-type:luminance" maskUnits="userSpaceOnUse" x="1" y="1" width="43" height="16">
<path d="M43.8234 1H1V17H43.8234V1Z" fill="white"/>
</mask>
<g mask="url(#mask0_8871_15399)">
<path d="M18.1295 5.00004H19.8424V11.8572H21.5554V3.28575H19.8424C18.9003 3.28575 18.1295 4.05719 18.1295 5.00004Z" fill="white"/>
<path d="M23.2683 11.8572H24.9813V8.42859C24.9813 7.48575 24.2104 6.71431 23.2683 6.71431V11.8572Z" fill="white"/>
<path d="M26.6942 6.71431V11.8572H28.4071V8.42859H30.1201V10.1429C30.1201 11.0857 30.891 11.8572 31.833 11.8572V8.42859C31.833 7.48575 31.0623 6.71431 30.1201 6.71431H26.6942Z" fill="white"/>
<path d="M42.1105 6.71432H40.3976V5.00004C40.3976 4.05719 39.627 3.28575 38.6847 3.28575V10.1429H35.259V8.4286H36.9718V6.71432H35.259C34.3167 6.71432 33.5458 7.48575 33.5458 8.4286V10.1429C33.5458 11.0858 34.3167 11.8572 35.259 11.8572H40.3976V8.4286H42.1105V10.1429C42.1105 11.0858 42.8815 11.8572 43.8234 11.8572V8.4286C43.8234 7.48575 43.0527 6.71432 42.1105 6.71432Z" fill="white"/>
<path d="M23.2683 5.00004H24.9813C24.9813 4.05719 24.2104 3.28575 23.2683 3.28575V5.00004Z" fill="white"/>
<path fill-rule="evenodd" clip-rule="evenodd" d="M20.8001 13.5715V14.6795H20.6431L20.0266 13.9118V14.6795H19.8424V13.5715H19.9994L20.6159 14.3424V13.5715H20.8001ZM24.2845 14.6795H23.6199V13.5715H24.2685V13.7535H23.8168V14.029H24.2204V14.211H23.8168V14.4975H24.2845V14.6795ZM27.1043 13.7535H27.4678V14.6795H27.6648V13.7535H28.0283V13.5715H27.1043V13.7535ZM32.2205 13.5715H32.4095L32.0892 14.6795H31.9049L31.6344 13.8786L31.3686 14.6795H31.1829L30.848 13.5715H31.0691L31.2949 14.3614L31.5446 13.5715H31.7402L31.9962 14.3629L32.2205 13.5715ZM35.3926 13.7361C35.2839 13.8459 35.2294 13.9815 35.2294 14.1429C35.2294 14.3128 35.2845 14.4505 35.3944 14.5561C35.5043 14.6616 35.6436 14.7143 35.8122 14.7143C35.9799 14.7143 36.1191 14.6605 36.2303 14.5529C36.3414 14.4453 36.3968 14.3086 36.3968 14.1429C36.3968 13.9741 36.3414 13.8364 36.2303 13.7298C36.1203 13.6242 35.9811 13.5715 35.8122 13.5715C35.6436 13.5715 35.5037 13.6264 35.3926 13.7361ZM35.5449 14.4215C35.4732 14.3477 35.4377 14.2548 35.4377 14.1429C35.4377 14.029 35.4729 13.9356 35.5431 13.8628C35.6149 13.7899 35.7043 13.7535 35.8122 13.7535C35.918 13.7535 36.0071 13.7899 36.0797 13.8628C36.1523 13.9366 36.1888 14.03 36.1888 14.1429C36.1888 14.2548 36.1544 14.3477 36.0863 14.4215C36.019 14.4954 35.9277 14.5323 35.8122 14.5323C35.7055 14.5323 35.6163 14.4954 35.5449 14.4215ZM39.4137 14.268V14.6827H39.2166V13.5747C39.272 13.5747 39.3325 13.5741 39.3977 13.5731C39.4626 13.572 39.5162 13.5715 39.5577 13.5715C39.8288 13.5715 39.9645 13.6855 39.9645 13.9134C39.9645 13.9978 39.9426 14.0675 39.8987 14.1223C39.8551 14.1751 39.8048 14.211 39.7482 14.23L40.099 14.6827H39.8605L39.5514 14.268H39.4137ZM39.5482 13.7535C39.5429 13.7535 39.5343 13.7541 39.5224 13.7551C39.5109 13.7551 39.4943 13.7557 39.4729 13.7567H39.4137V14.0859H39.5417C39.6048 14.0859 39.656 14.0706 39.6954 14.04C39.736 14.0094 39.7562 13.9677 39.7562 13.915C39.7562 13.8074 39.6869 13.7535 39.5482 13.7535ZM42.9188 14.6795H43.1156V14.1081L43.5737 14.6795H43.8234L43.3334 14.0875L43.7947 13.5715H43.5577L43.1156 14.097V13.5715H42.9188V14.6795Z" fill="#2F7AEA"/>
<path d="M4.97592 9.72939L5.37559 6.71688L1.90332 4.30438L5.07583 5.37937L5.82525 4.22939L8.5606 2.52937L14.5934 5.85437L14.9056 10.9294L12.2202 14.6669L10.0969 14.9919L11.196 12.9794V11.0419L10.3967 9.52939L9.58481 8.99188L8.33577 10.2794V11.6419L7.36155 12.5544L6.12502 12.7044L5.57544 13.0169L4.67616 12.7294L4.30143 11.3794L4.97592 10.4294V9.72939Z" fill="white"/>
<path d="M10.5215 4.27935C9.85954 4.14187 9.13509 4.17935 9.13509 4.17935C9.13509 4.17935 8.89779 5.27935 7.42395 5.56685C7.43642 5.56685 9.37242 6.22936 10.5215 4.27935Z" fill="#94A6C3"/>
<path d="M11.121 14.2544C11.9204 13.6294 12.5199 12.7669 12.7947 11.7919C12.8072 11.7544 12.9196 11.6919 12.9946 11.6419C13.1194 11.5669 13.2444 11.5044 13.2693 11.4044C13.3193 11.1169 13.3443 10.8169 13.3443 10.5169C13.3443 10.4044 13.2319 10.2919 13.1194 10.1794C13.032 10.1044 12.9446 10.0169 12.9446 9.95436C12.8197 8.81685 12.2951 7.75436 11.4583 6.97937L11.3708 7.06687C12.1827 7.82936 12.7073 8.86687 12.8197 9.96687C12.8322 10.0669 12.9321 10.1669 13.032 10.2669C13.1194 10.3419 13.2194 10.4544 13.2194 10.5044C13.2194 10.7919 13.1944 11.0794 13.1445 11.3669C13.1319 11.4169 13.0195 11.4669 12.9321 11.5169C12.8072 11.5794 12.6948 11.6419 12.6698 11.7419C12.3701 12.8044 11.6831 13.7294 10.7713 14.3294C10.9337 13.9794 11.4458 12.8419 11.7206 12.2669L11.6706 10.4169L10.0843 8.87937L9.18505 9.00438L8.19832 10.6044C8.19832 10.6044 8.66045 11.1919 8.01097 11.8794C7.37396 12.5544 6.87435 12.7044 6.87435 12.7044L6.41222 12.4544C6.54961 12.2794 6.82439 12.0169 7.03672 11.8419C7.39894 11.5419 7.76116 11.5169 7.76116 11.1919C7.77367 10.5169 7.04922 10.7044 7.04922 10.7044L6.78694 10.9544L6.67453 11.8794L6.12496 12.5669L6.0625 12.5544L5.16321 12.3544C5.16321 12.3544 5.71278 12.0669 5.80022 11.7419C5.88762 11.4294 5.62534 10.3919 5.61284 10.3294C5.62534 10.3419 5.87515 10.5544 5.98756 10.9044C6.18739 10.3544 6.4497 9.82935 6.52463 9.77937C6.59956 9.72935 7.61127 9.19187 7.61127 9.19187L7.27405 10.0794L7.52386 9.94186L8.12339 8.46687C8.12339 8.46687 8.71041 8.17937 9.14756 8.17937C9.93447 8.16687 11.096 7.20438 10.5714 5.47937C10.7213 5.54186 13.3193 6.84186 13.769 9.39187C14.1062 11.3544 12.9946 13.1919 11.121 14.2544Z" fill="#94A6C3"/>
<path d="M8.14843 4.55437C8.43569 4.21689 8.32328 3.71687 8.32328 3.71687L7.48645 4.95437C7.47394 4.95437 7.78621 4.96687 8.14843 4.55437Z" fill="#0A192B"/>
<path d="M5.33817 11.3169L5.43808 10.8169C5.43808 10.8169 5.0259 11.5419 4.98845 11.6419C4.95097 11.7544 5.01343 11.9544 5.1758 11.9419C5.33817 11.9294 5.53802 11.6919 5.53802 11.5169C5.53802 11.2919 5.33817 11.3169 5.33817 11.3169Z" fill="#0A192B"/>
<path d="M12.7573 3.36689C12.7573 3.36689 13.3818 3.39189 14.0313 3.46689C12.57 2.31689 11.1836 1.97939 10.0595 1.97939C8.51065 1.97939 7.46147 2.61689 7.39904 2.65439L7.88615 1.87939C7.88615 1.87939 5.93767 1.69189 5.25071 3.75439C5.07584 3.31689 4.91347 2.67939 4.91347 2.67939C4.91347 2.67939 3.90177 3.56689 4.3764 5.0419C3.21481 4.61689 1.55361 4.02939 1.49116 4.01689C1.40373 4.00438 1.37875 4.0419 1.37875 4.0419C1.37875 4.0419 1.35377 4.07941 1.42871 4.1419C1.5661 4.2544 4.18905 6.19188 4.7636 6.5669C4.63868 7.01689 4.63868 7.22939 4.7636 7.4419C4.93844 7.72939 4.95095 7.87938 4.92597 8.09188C4.90099 8.30438 4.67616 10.1419 4.62621 10.3669C4.57625 10.5919 4.05166 11.3919 4.07664 11.6294C4.10161 11.8669 4.42636 12.8794 4.71364 12.9919C4.92597 13.0669 5.45056 13.2294 5.80028 13.2294C5.92517 13.2294 6.03759 13.2044 6.08757 13.1544C6.2999 12.9669 6.36233 12.9294 6.51222 12.9294C6.52473 12.9294 6.5372 12.9294 6.5497 12.9294C6.61213 12.9294 6.6871 12.9419 6.7745 12.9419C6.97436 12.9419 7.23667 12.9044 7.42402 12.7294C7.6988 12.4544 8.17341 12.0794 8.3233 11.9044C8.51065 11.6669 8.61056 11.3419 8.56061 11.0169C8.52316 10.7169 8.68553 10.4544 8.87287 10.1919C9.11018 9.87938 9.54733 9.31689 9.54733 9.31689C10.4092 9.9669 10.9462 10.9544 10.9462 12.0544C10.9462 14.0044 9.24757 15.5794 7.14923 15.5794C6.82449 15.5794 6.51222 15.5419 6.19996 15.4669C7.1617 15.8044 7.97359 15.9169 8.63557 15.9169C10.0469 15.9169 10.7964 15.4044 10.7964 15.4044C10.7964 15.4044 10.5341 15.7419 10.1094 16.1294C10.1219 16.1294 10.1219 16.1294 10.1219 16.1294C12.4576 15.8044 13.5942 13.8794 13.5942 13.8794C13.5942 13.8794 13.5067 14.5044 13.3943 14.9294C16.5044 12.5919 15.9798 9.6669 15.9673 9.5669C15.9923 9.60438 16.3045 9.97938 16.4669 10.1794C16.9665 5.02939 12.7573 3.36689 12.7573 3.36689ZM7.97359 11.5919C7.92363 11.6544 7.71127 11.8419 7.56141 11.9794C7.41151 12.1169 7.24914 12.2544 7.12425 12.3794C7.0743 12.4294 6.97436 12.4544 6.82449 12.4544C6.7745 12.4544 6.72455 12.4544 6.6871 12.4544C6.66212 12.4544 6.63711 12.4544 6.61213 12.4544C6.58716 12.4544 6.57468 12.4544 6.56218 12.4544C6.52473 12.4544 6.48724 12.4544 6.44976 12.4544C6.63711 12.2044 7.18668 11.6294 7.37406 11.5044C7.59886 11.3544 7.71127 11.2044 7.57388 10.9419C7.43649 10.6794 7.0743 10.7419 7.0743 10.7419C7.0743 10.7419 7.28662 10.6544 7.47397 10.6544C7.23667 10.5919 6.9369 10.6544 6.79951 10.7919C6.64962 10.9294 6.67459 11.4169 6.61213 11.7294C6.5497 12.0544 6.33735 12.2169 6.01261 12.5169C5.83776 12.6794 5.71284 12.7294 5.61293 12.7294C5.40061 12.6919 5.1508 12.6294 4.97593 12.5669C4.85104 12.4044 4.66366 11.8669 4.6137 11.6419C4.65119 11.5169 4.80105 11.2544 4.87601 11.1044C5.02588 10.8169 5.11332 10.6544 5.1383 10.5044C5.18825 10.2919 5.35062 8.97938 5.41308 8.42939C5.57545 8.6419 5.80028 8.99188 5.75033 9.21689C6.11255 8.70438 5.85024 8.20438 5.72535 8.00438C5.61293 7.80438 5.46304 7.40439 5.58796 6.97938C5.71284 6.5544 6.1625 5.37938 6.1625 5.37938C6.1625 5.37938 6.31237 5.6419 6.52473 5.59188C6.73705 5.5419 8.44819 2.96689 8.44819 2.96689C8.44819 2.96689 8.91036 3.97938 8.42321 4.71689C7.92363 5.4544 7.43649 5.59188 7.43649 5.59188C7.43649 5.59188 8.12345 5.71689 8.76046 5.2544C9.02274 5.8669 9.27255 6.50438 9.28505 6.59188C9.24757 6.67938 8.74796 7.87938 8.698 7.9544C8.67302 7.97938 8.49818 8.02939 8.37326 8.0544C8.16093 8.11689 8.03602 8.1544 7.98606 8.19188C7.89862 8.2669 7.49895 9.3669 7.3116 9.90438C7.08677 9.9669 6.86194 10.0919 6.69957 10.3419C6.78701 10.2794 7.06179 10.2419 7.26164 10.2169C7.43649 10.2044 7.97359 10.4919 8.11098 11.0294C8.11098 11.0419 8.11098 11.0419 8.11098 11.0544C8.13596 11.2544 8.0735 11.4419 7.97359 11.5919ZM6.79951 11.7419C6.9119 11.5794 6.89942 11.3044 6.9119 11.2169C6.9244 11.1294 6.94938 10.9669 7.04929 10.9419C7.14923 10.9169 7.38653 10.9544 7.38653 11.1294C7.38653 11.2919 7.21169 11.3294 7.08677 11.4419C6.99933 11.5294 6.82449 11.7169 6.79951 11.7419ZM11.7831 9.3544C11.908 8.71689 11.9205 8.1669 11.883 7.71689C12.3701 8.3669 12.6699 9.1544 12.7573 9.9669C12.7698 10.0669 12.8697 10.1669 12.9696 10.2669C13.0571 10.3419 13.157 10.4419 13.157 10.5044C13.157 10.7919 13.132 11.0794 13.0821 11.3669C13.0696 11.4044 12.9572 11.4669 12.8697 11.5169C12.7448 11.5794 12.6324 11.6419 12.6075 11.7419C12.3327 12.7044 11.7456 13.5544 10.9587 14.1544C12.1203 12.9419 12.6824 10.9419 11.7831 9.3544ZM10.9962 14.2669C11.8081 13.6419 12.4326 12.7669 12.7074 11.7794C12.7198 11.7419 12.8323 11.6794 12.9072 11.6294C13.0321 11.5669 13.157 11.4919 13.182 11.3919C13.232 11.1044 13.2569 10.8044 13.2569 10.5044C13.2569 10.3919 13.1445 10.2794 13.0321 10.1669C12.9696 10.0919 12.8697 10.0044 12.8697 9.9419C12.7698 9.02939 12.4076 8.1669 11.8455 7.4544C11.5957 5.9544 10.5965 5.49188 10.5715 5.47938C10.5965 5.51689 11.246 6.4544 10.7964 7.5544C10.3342 8.6669 9.14766 8.49188 9.04775 8.50438C8.94781 8.50438 8.56061 9.00438 8.0735 9.92939C8.01104 9.90438 7.74876 9.8419 7.44899 9.89188C7.67382 9.2669 8.01104 8.37938 8.0735 8.30438C8.09847 8.27938 8.28582 8.22939 8.41074 8.19188C8.64805 8.12939 8.76046 8.09188 8.79794 8.0419C8.82292 8.00438 8.94781 7.71689 9.07273 7.41689C9.18511 7.41689 9.4724 7.39188 9.49738 7.37938C9.52236 7.3544 9.75966 6.7419 9.75966 6.6669C9.75966 6.60438 9.27255 5.39188 9.0852 4.92939C9.17264 4.82939 9.26007 4.70438 9.34751 4.5669C11.908 4.8419 13.9064 7.01689 13.9064 9.6544C13.9064 11.6794 12.7198 13.4419 10.9962 14.2669Z" fill="#0A192B"/>
<path d="M7.67386 7.51689C7.91116 7.2419 7.78627 6.72939 7.34911 6.6419C7.4615 6.37938 7.6239 5.8544 7.6239 5.8544C7.6239 5.8544 6.34989 7.8544 6.23747 7.89188C6.12506 7.92939 6.01264 7.49188 6.01264 7.49188C5.77534 8.40439 6.41234 8.52939 6.48728 8.2419C6.837 8.1544 7.43652 7.77938 7.67386 7.51689Z" fill="#0A192B"/>
<path d="M6.58716 8.00441L7.23664 6.89194C7.23664 6.89194 7.61134 7.07943 7.42399 7.37943C7.18668 7.72942 6.58716 8.00441 6.58716 8.00441Z" fill="#FFD923"/>
<path d="M14.6184 13.1544C14.431 13.4044 14.2187 13.6669 13.9689 13.9169C15.5801 10.8169 14.0438 7.9794 13.9814 7.8669C14.0938 7.9794 14.2062 8.10441 14.3061 8.21688C15.5426 9.5919 15.6925 11.6544 14.6184 13.1544Z" fill="#D82122"/>
<path d="M16.1171 9.1669C15.5551 7.65439 14.7557 6.3669 12.9946 5.20438C11.2959 4.0794 9.47233 4.1669 9.37239 4.1794C9.35992 4.1794 9.34741 4.1794 9.34741 4.1794C9.40987 4.15439 9.47233 4.14189 9.53476 4.12939C9.92196 4.00438 10.4216 3.90439 10.9212 3.84189C12.2451 3.65439 13.5816 4.10438 14.4934 5.0669C14.5059 5.0794 14.5059 5.0794 14.5183 5.0919C15.5551 6.1919 16.0921 7.5669 16.1171 9.1669Z" fill="#D82122"/>
<path d="M12.5949 2.97943C10.7339 2.62943 9.53483 2.80443 8.67302 3.12943C8.64804 3.02943 8.56061 2.82943 8.48567 2.66693C8.22336 2.97943 7.94858 3.35443 7.77373 3.59193C7.29909 3.91693 7.09924 4.22942 7.09924 4.22942C7.37403 3.29193 8.17341 2.59193 9.14763 2.41693C9.42241 2.36693 9.72218 2.34193 10.0469 2.34193C10.9088 2.35443 11.7706 2.56693 12.5949 2.97943Z" fill="#D82122"/>
<path d="M5.7128 5.37944C4.25144 5.32943 4.73855 3.62943 4.76355 3.52943C4.76355 3.54193 4.86347 4.86694 5.7128 5.37944Z" fill="#D82122"/>
<path d="M7.14913 2.31691C6.02501 2.99191 6.24984 4.60441 6.24984 4.60441C5.17568 2.96691 7.06172 2.35441 7.14913 2.31691Z" fill="#D82122"/>
<path d="M5.30068 5.82939C5.37561 5.89191 5.45055 6.00438 5.36314 6.1669C5.31315 6.2544 5.23822 6.24189 5.1258 6.19191C4.97594 6.11689 4.07662 5.59191 3.26477 5.0544C4.18903 5.3794 5.1258 5.72939 5.2757 5.80438C5.2757 5.80438 5.28817 5.81689 5.30068 5.82939Z" fill="white"/>
</g>
</g>
<defs>
<clipPath id="clip0_8871_15399">
<rect width="42.963" height="16" fill="white" transform="translate(1 1)"/>
</clipPath>
</defs>
</svg>
