<svg width="67" height="18" viewBox="0 0 67 18" fill="none" xmlns="http://www.w3.org/2000/svg">
<g clip-path="url(#clip0_8874_30880)">
<path d="M18.3333 10.0599C18.3333 7.90146 19.9143 6.34796 22.0864 6.34796C24.2586 6.34796 25.8395 7.90146 25.8395 10.0599C25.8395 12.2182 24.2586 13.7717 22.0864 13.7717C19.928 13.7717 18.3333 12.2182 18.3333 10.0599ZM24.2723 10.0599C24.2723 8.71259 23.4062 7.69526 22.0864 7.69526C20.7666 7.69526 19.9143 8.71259 19.9143 10.0599C19.9143 11.3934 20.7666 12.4245 22.0864 12.4245C23.4062 12.4107 24.2723 11.3934 24.2723 10.0599Z" fill="white"/>
<path d="M26.4307 12.6298L27.2556 11.4612C27.7642 11.9836 28.5479 12.4236 29.5377 12.4236C30.3763 12.4236 30.7887 12.0386 30.7887 11.6262C30.7887 10.3614 26.6507 11.2275 26.6507 8.5192C26.6507 7.32316 27.6818 6.33333 29.3727 6.33333C30.5138 6.33333 31.4624 6.67703 32.1773 7.33689L31.3249 8.45046C30.7475 7.91433 29.9639 7.66686 29.2352 7.66686C28.5754 7.66686 28.2179 7.95556 28.2179 8.38173C28.2179 9.5228 32.3422 8.75293 32.3422 11.4337C32.3422 12.7535 31.4074 13.7433 29.469 13.7433C28.0942 13.7708 27.1044 13.3034 26.4307 12.6298Z" fill="white"/>
<path d="M39.6284 13.6469V8.61526L37.6077 13.6469H36.934L34.913 8.61526V13.6469H33.387V6.45686H35.5317L37.2777 10.8011L39.0237 6.45686H41.182V13.6332H39.6284V13.6469Z" fill="white"/>
<path d="M42.2407 10.059C42.2407 7.90067 43.8217 6.34717 45.9937 6.34717C48.166 6.34717 49.747 7.90067 49.747 10.059C49.747 12.2174 48.166 13.7709 45.9937 13.7709C43.8217 13.7709 42.2407 12.2174 42.2407 10.059ZM48.1797 10.059C48.1797 8.71177 47.3137 7.69443 45.9937 7.69443C44.674 7.69443 43.8217 8.71177 43.8217 10.059C43.8217 11.3926 44.674 12.4236 45.9937 12.4236C47.3137 12.4099 48.1797 11.3926 48.1797 10.059Z" fill="white"/>
<path d="M50.338 12.6298L51.163 11.4612C51.6713 11.9836 52.455 12.4236 53.445 12.4236C54.2837 12.4236 54.696 12.0386 54.696 11.6262C54.696 10.3614 50.558 11.2275 50.558 8.5192C50.558 7.32316 51.589 6.33333 53.28 6.33333C54.421 6.33333 55.3697 6.67703 56.0847 7.33689L55.232 8.45046C54.6547 7.91433 53.871 7.66686 53.1427 7.66686C52.4827 7.66686 52.1253 7.95556 52.1253 8.38173C52.1253 9.5228 56.2493 8.75293 56.2493 11.4337C56.2493 12.7535 55.3147 13.7433 53.3763 13.7433C52.0013 13.7708 51.0117 13.3034 50.338 12.6298Z" fill="white"/>
<path d="M57.2806 13.6469V6.45686H58.8203V13.6332H57.2806V13.6469Z" fill="white"/>
<path d="M59.7553 12.6298L60.58 11.4612C61.0886 11.9836 61.8723 12.4236 62.862 12.4236C63.7006 12.4236 64.1133 12.0386 64.1133 11.6262C64.1133 10.3614 59.975 11.2275 59.975 8.5192C59.975 7.32316 61.0063 6.33333 62.6973 6.33333C63.8383 6.33333 64.7866 6.67703 65.5016 7.33689L64.6493 8.45046C64.072 7.91433 63.2883 7.66686 62.5596 7.66686C61.8996 7.66686 61.5423 7.95556 61.5423 8.38173C61.5423 9.5228 65.6666 8.75293 65.6666 11.4337C65.6666 12.7535 64.732 13.7433 62.7933 13.7433C61.405 13.7708 60.415 13.3034 59.7553 12.6298Z" fill="white"/>
<path d="M15.6239 3.8284C15.4611 3.20118 14.9375 2.57396 13.9952 1.87574C13.239 1.31953 12.4362 1 11.7964 1C11.6684 1 11.552 1.01183 11.4357 1.0355C11.1448 1.09467 10.8889 1.30769 10.726 1.62722C10.5282 2.00592 10.4817 2.51479 10.6097 2.82249C10.6562 2.91716 10.7144 3.0355 10.7842 3.14201C10.1676 3.52071 9.81857 3.62722 9.77203 3.63905C11.3775 4.18343 12.7154 5.31953 13.5531 6.7988L13.5647 6.6568C13.5996 6.26627 13.716 5.81657 13.8788 5.35503C14.0417 5.40237 14.2046 5.42603 14.3675 5.42603C14.7979 5.42603 15.1702 5.24853 15.4029 4.929C15.6356 4.60947 15.7286 4.18343 15.6239 3.8284Z" fill="white"/>
<path d="M13.9487 5.0118C15.0074 5.30763 15.4378 4.47923 15.2982 3.92302C15.147 3.36681 14.6583 2.79876 13.7974 2.15971C12.9365 1.52066 12.064 1.2603 11.5055 1.37864C10.9471 1.49699 10.7842 2.36089 10.9238 2.69225C10.982 2.82243 11.11 3.01178 11.2845 3.2248C11.0634 3.37864 10.854 3.49699 10.6795 3.6035C11.7498 4.0887 12.6806 4.8461 13.3786 5.79283C13.46 5.47333 13.5764 5.1893 13.6811 4.94076C13.7625 4.9526 13.8556 4.97626 13.9487 5.0118Z" fill="white"/>
<path opacity="0.6" d="M14.7631 3.37863C13.8789 2.43188 13.1343 2.18336 12.2385 1.98218C11.5405 1.8165 11.7266 1.41413 12.5759 1.49697C12.1687 1.35496 11.7848 1.31946 11.5056 1.37863C10.9471 1.49697 10.7842 2.36088 10.9239 2.69224C10.982 2.82242 11.11 3.01177 11.2845 3.22478C10.9704 3.4378 10.7028 3.59165 10.4818 3.70999C10.5865 3.75732 10.7144 3.8165 10.8657 3.89934C11.2612 4.11236 11.6917 4.46737 11.6917 4.46737C11.0402 3.89934 11.1798 3.63898 12.0756 2.99993C12.3548 2.79875 12.8667 2.82242 13.3437 3.07094C13.8207 3.31946 14.3792 3.94668 14.3792 3.94668L13.844 4.98811C13.8789 4.99994 13.9138 5.01177 13.9487 5.02361C14.2861 5.11827 14.5537 5.09461 14.7631 5.01177C15.0074 4.85791 15.6473 4.33721 14.7631 3.37863Z" fill="white"/>
<path d="M12.2268 2.55028C12.4595 2.64495 12.762 2.81064 13.1343 3.05916C13.5764 3.35502 13.9603 3.68638 14.2046 3.94673C13.7974 4.4911 13.5298 5.23666 13.367 5.75739C13.4484 5.87573 13.5415 5.99406 13.6229 6.11239C13.7044 5.81656 13.844 5.37869 14.0301 4.94079C14.0766 4.95266 14.1348 4.95266 14.193 4.95266C14.3326 4.95266 14.4955 4.92896 14.6234 4.82246C14.7165 4.75146 14.8212 4.62129 14.8096 4.38459C14.8096 4.15975 14.6351 3.87572 14.2744 3.53253C14.0185 3.28401 13.6695 3.01182 13.3204 2.7633C12.3199 2.08874 11.6219 1.89939 11.3078 2.21892C11.0983 2.43194 11.1216 2.69229 11.1914 2.88164C10.8191 3.13016 10.505 3.30768 10.2956 3.42602C10.4352 3.47335 10.5632 3.53253 10.7028 3.5917C11.0751 3.39052 11.6102 3.04732 12.2268 2.55028ZM14.4257 4.24259C14.4606 4.30176 14.4722 4.36093 14.4722 4.39643C14.4722 4.50293 14.4373 4.53846 14.414 4.56213C14.3675 4.59763 14.2744 4.62129 14.193 4.62129C14.2628 4.47926 14.3442 4.36093 14.4257 4.24259ZM11.5521 2.47928C11.587 2.44377 11.68 2.4201 11.8313 2.44377C11.7149 2.53844 11.5986 2.62129 11.4823 2.70413C11.4706 2.62129 11.4823 2.53845 11.5521 2.47928Z" fill="white"/>
<path d="M7.88733 2.98811C4.08301 2.98811 1 6.12419 1 9.99403C1 13.8639 4.08301 17 7.88733 17C11.6917 17 14.7747 13.8639 14.7747 9.99403C14.7747 6.12419 11.68 2.98811 7.88733 2.98811ZM7.88733 16.6094C4.29242 16.6094 1.38392 13.6508 1.38392 9.99403C1.38392 6.33723 4.29242 3.37864 7.88733 3.37864C11.4822 3.37864 14.3907 6.33723 14.3907 9.99403C14.3907 13.6508 11.4706 16.6094 7.88733 16.6094Z" fill="white"/>
<path d="M7.88733 16.6095C11.4791 16.6095 14.3907 13.6477 14.3907 9.99413C14.3907 6.34056 11.4791 3.37874 7.88733 3.37874C4.29559 3.37874 1.38391 6.34056 1.38391 9.99413C1.38391 13.6477 4.29559 16.6095 7.88733 16.6095Z" fill="#7C4FFC"/>
<path d="M7.84082 15.8048C4.29243 15.2249 1.88419 11.8285 2.46589 8.219C2.72184 6.62136 3.51295 5.2604 4.62982 4.27815C3.00106 5.23673 1.79112 6.90536 1.46537 8.94086C0.895303 12.5503 3.30354 15.9468 6.84029 16.5267C8.81805 16.858 10.7261 16.2308 12.1338 15C10.8889 15.7338 9.37649 16.0533 7.84082 15.8048Z" fill="#7C4FFC"/>
<path d="M8.92277 3.47341C7.28237 3.20122 5.68853 3.57992 4.3855 4.42017C4.36223 4.44383 4.33897 4.4675 4.33897 4.4675C4.83923 4.1598 5.57217 3.88762 5.57217 3.88762C3.68747 5.00003 3.10577 6.2663 3.10577 6.2663C3.83872 4.82253 5.991 3.80477 7.67793 3.73377C9.36487 3.66276 10.4701 4.17164 11.8196 5.27223C13.1692 6.38467 13.9836 8.65683 13.9021 10.4557C13.8323 12.2545 12.9016 13.7101 12.9016 13.7101C13.5415 12.8699 13.9254 12.2545 14.1697 11.6273C14.2162 11.4379 14.2628 11.2486 14.2861 11.0474C14.8678 7.44973 12.4711 4.0533 8.92277 3.47341Z" fill="#7C4FFC"/>
<path d="M14.065 9.93491C14.065 13.4024 11.2961 16.2189 7.88735 16.2189C4.47859 16.2189 1.69806 13.4024 1.69806 9.93491H14.065Z" fill="#7C4FFC"/>
<g opacity="0.6">
<path opacity="0.6" d="M13.5763 9.93491C13.5763 13.3195 10.9471 16.0887 7.64301 16.2189C7.72444 16.2189 7.80587 16.2189 7.88731 16.2189C11.2961 16.2189 14.065 13.4024 14.065 9.93491H13.5763Z" fill="#7C4FFC"/>
</g>
<g opacity="0.7">
<path opacity="0.7" d="M2.57061 9.93491H1.69806C1.69806 13.4024 4.46695 16.2189 7.87572 16.2189C8.02695 16.2189 8.16655 16.2189 8.30619 16.2071C5.10682 15.9704 2.57061 13.2485 2.57061 9.93491Z" fill="#7C4FFC"/>
</g>
<path d="M14.0534 9.99407C14.0534 9.2722 12.8202 8.858 11.1798 8.71597C9.99312 8.6213 8.79479 8.73963 7.42199 9.16567C6.23532 9.5207 5.16499 9.46153 4.38552 9.36687C2.65205 9.16567 1.69806 9.142 1.69806 9.99407C1.69806 11.2248 4.16447 12.7633 7.86409 12.2308C9.73715 11.9586 10.7028 11.4024 11.808 11.0237C13.0063 10.6213 14.0534 10.6331 14.0534 9.99407Z" fill="white"/>
<path d="M9.91169 7.01187C10.49 7.01187 10.9588 6.535 10.9588 5.94677C10.9588 5.35853 10.49 4.88167 9.91169 4.88167C9.33342 4.88167 8.86462 5.35853 8.86462 5.94677C8.86462 6.535 9.33342 7.01187 9.91169 7.01187Z" fill="white"/>
<path d="M11.6218 7.80467C11.866 7.80467 12.0639 7.60334 12.0639 7.35497C12.0639 7.10661 11.866 6.90527 11.6218 6.90527C11.3777 6.90527 11.1797 7.10661 11.1797 7.35497C11.1797 7.60334 11.3777 7.80467 11.6218 7.80467Z" fill="white"/>
<g opacity="0.6">
<path opacity="0.6" d="M13.2041 5.09469C13.1924 5.09469 13.1808 5.09469 13.1808 5.09469C13.111 5.08286 13.0644 5.01186 13.0761 4.929C13.1808 4.38463 13.6229 3.86392 13.6461 3.84025C13.6927 3.78108 13.7858 3.78108 13.8323 3.82842C13.8905 3.87575 13.8905 3.97043 13.8439 4.01776C13.8323 4.0296 13.4251 4.5148 13.332 4.98816C13.3204 5.0592 13.2622 5.09469 13.2041 5.09469Z" fill="white"/>
</g>
<path opacity="0.2" d="M7.4576 14.929C7.6375 14.929 7.78334 14.7806 7.78334 14.5976C7.78334 14.4146 7.6375 14.2663 7.4576 14.2663C7.2777 14.2663 7.13184 14.4146 7.13184 14.5976C7.13184 14.7806 7.2777 14.929 7.4576 14.929Z" fill="white"/>
<g opacity="0.4">
<path opacity="0.6" d="M7.27074 14.811C7.14278 14.6808 7.14278 14.4678 7.27074 14.3377C7.29401 14.314 7.31728 14.3022 7.34054 14.2785C7.29401 14.2903 7.25911 14.314 7.22421 14.3495C7.09624 14.4797 7.09624 14.6927 7.22421 14.8229C7.32891 14.9294 7.49178 14.953 7.61978 14.882C7.50341 14.9294 7.36381 14.9057 7.27074 14.811Z" fill="white"/>
</g>
<path opacity="0.3" d="M7.57322 14.503C7.61175 14.503 7.64302 14.4712 7.64302 14.432C7.64302 14.3928 7.61175 14.361 7.57322 14.361C7.53465 14.361 7.50342 14.3928 7.50342 14.432C7.50342 14.4712 7.53465 14.503 7.57322 14.503Z" fill="white"/>
<path opacity="0.2" d="M9.15621 14.7633C9.33611 14.7633 9.48194 14.615 9.48194 14.4319C9.48194 14.2489 9.33611 14.1006 9.15621 14.1006C8.97631 14.1006 8.83044 14.2489 8.83044 14.4319C8.83044 14.615 8.97631 14.7633 9.15621 14.7633Z" fill="white"/>
<g opacity="0.4">
<path opacity="0.6" d="M8.96929 14.6452C8.84132 14.515 8.84132 14.302 8.96929 14.1718C8.99256 14.1481 9.01582 14.1363 9.03909 14.1126C8.99256 14.1245 8.95766 14.1481 8.92276 14.1836C8.79479 14.3138 8.79479 14.5268 8.92276 14.657C9.02746 14.7635 9.19032 14.7872 9.31832 14.7162C9.20196 14.7635 9.06236 14.7398 8.96929 14.6452Z" fill="white"/>
</g>
<path opacity="0.3" d="M9.27183 14.3373C9.31036 14.3373 9.34163 14.3055 9.34163 14.2663C9.34163 14.2271 9.31036 14.1953 9.27183 14.1953C9.23326 14.1953 9.20203 14.2271 9.20203 14.2663C9.20203 14.3055 9.23326 14.3373 9.27183 14.3373Z" fill="white"/>
<path opacity="0.2" d="M8.31779 15.5325C8.45272 15.5325 8.56209 15.4213 8.56209 15.284C8.56209 15.1467 8.45272 15.0355 8.31779 15.0355C8.18285 15.0355 8.07349 15.1467 8.07349 15.284C8.07349 15.4213 8.18285 15.5325 8.31779 15.5325Z" fill="white"/>
<g opacity="0.4">
<path opacity="0.6" d="M8.17819 15.4382C8.08512 15.3435 8.08512 15.1779 8.17819 15.0832C8.18982 15.0714 8.21309 15.0595 8.22472 15.0477C8.18982 15.0595 8.16655 15.0832 8.14329 15.1069C8.05022 15.2015 8.05022 15.3672 8.14329 15.4619C8.22472 15.5447 8.34105 15.5566 8.44575 15.4974C8.35269 15.5329 8.24799 15.5092 8.17819 15.4382Z" fill="white"/>
</g>
<path opacity="0.3" d="M8.39926 15.2011C8.42496 15.2011 8.44579 15.1799 8.44579 15.1538C8.44579 15.1276 8.42496 15.1064 8.39926 15.1064C8.37356 15.1064 8.35272 15.1276 8.35272 15.1538C8.35272 15.1799 8.37356 15.2011 8.39926 15.2011Z" fill="white"/>
<path opacity="0.2" d="M9.81858 15.355C9.95351 15.355 10.0629 15.2437 10.0629 15.1064C10.0629 14.9692 9.95351 14.8579 9.81858 14.8579C9.68365 14.8579 9.57428 14.9692 9.57428 15.1064C9.57428 15.2437 9.68365 15.355 9.81858 15.355Z" fill="white"/>
<g opacity="0.4">
<path opacity="0.6" d="M9.67898 15.2606C9.58591 15.166 9.58591 15.0003 9.67898 14.9056C9.69061 14.8938 9.71388 14.882 9.72551 14.8701C9.69061 14.882 9.66735 14.9056 9.64408 14.9293C9.55101 15.024 9.55101 15.1896 9.64408 15.2843C9.72551 15.3672 9.84185 15.379 9.94655 15.3198C9.85348 15.3553 9.74878 15.3317 9.67898 15.2606Z" fill="white"/>
</g>
<path opacity="0.3" d="M9.89999 15.0235C9.92569 15.0235 9.94652 15.0024 9.94652 14.9762C9.94652 14.9501 9.92569 14.9289 9.89999 14.9289C9.87429 14.9289 9.85345 14.9501 9.85345 14.9762C9.85345 15.0024 9.87429 15.0235 9.89999 15.0235Z" fill="white"/>
<path opacity="0.2" d="M6.07246 14.8106C6.36799 14.8106 6.60759 14.5669 6.60759 14.2662C6.60759 13.9656 6.36799 13.7218 6.07246 13.7218C5.77689 13.7218 5.53729 13.9656 5.53729 14.2662C5.53729 14.5669 5.77689 14.8106 6.07246 14.8106Z" fill="white"/>
<g opacity="0.4">
<path opacity="0.6" d="M5.77025 14.6094C5.56085 14.3964 5.56085 14.0532 5.77025 13.8402C5.80515 13.8047 5.84005 13.781 5.88658 13.7573C5.81678 13.781 5.75861 13.8283 5.70045 13.8757C5.49105 14.0887 5.49105 14.4319 5.70045 14.6449C5.87495 14.8224 6.14255 14.8579 6.35195 14.7277C6.15418 14.8106 5.92148 14.7751 5.77025 14.6094Z" fill="white"/>
</g>
<path opacity="0.3" d="M6.25861 14.1006C6.32284 14.1006 6.37494 14.0476 6.37494 13.9823C6.37494 13.9169 6.32284 13.8639 6.25861 13.8639C6.19434 13.8639 6.14227 13.9169 6.14227 13.9823C6.14227 14.0476 6.19434 14.1006 6.25861 14.1006Z" fill="white"/>
<path opacity="0.2" d="M10.8543 13.4734C11.1499 13.4734 11.3895 13.2296 11.3895 12.929C11.3895 12.6283 11.1499 12.3846 10.8543 12.3846C10.5588 12.3846 10.3192 12.6283 10.3192 12.929C10.3192 13.2296 10.5588 13.4734 10.8543 13.4734Z" fill="white"/>
<g opacity="0.4">
<path opacity="0.6" d="M10.5399 13.2722C10.3305 13.0591 10.3305 12.7159 10.5399 12.5029C10.5748 12.4674 10.6097 12.4438 10.6563 12.4201C10.5865 12.4438 10.5283 12.4911 10.4701 12.5384C10.2607 12.7514 10.2607 13.0946 10.4701 13.3077C10.6446 13.4852 10.9122 13.5207 11.1216 13.3905C10.9238 13.4733 10.7028 13.4378 10.5399 13.2722Z" fill="white"/>
</g>
<path opacity="0.3" d="M11.0402 12.7634C11.1044 12.7634 11.1565 12.7104 11.1565 12.645C11.1565 12.5797 11.1044 12.5267 11.0402 12.5267C10.9759 12.5267 10.9238 12.5797 10.9238 12.645C10.9238 12.7104 10.9759 12.7634 11.0402 12.7634Z" fill="white"/>
</g>
<defs>
<clipPath id="clip0_8874_30880">
<rect width="64.6667" height="16" fill="white" transform="translate(1 1)"/>
</clipPath>
</defs>
</svg>
