<svg width="67" height="18" viewBox="0 0 67 18" fill="none" xmlns="http://www.w3.org/2000/svg">
<path d="M18.3335 10.0599C18.3335 7.90146 19.9145 6.34796 22.0866 6.34796C24.2588 6.34796 25.8397 7.90146 25.8397 10.0599C25.8397 12.2182 24.2588 13.7717 22.0866 13.7717C19.9282 13.7717 18.3335 12.2182 18.3335 10.0599ZM24.2725 10.0599C24.2725 8.71259 23.4064 7.69526 22.0866 7.69526C20.7668 7.69526 19.9145 8.71259 19.9145 10.0599C19.9145 11.3934 20.7668 12.4245 22.0866 12.4245C23.4064 12.4107 24.2725 11.3934 24.2725 10.0599Z" fill="white"/>
<path d="M26.4307 12.6298L27.2555 11.4612C27.7642 11.9836 28.5478 12.4236 29.5376 12.4236C30.3762 12.4236 30.7887 12.0386 30.7887 11.6262C30.7887 10.3614 26.6506 11.2275 26.6506 8.51921C26.6506 7.32318 27.6817 6.33334 29.3727 6.33334C30.5137 6.33334 31.4623 6.67704 32.1772 7.33691L31.3248 8.45048C30.7474 7.91434 29.9638 7.66688 29.2352 7.66688C28.5753 7.66688 28.2179 7.95558 28.2179 8.38174C28.2179 9.52281 32.3422 8.75294 32.3422 11.4337C32.3422 12.7535 31.4073 13.7433 29.4689 13.7433C28.0941 13.7708 27.1043 13.3034 26.4307 12.6298Z" fill="white"/>
<path d="M39.6285 13.6469V8.61528L37.6079 13.6469H36.9342L34.9132 8.61528V13.6469H33.3872V6.45688H35.5319L37.2779 10.8011L39.0239 6.45688H41.1822V13.6332H39.6285V13.6469Z" fill="white"/>
<path d="M42.2407 10.059C42.2407 7.90067 43.8217 6.34717 45.9937 6.34717C48.1661 6.34717 49.7471 7.90067 49.7471 10.059C49.7471 12.2174 48.1661 13.7709 45.9937 13.7709C43.8217 13.7709 42.2407 12.2174 42.2407 10.059ZM48.1797 10.059C48.1797 8.71177 47.3137 7.69443 45.9937 7.69443C44.6741 7.69443 43.8217 8.71177 43.8217 10.059C43.8217 11.3926 44.6741 12.4236 45.9937 12.4236C47.3137 12.4099 48.1797 11.3926 48.1797 10.059Z" fill="white"/>
<path d="M50.3379 12.6298L51.1629 11.4612C51.6712 11.9836 52.4549 12.4236 53.4449 12.4236C54.2836 12.4236 54.6959 12.0386 54.6959 11.6262C54.6959 10.3614 50.5579 11.2275 50.5579 8.51921C50.5579 7.32318 51.5889 6.33334 53.2799 6.33334C54.4209 6.33334 55.3696 6.67704 56.0846 7.33691L55.2319 8.45048C54.6546 7.91434 53.8709 7.66688 53.1426 7.66688C52.4826 7.66688 52.1252 7.95558 52.1252 8.38174C52.1252 9.52281 56.2492 8.75294 56.2492 11.4337C56.2492 12.7535 55.3146 13.7433 53.3762 13.7433C52.0012 13.7708 51.0116 13.3034 50.3379 12.6298Z" fill="white"/>
<path d="M57.2808 13.6469V6.45688H58.8204V13.6332H57.2808V13.6469Z" fill="white"/>
<path d="M59.7554 12.6298L60.58 11.4612C61.0887 11.9836 61.8724 12.4236 62.862 12.4236C63.7007 12.4236 64.1134 12.0386 64.1134 11.6262C64.1134 10.3614 59.975 11.2275 59.975 8.51921C59.975 7.32318 61.0064 6.33334 62.6974 6.33334C63.8384 6.33334 64.7867 6.67704 65.5017 7.33691L64.6494 8.45048C64.072 7.91434 63.2884 7.66688 62.5597 7.66688C61.8997 7.66688 61.5424 7.95558 61.5424 8.38174C61.5424 9.52281 65.6667 8.75294 65.6667 11.4337C65.6667 12.7535 64.732 13.7433 62.7934 13.7433C61.405 13.7708 60.415 13.3034 59.7554 12.6298Z" fill="white"/>
<path d="M15.6239 3.8284C15.461 3.20118 14.9375 2.57396 13.9951 1.87574C13.2389 1.31953 12.4362 1 11.7963 1C11.6683 1 11.552 1.01183 11.4356 1.0355C11.1448 1.09467 10.8888 1.30769 10.726 1.62722C10.5282 2.00592 10.4816 2.51479 10.6096 2.82249C10.6562 2.91716 10.7143 3.0355 10.7841 3.14201C10.1675 3.52071 9.81851 3.62722 9.77197 3.63905C11.3775 4.18343 12.7154 5.31953 13.553 6.7988L13.5647 6.6568C13.5996 6.26627 13.7159 5.81657 13.8788 5.35503C14.0416 5.40237 14.2045 5.42603 14.3674 5.42603C14.7979 5.42603 15.1701 5.24853 15.4028 4.929C15.6355 4.60947 15.7286 4.18343 15.6239 3.8284Z" fill="white"/>
<path d="M13.9489 5.01181C15.0076 5.30764 15.438 4.47924 15.2984 3.92304C15.1472 3.36682 14.6585 2.79878 13.7976 2.15972C12.9367 1.52067 12.0642 1.26032 11.5057 1.37866C10.9473 1.497 10.7844 2.36091 10.924 2.69227C10.9822 2.82244 11.1102 3.01179 11.2847 3.22481C11.0636 3.37866 10.8542 3.497 10.6797 3.60351C11.75 4.08872 12.6808 4.84611 13.3788 5.79284C13.4602 5.47334 13.5766 5.18931 13.6813 4.94078C13.7627 4.95261 13.8558 4.97628 13.9489 5.01181Z" fill="white"/>
<path opacity="0.6" d="M14.7632 3.37861C13.8791 2.43187 13.1345 2.18335 12.2387 1.98216C11.5406 1.81648 11.7268 1.41412 12.5761 1.49696C12.1689 1.35494 11.7849 1.31944 11.5057 1.37861C10.9473 1.49696 10.7844 2.36086 10.924 2.69222C10.9822 2.8224 11.1102 3.01175 11.2847 3.22477C10.9706 3.43778 10.703 3.59163 10.4819 3.70997C10.5866 3.75731 10.7146 3.81648 10.8659 3.89932C11.2614 4.11234 11.6919 4.46736 11.6919 4.46736C11.0404 3.89932 11.18 3.63897 12.0758 2.99991C12.355 2.79873 12.8669 2.8224 13.3439 3.07092C13.8209 3.31944 14.3793 3.94666 14.3793 3.94666L13.8442 4.98809C13.8791 4.99992 13.914 5.01176 13.9489 5.02359C14.2863 5.11826 14.5538 5.09459 14.7632 5.01176C15.0076 4.85789 15.6474 4.33719 14.7632 3.37861Z" fill="white"/>
<path d="M12.2266 2.55029C12.4593 2.64497 12.7618 2.81065 13.1341 3.05917C13.5762 3.35503 13.9601 3.68639 14.2044 3.94674C13.7972 4.49111 13.5296 5.23668 13.3668 5.75741C13.4482 5.87574 13.5413 5.99408 13.6227 6.11241C13.7042 5.81658 13.8438 5.37871 14.0299 4.94081C14.0764 4.95268 14.1346 4.95268 14.1928 4.95268C14.3324 4.95268 14.4953 4.92898 14.6232 4.82248C14.7163 4.75148 14.821 4.62131 14.8094 4.38461C14.8094 4.15976 14.6349 3.87574 14.2742 3.53254C14.0183 3.28402 13.6693 3.01183 13.3202 2.76331C12.3197 2.08876 11.6217 1.89941 11.3076 2.21893C11.0981 2.43195 11.1214 2.69231 11.1912 2.88166C10.8189 3.13018 10.5048 3.30769 10.2954 3.42603C10.435 3.47337 10.563 3.53254 10.7026 3.59172C11.0749 3.39053 11.61 3.04734 12.2266 2.55029ZM14.4255 4.2426C14.4604 4.30177 14.472 4.36094 14.472 4.39644C14.472 4.50294 14.4371 4.53848 14.4138 4.56214C14.3673 4.59764 14.2742 4.62131 14.1928 4.62131C14.2626 4.47928 14.344 4.36094 14.4255 4.2426ZM11.5519 2.47929C11.5868 2.44379 11.6798 2.42012 11.8311 2.44379C11.7147 2.53846 11.5984 2.6213 11.4821 2.70414C11.4704 2.6213 11.4821 2.53846 11.5519 2.47929Z" fill="white"/>
<path d="M7.88733 2.98813C4.08301 2.98813 1 6.12421 1 9.99404C1 13.8639 4.08301 17 7.88733 17C11.6917 17 14.7747 13.8639 14.7747 9.99404C14.7747 6.12421 11.68 2.98813 7.88733 2.98813ZM7.88733 16.6094C4.29242 16.6094 1.38392 13.6508 1.38392 9.99404C1.38392 6.33724 4.29242 3.37866 7.88733 3.37866C11.4822 3.37866 14.3907 6.33724 14.3907 9.99404C14.3907 13.6508 11.4706 16.6094 7.88733 16.6094Z" fill="white"/>
<path d="M14.0536 9.99408C14.0536 9.27221 12.8203 8.85801 11.18 8.71598C9.9933 8.62131 8.79497 8.73965 7.42217 9.16568C6.2355 9.52071 5.16517 9.46155 4.3857 9.36688C2.65223 9.16568 1.69824 9.14201 1.69824 9.99408C1.69824 11.2248 4.16465 12.7633 7.86427 12.2308C9.73733 11.9586 10.703 11.4024 11.8082 11.0237C13.0065 10.6213 14.0536 10.6331 14.0536 9.99408Z" fill="white"/>
<path d="M9.91181 7.01185C10.4901 7.01185 10.9589 6.53499 10.9589 5.94675C10.9589 5.35852 10.4901 4.88165 9.91181 4.88165C9.33355 4.88165 8.86475 5.35852 8.86475 5.94675C8.86475 6.53499 9.33355 7.01185 9.91181 7.01185Z" fill="white"/>
<path d="M11.6218 7.80467C11.866 7.80467 12.0639 7.60334 12.0639 7.35497C12.0639 7.10661 11.866 6.90527 11.6218 6.90527C11.3776 6.90527 11.1797 7.10661 11.1797 7.35497C11.1797 7.60334 11.3776 7.80467 11.6218 7.80467Z" fill="white"/>
<path opacity="0.6" d="M13.204 5.09471C13.1924 5.09471 13.1807 5.09471 13.1807 5.09471C13.1109 5.08288 13.0644 5.01188 13.076 4.92901C13.1807 4.38464 13.6228 3.86393 13.6461 3.84026C13.6926 3.78109 13.7857 3.78109 13.8322 3.82843C13.8904 3.87577 13.8904 3.97044 13.8439 4.01778C13.8322 4.02961 13.425 4.51481 13.332 4.98818C13.3203 5.05921 13.2622 5.09471 13.204 5.09471Z" fill="white"/>
<path opacity="0.2" d="M7.4576 14.929C7.6375 14.929 7.78334 14.7806 7.78334 14.5976C7.78334 14.4146 7.6375 14.2663 7.4576 14.2663C7.2777 14.2663 7.13184 14.4146 7.13184 14.5976C7.13184 14.7806 7.2777 14.929 7.4576 14.929Z" fill="white"/>
<path opacity="0.6" d="M7.27093 14.811C7.14296 14.6808 7.14296 14.4678 7.27093 14.3377C7.29419 14.314 7.31746 14.3022 7.34073 14.2785C7.29419 14.2903 7.25929 14.314 7.22439 14.3495C7.09643 14.4797 7.09643 14.6927 7.22439 14.8229C7.32909 14.9294 7.49196 14.953 7.61996 14.882C7.50359 14.9294 7.36399 14.9057 7.27093 14.811Z" fill="white"/>
<path opacity="0.3" d="M7.57322 14.503C7.61175 14.503 7.64302 14.4712 7.64302 14.432C7.64302 14.3928 7.61175 14.361 7.57322 14.361C7.53465 14.361 7.50342 14.3928 7.50342 14.432C7.50342 14.4712 7.53465 14.503 7.57322 14.503Z" fill="white"/>
<path opacity="0.2" d="M9.15633 14.7633C9.33623 14.7633 9.48207 14.615 9.48207 14.4319C9.48207 14.2489 9.33623 14.1006 9.15633 14.1006C8.97643 14.1006 8.83057 14.2489 8.83057 14.4319C8.83057 14.615 8.97643 14.7633 9.15633 14.7633Z" fill="white"/>
<path opacity="0.6" d="M8.96917 14.6452C8.8412 14.515 8.8412 14.302 8.96917 14.1718C8.99244 14.1481 9.0157 14.1363 9.03897 14.1126C8.99244 14.1245 8.95754 14.1481 8.92264 14.1836C8.79467 14.3138 8.79467 14.5268 8.92264 14.657C9.02734 14.7635 9.1902 14.7872 9.3182 14.7162C9.20184 14.7635 9.06224 14.7398 8.96917 14.6452Z" fill="white"/>
<path opacity="0.3" d="M9.27195 14.3373C9.31048 14.3373 9.34175 14.3055 9.34175 14.2663C9.34175 14.2271 9.31048 14.1953 9.27195 14.1953C9.23338 14.1953 9.20215 14.2271 9.20215 14.2663C9.20215 14.3055 9.23338 14.3373 9.27195 14.3373Z" fill="white"/>
<path opacity="0.2" d="M8.31803 15.5325C8.45296 15.5325 8.56233 15.4213 8.56233 15.284C8.56233 15.1467 8.45296 15.0355 8.31803 15.0355C8.1831 15.0355 8.07373 15.1467 8.07373 15.284C8.07373 15.4213 8.1831 15.5325 8.31803 15.5325Z" fill="white"/>
<path opacity="0.6" d="M8.17843 15.4382C8.08536 15.3435 8.08536 15.1779 8.17843 15.0832C8.19006 15.0714 8.21333 15.0595 8.22496 15.0477C8.19006 15.0595 8.1668 15.0832 8.14353 15.1069C8.05046 15.2015 8.05046 15.3672 8.14353 15.4619C8.22496 15.5447 8.3413 15.5566 8.446 15.4974C8.35293 15.5329 8.24823 15.5092 8.17843 15.4382Z" fill="white"/>
<path opacity="0.3" d="M8.39907 15.2011C8.42477 15.2011 8.44561 15.1799 8.44561 15.1538C8.44561 15.1276 8.42477 15.1064 8.39907 15.1064C8.37337 15.1064 8.35254 15.1276 8.35254 15.1538C8.35254 15.1799 8.37337 15.2011 8.39907 15.2011Z" fill="white"/>
<path opacity="0.2" d="M9.81852 15.355C9.95345 15.355 10.0629 15.2437 10.0629 15.1064C10.0629 14.9692 9.95345 14.8579 9.81852 14.8579C9.68359 14.8579 9.57422 14.9692 9.57422 15.1064C9.57422 15.2437 9.68359 15.355 9.81852 15.355Z" fill="white"/>
<path opacity="0.6" d="M9.67892 15.2606C9.58585 15.166 9.58585 15.0003 9.67892 14.9056C9.69055 14.8938 9.71382 14.882 9.72545 14.8701C9.69055 14.882 9.66729 14.9056 9.64402 14.9293C9.55095 15.024 9.55095 15.1896 9.64402 15.2843C9.72545 15.3672 9.84179 15.379 9.94649 15.3198C9.85342 15.3553 9.74872 15.3317 9.67892 15.2606Z" fill="white"/>
<path opacity="0.3" d="M9.90005 15.0235C9.92575 15.0235 9.94658 15.0024 9.94658 14.9762C9.94658 14.9501 9.92575 14.9289 9.90005 14.9289C9.87435 14.9289 9.85352 14.9501 9.85352 14.9762C9.85352 15.0024 9.87435 15.0235 9.90005 15.0235Z" fill="white"/>
<path opacity="0.2" d="M6.07228 14.8106C6.36781 14.8106 6.60741 14.5669 6.60741 14.2662C6.60741 13.9656 6.36781 13.7218 6.07228 13.7218C5.77671 13.7218 5.53711 13.9656 5.53711 14.2662C5.53711 14.5669 5.77671 14.8106 6.07228 14.8106Z" fill="white"/>
<path opacity="0.6" d="M5.77031 14.6094C5.56091 14.3964 5.56091 14.0532 5.77031 13.8402C5.80521 13.8047 5.84011 13.781 5.88664 13.7573C5.81684 13.781 5.75867 13.8283 5.70051 13.8757C5.49111 14.0887 5.49111 14.4319 5.70051 14.6449C5.87501 14.8224 6.14261 14.8579 6.35201 14.7277C6.15424 14.8106 5.92154 14.7751 5.77031 14.6094Z" fill="white"/>
<path opacity="0.3" d="M6.25842 14.1006C6.32266 14.1006 6.37476 14.0476 6.37476 13.9823C6.37476 13.9169 6.32266 13.8639 6.25842 13.8639C6.19416 13.8639 6.14209 13.9169 6.14209 13.9823C6.14209 14.0476 6.19416 14.1006 6.25842 14.1006Z" fill="white"/>
<path opacity="0.2" d="M10.8545 13.4734C11.15 13.4734 11.3896 13.2296 11.3896 12.929C11.3896 12.6283 11.15 12.3846 10.8545 12.3846C10.5589 12.3846 10.3193 12.6283 10.3193 12.929C10.3193 13.2296 10.5589 13.4734 10.8545 13.4734Z" fill="white"/>
<path opacity="0.6" d="M10.5399 13.2722C10.3304 13.0591 10.3304 12.7159 10.5399 12.5029C10.5748 12.4674 10.6097 12.4438 10.6562 12.4201C10.5864 12.4438 10.5282 12.4911 10.4701 12.5384C10.2606 12.7514 10.2606 13.0946 10.4701 13.3077C10.6446 13.4852 10.9121 13.5207 11.1216 13.3905C10.9238 13.4733 10.7027 13.4378 10.5399 13.2722Z" fill="white"/>
<path opacity="0.3" d="M11.0402 12.7634C11.1044 12.7634 11.1565 12.7104 11.1565 12.645C11.1565 12.5797 11.1044 12.5267 11.0402 12.5267C10.9759 12.5267 10.9238 12.5797 10.9238 12.645C10.9238 12.7104 10.9759 12.7634 11.0402 12.7634Z" fill="white"/>
<defs>
<clipPath id="clip0_8874_32264">
<rect width="64.6667" height="16" fill="white" transform="translate(1 1)"/>
</clipPath>
</defs>
</svg>
