<svg width="24" height="24" viewBox="0 0 24 24" fill="none" xmlns="http://www.w3.org/2000/svg">
<path d="M12 3L8.88889 6.11111L12 9.22222V6.88889C15.0014 6.88889 17.4444 9.33111 17.4444 12.3333C17.4444 13.0178 17.3116 13.6712 17.0799 14.2747L18.2587 15.452C18.7292 14.5117 19 13.4549 19 12.3333C19 8.474 15.8601 5.33333 12 5.33333V3ZM5.74132 9.21463C5.27076 10.155 5 11.2118 5 12.3333C5 16.1927 8.13989 19.3333 12 19.3333V21.6667L15.1111 18.5556L12 15.4444V17.7778C8.99856 17.7778 6.55556 15.3356 6.55556 12.3333C6.55556 11.6489 6.68836 10.9955 6.92014 10.3919L5.74132 9.21463Z"/>
</svg>
