<svg width="17" height="16" viewBox="0 0 17 16" fill="none" xmlns="http://www.w3.org/2000/svg">
<path fill-rule="evenodd" clip-rule="evenodd" d="M8.56355 1.75C6.88697 1.75 5.52783 3.10914 5.52783 4.78571V6.0166H5.5C4.5335 6.0166 3.75 6.8001 3.75 7.7666V11.9837C3.75 12.9502 4.5335 13.7337 5.5 13.7337H11.5C12.4665 13.7337 13.25 12.9502 13.25 11.9837V7.7666C13.25 6.83342 12.5196 6.07083 11.5993 6.01937V4.78571C11.5993 3.10914 10.2401 1.75 8.56355 1.75ZM10.0993 6.0166V4.78571C10.0993 3.93756 9.4117 3.25 8.56355 3.25C7.7154 3.25 7.02783 3.93756 7.02783 4.78571V6.0166H10.0993ZM5.25 7.7666C5.25 7.62853 5.36193 7.5166 5.5 7.5166H11.5C11.6381 7.5166 11.75 7.62853 11.75 7.7666V11.9837C11.75 12.1218 11.6381 12.2337 11.5 12.2337H5.5C5.36193 12.2337 5.25 12.1218 5.25 11.9837V7.7666Z" fill="white"/>
</svg>
