<svg width="24" height="24" viewBox="0 0 24 24" fill="none" xmlns="http://www.w3.org/2000/svg">
<path fill-rule="evenodd" clip-rule="evenodd" d="M12.75 4.14264V6.99978H11.25V4.14264H12.75Z" fill="#727E91"/>
<path d="M13.4276 3.42857C13.4276 4.21755 12.788 4.85714 11.9991 4.85714C11.2101 4.85714 10.5705 4.21755 10.5705 3.42857C10.5705 2.63959 11.2101 2 11.9991 2C12.788 2 13.4276 2.63959 13.4276 3.42857Z" fill="#727E91"/>
<path fill-rule="evenodd" clip-rule="evenodd" d="M12.75 4.14264V4.85693H11.25V4.14264H12.75Z" fill="#727E91"/>
<path fill-rule="evenodd" clip-rule="evenodd" d="M11.25 19.8574L11.25 17.0002L12.75 17.0002L12.75 19.8574L11.25 19.8574Z" fill="#727E91"/>
<path d="M10.5724 20.5714C10.5724 19.7825 11.212 19.1429 12.0009 19.1429C12.7899 19.1429 13.4295 19.7824 13.4295 20.5714C13.4295 21.3604 12.7899 22 12.0009 22C11.212 22 10.5724 21.3604 10.5724 20.5714Z" fill="#727E91"/>
<path fill-rule="evenodd" clip-rule="evenodd" d="M11.25 19.8574L11.25 19.1431L12.75 19.1431L12.75 19.8574L11.25 19.8574Z" fill="#727E91"/>
<path fill-rule="evenodd" clip-rule="evenodd" d="M12.65 4.14264V6.99978H11.35V4.14264H12.65Z" fill="#727E91"/>
<path d="M13.4276 3.42857C13.4276 4.21755 12.788 4.85714 11.9991 4.85714C11.2101 4.85714 10.5705 4.21755 10.5705 3.42857C10.5705 2.63959 11.2101 2 11.9991 2C12.788 2 13.4276 2.63959 13.4276 3.42857Z" fill="#727E91"/>
<path fill-rule="evenodd" clip-rule="evenodd" d="M12.75 4.14264V4.85693H11.25V4.14264H12.75Z" fill="#727E91"/>
<path fill-rule="evenodd" clip-rule="evenodd" d="M11.35 19.8574L11.35 17.0002L12.65 17.0002L12.65 19.8574L11.35 19.8574Z" fill="#727E91"/>
<path d="M10.5724 20.5714C10.5724 19.7825 11.212 19.1429 12.0009 19.1429C12.7899 19.1429 13.4295 19.7824 13.4295 20.5714C13.4295 21.3604 12.7899 22 12.0009 22C11.212 22 10.5724 21.3604 10.5724 20.5714Z" fill="#727E91"/>
<path fill-rule="evenodd" clip-rule="evenodd" d="M19.8572 12.6502L17.0001 12.6502L17.0001 11.3502L19.8572 11.3502L19.8572 12.6502Z" fill="#727E91"/>
<path d="M20.5712 13.4277C19.7823 13.4277 19.1427 12.7881 19.1427 11.9991C19.1427 11.2101 19.7823 10.5706 20.5712 10.5706C21.3602 10.5706 21.9998 11.2102 21.9998 11.9991C21.9998 12.7881 21.3602 13.4277 20.5712 13.4277Z" fill="#727E91"/>
<path fill-rule="evenodd" clip-rule="evenodd" d="M4.14215 11.3503L6.99929 11.3503L6.99929 12.6503L4.14215 12.6503L4.14215 11.3503Z" fill="#727E91"/>
<path d="M3.42814 10.5723C4.21712 10.5723 4.85672 11.2119 4.85672 12.0009C4.85672 12.7898 4.21712 13.4294 3.42814 13.4294C2.63917 13.4294 1.99957 12.7898 1.99957 12.0009C1.99957 11.2119 2.63917 10.5723 3.42814 10.5723Z" fill="#727E91"/>
<path fill-rule="evenodd" clip-rule="evenodd" d="M17.0963 18.016L15.076 15.9957L15.9952 15.0764L18.0155 17.0967L17.0963 18.016Z" fill="#727E91"/>
<path d="M17.0514 19.0706C16.4935 18.5127 16.4935 17.6082 17.0514 17.0503C17.6093 16.4924 18.5138 16.4924 19.0717 17.0503C19.6296 17.6082 19.6296 18.5127 19.0717 19.0706C18.5138 19.6285 17.6093 19.6285 17.0514 19.0706Z" fill="#727E91"/>
<path fill-rule="evenodd" clip-rule="evenodd" d="M6.90306 5.98433L8.92337 8.00463L8.00413 8.92387L5.98383 6.90356L6.90306 5.98433Z" fill="#727E91"/>
<path d="M6.94824 4.92936C7.50614 5.48725 7.50614 6.39177 6.94824 6.94967C6.39035 7.50756 5.48583 7.50756 4.92794 6.94967C4.37005 6.39177 4.37005 5.48725 4.92794 4.92936C5.48583 4.37147 6.39035 4.37147 6.94824 4.92936Z" fill="#727E91"/>
<path fill-rule="evenodd" clip-rule="evenodd" d="M18.0159 6.90374L15.9956 8.92404L15.0763 8.0048L17.0966 5.9845L18.0159 6.90374Z" fill="#727E91"/>
<path d="M19.0704 6.94867C18.5125 7.50656 17.608 7.50656 17.0501 6.94867C16.4922 6.39078 16.4922 5.48626 17.0501 4.92837C17.608 4.37047 18.5125 4.37047 19.0704 4.92837C19.6283 5.48626 19.6283 6.39078 19.0704 6.94867Z" fill="#727E91"/>
<path fill-rule="evenodd" clip-rule="evenodd" d="M5.98414 17.0968L8.00445 15.0764L8.92369 15.9957L6.90338 18.016L5.98414 17.0968Z" fill="#727E91"/>
<path d="M4.92924 17.0513C5.48713 16.4934 6.39165 16.4934 6.94954 17.0513C7.50744 17.6092 7.50744 18.5137 6.94954 19.0716C6.39165 19.6295 5.48713 19.6295 4.92924 19.0716C4.37135 18.5137 4.37135 17.6092 4.92924 17.0513Z" fill="#727E91"/>
<path fill-rule="evenodd" clip-rule="evenodd" d="M11.25 19.8574L11.25 19.1431L12.75 19.1431L12.75 19.8574L11.25 19.8574Z" fill="#727E91"/>
<path fill-rule="evenodd" clip-rule="evenodd" d="M12.0001 17C14.7615 17 17.0001 14.7614 17.0001 12C17.0001 9.23858 14.7615 7 12.0001 7C9.23864 7 7.00006 9.23858 7.00006 12C7.00006 14.7614 9.23864 17 12.0001 17ZM12.0001 18C15.3138 18 18.0001 15.3137 18.0001 12C18.0001 8.68629 15.3138 6 12.0001 6C8.68635 6 6.00006 8.68629 6.00006 12C6.00006 15.3137 8.68635 18 12.0001 18Z" fill="#727E91"/>
<path fill-rule="evenodd" clip-rule="evenodd" d="M10.9819 8.32471C10.8847 8.3247 10.7892 8.35029 10.705 8.39889C10.6209 8.44748 10.551 8.51736 10.5024 8.60153L9.08098 11.0622C9.03238 11.1464 9.00677 11.2419 9.00677 11.3391C9.00677 11.4363 9.03237 11.5318 9.08096 11.616L10.5772 14.2074L11.5366 13.6568L10.1999 11.3415L11.3016 9.43453H13.5086L14.8452 11.7483L15.8044 11.1945L14.303 8.60156C14.2544 8.51739 14.1845 8.44748 14.1003 8.39889C14.0162 8.35029 13.9207 8.3247 13.8235 8.32471H10.9819ZM14.6821 12.4796C14.6821 12.3824 14.6565 12.2869 14.6079 12.2027L13.1115 9.61205L12.1537 10.1659L13.489 12.4796L12.3885 14.3878H10.1875L8.85091 12.0727L7.89313 12.6266L9.38828 15.216C9.43687 15.3001 9.50677 15.37 9.59095 15.4186C9.67513 15.4672 9.77061 15.4928 9.86782 15.4928L12.7154 15.4928L12.7175 15.4928C12.8127 15.4915 12.9058 15.4655 12.988 15.4175C13.0701 15.3695 13.1387 15.3006 13.1865 15.2183L14.6079 12.7564C14.6565 12.6723 14.6821 12.5768 14.6821 12.4796Z" fill="#727E91"/>
</svg>
