<svg width="17" height="16" viewBox="0 0 17 16" fill="none" xmlns="http://www.w3.org/2000/svg">
<path fill-rule="evenodd" clip-rule="evenodd" d="M4.11108 8.11111C4.11108 10.535 6.07606 12.5 8.49997 12.5C10.9239 12.5 12.8889 10.535 12.8889 8.11111C12.8889 6.93427 12.4263 5.86652 11.6721 5.07798C11.4812 4.87842 11.4883 4.56192 11.6878 4.37104C11.8874 4.18017 12.2039 4.18721 12.3948 4.38677C13.3199 5.35394 13.8889 6.6666 13.8889 8.11111C13.8889 11.0873 11.4762 13.5 8.49997 13.5C5.52377 13.5 3.11108 11.0873 3.11108 8.11111C3.11108 6.6666 3.68009 5.35394 4.60517 4.38677C4.79604 4.18721 5.11254 4.18017 5.3121 4.37105C5.51166 4.56192 5.5187 4.87842 5.32783 5.07798C4.57361 5.86652 4.11108 6.93427 4.11108 8.11111Z"/>
<path fill-rule="evenodd" clip-rule="evenodd" d="M8.50005 2.45007C8.80381 2.45007 9.05005 2.69632 9.05005 3.00007L9.05005 8.29637C9.05005 8.60013 8.80381 8.84637 8.50005 8.84637C8.19629 8.84637 7.95005 8.60013 7.95005 8.29637L7.95005 3.00007C7.95005 2.69632 8.19629 2.45007 8.50005 2.45007Z"/>
<path fill-rule="evenodd" clip-rule="evenodd" d="M10.5186 6.68526C10.7334 6.90005 10.7334 7.24829 10.5186 7.46308L8.88897 9.09271C8.67418 9.3075 8.32594 9.3075 8.11115 9.09271L6.48152 7.46308C6.26673 7.24829 6.26673 6.90005 6.48152 6.68526C6.69631 6.47047 7.04455 6.47047 7.25934 6.68526L8.50006 7.92598L9.74078 6.68526C9.95557 6.47047 10.3038 6.47047 10.5186 6.68526Z"/>
</svg>
