<svg width="17" height="16" viewBox="0 0 17 16" fill="none" xmlns="http://www.w3.org/2000/svg">
<path fill-rule="evenodd" clip-rule="evenodd" d="M4.11133 8.11111C4.11133 10.535 6.0763 12.5 8.50022 12.5C10.9241 12.5 12.8891 10.535 12.8891 8.11111C12.8891 6.93427 12.4266 5.86652 11.6724 5.07798C11.4815 4.87842 11.4885 4.56192 11.6881 4.37104C11.8876 4.18017 12.2042 4.18721 12.395 4.38677C13.3201 5.35394 13.8891 6.6666 13.8891 8.11111C13.8891 11.0873 11.4764 13.5 8.50022 13.5C5.52402 13.5 3.11133 11.0873 3.11133 8.11111C3.11133 6.6666 3.68034 5.35394 4.60541 4.38677C4.79628 4.18721 5.11279 4.18017 5.31234 4.37105C5.5119 4.56192 5.51894 4.87842 5.32807 5.07798C4.57385 5.86652 4.11133 6.93427 4.11133 8.11111Z" fill="white"/>
<path fill-rule="evenodd" clip-rule="evenodd" d="M8.50029 2.44995C8.80405 2.44995 9.05029 2.69619 9.05029 2.99995L9.05029 8.29625C9.05029 8.6 8.80405 8.84625 8.50029 8.84625C8.19654 8.84625 7.95029 8.6 7.95029 8.29625L7.95029 2.99995C7.95029 2.69619 8.19654 2.44995 8.50029 2.44995Z" fill="white"/>
<path fill-rule="evenodd" clip-rule="evenodd" d="M10.5186 6.68502C10.7334 6.89981 10.7334 7.24805 10.5186 7.46283L8.88897 9.09246C8.67418 9.30725 8.32594 9.30725 8.11115 9.09246L6.48152 7.46283C6.26673 7.24805 6.26673 6.89981 6.48152 6.68502C6.69631 6.47023 7.04455 6.47023 7.25934 6.68502L8.50006 7.92574L9.74078 6.68502C9.95557 6.47023 10.3038 6.47023 10.5186 6.68502Z" fill="white"/>
</svg>
