<svg width="24" height="24" viewBox="0 0 24 24" fill="none" xmlns="http://www.w3.org/2000/svg">
<path d="M17.7273 8.77273L14.4545 12.0455H16.9091C16.9091 14.7536 14.7082 16.9545 12 16.9545C11.1736 16.9545 10.3882 16.75 9.70909 16.3818L8.51455 17.5764C9.52091 18.2145 10.7155 18.5909 12 18.5909C15.6164 18.5909 18.5455 15.6618 18.5455 12.0455H21L17.7273 8.77273ZM7.09091 12.0455C7.09091 9.33727 9.29182 7.13636 12 7.13636C12.8264 7.13636 13.6118 7.34091 14.2909 7.70909L15.4855 6.51455C14.4791 5.87636 13.2845 5.5 12 5.5C8.38364 5.5 5.45455 8.42909 5.45455 12.0455H3L6.27273 15.3182L9.54545 12.0455H7.09091Z" fill="#727E91"/>
</svg>
