<svg width="16" height="17" viewBox="0 0 16 17" fill="none" xmlns="http://www.w3.org/2000/svg">
<path fill-rule="evenodd" clip-rule="evenodd" d="M8 13.7C10.8719 13.7 13.2 11.3719 13.2 8.5C13.2 5.62812 10.8719 3.3 8 3.3C5.12812 3.3 2.8 5.62812 2.8 8.5C2.8 11.3719 5.12812 13.7 8 13.7ZM8 15C11.5899 15 14.5 12.0899 14.5 8.5C14.5 4.91015 11.5899 2 8 2C4.41015 2 1.5 4.91015 1.5 8.5C1.5 12.0899 4.41015 15 8 15ZM8.51977 4.79879H7.30832V5.44679C6.86621 5.49122 6.45191 5.68961 6.13937 6.0097C5.79295 6.36449 5.599 6.84068 5.599 7.33656C5.599 7.83244 5.79294 8.30868 6.13937 8.66348C6.4282 8.95928 6.80389 9.15109 7.20812 9.21357L7.22354 9.21595H7.32547L8.3688 9.23626H8.37275C8.55491 9.23626 8.72967 9.30866 8.85852 9.43751C8.98735 9.56634 9.05972 9.74104 9.05972 9.92323C9.05972 10.1054 8.98734 10.2802 8.85852 10.409C8.7297 10.5378 8.55496 10.6102 8.37275 10.6102H5.866V11.8216H7.30832V12.4759H8.51977V11.8169C8.9696 11.7819 9.39417 11.5876 9.71545 11.2664C10.0715 10.9103 10.2716 10.4273 10.2716 9.92366C10.2716 9.42004 10.0715 8.93711 9.71545 8.58102C9.41833 8.2839 9.03289 8.09528 8.62082 8.04098L8.43872 8.02309H7.46063C7.27843 8.02309 7.10371 7.95072 6.97489 7.8219C6.84607 7.69308 6.77369 7.51833 6.77369 7.33612C6.77369 7.15392 6.84607 6.97917 6.97489 6.85035C7.10371 6.72153 7.27843 6.64916 7.46063 6.64916H10.0141V5.43772H8.51977V4.79879Z" fill="#7C4FFC"/>
</svg>
