<svg width="24" height="24" viewBox="0 0 24 24" fill="none" xmlns="http://www.w3.org/2000/svg">
<path fill-rule="evenodd" clip-rule="evenodd" d="M3.75 10.702C3.75 7.27674 6.52674 4.5 9.95202 4.5C13.3773 4.5 16.154 7.27674 16.154 10.702C16.154 14.1273 13.3773 16.904 9.95202 16.904C6.52674 16.904 3.75 14.1273 3.75 10.702ZM9.95202 3C5.69831 3 2.25 6.44831 2.25 10.702C2.25 14.1958 4.57631 17.1463 7.76448 18.089C9.0453 19.5472 10.8771 20.5266 12.9662 20.6857C17.2076 21.0087 20.9078 17.8321 21.2308 13.5907C21.3901 11.4979 20.6966 9.53547 19.4448 8.04764C18.4921 6.91528 17.2141 6.05533 15.7394 5.61983C14.3279 4.01369 12.2583 3 9.95202 3ZM17.1489 7.95292C17.4753 8.80673 17.654 9.7335 17.654 10.702C17.654 14.7835 14.4793 18.1235 10.4645 18.3873C11.2412 18.8335 12.1271 19.1175 13.0801 19.19C16.4955 19.4501 19.475 16.8922 19.7351 13.4768C19.8635 11.7911 19.3063 10.2129 18.297 9.01335C17.9611 8.61414 17.5755 8.25734 17.1489 7.95292Z" fill="#7C4FFC"/>
<path fill-rule="evenodd" clip-rule="evenodd" d="M10.6128 6H9.13496V6.79048C8.59564 6.84468 8.09025 7.08669 7.70899 7.47716C7.2864 7.90996 7.0498 8.49084 7.0498 9.09576C7.0498 9.70066 7.28639 10.2816 7.70899 10.7144C8.06132 11.0753 8.51962 11.3093 9.01272 11.3855L9.03153 11.3884H9.15588L10.4286 11.4131H10.4334C10.6556 11.4131 10.8688 11.5015 11.026 11.6586C11.1832 11.8158 11.2714 12.0289 11.2714 12.2512C11.2714 12.4734 11.1831 12.6866 11.026 12.8437C10.8689 13.0009 10.6557 13.0892 10.4334 13.0892H7.37551V14.567H9.13496V15.365H10.6128V14.5612C11.1615 14.5186 11.6794 14.2815 12.0713 13.8896C12.5057 13.4552 12.7498 12.866 12.7498 12.2517C12.7498 11.6373 12.5057 11.0482 12.0713 10.6138C11.7089 10.2514 11.2387 10.0213 10.736 9.95505L10.5139 9.93323H9.32075C9.09849 9.93323 8.88536 9.84495 8.72821 9.6878C8.57107 9.53066 8.48278 9.31749 8.48278 9.09522C8.48278 8.87295 8.57107 8.65979 8.72821 8.50265C8.88536 8.3455 9.0985 8.25722 9.32075 8.25722H12.4357V6.77941H10.6128V6Z" fill="#7C4FFC"/>
</svg>
