<svg width="24" height="24" viewBox="0 0 24 24" fill="none" xmlns="http://www.w3.org/2000/svg">
<path fill-rule="evenodd" clip-rule="evenodd" d="M11.5333 5.3248C7.93888 5.3248 5.025 8.23869 5.025 11.8331C5.025 15.4276 7.93888 18.3415 11.5333 18.3415C13.2785 18.3415 14.8618 17.6557 16.0312 16.5372C16.3605 16.2222 16.8827 16.2338 17.1976 16.5631C17.5126 16.8924 17.501 17.4146 17.1717 17.7295C15.7075 19.13 13.7202 19.9915 11.5333 19.9915C7.02761 19.9915 3.375 16.3389 3.375 11.8331C3.375 7.32742 7.02761 3.6748 11.5333 3.6748C13.7202 3.6748 15.7075 4.53631 17.1717 5.93673C17.501 6.25167 17.5126 6.7739 17.1976 7.10317C16.8827 7.43244 16.3605 7.44406 16.0312 7.12912C14.8618 6.01061 13.2785 5.3248 11.5333 5.3248ZM11.3196 11.8332C11.3196 11.3775 11.6889 11.0082 12.1446 11.0082H18.7086L17.6725 9.97208C17.3504 9.6499 17.3504 9.12754 17.6725 8.80536C17.9947 8.48318 18.5171 8.48318 18.8393 8.80536L21.2837 11.2498C21.6059 11.572 21.6059 12.0943 21.2837 12.4165L18.8393 14.861C18.5171 15.1832 17.9947 15.1832 17.6725 14.861C17.3504 14.5388 17.3504 14.0164 17.6725 13.6942L18.7086 12.6582H12.1446C11.6889 12.6582 11.3196 12.2888 11.3196 11.8332Z" fill="#7C4FFC"/>
</svg>
