<svg width="16" height="16" viewBox="0 0 16 16" fill="none" xmlns="http://www.w3.org/2000/svg">
<path fill-rule="evenodd" clip-rule="evenodd" d="M5.5 5C5.5 4.58579 5.83579 4.25 6.25 4.25H11.25C11.6642 4.25 12 4.58579 12 5V10C12 10.4142 11.6642 10.75 11.25 10.75C10.8358 10.75 10.5 10.4142 10.5 10V5.75H6.25C5.83579 5.75 5.5 5.41421 5.5 5Z" />
<path fill-rule="evenodd" clip-rule="evenodd" d="M11.8011 4.49129C12.0821 4.79566 12.0631 5.27015 11.7587 5.55111L5.25871 11.5511C4.95435 11.8321 4.47985 11.8131 4.1989 11.5087C3.91795 11.2043 3.93693 10.7299 4.24129 10.4489L10.7413 4.4489C11.0457 4.16795 11.5202 4.18693 11.8011 4.49129Z" />
</svg>
