<svg width="16" height="16" viewBox="0 0 16 16" fill="none" xmlns="http://www.w3.org/2000/svg">
<path fill-rule="evenodd" clip-rule="evenodd" d="M7.68889 3.54995C5.29259 3.54995 3.35 5.49254 3.35 7.88884C3.35 10.2851 5.29259 12.2277 7.68889 12.2277C8.85234 12.2277 9.90785 11.7705 10.6875 11.0249C10.907 10.8149 11.2551 10.8226 11.4651 11.0422C11.675 11.2617 11.6673 11.6098 11.4478 11.8198C10.4717 12.7534 9.14678 13.3277 7.68889 13.3277C4.68507 13.3277 2.25 10.8927 2.25 7.88884C2.25 4.88503 4.68507 2.44995 7.68889 2.44995C9.14678 2.44995 10.4717 3.02429 11.4478 3.9579C11.6673 4.16786 11.675 4.51602 11.4651 4.73553C11.2551 4.95504 10.907 4.96279 10.6875 4.75283C9.90785 4.00715 8.85234 3.54995 7.68889 3.54995Z" fill="white"/>
<path fill-rule="evenodd" clip-rule="evenodd" d="M7.54639 7.88887C7.54639 7.58511 7.79263 7.33887 8.09639 7.33887H13.3927C13.6964 7.33887 13.9427 7.58511 13.9427 7.88887C13.9427 8.19262 13.6964 8.43887 13.3927 8.43887H8.09639C7.79263 8.43887 7.54639 8.19262 7.54639 7.88887Z" fill="white"/>
<path fill-rule="evenodd" clip-rule="evenodd" d="M11.7817 5.87032C11.9965 5.65553 12.3447 5.65553 12.5595 5.87032L14.1891 7.49995C14.4039 7.71474 14.4039 8.06298 14.1891 8.27777L12.5595 9.9074C12.3447 10.1222 11.9965 10.1222 11.7817 9.9074C11.5669 9.69261 11.5669 9.34437 11.7817 9.12958L13.0224 7.88886L11.7817 6.64814C11.5669 6.43335 11.5669 6.08511 11.7817 5.87032Z" fill="white"/>
</svg>
