<svg width="32" height="32" viewBox="0 0 32 32" fill="none" xmlns="http://www.w3.org/2000/svg">
<path fill-rule="evenodd" clip-rule="evenodd" d="M14.6198 5C14.1431 5 13.7327 5.33646 13.6392 5.80388L13.2739 7.6304C12.8365 7.77277 12.4142 7.94847 12.0099 8.1545L10.4596 7.12097C10.063 6.85655 9.53483 6.90885 9.19777 7.24591L7.24588 9.1978C6.90881 9.53487 6.85652 10.063 7.12094 10.4596L8.15448 12.0099C7.94846 12.4142 7.77277 12.8365 7.6304 13.2739L5.80388 13.6392C5.33646 13.7327 5 14.1431 5 14.6198V17.3802C5 17.8569 5.33646 18.2673 5.80388 18.3608L7.63039 18.7261C7.77276 19.1635 7.94846 19.5858 8.1545 19.9901L7.12097 21.5404C6.85655 21.937 6.90885 22.4652 7.24591 22.8022L9.1978 24.7541C9.53487 25.0912 10.063 25.1435 10.4596 24.8791L12.0099 23.8455C12.4142 24.0516 12.8365 24.2272 13.2739 24.3696L13.6392 26.1961C13.7327 26.6635 14.1431 27 14.6198 27H17.3802C17.8569 27 18.2673 26.6635 18.3608 26.1961L18.7261 24.3696C19.1635 24.2272 19.5858 24.0515 19.9901 23.8455L21.5404 24.879C21.937 25.1434 22.4652 25.0912 22.8022 24.7541L24.7541 22.8022C25.0912 22.4651 25.1435 21.937 24.8791 21.5404L23.8455 19.9901C24.0516 19.5858 24.2273 19.1635 24.3696 18.7261L26.1961 18.3608C26.6635 18.2673 27 17.8569 27 17.3802V14.6198C27 14.1431 26.6635 13.7327 26.1961 13.6392L24.3696 13.2739C24.2272 12.8365 24.0515 12.4142 23.8455 12.0099L24.879 10.4596C25.1434 10.063 25.0912 9.53483 24.7541 9.19777L22.8022 7.24588C22.4651 6.90881 21.937 6.85652 21.5404 7.12094L19.9901 8.15448C19.5858 7.94845 19.1635 7.77276 18.7261 7.6304L18.3608 5.80388C18.2673 5.33646 17.8569 5 17.3802 5H14.6198ZM16 20.4C18.43 20.4 20.4 18.43 20.4 16C20.4 13.5699 18.43 11.6 16 11.6C13.5699 11.6 11.6 13.5699 11.6 16C11.6 18.43 13.5699 20.4 16 20.4Z" fill="none"/>
</svg>
