<svg width="24" height="24" viewBox="0 0 24 24" fill="none" xmlns="http://www.w3.org/2000/svg">
<path d="M10.2815 3.5L9.85748 5.68243C9.14469 5.95125 8.49013 6.32805 7.9166 6.79899L5.82032 6.07601L3.80005 9.57264L5.4791 11.0321C5.41456 11.4284 5.38113 11.7957 5.38113 12.1487C5.38113 12.5022 5.41556 12.8688 5.4791 13.2652V13.2669L3.80005 14.7264L5.82032 18.2213L7.91491 17.5C8.4885 17.9712 9.14453 18.3459 9.85748 18.6149L10.2815 20.7973H14.3186L14.7426 18.6149C15.4559 18.3459 16.1097 17.9697 16.6835 17.4983L18.7798 18.2213L20.7984 14.7264L19.121 13.2652C19.1855 12.8689 19.219 12.5016 19.219 12.1487C19.219 11.7962 19.1854 11.4294 19.121 11.0338V11.0321L20.8 9.57095L18.7798 6.07601L16.6852 6.7973C16.1116 6.3261 15.4556 5.9514 14.7426 5.68243L14.3186 3.5H10.2815ZM11.7071 5.22973H12.893L13.2291 6.95946L14.1311 7.30068C14.6748 7.5056 15.1633 7.78692 15.5872 8.13514L16.3338 8.74662L17.996 8.17568L18.5889 9.20101L17.2612 10.3564L17.4132 11.3074V11.3091C17.4661 11.6334 17.4892 11.9054 17.4892 12.1487C17.4892 12.3919 17.4661 12.6639 17.4132 12.9882L17.2595 13.9392L18.5872 15.0946L17.9943 16.1216L16.3338 15.549L15.5855 16.1622C15.1616 16.5104 14.6748 16.7917 14.1311 16.9966H14.1294L13.2274 17.3378L12.8913 19.0676H11.7071L11.371 17.3378L10.469 16.9966C9.92526 16.7917 9.43677 16.5104 9.01289 16.1622L8.26627 15.5507L6.6041 16.1216L6.0112 15.0963L7.34059 13.9392L7.18687 12.9916V12.9899C7.13475 12.6642 7.11086 12.3914 7.11086 12.1487C7.11086 11.9054 7.13399 11.6334 7.18687 11.3091L7.34059 10.3581L6.0112 9.2027L6.6041 8.17568L8.26627 8.74831L9.01289 8.13514C9.43677 7.78692 9.92526 7.5056 10.469 7.30068L11.371 6.95946L11.7071 5.22973ZM12.3 8.68919C10.4004 8.68919 8.84059 10.249 8.84059 12.1487C8.84059 14.0483 10.4004 15.6081 12.3 15.6081C14.1997 15.6081 15.7595 14.0483 15.7595 12.1487C15.7595 10.249 14.1997 8.68919 12.3 8.68919ZM12.3 10.4189C13.2613 10.4189 14.0298 11.1874 14.0298 12.1487C14.0298 13.1099 13.2613 13.8784 12.3 13.8784C11.3388 13.8784 10.5703 13.1099 10.5703 12.1487C10.5703 11.1874 11.3388 10.4189 12.3 10.4189Z" fill="#727E91"/>
</svg>
