<svg width="16" height="16" viewBox="0 0 16 16" fill="none" xmlns="http://www.w3.org/2000/svg">
<path d="M6.57512 2L6.27583 3.54054C5.77269 3.73029 5.31065 3.99627 4.9058 4.3287L3.42607 3.81836L2 6.28657L3.18521 7.31677C3.13965 7.59652 3.11606 7.85575 3.11606 8.10493C3.11606 8.35448 3.14036 8.61324 3.18521 8.89308V8.89428L2 9.92448L3.42607 12.3915L4.90461 11.8824C5.30949 12.215 5.77258 12.4795 6.27583 12.6693L6.57512 14.2099H9.42488L9.72416 12.6693C10.2276 12.4794 10.6892 12.2139 11.0942 11.8812L12.5739 12.3915L13.9988 9.92448L12.8148 8.89308C12.8603 8.61334 12.8839 8.3541 12.8839 8.10493C12.8839 7.85613 12.8602 7.59723 12.8148 7.31797V7.31677L14 6.28537L12.5739 3.81836L11.0954 4.3275C10.6905 3.9949 10.2274 3.7304 9.72416 3.54054L9.42488 2H6.57512ZM7.58148 3.22099H8.41852L8.6558 4.44197L9.29253 4.68283C9.67632 4.82748 10.0211 5.02606 10.3203 5.27186L10.8474 5.7035L12.0207 5.30048L12.4392 6.02425L11.502 6.83983L11.6093 7.51113V7.51232C11.6466 7.74122 11.663 7.93324 11.663 8.10493C11.663 8.27662 11.6466 8.46861 11.6093 8.69754L11.5008 9.36884L12.438 10.1844L12.0195 10.9094L10.8474 10.5052L10.3192 10.938C10.0199 11.1838 9.67632 11.3824 9.29253 11.527H9.29134L8.65461 11.7679L8.41733 12.9889H7.58148L7.3442 11.7679L6.70747 11.527C6.32368 11.3824 5.97886 11.1838 5.67965 10.938L5.15262 10.5064L3.97933 10.9094L3.56081 10.1856L4.49921 9.36884L4.3907 8.69992V8.69873C4.3539 8.46884 4.33704 8.27628 4.33704 8.10493C4.33704 7.93324 4.35337 7.74125 4.3907 7.51232L4.49921 6.84102L3.56081 6.02544L3.97933 5.30048L5.15262 5.70469L5.67965 5.27186C5.97886 5.02606 6.32368 4.82748 6.70747 4.68283L7.3442 4.44197L7.58148 3.22099ZM8 5.66296C6.65904 5.66296 5.55803 6.76397 5.55803 8.10493C5.55803 9.44589 6.65904 10.5469 8 10.5469C9.34096 10.5469 10.442 9.44589 10.442 8.10493C10.442 6.76397 9.34096 5.66296 8 5.66296ZM8 6.88394C8.67855 6.88394 9.22099 7.42638 9.22099 8.10493C9.22099 8.78348 8.67855 9.32591 8 9.32591C7.32145 9.32591 6.77901 8.78348 6.77901 8.10493C6.77901 7.42638 7.32145 6.88394 8 6.88394Z" fill="#727E91"/>
</svg>
