<svg width="46" height="18" viewBox="0 0 46 18" fill="none" xmlns="http://www.w3.org/2000/svg">
<path d="M16.7827 7.21784C16.004 4.68122 13.6051 2.82515 10.7768 2.82515C7.76332 2.82515 5.23874 4.93213 4.64164 7.72654C4.41816 7.565 4.20865 7.40345 4.0166 7.2419C4.80924 4.29626 7.53985 2.1171 10.7768 2.1171C14.2162 2.1171 17.083 4.57467 17.6626 7.79529C17.3833 7.59593 17.0865 7.40345 16.7827 7.21784Z" fill="white"/>
<path d="M10.7775 15.1714C13.7909 15.1714 16.3155 13.0679 16.9126 10.2735C17.1361 10.435 17.3456 10.5966 17.5376 10.7581C16.745 13.7038 14.0144 15.8829 10.7775 15.8829C7.33803 15.8829 4.47124 13.4254 3.8916 10.2013C4.17095 10.4006 4.46775 10.5931 4.77154 10.7787C5.55022 13.3154 7.9491 15.1714 10.7775 15.1714Z" fill="white"/>
<path d="M17.5271 13.8138C18.7527 13.8138 19.5907 13.391 19.891 12.6211C20.2996 11.5762 19.5977 10.4763 18.9343 9.7373C18.0893 8.79552 16.7728 7.8503 15.3237 7.14912C12.8795 5.96673 10.5365 5.6402 9.35273 6.31733C9.21305 6.39638 9.1083 6.53387 9.0629 6.69885C9.01402 6.86383 9.02799 7.04257 9.10132 7.19724C9.17464 7.35191 9.29337 7.46877 9.44351 7.52033C9.59366 7.57533 9.75079 7.55814 9.89047 7.47909C10.6133 7.06663 12.5512 7.23161 14.8558 8.34525C15.0339 8.43118 15.212 8.52398 15.3866 8.61679C16.5179 9.18735 17.5306 9.87479 18.2394 10.5485C19.4161 11.669 19.4441 12.463 19.2625 12.9339C19.053 13.4701 18.3407 13.7416 17.1465 13.7416C16.9195 13.7416 16.6751 13.7313 16.4167 13.7107C16.8078 13.7794 17.1779 13.8138 17.5271 13.8138Z" fill="white"/>
<path d="M1.66315 5.37897C1.96345 4.60905 2.80148 4.18628 4.02711 4.18628C4.3763 4.18628 4.74643 4.21721 5.13751 4.28939C4.87912 4.26877 4.63469 4.25846 4.40772 4.25846C3.21352 4.25846 2.50119 4.53 2.29168 5.06619C2.1101 5.53708 2.13804 6.33107 3.31478 7.45158C4.02362 8.12526 5.03625 8.8127 6.1676 9.38327C6.34219 9.47607 6.52027 9.56887 6.69836 9.6548C9.00296 10.7684 10.9409 10.9334 11.6637 10.521C11.8034 10.4419 11.9605 10.4247 12.1107 10.4797C12.2608 10.5313 12.3795 10.6481 12.4529 10.8028C12.5262 10.9575 12.5402 11.1362 12.4913 11.3012C12.4459 11.4662 12.3411 11.6037 12.2015 11.6827C11.0177 12.3598 8.67473 12.0333 6.23045 10.8509C4.78135 10.1498 3.46493 9.20453 2.61991 8.26275C1.95646 7.52376 1.25461 6.42387 1.66315 5.37897Z" fill="white"/>
<path d="M26.404 11.3138C26.671 11.3138 26.9325 11.2207 27.1829 11.0345C27.4332 10.8483 27.5946 10.6237 27.678 10.3609C27.7615 10.098 27.7337 9.86799 27.6057 9.6818C27.4722 9.4956 27.2719 9.4025 27.0049 9.4025H25.9088C25.4193 9.4025 25.0576 9.23273 24.8184 8.88772C24.5736 8.54818 24.5291 8.13745 24.6793 7.65005C24.8295 7.16813 25.13 6.7574 25.5862 6.41786C26.0368 6.07285 26.5097 5.90308 26.9993 5.90308H28.0953C28.5849 5.90308 28.9521 6.07285 29.1913 6.41786C29.4361 6.7574 29.4806 7.16813 29.3304 7.65005C29.297 7.75958 29.2303 7.85268 29.1245 7.92935C29.0188 8.00602 28.9131 8.04435 28.8019 8.04435C28.6906 8.04435 28.6071 8.00602 28.5571 7.92935C28.5014 7.85268 28.4903 7.75958 28.5237 7.65005C28.6071 7.38718 28.5793 7.16265 28.4458 6.97645C28.3123 6.79025 28.112 6.69715 27.8449 6.69715H26.7489C26.4819 6.69715 26.226 6.79025 25.9756 6.97645C25.7253 7.16265 25.5639 7.38718 25.4805 7.65005C25.397 7.91292 25.4248 8.14293 25.5528 8.32912C25.6863 8.51532 25.8866 8.60842 26.1536 8.60842H27.2497C27.7392 8.60842 28.1064 8.77819 28.3457 9.1232C28.5905 9.46274 28.635 9.87347 28.4847 10.3609C28.3345 10.8428 28.0341 11.2535 27.5779 11.5931C27.1217 11.9381 26.6488 12.1078 26.1592 12.1078H25.0632C24.5736 12.1078 24.212 11.9381 23.9728 11.5931C23.728 11.2535 23.6834 10.8428 23.8337 10.3609C23.867 10.2513 23.9338 10.1582 24.0395 10.0816C24.1397 10.0049 24.2454 9.96657 24.3566 9.96657C24.4679 9.96657 24.5514 10.0049 24.607 10.0816C24.6626 10.1582 24.6738 10.2513 24.6404 10.3609C24.5569 10.6237 24.5847 10.8483 24.7183 11.0345C24.8518 11.2207 25.0521 11.3138 25.3191 11.3138H26.404Z" fill="white"/>
<path d="M31.5449 6.01253C31.4392 6.09468 31.3725 6.18778 31.3391 6.29183L29.6589 11.708C29.6255 11.8175 29.6367 11.9106 29.6923 11.9873C29.7424 12.064 29.8258 12.1023 29.9371 12.1023C30.0484 12.1023 30.1541 12.064 30.2598 11.9873C30.3655 11.9106 30.4322 11.8175 30.4656 11.708L31.0776 9.73649L31.684 9.3148L33.3531 11.9818C33.4087 12.064 33.4922 12.1078 33.609 12.1078C33.7147 12.1078 33.8148 12.0749 33.915 12.0037C34.0207 11.927 34.0875 11.834 34.1264 11.7244C34.1653 11.6204 34.1598 11.5273 34.1097 11.4451L32.4407 8.78907L35.5896 6.58755C35.6953 6.51636 35.7676 6.42326 35.8066 6.31373C35.8455 6.20421 35.8455 6.11111 35.7954 6.02896C35.7398 5.94681 35.6619 5.903 35.5562 5.89753C35.4449 5.89205 35.3392 5.92491 35.2335 6.00158L31.4058 8.67406L32.1458 6.29183C32.1792 6.1823 32.168 6.0892 32.1124 6.01253C32.0568 5.93586 31.9733 5.89753 31.8621 5.89753C31.7508 5.89753 31.6451 5.93586 31.5449 6.01253Z" fill="white"/>
<path d="M36.0123 12.1024C35.901 12.1024 35.8176 12.0641 35.7675 11.9874C35.7119 11.9108 35.7007 11.8177 35.7341 11.7081L37.4198 6.28648C37.4532 6.18243 37.52 6.08933 37.6257 6.00719C37.7258 5.93052 37.8315 5.89218 37.9428 5.89218C38.0541 5.89218 38.1375 5.93052 38.1932 6.00719C38.2488 6.08386 38.2599 6.17695 38.2266 6.28648L36.5408 11.7081C36.5074 11.8177 36.4407 11.9108 36.335 11.9874C36.2293 12.0641 36.1236 12.1024 36.0123 12.1024Z" fill="white"/>
<path d="M39.8517 6.57106C39.9017 6.64773 39.9852 6.68606 40.0965 6.68606V6.67511H42.2217C42.5667 6.67511 42.8281 6.79559 42.995 7.03655C43.1675 7.28299 43.2009 7.57324 43.0952 7.91278C42.9895 8.25779 42.7781 8.54804 42.4554 8.789C42.1383 9.02996 41.8045 9.15045 41.4595 9.15045H39.3287C39.2174 9.15045 39.1117 9.18878 39.0116 9.26545C38.9059 9.34212 38.8391 9.43522 38.8057 9.54475L38.1325 11.7025C38.0992 11.812 38.1103 11.9051 38.1659 11.9817C38.216 12.0584 38.2994 12.0968 38.4107 12.0968C38.522 12.0968 38.6277 12.0584 38.7334 11.9817C38.8391 11.9051 38.9059 11.812 38.9393 11.7025L39.49 9.93905H41.2147C41.7822 9.93905 42.3274 9.7419 42.8504 9.3476C43.3789 8.9533 43.7294 8.47685 43.9019 7.91825C44.0744 7.36514 44.0187 6.88869 43.7405 6.48891C43.4624 6.09461 43.0395 5.89746 42.4721 5.89746H40.3413C40.23 5.89746 40.1243 5.9358 40.0241 6.01247C39.9184 6.09461 39.8517 6.18771 39.8183 6.29176C39.7849 6.40129 39.796 6.49439 39.8517 6.57106Z" fill="white"/>
<path d="M16.7827 7.21784C16.004 4.68122 13.6051 2.82515 10.7768 2.82515C7.76332 2.82515 5.23874 4.93213 4.64164 7.72654C4.41816 7.565 4.20865 7.40345 4.0166 7.2419C4.80924 4.29626 7.53985 2.1171 10.7768 2.1171C14.2162 2.1171 17.083 4.57467 17.6626 7.79529C17.3833 7.59593 17.0865 7.40345 16.7827 7.21784Z" stroke="white" stroke-width="0.2"/>
<path d="M10.7775 15.1714C13.7909 15.1714 16.3155 13.0679 16.9126 10.2735C17.1361 10.435 17.3456 10.5966 17.5376 10.7581C16.745 13.7038 14.0144 15.8829 10.7775 15.8829C7.33803 15.8829 4.47124 13.4254 3.8916 10.2013C4.17095 10.4006 4.46775 10.5931 4.77154 10.7787C5.55022 13.3154 7.9491 15.1714 10.7775 15.1714Z" stroke="white" stroke-width="0.2"/>
<path d="M17.5271 13.8138C18.7527 13.8138 19.5907 13.391 19.891 12.6211C20.2996 11.5762 19.5977 10.4763 18.9343 9.7373C18.0893 8.79552 16.7728 7.8503 15.3237 7.14912C12.8795 5.96673 10.5365 5.6402 9.35273 6.31733C9.21305 6.39638 9.1083 6.53387 9.0629 6.69885C9.01402 6.86383 9.02799 7.04257 9.10132 7.19724C9.17464 7.35191 9.29337 7.46877 9.44351 7.52033C9.59366 7.57533 9.75079 7.55814 9.89047 7.47909C10.6133 7.06663 12.5512 7.23161 14.8558 8.34525C15.0339 8.43118 15.212 8.52398 15.3866 8.61679C16.5179 9.18735 17.5306 9.87479 18.2394 10.5485C19.4161 11.669 19.4441 12.463 19.2625 12.9339C19.053 13.4701 18.3407 13.7416 17.1465 13.7416C16.9195 13.7416 16.6751 13.7313 16.4167 13.7107C16.8078 13.7794 17.1779 13.8138 17.5271 13.8138Z" stroke="white" stroke-width="0.2"/>
<path d="M1.66315 5.37897C1.96345 4.60905 2.80148 4.18628 4.02711 4.18628C4.3763 4.18628 4.74643 4.21721 5.13751 4.28939C4.87912 4.26877 4.63469 4.25846 4.40772 4.25846C3.21352 4.25846 2.50119 4.53 2.29168 5.06619C2.1101 5.53708 2.13804 6.33107 3.31478 7.45158C4.02362 8.12526 5.03625 8.8127 6.1676 9.38327C6.34219 9.47607 6.52027 9.56887 6.69836 9.6548C9.00296 10.7684 10.9409 10.9334 11.6637 10.521C11.8034 10.4419 11.9605 10.4247 12.1107 10.4797C12.2608 10.5313 12.3795 10.6481 12.4529 10.8028C12.5262 10.9575 12.5402 11.1362 12.4913 11.3012C12.4459 11.4662 12.3411 11.6037 12.2015 11.6827C11.0177 12.3598 8.67473 12.0333 6.23045 10.8509C4.78135 10.1498 3.46493 9.20453 2.61991 8.26275C1.95646 7.52376 1.25461 6.42387 1.66315 5.37897Z" stroke="white" stroke-width="0.2"/>
<path d="M26.404 11.3138C26.671 11.3138 26.9325 11.2207 27.1829 11.0345C27.4332 10.8483 27.5946 10.6237 27.678 10.3609C27.7615 10.098 27.7337 9.86799 27.6057 9.6818C27.4722 9.4956 27.2719 9.4025 27.0049 9.4025H25.9088C25.4193 9.4025 25.0576 9.23273 24.8184 8.88772C24.5736 8.54818 24.5291 8.13745 24.6793 7.65005C24.8295 7.16813 25.13 6.7574 25.5862 6.41786C26.0368 6.07285 26.5097 5.90308 26.9993 5.90308H28.0953C28.5849 5.90308 28.9521 6.07285 29.1913 6.41786C29.4361 6.7574 29.4806 7.16813 29.3304 7.65005C29.297 7.75958 29.2303 7.85268 29.1245 7.92935C29.0188 8.00602 28.9131 8.04435 28.8019 8.04435C28.6906 8.04435 28.6071 8.00602 28.5571 7.92935C28.5014 7.85268 28.4903 7.75958 28.5237 7.65005C28.6071 7.38718 28.5793 7.16265 28.4458 6.97645C28.3123 6.79025 28.112 6.69715 27.8449 6.69715H26.7489C26.4819 6.69715 26.226 6.79025 25.9756 6.97645C25.7253 7.16265 25.5639 7.38718 25.4805 7.65005C25.397 7.91292 25.4248 8.14293 25.5528 8.32912C25.6863 8.51532 25.8866 8.60842 26.1536 8.60842H27.2497C27.7392 8.60842 28.1064 8.77819 28.3457 9.1232C28.5905 9.46274 28.635 9.87347 28.4847 10.3609C28.3345 10.8428 28.0341 11.2535 27.5779 11.5931C27.1217 11.9381 26.6488 12.1078 26.1592 12.1078H25.0632C24.5736 12.1078 24.212 11.9381 23.9728 11.5931C23.728 11.2535 23.6834 10.8428 23.8337 10.3609C23.867 10.2513 23.9338 10.1582 24.0395 10.0816C24.1397 10.0049 24.2454 9.96657 24.3566 9.96657C24.4679 9.96657 24.5514 10.0049 24.607 10.0816C24.6626 10.1582 24.6738 10.2513 24.6404 10.3609C24.5569 10.6237 24.5847 10.8483 24.7183 11.0345C24.8518 11.2207 25.0521 11.3138 25.3191 11.3138H26.404Z" stroke="white" stroke-width="0.2"/>
<path d="M31.5449 6.01253C31.4392 6.09468 31.3725 6.18778 31.3391 6.29183L29.6589 11.708C29.6255 11.8175 29.6367 11.9106 29.6923 11.9873C29.7424 12.064 29.8258 12.1023 29.9371 12.1023C30.0484 12.1023 30.1541 12.064 30.2598 11.9873C30.3655 11.9106 30.4322 11.8175 30.4656 11.708L31.0776 9.73649L31.684 9.3148L33.3531 11.9818C33.4087 12.064 33.4922 12.1078 33.609 12.1078C33.7147 12.1078 33.8148 12.0749 33.915 12.0037C34.0207 11.927 34.0875 11.834 34.1264 11.7244C34.1653 11.6204 34.1598 11.5273 34.1097 11.4451L32.4407 8.78907L35.5896 6.58755C35.6953 6.51636 35.7676 6.42326 35.8066 6.31373C35.8455 6.20421 35.8455 6.11111 35.7954 6.02896C35.7398 5.94681 35.6619 5.903 35.5562 5.89753C35.4449 5.89205 35.3392 5.92491 35.2335 6.00158L31.4058 8.67406L32.1458 6.29183C32.1792 6.1823 32.168 6.0892 32.1124 6.01253C32.0568 5.93586 31.9733 5.89753 31.8621 5.89753C31.7508 5.89753 31.6451 5.93586 31.5449 6.01253Z" stroke="white" stroke-width="0.2"/>
<path d="M36.0123 12.1024C35.901 12.1024 35.8176 12.0641 35.7675 11.9874C35.7119 11.9108 35.7007 11.8177 35.7341 11.7081L37.4198 6.28648C37.4532 6.18243 37.52 6.08933 37.6257 6.00719C37.7258 5.93052 37.8315 5.89218 37.9428 5.89218C38.0541 5.89218 38.1375 5.93052 38.1932 6.00719C38.2488 6.08386 38.2599 6.17695 38.2266 6.28648L36.5408 11.7081C36.5074 11.8177 36.4407 11.9108 36.335 11.9874C36.2293 12.0641 36.1236 12.1024 36.0123 12.1024Z" stroke="white" stroke-width="0.2"/>
<path d="M39.8517 6.57106C39.9017 6.64773 39.9852 6.68606 40.0965 6.68606V6.67511H42.2217C42.5667 6.67511 42.8281 6.79559 42.995 7.03655C43.1675 7.28299 43.2009 7.57324 43.0952 7.91278C42.9895 8.25779 42.7781 8.54804 42.4554 8.789C42.1383 9.02996 41.8045 9.15045 41.4595 9.15045H39.3287C39.2174 9.15045 39.1117 9.18878 39.0116 9.26545C38.9059 9.34212 38.8391 9.43522 38.8057 9.54475L38.1325 11.7025C38.0992 11.812 38.1103 11.9051 38.1659 11.9817C38.216 12.0584 38.2994 12.0968 38.4107 12.0968C38.522 12.0968 38.6277 12.0584 38.7334 11.9817C38.8391 11.9051 38.9059 11.812 38.9393 11.7025L39.49 9.93905H41.2147C41.7822 9.93905 42.3274 9.7419 42.8504 9.3476C43.3789 8.9533 43.7294 8.47685 43.9019 7.91825C44.0744 7.36514 44.0187 6.88869 43.7405 6.48891C43.4624 6.09461 43.0395 5.89746 42.4721 5.89746H40.3413C40.23 5.89746 40.1243 5.9358 40.0241 6.01247C39.9184 6.09461 39.8517 6.18771 39.8183 6.29176C39.7849 6.40129 39.796 6.49439 39.8517 6.57106Z" stroke="white" stroke-width="0.2"/>
</svg>
