<svg width="31" height="18" viewBox="0 0 31 18" fill="none" xmlns="http://www.w3.org/2000/svg">
<path d="M20.6412 6.00195H17.5126V13.591H20.6412V6.00195Z" fill="white"/>
<path d="M9.51703 4.1048H12.5785V7.15934C12.5785 7.56301 12.8194 7.8189 13.207 7.8189C13.5947 7.8189 13.8355 7.56346 13.8355 7.15934V6.0024H16.897V9.16416H12.4456C12.0579 9.16416 11.7902 9.42006 11.7902 9.78318C11.7902 10.1463 12.0579 10.4022 12.4456 10.4022H16.897V13.591H13.8355V12.4066C13.8355 12.0029 13.5951 11.747 13.207 11.747C12.8189 11.747 12.5785 12.0025 12.5785 12.4066V13.591H9.51703V4.1048Z" fill="white"/>
<path d="M2.07059 12.9517H6.24227C6.62949 12.9517 6.89718 12.6963 6.89718 12.3327C6.89718 11.9691 6.62949 11.7006 6.24227 11.7006L2.07059 11.6736V6.00241H8.90222V8.53209H4.73144C4.34377 8.53209 4.07607 8.78754 4.07607 9.15111C4.07607 9.51468 4.34377 9.78319 4.73144 9.78319H8.90222V15.4882H2.07059V12.9522V12.9517Z" fill="white"/>
<path d="M24.9187 11.0073C25.6004 11.0073 26.1219 10.4824 26.1219 9.79625C26.1219 9.11011 25.6004 8.58525 24.9187 8.58525C24.2369 8.58525 23.7154 9.11011 23.7154 9.79625C23.7154 10.4824 24.2369 11.0073 24.9187 11.0073ZM25.0525 6.00195C27.3521 6.00195 28.9296 7.54905 28.9296 9.79625C28.9296 12.0435 27.3521 13.5906 25.0525 13.5906H24.2633V15.4877H21.2551V6.00195H25.0525Z" fill="white"/>
<path d="M22.8964 3.44793C22.8964 4.53054 22.0244 5.4077 20.9491 5.4077C19.8739 5.4077 19.0018 4.53009 19.0018 3.44793C19.0018 2.36578 19.8734 1.48816 20.9491 1.48816C22.0248 1.48816 22.8964 2.36533 22.8964 3.44793Z" fill="white"/>
</svg>
