<svg width="82" height="18" viewBox="0 0 82 18" fill="none" xmlns="http://www.w3.org/2000/svg">
<path d="M5.98377 9.11265C5.44991 8.16313 4.9512 7.27107 4.23838 6.35528C3.83473 5.83671 3.45252 5.26911 3.40078 4.61403C3.34589 3.92037 4.22338 3.58432 4.36946 4.35032C4.5104 5.08944 4.44779 5.83871 4.77111 6.54352C4.92548 6.87985 5.21664 7.10912 5.5767 6.94961C6.19847 6.67374 5.60586 5.83885 5.42847 5.47908C5.13831 4.89119 5.09886 4.2747 5.03154 3.64007C4.98308 3.18367 4.80313 2.73157 4.47723 2.40239C4.08544 2.0066 3.58317 1.9074 3.05702 2.09064C2.23157 2.37823 0.648263 3.9764 2.75014 6.5148C3.16765 7.01893 3.69523 7.41886 4.18708 7.85082C5.01239 8.57565 5.69391 9.38995 6.03338 10.3982C6.384 11.4392 6.4549 12.6769 5.76051 13.5279C4.88746 14.5984 3.91407 14.2461 3.39164 13.7416C2.67396 13.049 2.9258 12.4609 2.764 11.5957C2.67624 11.1266 2.44311 10.69 2.14881 10.3145C1.93984 10.048 1.5905 9.80546 1.28419 9.94969C0.988739 10.0886 0.943002 10.5101 1.0775 10.8076C1.21215 11.1052 1.46857 11.3269 1.66211 11.5896C1.8099 11.7901 2.11393 12.2931 2.04661 12.9921C1.98643 13.6173 2.09978 14.2909 2.40452 14.8475C3.3459 16.568 5.62558 16.4347 6.4922 13.7331C7.19973 11.5277 6.40744 9.86607 5.98377 9.11265Z" fill="white"/>
<path d="M16.9779 4.17282C16.7921 4.00588 16.7029 3.74845 16.7054 3.4986C16.708 3.24889 16.7943 3.00589 16.9144 2.78663C17.0635 2.51434 17.2729 2.26563 17.5495 2.12455C17.8259 1.98333 18.1758 1.96489 18.4408 2.12684C18.7058 2.28864 18.8498 2.64784 18.7231 2.93128C18.5988 3.20972 18.3415 3.23316 18.1379 3.41341C17.9568 3.57392 18.0031 3.64125 17.9531 3.85593C17.8452 4.3179 17.3522 4.5093 16.9779 4.17282Z" fill="white"/>
<path d="M19.2592 4.58706C18.8947 4.42897 18.4933 4.7257 18.2578 5.04588C17.7466 5.74041 17.4775 6.55914 17.4794 7.42276C17.4816 8.55467 17.9455 9.60554 18.3431 10.6433C18.7158 11.6156 18.7066 12.6657 18.2814 13.6272C18.0665 14.1126 17.6293 14.4561 17.4289 14.9461C17.284 15.3005 17.3556 15.7931 17.7079 15.9433C18.0734 16.0993 18.4782 15.8037 18.7065 15.4783C19.6877 14.0799 19.0814 11.4957 18.8178 10.7419C17.6014 7.26139 19.2116 6.37919 19.5321 5.58604C19.6756 5.23084 19.6105 4.73943 19.2592 4.58706Z" fill="white"/>
<path d="M12.2579 4.69709C11.6655 2.12296 9.88754 1.84294 9.08467 2.09408C7.12602 2.70685 6.93777 4.77856 7.28425 6.13817C7.81483 8.22074 9.54664 8.07809 10.1418 7.70646C10.6187 7.40872 10.765 6.86471 10.9966 7.03395C11.3148 7.2665 10.6488 8.0022 10.535 8.12426C9.25691 9.49502 7.96419 10.3511 7.58298 12.9651C7.47049 13.7366 7.65774 14.676 8.03337 15.3607C8.14901 15.5712 8.51893 16.1874 9.03493 15.936C9.63526 15.6435 9.36511 14.9317 9.25862 14.7099C9.15199 14.4881 8.57225 13.5944 8.50435 12.8492C8.22291 9.76302 10.8171 9.21215 11.7371 7.99219C12.6814 6.74036 12.4162 5.38533 12.2579 4.69709ZM9.56279 4.40664C9.5272 4.46482 9.4999 4.5167 9.47974 4.5663C9.42428 4.70309 9.424 4.82187 9.45587 5.00326C9.54149 5.48838 9.21131 5.93863 8.68059 5.76782C8.43388 5.68835 8.24049 5.48238 8.13729 5.24468C8.03395 5.00697 8.01294 4.7404 8.03381 4.48197C8.05954 4.16108 8.15259 3.8369 8.3547 3.58633C8.55695 3.33562 8.88041 3.16996 9.19973 3.21113C9.51905 3.25229 9.8075 3.5313 9.8075 3.8532C9.8075 4.07146 9.67056 4.23069 9.56279 4.40664Z" fill="white"/>
<path d="M24.8822 10.0231C23.9622 8.80341 21.4175 8.25253 21.6991 5.16626C21.767 4.42114 22.297 3.52722 22.4036 3.30538C22.5101 3.08369 22.7804 2.37201 22.1801 2.07928C21.664 1.82785 21.294 2.44405 21.1785 2.65474C20.8028 3.33926 20.6155 4.27863 20.7282 5.0502C21.1094 7.6645 22.4022 8.52025 23.6802 9.89101C23.7941 10.0132 24.4599 10.7489 24.1417 10.9815C23.9102 11.1507 23.7638 10.6065 23.287 10.309C22.6917 9.93732 20.9598 9.79467 20.4293 11.8771C20.0828 13.2369 20.2712 15.3086 22.2298 15.9213C23.0324 16.1723 24.8107 15.8923 25.403 13.3183C25.5614 12.6301 25.8265 11.2751 24.8822 10.0231ZM22.9524 14.1619C22.9524 14.484 22.6641 14.763 22.3446 14.8041C22.0253 14.8453 21.7018 14.6796 21.4997 14.4289C21.2976 14.1784 21.2046 13.8541 21.1787 13.5332C21.158 13.2749 21.1788 13.0083 21.2822 12.7706C21.3855 12.5329 21.5789 12.3269 21.8255 12.2475C22.356 12.0765 22.6864 12.5267 22.6009 13.0119C22.5687 13.1933 22.5692 13.312 22.6246 13.449C22.6448 13.4984 22.6721 13.5505 22.7078 13.6086C22.8156 13.7844 22.9525 13.9438 22.9524 14.1619Z" fill="white"/>
<path d="M15.5212 6.41346C15.476 6.11701 15.4527 5.74209 15.4554 5.43892C15.4603 4.92321 15.2424 4.53128 14.8316 4.52027C14.253 4.50484 14.1441 4.99139 14.1302 5.19565C14.1009 5.62703 14.216 5.97922 14.4021 6.36944C14.7387 7.07568 15.4231 8.03435 15.711 8.76776C16.067 9.67426 16.1359 10.5526 15.9661 11.4944C15.7351 12.7745 14.9576 14.3964 13.4223 14.3501C13.188 14.343 12.9313 14.2505 12.7502 14.1074C12.4485 13.8693 12.22 13.4475 12.1474 13.0688C11.9906 12.2525 12.3666 11.4428 12.5179 10.6562C12.6231 10.1105 12.4629 9.1927 11.7083 9.24559C11.2174 9.28004 10.9458 9.83563 10.8696 10.3219C10.7309 11.2065 10.75 12.1049 10.8626 12.9922C10.9719 13.8557 11.3464 14.7176 11.9207 15.3291C12.5925 16.0443 13.7505 16.1724 14.6108 15.7043C15.472 15.2359 16.1551 14.2321 16.4694 13.0514C16.7504 11.996 16.7292 10.765 16.4235 9.70999C16.2687 9.17498 16.1085 8.64155 15.9578 8.10539C15.7913 7.51378 15.6139 7.02265 15.5212 6.41346Z" fill="white"/>
<path d="M32.7889 13.007V6.99142H33.8097V13.007H32.7889ZM30.2915 10.5096V9.4888H36.3071V10.5096H30.2915Z" fill="white"/>
<path d="M53.1745 8.2632L56.0392 5.41435L54.9525 4.33347L52.6313 6.64202L50.3099 4.33347L49.2232 5.41435L52.0879 8.2632C52.238 8.41243 52.4345 8.48704 52.6312 8.48704C52.8279 8.48704 53.0245 8.41257 53.1745 8.2632ZM57.3215 11.3067L55.0003 8.99832L57.3215 6.68962L56.2347 5.60888L53.3702 8.45788C53.0701 8.75633 53.0701 9.24017 53.3702 9.53862L56.2347 12.3876L57.3215 11.3067ZM52.6272 11.3583L54.9485 13.6669L56.0352 12.586L53.1706 9.73701C52.8705 9.43856 52.384 9.43856 52.0839 9.73701L49.2193 12.586L50.306 13.6669L52.6272 11.3583ZM51.8882 9.54248C52.0324 9.39912 52.1133 9.20487 52.1133 9.00218C52.1133 8.7995 52.0324 8.60511 51.8882 8.46174L49.0236 5.61274L47.9369 6.69348L50.2582 9.00204L47.9369 11.3107L49.0236 12.3915L51.8882 9.54248ZM47.8981 13.292H45.4891L45.3156 12.2025H43.745L43.5549 13.292H41.146L43.2197 4.70839H46.0704L47.8981 13.292ZM45.0419 10.3624L44.8909 9.36167C44.8868 9.35809 44.8798 9.30792 44.8685 9.2113C44.861 9.13011 44.8219 8.8075 44.7511 8.24434C44.7435 8.1813 44.7344 8.09525 44.7231 7.98576C44.712 7.87642 44.6971 7.7382 44.6785 7.57139L44.6053 6.76009C44.5983 6.83799 44.5879 6.92504 44.5749 7.02138C44.5619 7.11772 44.5479 7.2232 44.533 7.33826C44.5068 7.56796 44.4883 7.72748 44.4771 7.81639C44.4655 7.90501 44.4585 7.95904 44.4548 7.97762L44.2927 9.01676L44.0579 10.3624H45.0419ZM62.2962 13.292V11.2297H60.2953V9.91754H62.0892V7.97762H60.2953V6.72693H62.2962V4.70853H57.9643V13.292H62.2962ZM66.8812 11.2297H65.1312V4.70853H62.8002V13.292H66.8812V11.2297ZM74.038 13.292H71.6295L71.4551 12.2025H69.8857L69.6956 13.292H67.2857L69.3597 4.70839H72.2113L74.038 13.292ZM71.1821 10.3624L71.0306 9.36167C71.0278 9.35809 71.0192 9.30792 71.0092 9.2113C71.002 9.13011 70.962 8.8075 70.8905 8.24434C70.8834 8.1813 70.8748 8.09511 70.8634 7.98576C70.8519 7.87642 70.8376 7.7382 70.8191 7.57125L70.7462 6.75995C70.739 6.83785 70.7276 6.92489 70.7147 7.02138C70.7018 7.11772 70.6876 7.2232 70.6733 7.33826C70.6475 7.56782 70.629 7.72734 70.6175 7.81624C70.6061 7.90486 70.5989 7.95889 70.5947 7.97747L70.4331 9.01662L70.1973 10.3622L71.1821 10.3624ZM80.6788 13.292H78.1574L77.0068 10.2346C76.9953 10.1825 76.9753 10.1141 76.9481 10.0287C76.9196 9.94356 76.8853 9.84179 76.8438 9.72301L76.861 10.2902V13.292H74.5411V4.70839H76.9282C77.9787 4.70839 78.7649 4.91436 79.288 5.32573C79.9498 5.85202 80.2814 6.60072 80.2814 7.57125C80.2814 8.60925 79.8369 9.3265 78.9464 9.72301L80.6788 13.292ZM77.9673 7.59912C77.9673 6.95834 77.6314 6.63774 76.9567 6.63774H76.8724V8.68315H77.0296C77.2969 8.68315 77.5213 8.58152 77.7 8.37741C77.8787 8.17387 77.9673 7.91444 77.9673 7.59912Z" fill="white"/>
</svg>
