<svg width="93" height="18" viewBox="0 0 93 18" fill="none" xmlns="http://www.w3.org/2000/svg">
<mask id="mask0_8871_15398" style="mask-type:luminance" maskUnits="userSpaceOnUse" x="1" y="1" width="29" height="16">
<path d="M29.0803 1H1V17H29.0803V1Z" fill="white"/>
</mask>
<g mask="url(#mask0_8871_15398)">
<path d="M6.69545 9.12867C6.08532 8.0435 5.51537 7.024 4.70072 5.97738C4.2394 5.38473 3.80259 4.73604 3.74346 3.98739C3.68073 3.19462 4.68357 2.81057 4.85052 3.68599C5.01159 4.53071 4.94004 5.38701 5.30955 6.19252C5.48597 6.5769 5.81873 6.83892 6.23022 6.65661C6.94082 6.34134 6.26355 5.38718 6.06082 4.97601C5.72921 4.30413 5.68412 3.59958 5.60718 2.87428C5.5518 2.35269 5.34614 1.83599 4.97369 1.45979C4.52593 1.00746 3.9519 0.894087 3.35059 1.10351C2.40721 1.43218 0.597718 3.25866 2.99986 6.15969C3.47702 6.73584 4.07997 7.19291 4.64208 7.68657C5.58529 8.51495 6.36417 9.44558 6.75214 10.5979C7.15285 11.7876 7.23388 13.2021 6.4403 14.1747C5.44252 15.3981 4.33007 14.9954 3.73301 14.4189C2.9128 13.6273 3.20062 12.9553 3.0157 11.9665C2.9154 11.4304 2.64898 10.9313 2.31263 10.5022C2.0738 10.1977 1.67456 9.92046 1.32449 10.0853C0.986834 10.2441 0.934563 10.7258 1.08828 11.0657C1.24216 11.4058 1.53522 11.6592 1.7564 11.9595C1.92531 12.1886 2.27277 12.7635 2.19583 13.5623C2.12705 14.2768 2.2566 15.0467 2.60487 15.6828C3.68073 17.6491 6.28608 17.4967 7.27651 14.4091C8.08512 11.8887 7.17964 9.99005 6.69545 9.129V9.12867Z" fill="white"/>
<path d="M19.2604 3.48324C19.048 3.29244 18.9461 2.99824 18.949 2.71269C18.952 2.42731 19.0506 2.1496 19.1879 1.89902C19.3582 1.58783 19.5976 1.30359 19.9136 1.14236C20.2296 0.98096 20.6295 0.959887 20.9323 1.14497C21.2352 1.32989 21.3997 1.7404 21.255 2.06433C21.1128 2.38255 20.8188 2.40934 20.5862 2.61533C20.3792 2.79878 20.4321 2.87572 20.375 3.12108C20.2516 3.64905 19.6882 3.86778 19.2604 3.48324Z" fill="white"/>
<path d="M21.8677 3.95664C21.4511 3.77597 20.9924 4.1151 20.7232 4.48101C20.139 5.27476 19.8314 6.21046 19.8336 7.19745C19.8362 8.49106 20.3663 9.69205 20.8207 10.878C21.2466 11.9893 21.2361 13.1893 20.7502 14.2882C20.5046 14.843 20.0049 15.2355 19.7759 15.7955C19.6103 16.2006 19.6921 16.7635 20.0948 16.9352C20.5125 17.1135 20.9751 16.7756 21.236 16.4038C22.3574 14.8056 21.6645 11.8523 21.3632 10.9907C19.9731 7.01302 21.8133 6.00479 22.1795 5.09833C22.3435 4.69239 22.2692 4.13078 21.8677 3.95664Z" fill="white"/>
<path d="M13.8661 4.0824C13.1891 1.14053 11.1571 0.820512 10.2396 1.10753C8.00111 1.80783 7.78597 4.17551 8.18194 5.72934C8.78832 8.10943 10.7675 7.9464 11.4477 7.52168C11.9927 7.18141 12.16 6.55968 12.4246 6.75309C12.7882 7.01887 12.0272 7.85966 11.8971 7.99917C10.4364 9.56575 8.95902 10.5441 8.52335 13.5315C8.39479 14.4133 8.60878 15.4869 9.03808 16.2694C9.17024 16.51 9.593 17.2142 10.1827 16.9269C10.8688 16.5926 10.5601 15.7791 10.4384 15.5256C10.3165 15.2721 9.65394 14.2508 9.57634 13.399C9.2547 9.87204 12.2194 9.24247 13.271 7.84823C14.3501 6.41756 14.0469 4.86895 13.8659 4.0824H13.8661ZM10.786 3.75046C10.7453 3.81694 10.7141 3.87624 10.6911 3.93292C10.6277 4.08926 10.6274 4.225 10.6638 4.4323C10.7616 4.98673 10.3843 5.5013 9.77776 5.30609C9.49581 5.21526 9.27479 4.97987 9.15685 4.70821C9.03874 4.43655 9.01473 4.13189 9.03858 3.83654C9.06798 3.46981 9.17433 3.09932 9.40531 2.81296C9.63646 2.52643 10.0061 2.3371 10.3711 2.38415C10.736 2.4312 11.0657 2.75007 11.0657 3.11794C11.0657 3.36739 10.909 3.5492 10.7858 3.75029L10.786 3.75046Z" fill="white"/>
<path d="M28.2939 10.1693C27.2425 8.77534 24.3343 8.14577 24.6561 4.6186C24.7337 3.76703 25.3394 2.7454 25.4613 2.49188C25.583 2.23851 25.8919 1.42516 25.2058 1.09061C24.6159 0.803269 24.1932 1.50749 24.0612 1.74828C23.6317 2.53059 23.4177 3.60416 23.5464 4.48596C23.9821 7.47373 25.4597 8.45174 26.9202 10.0183C27.0504 10.158 27.8113 10.9988 27.4477 11.2646C27.1831 11.458 27.0158 10.8361 26.4708 10.496C25.7905 10.0712 23.8112 9.90821 23.2049 12.2881C22.8089 13.8421 23.0242 16.2098 25.2627 16.9101C26.1799 17.197 28.2122 16.877 28.8891 13.9353C29.0701 13.1487 29.3732 11.6001 28.2939 10.1693ZM26.0884 14.8994C26.0884 15.2674 25.7589 15.5863 25.3938 15.6333C25.0289 15.6804 24.6592 15.4911 24.4282 15.2045C24.1973 14.9182 24.0909 14.5475 24.0613 14.1808C24.0377 13.8856 24.0615 13.5809 24.1796 13.3093C24.2977 13.0376 24.5187 12.8022 24.8005 12.7114C25.4069 12.516 25.7844 13.0306 25.6867 13.585C25.65 13.7923 25.6505 13.9281 25.7138 14.0846C25.7369 14.1411 25.7681 14.2005 25.8089 14.267C25.9321 14.468 26.0889 14.6499 26.0887 14.8992L26.0884 14.8994Z" fill="white"/>
<path d="M17.5956 6.04397C17.5439 5.70517 17.5173 5.27669 17.5204 4.93021C17.526 4.34082 17.277 3.8929 16.8075 3.88032C16.1463 3.86268 16.0218 4.41874 16.0059 4.65218C15.9725 5.14518 16.104 5.54769 16.3167 5.99365C16.7014 6.80079 17.4835 7.89642 17.8125 8.7346C18.2194 9.7706 18.2981 10.7744 18.1041 11.8508C17.8401 13.3138 16.9514 15.1674 15.1968 15.1144C14.9291 15.1063 14.6357 15.0006 14.4288 14.8371C14.0839 14.5649 13.8229 14.0829 13.7399 13.6501C13.5607 12.7172 13.9903 11.7918 14.1633 10.8928C14.2835 10.2692 14.1004 9.22025 13.2381 9.28069C12.6769 9.32006 12.3665 9.95502 12.2795 10.5108C12.121 11.5218 12.1428 12.5485 12.2715 13.5626C12.3964 14.5494 12.8244 15.5344 13.4808 16.2333C14.2486 17.0507 15.5719 17.1971 16.5551 16.6621C17.5394 16.1268 18.32 14.9795 18.6793 13.6302C19.0004 12.424 18.9762 11.0172 18.6268 9.81143C18.4499 9.19999 18.2668 8.59035 18.0946 7.97761C17.9043 7.30148 17.7012 6.74019 17.5952 6.04397H17.5956Z" fill="white"/>
</g>
<path d="M37.3302 13.5795V6.7045H38.4969V13.5795H37.3302ZM34.4761 10.7253V9.55865H41.3511V10.7253H34.4761Z" fill="white"/>
<path d="M60.6283 8.15796L63.9023 4.90212L62.6603 3.66682L60.0076 6.30518L57.3545 3.66682L56.1125 4.90212L59.3865 8.15796C59.558 8.3285 59.7826 8.41377 60.0074 8.41377C60.2322 8.41377 60.457 8.32866 60.6283 8.15796ZM65.3677 11.6363L62.715 8.99809L65.3677 6.35958L64.1258 5.12445L60.852 8.38045C60.5091 8.72153 60.5091 9.27449 60.852 9.61558L64.1258 12.8716L65.3677 11.6364V11.6363ZM60.0028 11.6953L62.6557 14.3336L63.8977 13.0983L60.6239 9.84231C60.2809 9.50123 59.725 9.50123 59.3819 9.84231L56.1081 13.0983L57.3501 14.3336L60.0028 11.6953ZM59.1583 9.61999C59.3231 9.45614 59.4156 9.23414 59.4156 9.00251C59.4156 8.77087 59.3231 8.5487 59.1583 8.38486L55.8845 5.12886L54.6425 6.36399L57.2954 9.00234L54.6425 11.6409L55.8845 12.876L59.1583 9.61999ZM54.5982 13.9051H51.845L51.6467 12.66H49.8518L49.6345 13.9051H46.8815L49.2514 4.09531H52.5094L54.5984 13.9051H54.5982ZM51.3339 10.557L51.1614 9.41334C51.1566 9.40926 51.1486 9.35192 51.1357 9.24149C51.1272 9.14871 51.0825 8.78001 51.0016 8.13639C50.993 8.06435 50.9825 7.96601 50.9696 7.84088C50.9569 7.71592 50.9399 7.55795 50.9186 7.36732L50.835 6.44011C50.827 6.52914 50.8151 6.62862 50.8002 6.73873C50.7853 6.84883 50.7693 6.96938 50.7523 7.10088C50.7224 7.3634 50.7012 7.5457 50.6885 7.64731C50.6752 7.74859 50.6672 7.81034 50.663 7.83157L50.4777 9.01917L50.2093 10.557H51.3339ZM71.0532 13.9051V11.5482H68.7664V10.0486H70.8166V7.83157H68.7664V6.40221H71.0532V4.09547H66.1024V13.9051H71.0532ZM76.2931 11.5482H74.2932V4.09547H71.6292V13.9051H76.2931V11.5482ZM84.4723 13.9051H81.7198L81.5205 12.66H79.7269L79.5096 13.9051H76.7554L79.1257 4.09531H82.3847L84.4723 13.9051ZM81.2085 10.557L81.0353 9.41334C81.0321 9.40926 81.0223 9.35192 81.0108 9.24149C81.0027 9.14871 80.9569 8.78001 80.8752 8.13639C80.8671 8.06435 80.8573 7.96585 80.8442 7.84088C80.8311 7.71592 80.8148 7.55795 80.7936 7.36715L80.7103 6.43995C80.7021 6.52898 80.689 6.62846 80.6743 6.73873C80.6596 6.84883 80.6433 6.96938 80.627 7.10088C80.5976 7.36323 80.5763 7.54554 80.5632 7.64714C80.5502 7.74842 80.542 7.81017 80.5371 7.83141L80.3525 9.019L80.083 10.5568L81.2085 10.557ZM92.0618 13.9051H89.1803L87.8652 10.411C87.8522 10.3515 87.8293 10.2732 87.7982 10.1757C87.7656 10.0784 87.7264 9.96206 87.679 9.82631L87.6986 10.4745V13.9051H85.0473V4.09531H87.7754C88.9761 4.09531 89.8745 4.3307 90.4724 4.80084C91.2287 5.40231 91.6077 6.25797 91.6077 7.36715C91.6077 8.55344 91.0997 9.37316 90.082 9.82631L92.0618 13.9051ZM88.963 7.39901C88.963 6.66668 88.5791 6.30028 87.8081 6.30028H87.7117V8.63789H87.8914C88.1968 8.63789 88.4533 8.52175 88.6575 8.28848C88.8617 8.05586 88.963 7.75937 88.963 7.39901Z" fill="white"/>
</svg>
