<svg width="82" height="18" viewBox="0 0 82 18" fill="none" xmlns="http://www.w3.org/2000/svg">
<mask id="mask0_8874_32445" style="mask-type:luminance" maskUnits="userSpaceOnUse" x="1" y="2" width="25" height="14">
<path d="M25.5703 2H1V16H25.5703V2Z" />
</mask>
<g mask="url(#mask0_8874_32445)">
<path d="M5.98365 9.11265C5.44978 8.16313 4.95108 7.27106 4.23826 6.35527C3.83461 5.8367 3.4524 5.26911 3.40066 4.61403C3.34577 3.92036 4.22326 3.58432 4.36934 4.35031C4.51028 5.08944 4.44767 5.8387 4.77099 6.54352C4.92536 6.87985 5.21652 7.10912 5.57657 6.9496C6.19835 6.67374 5.60574 5.83885 5.42835 5.47908C5.13819 4.89118 5.09874 4.2747 5.03141 3.64006C4.98296 3.18367 4.803 2.73156 4.47711 2.40238C4.08532 2.00659 3.58305 1.9074 3.0569 2.09064C2.23145 2.37823 0.648141 3.97639 2.75001 6.51479C3.16753 7.01893 3.69511 7.41886 4.18695 7.85081C5.01227 8.57564 5.69378 9.38995 6.03326 10.3982C6.38388 11.4392 6.45477 12.6769 5.76039 13.5279C4.88734 14.5984 3.91395 14.2461 3.39152 13.7416C2.67383 13.049 2.92568 12.4609 2.76388 11.5957C2.67611 11.1266 2.44299 10.6899 2.14869 10.3145C1.93971 10.048 1.59038 9.80546 1.28407 9.94968C0.988617 10.0886 0.94288 10.5101 1.07738 10.8076C1.21203 11.1052 1.46845 11.3269 1.66199 11.5896C1.80978 11.7901 2.11381 12.2931 2.04648 12.9921C1.98631 13.6173 2.09966 14.2909 2.4044 14.8475C3.34577 16.568 5.62545 16.4347 6.49207 13.7331C7.19961 11.5277 6.40731 9.86635 5.98365 9.11294V9.11265Z" />
<path d="M16.9776 4.17283C16.7918 4.00588 16.7026 3.74845 16.7051 3.4986C16.7077 3.24889 16.794 3.0059 16.9141 2.78664C17.0632 2.51434 17.2726 2.26563 17.5492 2.12456C17.8256 1.98334 18.1755 1.9649 18.4405 2.12684C18.7055 2.28865 18.8495 2.64785 18.7228 2.93129C18.5985 3.20973 18.3412 3.23317 18.1376 3.41341C17.9565 3.57393 18.0028 3.64125 17.9528 3.85594C17.8449 4.31791 17.3519 4.5093 16.9776 4.17283Z" />
<path d="M19.2592 4.58706C18.8947 4.42897 18.4933 4.7257 18.2578 5.04588C17.7467 5.74041 17.4775 6.55914 17.4794 7.42276C17.4817 8.55467 17.9455 9.60554 18.3431 10.6432C18.7158 11.6156 18.7066 12.6657 18.2814 13.6272C18.0665 14.1126 17.6293 14.4561 17.4289 14.9461C17.284 15.3005 17.3556 15.7931 17.7079 15.9433C18.0734 16.0993 18.4782 15.8037 18.7065 15.4783C19.6877 14.0799 19.0814 11.4957 18.8178 10.7419C17.6014 7.26139 19.2116 6.37919 19.5321 5.58603C19.6756 5.23084 19.6105 4.73943 19.2592 4.58706Z" />
<path d="M12.2579 4.69707C11.6656 2.12294 9.88763 1.84293 9.08476 2.09407C7.12611 2.70683 6.93786 4.77855 7.28434 6.13815C7.81491 8.22073 9.54673 8.07808 10.1419 7.70645C10.6187 7.40871 10.7651 6.8647 10.9967 7.03393C11.3148 7.26649 10.6489 8.00218 10.5351 8.12425C9.25699 9.495 7.96428 10.351 7.58307 12.9651C7.47058 13.7366 7.65782 14.676 8.03346 15.3607C8.14909 15.5712 8.51901 16.1874 9.03501 15.936C9.63534 15.6435 9.36519 14.9317 9.25871 14.7099C9.15208 14.488 8.57233 13.5944 8.50444 12.8491C8.223 9.76301 10.8171 9.21213 11.7372 7.99218C12.6815 6.74034 12.4162 5.38531 12.2578 4.69707H12.2579ZM9.56287 4.40663C9.52728 4.4648 9.49998 4.51669 9.47983 4.56629C9.42437 4.70308 9.42408 4.82186 9.45596 5.00324C9.54158 5.48837 9.21139 5.93861 8.68067 5.76781C8.43397 5.68833 8.24058 5.48236 8.13738 5.24466C8.03404 5.00696 8.01303 4.74038 8.03389 4.48196C8.05962 4.16106 8.15267 3.83689 8.35478 3.58632C8.55704 3.33561 8.8805 3.16995 9.19982 3.21111C9.51914 3.25228 9.80758 3.53129 9.80758 3.85318C9.80758 4.07144 9.67051 4.23053 9.56273 4.40648L9.56287 4.40663Z" />
<path d="M24.8822 10.0231C23.9623 8.8034 21.4176 8.25253 21.6992 5.16626C21.7671 4.42113 22.2971 3.52721 22.4037 3.30537C22.5102 3.08368 22.7805 2.372 22.1802 2.07927C21.664 1.82785 21.2941 2.44404 21.1786 2.65473C20.8028 3.33925 20.6156 4.27863 20.7282 5.05019C21.1094 7.66449 22.4023 8.52025 23.6803 9.891C23.7942 10.0132 24.46 10.7489 24.1418 10.9815C23.9103 11.1507 23.7639 10.6065 23.2871 10.3089C22.6917 9.93731 20.9599 9.79466 20.4293 11.8771C20.0829 13.2368 20.2713 15.3086 22.2299 15.9213C23.0325 16.1723 24.8107 15.8923 25.4031 13.3183C25.5614 12.6301 25.8266 11.2751 24.8822 10.0231ZM22.9524 14.1619C22.9524 14.484 22.6641 14.763 22.3447 14.8041C22.0254 14.8453 21.7019 14.6796 21.4998 14.4289C21.2977 14.1784 21.2046 13.854 21.1788 13.5332C21.158 13.2749 21.1789 13.0083 21.2822 12.7706C21.3856 12.5329 21.579 12.3269 21.8255 12.2474C22.3561 12.0765 22.6864 12.5267 22.601 13.0119C22.5688 13.1933 22.5692 13.312 22.6247 13.449C22.6448 13.4984 22.6721 13.5504 22.7079 13.6086C22.8157 13.7844 22.9529 13.9437 22.9527 14.1618L22.9524 14.1619Z" />
<path d="M15.5208 6.41344C15.4757 6.11699 15.4524 5.74207 15.4551 5.4389C15.4599 4.92319 15.2421 4.53126 14.8313 4.52026C14.2527 4.50482 14.1438 4.99137 14.1299 5.19563C14.1006 5.62701 14.2157 5.9792 14.4018 6.36942C14.7384 7.07566 15.4228 8.03434 15.7107 8.76774C16.0667 9.67424 16.1356 10.5526 15.9658 11.4944C15.7348 12.7745 14.9572 14.3964 13.422 14.3501C13.1877 14.343 12.931 14.2505 12.7499 14.1074C12.4481 13.8693 12.2197 13.4475 12.1471 13.0688C11.9903 12.2525 12.3662 11.4428 12.5176 10.6562C12.6228 10.1105 12.4626 9.19269 11.708 9.24557C11.217 9.28002 10.9455 9.83561 10.8693 10.3219C10.7306 11.2065 10.7496 12.1049 10.8623 12.9922C10.9716 13.8557 11.3461 14.7176 11.9204 15.3291C12.5922 16.0443 13.7501 16.1724 14.6105 15.7043C15.4717 15.2359 16.1548 14.232 16.4691 13.0514C16.7501 11.9959 16.7289 10.765 16.4232 9.70997C16.2684 9.17496 16.1082 8.64153 15.9575 8.10537C15.791 7.51376 15.6133 7.02263 15.5205 6.41344H15.5208Z" />
</g>
<path d="M32.7889 13.007V6.99142H33.8097V13.007H32.7889ZM30.2915 10.5096V9.4888H36.3071V10.5096H30.2915Z" />
<path d="M53.1745 8.2632L56.0392 5.41435L54.9525 4.33347L52.6313 6.64202L50.3099 4.33347L49.2232 5.41435L52.0879 8.2632C52.238 8.41243 52.4345 8.48704 52.6312 8.48704C52.8279 8.48704 53.0245 8.41257 53.1745 8.2632ZM57.3215 11.3067L55.0003 8.99832L57.3215 6.68962L56.2347 5.60888L53.3702 8.45788C53.0701 8.75633 53.0701 9.24017 53.3702 9.53862L56.2347 12.3876L57.3215 11.3069V11.3067ZM52.6272 11.3583L54.9485 13.6669L56.0352 12.586L53.1706 9.73701C52.8705 9.43856 52.384 9.43856 52.0839 9.73701L49.2193 12.586L50.306 13.6669L52.6272 11.3583ZM51.8882 9.54248C52.0324 9.39912 52.1133 9.20487 52.1133 9.00218C52.1133 8.7995 52.0324 8.60511 51.8882 8.46174L49.0236 5.61274L47.9369 6.69348L50.2582 9.00204L47.9369 11.3107L49.0236 12.3915L51.8882 9.54248ZM47.8981 13.292H45.4891L45.3156 12.2025H43.745L43.5549 13.292H41.146L43.2197 4.70839H46.0704L47.8983 13.292H47.8981ZM45.0419 10.3624L44.8909 9.36167C44.8868 9.35809 44.8798 9.30792 44.8685 9.2113C44.861 9.13011 44.8219 8.8075 44.7511 8.24434C44.7435 8.1813 44.7344 8.09525 44.7231 7.98576C44.712 7.87642 44.6971 7.7382 44.6785 7.57139L44.6053 6.76009C44.5983 6.83799 44.5879 6.92504 44.5749 7.02138C44.5619 7.11772 44.5479 7.2232 44.533 7.33826C44.5068 7.56796 44.4883 7.72748 44.4771 7.81639C44.4655 7.90501 44.4585 7.95904 44.4548 7.97762L44.2927 9.01676L44.0579 10.3624H45.0419ZM62.2962 13.292V11.2297H60.2953V9.91754H62.0892V7.97762H60.2953V6.72693H62.2962V4.70853H57.9643V13.292H62.2962ZM66.8812 11.2297H65.1312V4.70853H62.8002V13.292H66.8812V11.2297ZM74.038 13.292H71.6295L71.4551 12.2025H69.8857L69.6956 13.292H67.2857L69.3597 4.70839H72.2113L74.038 13.292ZM71.1821 10.3624L71.0306 9.36167C71.0278 9.35809 71.0192 9.30792 71.0092 9.2113C71.002 9.13011 70.962 8.8075 70.8905 8.24434C70.8834 8.1813 70.8748 8.09511 70.8634 7.98576C70.8519 7.87642 70.8376 7.7382 70.8191 7.57125L70.7462 6.75995C70.739 6.83785 70.7276 6.92489 70.7147 7.02138C70.7018 7.11772 70.6876 7.2232 70.6733 7.33826C70.6475 7.56782 70.629 7.72734 70.6175 7.81624C70.6061 7.90486 70.5989 7.95889 70.5947 7.97747L70.4331 9.01662L70.1973 10.3622L71.1821 10.3624ZM80.6788 13.292H78.1574L77.0068 10.2346C76.9953 10.1825 76.9753 10.1141 76.9481 10.0287C76.9196 9.94356 76.8853 9.84179 76.8438 9.72301L76.861 10.2902V13.292H74.5411V4.70839H76.9282C77.9787 4.70839 78.7649 4.91436 79.288 5.32573C79.9498 5.85202 80.2814 6.60072 80.2814 7.57125C80.2814 8.60925 79.8369 9.3265 78.9464 9.72301L80.6788 13.292ZM77.9673 7.59912C77.9673 6.95834 77.6314 6.63774 76.9567 6.63774H76.8724V8.68315H77.0296C77.2969 8.68315 77.5213 8.58152 77.7 8.37741C77.8787 8.17387 77.9673 7.91444 77.9673 7.59912Z" />
</svg>
