<svg width="16" height="16" viewBox="0 0 16 16" fill="none" xmlns="http://www.w3.org/2000/svg">
<path fill-rule="evenodd" clip-rule="evenodd" d="M4.98428 12.1789C4.65291 12.1789 4.38428 11.9103 4.38428 11.5789L4.38428 4.84211C4.38428 4.51074 4.65291 4.24211 4.98428 4.24211L6.66849 4.24211C6.99986 4.24211 7.26849 4.51073 7.26849 4.84211C7.26849 5.17348 6.99986 5.44211 6.66849 5.44211L5.58428 5.44211L5.58428 11.5789C5.58428 11.9103 5.31565 12.1789 4.98428 12.1789Z" fill="white"/>
<path fill-rule="evenodd" clip-rule="evenodd" d="M11.0372 3.4C11.3686 3.4 11.6372 3.66863 11.6372 4L11.6372 11.5789C11.6372 11.9103 11.3686 12.1789 11.0372 12.1789L9.353 12.1789C9.02163 12.1789 8.753 11.9103 8.753 11.5789C8.753 11.2476 9.02163 10.9789 9.353 10.9789L10.4372 10.9789L10.4372 4C10.4372 3.66863 10.7058 3.4 11.0372 3.4Z" fill="white"/>
<path fill-rule="evenodd" clip-rule="evenodd" d="M2.87593 9.89152C3.11025 9.65721 3.49014 9.65721 3.72446 9.89152L4.98441 11.1515L6.24435 9.89152C6.47867 9.65721 6.85857 9.65721 7.09288 9.89152C7.32719 10.1258 7.32719 10.5057 7.09288 10.7401L5.40867 12.4243C5.17436 12.6586 4.79446 12.6586 4.56014 12.4243L2.87593 10.7401C2.64162 10.5057 2.64162 10.1258 2.87593 9.89152Z" fill="white"/>
<path fill-rule="evenodd" clip-rule="evenodd" d="M13.1456 6.10847C12.9112 6.34279 12.5313 6.34279 12.297 6.10847L11.0371 4.84853L9.77713 6.10847C9.54282 6.34279 9.16292 6.34279 8.9286 6.10847C8.69429 5.87416 8.69429 5.49426 8.9286 5.25994L10.6128 3.57573C10.8471 3.34142 11.227 3.34142 11.4613 3.57573L13.1456 5.25994C13.3799 5.49426 13.3799 5.87416 13.1456 6.10847Z" fill="white"/>
</svg>
