<svg width="24" height="24" viewBox="0 0 24 24" fill="none" xmlns="http://www.w3.org/2000/svg">
<path fill-rule="evenodd" clip-rule="evenodd" d="M9.12345 4.89814C9.12345 4.45632 8.76528 4.09814 8.32345 4.09814C7.88162 4.09814 7.52345 4.45632 7.52345 4.89814L7.52345 16.7508L5.53113 14.1893C5.25987 13.8405 4.75725 13.7777 4.40849 14.049C4.05974 14.3202 3.99691 14.8228 4.26816 15.1716L7.69197 19.5736C7.90179 19.8434 8.25981 19.9501 8.58308 19.8392C8.90634 19.7282 9.12345 19.4242 9.12345 19.0825V4.89814ZM14.8799 19.0826C14.8799 19.5244 15.238 19.8826 15.6799 19.8826C16.1217 19.8826 16.4799 19.5244 16.4799 19.0826L16.4799 7.22986L18.4722 9.79142C18.7434 10.1402 19.2461 10.203 19.5948 9.93175C19.9436 9.66049 20.0064 9.15787 19.7351 8.80911L16.3113 4.40708C16.1015 4.13731 15.7435 4.03062 15.4202 4.14153C15.097 4.25245 14.8799 4.55647 14.8799 4.89823L14.8799 19.0826Z" fill="white"/>
</svg>
