<svg width="24" height="24" viewBox="0 0 24 24" fill="none" xmlns="http://www.w3.org/2000/svg">
<path fill-rule="evenodd" clip-rule="evenodd" d="M7.0001 4.69995C6.50304 4.69995 6.1001 5.10289 6.1001 5.59995V16.1772L4.63649 14.7136C4.28502 14.3621 3.71517 14.3621 3.3637 14.7136C3.01223 15.065 3.01223 15.6349 3.3637 15.9863L6.3637 18.9863C6.71517 19.3378 7.28502 19.3378 7.63649 18.9863L10.6365 15.9863C10.988 15.6349 10.988 15.065 10.6365 14.7136C10.285 14.3621 9.71517 14.3621 9.3637 14.7136L7.9001 16.1772V6.49995H9.0001C9.49715 6.49995 9.9001 6.09701 9.9001 5.59995C9.9001 5.10289 9.49715 4.69995 9.0001 4.69995H7.0001ZM14.9999 19.25H16.9999C17.497 19.25 17.8999 18.8471 17.8999 18.35L17.8999 7.77279L19.3635 9.2364C19.715 9.58787 20.2848 9.58787 20.6363 9.2364C20.9878 8.88492 20.9878 8.31508 20.6363 7.9636L17.6363 4.9636C17.2848 4.61213 16.715 4.61213 16.3635 4.9636L13.3635 7.9636C13.012 8.31508 13.012 8.88492 13.3635 9.2364C13.715 9.58787 14.2848 9.58787 14.6363 9.2364L16.0999 7.77279L16.0999 17.45L14.9999 17.45C14.5028 17.45 14.0999 17.8529 14.0999 18.35C14.0999 18.8471 14.5028 19.25 14.9999 19.25Z" fill="white"/>
</svg>
