<svg width="20" height="20" viewBox="0 0 20 20" fill="none" xmlns="http://www.w3.org/2000/svg">
<path fill-rule="evenodd" clip-rule="evenodd" d="M7.50002 4.25C7.91424 4.25 8.25002 4.58579 8.25002 5L8.25002 15C8.25002 15.3175 8.05013 15.6006 7.75096 15.7068C7.45178 15.813 7.11813 15.7193 6.91794 15.4729L4.41794 12.396C4.15674 12.0745 4.2056 11.6022 4.52708 11.341C4.84856 11.0798 5.32091 11.1287 5.58211 11.4501L6.75002 12.8876L6.75002 5C6.75002 4.58579 7.08581 4.25 7.50002 4.25Z" fill="white"/>
<path fill-rule="evenodd" clip-rule="evenodd" d="M12.5 15.75C12.0858 15.75 11.75 15.4142 11.75 15L11.75 5C11.75 4.68253 11.9499 4.39944 12.249 4.29322C12.5482 4.187 12.8819 4.28066 13.0821 4.52706L15.5821 7.60398C15.8433 7.92546 15.7944 8.39781 15.4729 8.65901C15.1514 8.92021 14.6791 8.87134 14.4179 8.54987L13.25 7.11243L13.25 15C13.25 15.4142 12.9142 15.75 12.5 15.75Z" fill="white"/>
</svg>
