<svg width="60" height="60" viewBox="0 0 60 60" fill="none" xmlns="http://www.w3.org/2000/svg">
<path d="M29.3735 24.7702L26.9024 22.2992L29.3735 19.8282V21.3797V21.8797H29.8735C34.1609 21.8797 37.6492 25.3689 37.6492 29.6555C37.6492 30.6507 37.4572 31.6004 37.1125 32.4759L36.4566 31.8208C36.6825 31.1409 36.8102 30.4138 36.8102 29.6555C36.8102 25.8299 33.698 22.7188 29.8735 22.7188H29.3735V23.2188V24.7702ZM30.3735 34.5407L32.8445 37.0117L30.3735 39.4828V37.9313V37.4313H29.8735C25.586 37.4313 22.0977 33.9421 22.0977 29.6555C22.0977 28.6602 22.2897 27.7105 22.6344 26.8351L23.2903 27.4902C23.0644 28.17 22.9367 28.8972 22.9367 29.6555C22.9367 33.4811 26.0489 36.5922 29.8735 36.5922H30.3735V36.0922V34.5407Z" fill="#7C4FFC" stroke="#7C4FFC"/>
<path d="M25.243 3.66794L29.9961 0.92376L34.7492 3.66794V9.1563L29.9961 11.9005L25.243 9.1563V3.66794Z" stroke="#7C4FFC" stroke-width="1.6"/>
<path d="M29.9961 12.1808V6.40987L35.1258 3.52441" stroke="#7C4FFC" stroke-width="1.6"/>
<path d="M24.8691 3.52441L29.9988 6.40987" stroke="#7C4FFC" stroke-width="1.6"/>
<path d="M25.243 50.8437L29.9961 48.0995L34.7492 50.8437V56.3321L29.9961 59.0763L25.243 56.3321V50.8437Z" stroke="#7C4FFC" stroke-width="1.6"/>
<path d="M29.9961 59.3566V53.5856L35.1258 50.7002" stroke="#7C4FFC" stroke-width="1.6"/>
<path d="M24.8691 50.7002L29.9988 53.5856" stroke="#7C4FFC" stroke-width="1.6"/>
<path d="M45.8583 15.1201L50.6113 12.3759L55.3644 15.1201V20.6084L50.6113 23.3526L45.8583 20.6084V15.1201Z" stroke="#7C4FFC" stroke-width="1.6"/>
<path d="M50.6113 23.6329V17.862L55.741 14.9766" stroke="#7C4FFC" stroke-width="1.6"/>
<path d="M45.4844 14.9766L50.6141 17.862" stroke="#7C4FFC" stroke-width="1.6"/>
<path d="M45.8583 38.9336L50.6113 36.1894L55.3644 38.9336V44.4219L50.6113 47.1661L45.8583 44.4219V38.9336Z" stroke="#7C4FFC" stroke-width="1.6"/>
<path d="M50.6113 47.4464V41.6755L55.741 38.79" stroke="#7C4FFC" stroke-width="1.6"/>
<path d="M45.4844 38.79L50.6141 41.6755" stroke="#7C4FFC" stroke-width="1.6"/>
<path d="M4.63562 15.1201L9.38868 12.3759L14.1417 15.1201V20.6084L9.38868 23.3526L4.63562 20.6084V15.1201Z" stroke="#7C4FFC" stroke-width="1.6"/>
<path d="M9.38867 23.6329V17.862L14.5184 14.9766" stroke="#7C4FFC" stroke-width="1.6"/>
<path d="M4.26172 14.9766L9.39141 17.862" stroke="#7C4FFC" stroke-width="1.6"/>
<path d="M4.69422 38.9336L9.44728 36.1894L14.2003 38.9336V44.4219L9.44728 47.1661L4.69422 44.4219V38.9336Z" stroke="#7C4FFC" stroke-width="1.6"/>
<path d="M9.44727 47.4464V41.6755L14.577 38.79" stroke="#7C4FFC" stroke-width="1.6"/>
<path d="M4.32031 38.79L9.45001 41.6755" stroke="#7C4FFC" stroke-width="1.6"/>
<path d="M35.1532 50.6104L40.3096 47.6334L45.466 44.6563M24.8403 50.6104L19.6839 47.6334L14.5275 44.6563M50.6224 35.7251V29.771V23.8169M45.466 14.8858L40.3096 11.9087L35.1532 8.93164M24.8403 8.93164L19.6839 11.9087L14.5275 14.8858M9.37109 23.8169V29.771V35.7251" stroke="#7C4FFC" stroke-width="1.6"/>
</svg>
