<svg width="60" height="60" viewBox="0 0 60 60" fill="none" xmlns="http://www.w3.org/2000/svg">
<path d="M19.4198 18.9953C27.3836 18.9953 33.8396 16.6771 33.8396 13.8175C33.8396 10.9578 27.3836 8.63965 19.4198 8.63965C11.456 8.63965 5 10.9578 5 13.8175C5 16.6771 11.456 18.9953 19.4198 18.9953Z" stroke="#7C4FFC" stroke-width="1.6" stroke-miterlimit="10"/>
<path d="M33.8413 21.2773C33.8413 24.1351 27.3862 26.4634 19.4216 26.4634C11.457 26.4634 5.00195 24.146 5.00195 21.2773" stroke="#7C4FFC" stroke-width="1.6" stroke-miterlimit="10"/>
<path d="M26.158 33.3274C23.9359 33.7348 21.6807 33.9349 19.4216 33.9252C11.457 33.9252 5.00195 31.6079 5.00195 28.7393" stroke="#7C4FFC" stroke-width="1.6" stroke-miterlimit="10"/>
<path d="M26.158 40.173C23.936 40.5807 21.6808 40.7808 19.4216 40.7707C11.457 40.7707 5.00195 38.4536 5.00195 35.585" stroke="#7C4FFC" stroke-width="1.6" stroke-miterlimit="10"/>
<path d="M26.3337 46.9847C24.0546 47.4163 21.7395 47.6283 19.42 47.6179C11.4554 47.6179 5 45.3006 5 42.4319V14.0918" stroke="#7C4FFC" stroke-width="1.6" stroke-miterlimit="10"/>
<path d="M33.8379 14.0938V27.9076" stroke="#7C4FFC" stroke-width="1.6" stroke-miterlimit="10"/>
<path d="M54.9995 32.1377V46.1754C54.9995 49.0359 48.5444 51.3613 40.5798 51.3613C32.6152 51.3613 26.1602 49.0441 26.1602 46.1754V32.1377" stroke="#7C4FFC" stroke-width="1.6" stroke-miterlimit="10"/>
<path d="M40.5741 37.6613C48.5379 37.6613 54.9939 35.3431 54.9939 32.4835C54.9939 29.6238 48.5379 27.3057 40.5741 27.3057C32.6103 27.3057 26.1543 29.6238 26.1543 32.4835C26.1543 35.3431 32.6103 37.6613 40.5741 37.6613Z" stroke="#7C4FFC" stroke-width="1.6" stroke-miterlimit="10"/>
<path d="M54.9995 39.3301C54.9995 42.1906 48.5444 44.5161 40.5798 44.5161C32.6152 44.5161 26.1602 42.1987 26.1602 39.3301" stroke="#7C4FFC" stroke-width="1.6" stroke-miterlimit="10"/>
</svg>
