<svg width="41" height="40" viewBox="0 0 41 40" fill="none" xmlns="http://www.w3.org/2000/svg">
<path d="M13.4463 12.6633C18.7556 12.6633 23.0595 11.1178 23.0595 9.21139C23.0595 7.30498 18.7556 5.75952 13.4463 5.75952C8.13711 5.75952 3.83313 7.30498 3.83313 9.21139C3.83313 11.1178 8.13711 12.6633 13.4463 12.6633Z" stroke="#727E91" stroke-width="1.6" stroke-miterlimit="10"/>
<path d="M23.0607 14.1843C23.0607 16.0895 18.7573 17.6417 13.4476 17.6417C8.13786 17.6417 3.83447 16.0968 3.83447 14.1843" stroke="#727E91" stroke-width="1.6" stroke-miterlimit="10"/>
<path d="M17.9385 22.2182C16.4571 22.4898 14.9537 22.6232 13.4476 22.6167C8.13786 22.6167 3.83447 21.0719 3.83447 19.1594" stroke="#727E91" stroke-width="1.6" stroke-miterlimit="10"/>
<path d="M17.9385 26.782C16.4572 27.0539 14.9537 27.1873 13.4476 27.1805C8.13786 27.1805 3.83447 25.6358 3.83447 23.7234" stroke="#727E91" stroke-width="1.6" stroke-miterlimit="10"/>
<path d="M18.0556 31.3227C16.5362 31.6104 14.9928 31.7517 13.4465 31.7448C8.13674 31.7448 3.83313 30.1999 3.83313 28.2874V9.39404" stroke="#727E91" stroke-width="1.6" stroke-miterlimit="10"/>
<path d="M23.0585 9.39526V18.6045" stroke="#727E91" stroke-width="1.6" stroke-miterlimit="10"/>
<path d="M37.1668 21.4248V30.7833C37.1668 32.6903 32.8634 34.2405 27.5537 34.2405C22.2439 34.2405 17.9406 32.6957 17.9406 30.7833V21.4248" stroke="#727E91" stroke-width="1.6" stroke-miterlimit="10"/>
<path d="M27.5497 25.1071C32.8589 25.1071 37.1629 23.5617 37.1629 21.6552C37.1629 19.7488 32.8589 18.2034 27.5497 18.2034C22.2405 18.2034 17.9365 19.7488 17.9365 21.6552C17.9365 23.5617 22.2405 25.1071 27.5497 25.1071Z" stroke="#727E91" stroke-width="1.6" stroke-miterlimit="10"/>
<path d="M37.1668 26.2197C37.1668 28.1267 32.8634 29.6771 27.5537 29.6771C22.2439 29.6771 17.9406 28.1322 17.9406 26.2197" stroke="#727E91" stroke-width="1.6" stroke-miterlimit="10"/>
</svg>
