<svg viewBox="0 0 18 18" fill="none" xmlns="http://www.w3.org/2000/svg">
<path d="M8.99997 5.25C11.07 5.25 12.75 6.93 12.75 9C12.75 9.4875 12.6525 9.945 12.48 10.3725L14.67 12.5625C15.8025 11.6175 16.695 10.395 17.2425 9C15.945 5.7075 12.7425 3.375 8.99247 3.375C7.94247 3.375 6.93747 3.5625 6.00747 3.9L7.62747 5.52C8.05497 5.3475 8.51247 5.25 8.99997 5.25ZM1.49997 3.2025L3.20997 4.9125L3.55497 5.2575C2.30997 6.225 1.33497 7.515 0.749969 9C2.04747 12.2925 5.24997 14.625 8.99997 14.625C10.1625 14.625 11.2725 14.4 12.285 13.995L12.6 14.31L14.7975 16.5L15.75 15.5475L2.45247 2.25L1.49997 3.2025ZM5.64747 7.35L6.80997 8.5125C6.77247 8.67 6.74997 8.835 6.74997 9C6.74997 10.245 7.75497 11.25 8.99997 11.25C9.16497 11.25 9.32997 11.2275 9.48747 11.19L10.65 12.3525C10.1475 12.6 9.59247 12.75 8.99997 12.75C6.92997 12.75 5.24997 11.07 5.24997 9C5.24997 8.4075 5.39997 7.8525 5.64747 7.35ZM8.87997 6.765L11.2425 9.1275L11.2575 9.0075C11.2575 7.7625 10.2525 6.7575 9.00747 6.7575L8.87997 6.765Z" fill="#96A6BF"/>
</svg>
