<svg viewBox="0 0 18 18" fill="none" xmlns="http://www.w3.org/2000/svg">
<path d="M8.99997 3.375C5.24997 3.375 2.04747 5.7075 0.749969 9C2.04747 12.2925 5.24997 14.625 8.99997 14.625C12.75 14.625 15.9525 12.2925 17.25 9C15.9525 5.7075 12.75 3.375 8.99997 3.375ZM8.99997 12.75C6.92997 12.75 5.24997 11.07 5.24997 9C5.24997 6.93 6.92997 5.25 8.99997 5.25C11.07 5.25 12.75 6.93 12.75 9C12.75 11.07 11.07 12.75 8.99997 12.75ZM8.99997 6.75C7.75497 6.75 6.74997 7.755 6.74997 9C6.74997 10.245 7.75497 11.25 8.99997 11.25C10.245 11.25 11.25 10.245 11.25 9C11.25 7.755 10.245 6.75 8.99997 6.75Z" fill="#96A6BF"/>
</svg>
