<svg width="32" height="32" viewBox="0 0 32 32" fill="none" xmlns="http://www.w3.org/2000/svg">
<path fill-rule="evenodd" clip-rule="evenodd" d="M8.89999 6.25464C6.69085 6.25464 4.89999 8.0455 4.89999 10.2546V21.4211C4.89999 23.6303 6.69085 25.4211 8.89999 25.4211H22.9115C25.1207 25.4211 26.9115 23.6303 26.9115 21.4211V19.4316H17.831C16.7264 19.4316 15.831 18.5362 15.831 17.4316V14.2442C15.831 13.1396 16.7264 12.2442 17.831 12.2442H26.9115V10.2546C26.9115 8.0455 25.1207 6.25464 22.9115 6.25464H8.89999Z"/>
<path fill-rule="evenodd" clip-rule="evenodd" d="M18.0288 13.442C17.4766 13.442 17.0288 13.8897 17.0288 14.442V17.2336C17.0288 17.7859 17.4766 18.2336 18.0288 18.2336H26.81C27.3623 18.2336 27.81 17.7859 27.81 17.2336V14.442C27.81 13.8897 27.3623 13.442 26.81 13.442H18.0288ZM19.4245 17.0358C20.0861 17.0358 20.6224 16.4995 20.6224 15.8379C20.6224 15.1763 20.0861 14.64 19.4245 14.64C18.7629 14.64 18.2266 15.1763 18.2266 15.8379C18.2266 16.4995 18.7629 17.0358 19.4245 17.0358Z"/>
</svg>
