<svg width="24" height="24" viewBox="0 0 24 24" fill="none" xmlns="http://www.w3.org/2000/svg">
<path d="M16.5235 11.8463C16.5235 12.2943 16.1603 12.6575 15.7122 12.6575C15.2642 12.6575 14.901 12.2943 14.901 11.8463C14.901 11.3982 15.2642 11.035 15.7122 11.035C16.1603 11.035 16.5235 11.3982 16.5235 11.8463Z" fill="white"/>
<path fill-rule="evenodd" clip-rule="evenodd" d="M20.2619 10.0682H15.218C14.509 10.0682 13.9342 10.6431 13.9342 11.3521V12.3397C13.9342 13.0488 14.509 13.6236 15.218 13.6236H20.2619C20.9709 13.6236 21.5458 13.0488 21.5458 12.3397V11.3521C21.5458 10.6431 20.9709 10.0682 20.2619 10.0682ZM15.218 8.60095C13.6986 8.60095 12.4669 9.8327 12.4669 11.3521V12.3397C12.4669 13.8592 13.6986 15.0909 15.218 15.0909H20.2619C21.7813 15.0909 23.0131 13.8592 23.0131 12.3397V11.3521C23.0131 9.8327 21.7813 8.60095 20.2619 8.60095H15.218Z" fill="white"/>
<path fill-rule="evenodd" clip-rule="evenodd" d="M1.18719 7.40189C1.18719 4.97079 3.15799 3 5.58908 3H17.7225C20.1536 3 22.1244 4.97079 22.1244 7.40189V9.41237H20.6571V7.40189C20.6571 5.78116 19.3432 4.4673 17.7225 4.4673H5.58908C3.96835 4.4673 2.65449 5.78116 2.65449 7.40189V16.2903C2.65449 17.911 3.96835 19.2249 5.58908 19.2249H17.7225C19.3432 19.2249 20.6571 17.911 20.6571 16.2903V14.2798H22.1244V16.2903C22.1244 18.7214 20.1536 20.6922 17.7225 20.6922H5.58908C3.15799 20.6922 1.18719 18.7214 1.18719 16.2903V7.40189Z" fill="white"/>
</svg>
