<svg width="50" height="50" viewBox="0 0 50 50" fill="none" xmlns="http://www.w3.org/2000/svg">
<path d="M38.3125 40.6211V38.1948H35.8862V40.6211H38.3125ZM38.3125 35.7686V28.4897H35.8862V35.7686H38.3125Z" fill="#CD1A1A"/>
<path fill-rule="evenodd" clip-rule="evenodd" d="M44.8816 18.2488H6.64355V16.0488H44.8816V18.2488Z" fill="#CD1A1A"/>
<path fill-rule="evenodd" clip-rule="evenodd" d="M7.16094 10.1004V39.0197H21.9326V41.2197H7.06094C5.90114 41.2197 4.96094 40.2795 4.96094 39.1197V10.0004C4.96094 8.84059 5.90114 7.90039 7.06094 7.90039H43.8813C45.0411 7.90039 45.9813 8.84059 45.9813 10.0004V24.4469H43.7813V10.1004H7.16094Z" fill="#CD1A1A"/>
<path fill-rule="evenodd" clip-rule="evenodd" d="M9.7041 23.541H28.2634V25.741H9.7041V23.541Z" fill="#CD1A1A"/>
<path fill-rule="evenodd" clip-rule="evenodd" d="M9.7041 30.2002H23.5577V32.4002H9.7041V30.2002Z" fill="#CD1A1A"/>
<path d="M13.2014 13.1358C13.2014 13.9331 12.5551 14.5793 11.7579 14.5793C10.9607 14.5793 10.3145 13.9331 10.3145 13.1358C10.3145 12.3386 10.9607 11.6924 11.7579 11.6924C12.5551 11.6924 13.2014 12.3386 13.2014 13.1358Z" fill="#CD1A1A"/>
<path fill-rule="evenodd" clip-rule="evenodd" d="M11.7579 12.3793C11.3401 12.3793 11.0014 12.718 11.0014 13.1358C11.0014 13.5537 11.3401 13.8924 11.7579 13.8924C12.1757 13.8924 12.5145 13.5537 12.5145 13.1358C12.5145 12.718 12.1757 12.3793 11.7579 12.3793ZM11.7579 14.5793C12.5551 14.5793 13.2014 13.9331 13.2014 13.1358C13.2014 12.3386 12.5551 11.6924 11.7579 11.6924C10.9607 11.6924 10.3145 12.3386 10.3145 13.1358C10.3145 13.9331 10.9607 14.5793 11.7579 14.5793Z" fill="#CD1A1A"/>
<path d="M18.9738 13.1358C18.9738 13.9331 18.3276 14.5793 17.5304 14.5793C16.7332 14.5793 16.0869 13.9331 16.0869 13.1358C16.0869 12.3386 16.7332 11.6924 17.5304 11.6924C18.3276 11.6924 18.9738 12.3386 18.9738 13.1358Z" fill="#CD1A1A"/>
<path fill-rule="evenodd" clip-rule="evenodd" d="M17.5304 12.3793C17.1126 12.3793 16.7738 12.718 16.7738 13.1358C16.7738 13.5537 17.1126 13.8924 17.5304 13.8924C17.9482 13.8924 18.2869 13.5537 18.2869 13.1358C18.2869 12.718 17.9482 12.3793 17.5304 12.3793ZM17.5304 14.5793C18.3276 14.5793 18.9738 13.9331 18.9738 13.1358C18.9738 12.3386 18.3276 11.6924 17.5304 11.6924C16.7332 11.6924 16.0869 12.3386 16.0869 13.1358C16.0869 13.9331 16.7332 14.5793 17.5304 14.5793Z" fill="#CD1A1A"/>
<path d="M24.7492 13.1358C24.7492 13.9331 24.103 14.5793 23.3058 14.5793C22.5086 14.5793 21.8623 13.9331 21.8623 13.1358C21.8623 12.3386 22.5086 11.6924 23.3058 11.6924C24.103 11.6924 24.7492 12.3386 24.7492 13.1358Z" fill="#CD1A1A"/>
<path fill-rule="evenodd" clip-rule="evenodd" d="M23.3058 12.3793C22.8879 12.3793 22.5492 12.718 22.5492 13.1358C22.5492 13.5537 22.8879 13.8924 23.3058 13.8924C23.7236 13.8924 24.0623 13.5537 24.0623 13.1358C24.0623 12.718 23.7236 12.3793 23.3058 12.3793ZM23.3058 14.5793C24.103 14.5793 24.7492 13.9331 24.7492 13.1358C24.7492 12.3386 24.103 11.6924 23.3058 11.6924C22.5086 11.6924 21.8623 12.3386 21.8623 13.1358C21.8623 13.9331 22.5086 14.5793 23.3058 14.5793Z" fill="#CD1A1A"/>
<path fill-rule="evenodd" clip-rule="evenodd" d="M34.2044 23.8988C35.5698 21.5337 38.9834 21.5337 40.3489 23.8988L49.4594 39.6787C50.8249 42.0437 49.1181 45 46.3872 45H28.1661C25.4352 45 23.7284 42.0437 25.0939 39.6787L34.2044 23.8988ZM38.5417 24.9421C37.9794 23.9683 36.5738 23.9683 36.0116 24.9421L26.901 40.7221C26.3388 41.6959 27.0416 42.9132 28.1661 42.9132H46.3872C47.5117 42.9132 48.2145 41.6959 47.6522 40.7221L38.5417 24.9421Z" fill="#CD1A1A"/>
</svg>
