<svg width="170" height="44" viewBox="0 0 170 44" fill="none" xmlns="http://www.w3.org/2000/svg">
<path fill-rule="evenodd" clip-rule="evenodd" d="M0.549805 7.0001C0.549805 3.74162 3.19132 1.1001 6.4498 1.1001H125.45V2.9001H6.4498C4.18544 2.9001 2.3498 4.73573 2.3498 7.0001V37.0001C2.3498 39.2645 4.18544 41.1001 6.44981 41.1001H125.45V42.9001H6.44981C3.19133 42.9001 0.549805 40.2586 0.549805 37.0001V7.0001Z" fill="#7C4FFC"/>
<path fill-rule="evenodd" clip-rule="evenodd" d="M109.55 22.0001C109.55 9.90506 119.355 0.100098 131.45 0.100098H169.45V1.9001H131.45C120.349 1.9001 111.35 10.8992 111.35 22.0001C111.35 33.101 120.349 42.1001 131.45 42.1001H169.45V43.9001H131.45C119.355 43.9001 109.55 34.0951 109.55 22.0001Z" fill="#7C4FFC"/>
<path fill-rule="evenodd" clip-rule="evenodd" d="M18.4502 30.2C22.9789 30.2 26.6502 26.5287 26.6502 22C26.6502 17.4713 22.9789 13.8 18.4502 13.8C13.9215 13.8 10.2502 17.4713 10.2502 22C10.2502 26.5287 13.9215 30.2 18.4502 30.2ZM18.4502 32C23.973 32 28.4502 27.5228 28.4502 22C28.4502 16.4772 23.973 12 18.4502 12C12.9273 12 8.4502 16.4772 8.4502 22C8.4502 27.5228 12.9273 32 18.4502 32Z" fill="#7C4FFC"/>
<path fill-rule="evenodd" clip-rule="evenodd" d="M130.45 30.2C134.978 30.2 138.65 26.5287 138.65 22C138.65 17.4713 134.978 13.8 130.45 13.8C125.921 13.8 122.25 17.4713 122.25 22C122.25 26.5287 125.921 30.2 130.45 30.2ZM130.45 32C135.973 32 140.45 27.5228 140.45 22C140.45 16.4772 135.973 12 130.45 12C124.927 12 120.45 16.4772 120.45 22C120.45 27.5228 124.927 32 130.45 32Z" fill="#7C4FFC"/>
<path fill-rule="evenodd" clip-rule="evenodd" d="M36.1768 22.0003L38.8132 19.3639L40.0859 20.6367L38.7223 22.0003L40.0859 23.3639L38.8132 24.6367L36.1768 22.0003Z" fill="#7C4FFC"/>
<path fill-rule="evenodd" clip-rule="evenodd" d="M101.723 22.0002L99.0863 24.6366L97.8135 23.3638L99.1771 22.0002L97.8135 20.6366L99.0863 19.3638L101.723 22.0002Z" fill="#7C4FFC"/>
<path fill-rule="evenodd" clip-rule="evenodd" d="M62.4493 10.7998L60.4502 14.1171L62.4493 15.2975L62.4512 15.2988L64.4503 14.1185L62.4512 10.7998L62.4493 10.8062V10.7998ZM62.4493 15.6778L60.4502 14.4968L62.4493 17.314L64.4499 14.4963L62.4493 15.6778Z" fill="#7C4FFC"/>
<path d="M92.842 14.3864C92.8544 14.2877 92.8636 14.189 92.8636 14.0842C92.8636 13.9793 92.8544 13.8806 92.842 13.7819L93.4928 13.273C93.5514 13.2268 93.5668 13.1435 93.5298 13.0756L92.913 12.0085C92.8759 11.9407 92.7927 11.916 92.7248 11.9407L91.9569 12.2491C91.7965 12.1257 91.6238 12.0239 91.4356 11.9468L91.3184 11.1295C91.3092 11.0555 91.2444 11 91.1673 11H89.9337C89.8565 11 89.7918 11.0555 89.7825 11.1295L89.6653 11.9468C89.4772 12.0239 89.3045 12.1288 89.1441 12.2491L88.3762 11.9407C88.3052 11.9129 88.225 11.9407 88.188 12.0085L87.5712 13.0756C87.5311 13.1435 87.5496 13.2268 87.6082 13.273L88.259 13.7819C88.2466 13.8806 88.2374 13.9824 88.2374 14.0842C88.2374 14.1859 88.2466 14.2877 88.259 14.3864L87.6082 14.8953C87.5496 14.9416 87.5342 15.0248 87.5712 15.0927L88.188 16.1598C88.225 16.2277 88.3083 16.2523 88.3762 16.2277L89.1441 15.9192C89.3045 16.0426 89.4772 16.1444 89.6653 16.2215L89.7825 17.0388C89.7918 17.1128 89.8565 17.1683 89.9337 17.1683H91.1673C91.2444 17.1683 91.3092 17.1128 91.3184 17.0388L91.4356 16.2215C91.6238 16.1444 91.7965 16.0395 91.9569 15.9192L92.7248 16.2277C92.7958 16.2554 92.8759 16.2277 92.913 16.1598L93.5298 15.0927C93.5668 15.0248 93.5514 14.9416 93.4928 14.8953L92.842 14.3864ZM90.5505 15.1636C89.9552 15.1636 89.471 14.6794 89.471 14.0842C89.471 13.4889 89.9552 13.0047 90.5505 13.0047C91.1457 13.0047 91.6299 13.4889 91.6299 14.0842C91.6299 14.6794 91.1457 15.1636 90.5505 15.1636Z" fill="#7C4FFC"/>
<path fill-rule="evenodd" clip-rule="evenodd" d="M50.9612 12.4889L51.6659 11.7843L50.9588 11.0771L50.2703 11.7657C49.1356 10.9274 47.5281 11.0222 46.5003 12.05C45.4725 13.0778 45.3777 14.6853 46.216 15.82L45.4434 16.5926L46.1505 17.2997L46.9392 16.5109C48.066 17.2656 49.605 17.1453 50.6003 16.15C51.5956 15.1547 51.7159 13.6157 50.9612 12.4889ZM49.5507 12.4852C48.8182 12.0305 47.8434 12.1211 47.2074 12.7571C46.5714 13.3931 46.4808 14.3679 46.9355 15.1004L49.5507 12.4852ZM47.6679 15.7823L50.2325 13.2176C50.6087 13.9342 50.4955 14.8405 49.8932 15.4429C49.2908 16.0452 48.3844 16.1584 47.6679 15.7823Z" fill="#7C4FFC"/>
<path d="M65.7646 32.7012C65.7646 32.6123 65.7487 32.5291 65.7168 32.4517C65.6872 32.3742 65.6359 32.3013 65.563 32.2329C65.4878 32.1668 65.3898 32.1064 65.269 32.0518C65.1506 31.9948 65.0024 31.9424 64.8247 31.8945C64.549 31.8193 64.3063 31.7282 64.0967 31.6211C63.8893 31.514 63.7196 31.3966 63.5874 31.269C63.4552 31.1414 63.355 31.0002 63.2866 30.8452C63.2205 30.6903 63.1875 30.5216 63.1875 30.3394C63.1875 30.1297 63.2319 29.9395 63.3208 29.7686C63.4097 29.5977 63.5327 29.4518 63.6899 29.3311C63.8472 29.2103 64.0329 29.118 64.2471 29.0542C64.4613 28.9881 64.6937 28.9551 64.9443 28.9551C65.2041 28.9551 65.4411 28.9927 65.6553 29.0679C65.8717 29.1431 66.0575 29.2479 66.2124 29.3823C66.3674 29.519 66.4881 29.6808 66.5747 29.8677C66.6613 30.0545 66.7046 30.2596 66.7046 30.4829H65.7681C65.7635 30.3713 65.743 30.2687 65.7065 30.1753C65.6724 30.0819 65.6211 30.001 65.5527 29.9326C65.4821 29.8665 65.3944 29.8153 65.2896 29.7788C65.187 29.7401 65.0662 29.7207 64.9272 29.7207C64.7996 29.7207 64.6857 29.7367 64.5854 29.7686C64.4875 29.7982 64.4043 29.8403 64.3359 29.895C64.2676 29.952 64.2152 30.0192 64.1787 30.0967C64.1445 30.1719 64.1274 30.2539 64.1274 30.3428C64.1274 30.4362 64.1502 30.5205 64.1958 30.5957C64.2437 30.6709 64.312 30.7381 64.4009 30.7974C64.4897 30.8589 64.5968 30.9147 64.7222 30.9648C64.8498 31.015 64.9933 31.0617 65.1528 31.105C65.3237 31.1528 65.4867 31.2109 65.6416 31.2793C65.7965 31.3477 65.939 31.4263 66.0688 31.5151C66.2648 31.661 66.4209 31.8307 66.5371 32.0244C66.6533 32.2181 66.7114 32.4414 66.7114 32.6943C66.7114 32.9131 66.667 33.1079 66.5781 33.2788C66.4915 33.4474 66.3708 33.5898 66.2158 33.7061C66.0609 33.8245 65.8763 33.9146 65.6621 33.9761C65.4479 34.0353 65.2144 34.0649 64.9614 34.0649C64.7131 34.0649 64.467 34.0285 64.2231 33.9556C63.9816 33.8804 63.7708 33.771 63.5908 33.6274C63.4199 33.4862 63.2843 33.3198 63.1841 33.1284C63.0861 32.937 63.0371 32.7126 63.0371 32.4551H63.9805C63.985 32.6055 64.0112 32.7342 64.0591 32.8413C64.1069 32.9484 64.1742 33.0361 64.2607 33.1045C64.3451 33.1729 64.4465 33.223 64.5649 33.2549C64.6857 33.2868 64.8179 33.3027 64.9614 33.3027C65.089 33.3027 65.2018 33.2879 65.2998 33.2583C65.4001 33.2287 65.4844 33.1877 65.5527 33.1353C65.6211 33.0828 65.6735 33.0202 65.71 32.9473C65.7464 32.8721 65.7646 32.79 65.7646 32.7012Z" fill="#7C4FFC"/>
<path d="M69.832 34L69.7773 33.4805C69.652 33.665 69.5005 33.8097 69.3228 33.9146C69.1473 34.0194 68.9548 34.0718 68.7451 34.0718C68.5537 34.0718 68.3783 34.0422 68.2188 33.9829C68.0592 33.9237 67.9225 33.8291 67.8086 33.6992C67.6947 33.5716 67.6058 33.4087 67.542 33.2104C67.4805 33.0099 67.4497 32.7695 67.4497 32.4893V30.3018H68.3999V32.4961C68.3999 32.6465 68.4102 32.7729 68.4307 32.8755C68.4535 32.978 68.4888 33.0601 68.5366 33.1216C68.5845 33.1854 68.6471 33.231 68.7246 33.2583C68.8021 33.2856 68.8966 33.2993 69.0083 33.2993C69.1086 33.2993 69.1986 33.2891 69.2783 33.2686C69.3604 33.248 69.4321 33.2184 69.4937 33.1797C69.5461 33.1455 69.5928 33.1045 69.6338 33.0566C69.6748 33.0088 69.7101 32.9552 69.7397 32.896V30.3018H70.6934V34H69.832Z" fill="#7C4FFC"/>
<path d="M71.876 30.3018H73.8892V33.2275H74.8906V34H71.876V33.2275H72.9287V31.0776H71.876V30.3018ZM72.8604 29.355C72.8604 29.2821 72.8729 29.2148 72.8979 29.1533C72.9253 29.0895 72.9629 29.0348 73.0107 28.9893C73.0586 28.946 73.1156 28.9118 73.1816 28.8867C73.25 28.8617 73.3252 28.8491 73.4072 28.8491C73.5758 28.8491 73.7091 28.897 73.8071 28.9927C73.9074 29.0861 73.9575 29.2069 73.9575 29.355C73.9575 29.5031 73.9074 29.625 73.8071 29.7207C73.7091 29.8141 73.5758 29.8608 73.4072 29.8608C73.3252 29.8608 73.25 29.8483 73.1816 29.8232C73.1156 29.7982 73.0586 29.7629 73.0107 29.7173C72.9629 29.674 72.9253 29.6216 72.8979 29.5601C72.8729 29.4963 72.8604 29.4279 72.8604 29.355Z" fill="#7C4FFC"/>
<path fill-rule="evenodd" clip-rule="evenodd" d="M74.4502 10C73.3456 10 72.4502 10.8954 72.4502 12V16.2C72.4502 17.3046 73.3456 18.2 74.4502 18.2H78.6502C79.7548 18.2 80.6502 17.3046 80.6502 16.2V12C80.6502 10.8954 79.7548 10 78.6502 10H74.4502ZM76.3985 11.2216C76.4449 11.1954 76.4974 11.1816 76.5508 11.1816C76.6043 11.1816 76.6568 11.1954 76.7032 11.2216C76.7495 11.2478 76.788 11.2856 76.8146 11.3313L78.3567 13.9495C78.542 14.2605 78.6398 14.6136 78.6398 14.973C78.6398 15.3324 78.5421 15.6853 78.3569 15.9963C78.1761 16.3069 77.9135 16.565 77.5963 16.7446C77.2789 16.9242 76.9181 17.0188 76.5508 17.0188C76.1836 17.0188 75.8228 16.9242 75.5054 16.7446C75.1881 16.565 74.9256 16.3069 74.7448 15.9963C74.5595 15.6853 74.4619 15.3324 74.4619 14.973C74.4619 14.6136 74.5596 14.2607 74.7449 13.9496L76.287 11.3315C76.3136 11.2858 76.3522 11.2478 76.3985 11.2216ZM76.5508 12.0506C76.5398 12.0506 76.529 12.0535 76.5197 12.0588C76.5103 12.0641 76.5029 12.0715 76.4978 12.0802L76.1705 12.6358C76.0854 12.8261 75.9519 13.2171 76.0813 13.5699C76.1808 13.841 76.4281 14.0585 76.8343 14.2096C77.4487 14.4389 77.8608 14.7819 78.0441 15.2354L78.0487 15.2468C78.0756 15.108 78.082 14.9658 78.0675 14.8246C78.0458 14.6146 77.9783 14.4114 77.8692 14.2286L76.604 12.0804C76.599 12.0718 76.5914 12.0641 76.582 12.0588C76.5727 12.0535 76.5619 12.0506 76.5508 12.0506ZM75.5347 13.7154L75.2326 14.2283C75.0976 14.4548 75.0265 14.7118 75.0265 14.9731C75.0265 15.2344 75.0975 15.4912 75.2325 15.7177L75.2328 15.7182C75.3419 15.9054 75.4922 16.0672 75.6733 16.1919C75.8544 16.3168 76.0618 16.4015 76.2807 16.44C76.4996 16.4785 76.7246 16.4699 76.9397 16.4147C77.1496 16.3609 77.3449 16.264 77.5125 16.1309C77.5989 15.9066 77.6004 15.6598 77.5163 15.4344C77.3969 15.1448 77.1063 14.9045 76.6335 14.728C76.0786 14.5216 75.7087 14.1955 75.5481 13.7541C75.5434 13.7413 75.539 13.7284 75.5347 13.7154Z" fill="#7C4FFC"/>
</svg>
