<svg width="170" height="44" viewBox="0 0 170 44" fill="none" xmlns="http://www.w3.org/2000/svg">
<path fill-rule="evenodd" clip-rule="evenodd" d="M0.550049 6.99998C0.550049 3.7415 3.19157 1.09998 6.45005 1.09998H125.45V2.89998H6.45005C4.18568 2.89998 2.35005 4.73561 2.35005 6.99998V37C2.35005 39.2643 4.18568 41.1 6.45005 41.1H125.45V42.9H6.45005C3.19157 42.9 0.550049 40.2585 0.550049 37V6.99998Z" fill="#7C4FFC"/>
<path fill-rule="evenodd" clip-rule="evenodd" d="M109.55 22C109.55 9.90494 119.355 0.0999756 131.45 0.0999756H169.45V1.89998H131.45C120.349 1.89998 111.35 10.8991 111.35 22C111.35 33.1009 120.349 42.1 131.45 42.1H169.45V43.9H131.45C119.355 43.9 109.55 34.095 109.55 22Z" fill="#7C4FFC"/>
<path fill-rule="evenodd" clip-rule="evenodd" d="M18.45 30.2C22.9787 30.2 26.65 26.5287 26.65 22C26.65 17.4713 22.9787 13.8 18.45 13.8C13.9212 13.8 10.25 17.4713 10.25 22C10.25 26.5287 13.9212 30.2 18.45 30.2ZM18.45 32C23.9728 32 28.45 27.5228 28.45 22C28.45 16.4772 23.9728 12 18.45 12C12.9271 12 8.44995 16.4772 8.44995 22C8.44995 27.5228 12.9271 32 18.45 32Z" fill="#7C4FFC"/>
<path fill-rule="evenodd" clip-rule="evenodd" d="M130.45 30.2C134.979 30.2 138.65 26.5287 138.65 22C138.65 17.4713 134.979 13.8 130.45 13.8C125.921 13.8 122.25 17.4713 122.25 22C122.25 26.5287 125.921 30.2 130.45 30.2ZM130.45 32C135.973 32 140.45 27.5228 140.45 22C140.45 16.4772 135.973 12 130.45 12C124.927 12 120.45 16.4772 120.45 22C120.45 27.5228 124.927 32 130.45 32Z" fill="#7C4FFC"/>
<path fill-rule="evenodd" clip-rule="evenodd" d="M36.1772 22L38.8136 19.3636L40.0864 20.6364L38.7228 22L40.0864 23.3636L38.8136 24.6364L36.1772 22Z" fill="#7C4FFC"/>
<path fill-rule="evenodd" clip-rule="evenodd" d="M101.723 22L99.0865 24.6364L97.8137 23.3636L99.1773 22L97.8137 20.6364L99.0865 19.3636L101.723 22Z" fill="#7C4FFC"/>
<path fill-rule="evenodd" clip-rule="evenodd" d="M62.4491 10.7998L60.45 14.1171L62.4491 15.2975V15.2969L62.4509 15.2988L64.45 14.1185L62.4509 10.7998L62.4491 10.8062V10.7998ZM62.4492 15.6776L62.4491 15.6778L60.45 14.4968L62.4491 17.314V17.3132L62.4492 17.3135L64.4496 14.4963L62.4492 15.6776Z" fill="#7C4FFC"/>
<path d="M92.8423 14.3864C92.8546 14.2877 92.8638 14.189 92.8638 14.0842C92.8638 13.9793 92.8546 13.8806 92.8423 13.7819L93.493 13.273C93.5516 13.2268 93.567 13.1435 93.53 13.0756L92.9132 12.0085C92.8762 11.9407 92.7929 11.916 92.7251 11.9407L91.9571 12.2491C91.7967 12.1257 91.624 12.0239 91.4359 11.9468L91.3187 11.1295C91.3094 11.0555 91.2447 11 91.1676 11H89.9339C89.8568 11 89.792 11.0555 89.7828 11.1295L89.6656 11.9468C89.4774 12.0239 89.3047 12.1288 89.1444 12.2491L88.3764 11.9407C88.3055 11.9129 88.2253 11.9407 88.1883 12.0085L87.5714 13.0756C87.5313 13.1435 87.5498 13.2268 87.6084 13.273L88.2592 13.7819C88.2469 13.8806 88.2376 13.9824 88.2376 14.0842C88.2376 14.1859 88.2469 14.2877 88.2592 14.3864L87.6084 14.8953C87.5498 14.9416 87.5344 15.0248 87.5714 15.0927L88.1883 16.1598C88.2253 16.2277 88.3085 16.2523 88.3764 16.2277L89.1444 15.9192C89.3047 16.0426 89.4774 16.1444 89.6656 16.2215L89.7828 17.0388C89.792 17.1128 89.8568 17.1683 89.9339 17.1683H91.1676C91.2447 17.1683 91.3094 17.1128 91.3187 17.0388L91.4359 16.2215C91.624 16.1444 91.7967 16.0395 91.9571 15.9192L92.7251 16.2277C92.796 16.2554 92.8762 16.2277 92.9132 16.1598L93.53 15.0927C93.567 15.0248 93.5516 14.9416 93.493 14.8953L92.8423 14.3864ZM90.5507 15.1636C89.9555 15.1636 89.4713 14.6794 89.4713 14.0842C89.4713 13.4889 89.9555 13.0047 90.5507 13.0047C91.146 13.0047 91.6302 13.4889 91.6302 14.0842C91.6302 14.6794 91.146 15.1636 90.5507 15.1636Z" fill="#7C4FFC"/>
<path fill-rule="evenodd" clip-rule="evenodd" d="M50.961 12.4889L51.6657 11.7843L50.9585 11.0771L50.27 11.7657C49.1353 10.9274 47.5278 11.0222 46.5 12.05C45.4722 13.0778 45.3775 14.6853 46.2157 15.82L45.4431 16.5926L46.1502 17.2997L46.939 16.5109C48.0657 17.2656 49.6047 17.1453 50.6 16.15C51.5953 15.1547 51.7157 13.6157 50.961 12.4889ZM49.5505 12.4852C48.8179 12.0305 47.8431 12.1211 47.2071 12.7571C46.5712 13.3931 46.4805 14.3679 46.9353 15.1004L49.5505 12.4852ZM47.6677 15.7823L50.2323 13.2176C50.6084 13.9342 50.4953 14.8405 49.8929 15.4429C49.2905 16.0452 48.3842 16.1584 47.6677 15.7823Z" fill="#7C4FFC"/>
<path d="M55.0356 29.0234H53.8428V34H54.7246V32.5269L54.6836 30.2915L55.2681 32.3594H55.7432L56.396 30.1992L56.355 32.5269V34H57.2368V29.0234H56.0439L55.5073 30.8931L55.0356 29.0234Z" fill="#7C4FFC"/>
<path d="M59.5392 34.0684C59.8969 34.0684 60.2068 33.9989 60.4688 33.8599C60.7309 33.7209 60.9223 33.5659 61.0431 33.395L60.568 32.8823C60.4586 33.0236 60.3162 33.1296 60.1407 33.2002C59.9653 33.2708 59.7841 33.3062 59.5973 33.3062C59.4651 33.3062 59.3432 33.2856 59.2315 33.2446C59.1199 33.2036 59.0208 33.1455 58.9342 33.0703C58.8499 32.9974 58.7826 32.9165 58.7325 32.8276C58.6824 32.7365 58.6414 32.6169 58.6095 32.4688V32.4585H61.1183V32.0552C61.1183 31.784 61.0807 31.5368 61.0055 31.3135C60.9303 31.0879 60.8209 30.8953 60.6773 30.7358C60.5315 30.5763 60.3538 30.4533 60.1441 30.3667C59.9368 30.2778 59.6998 30.2334 59.4332 30.2334C59.1757 30.2334 58.9376 30.2801 58.7188 30.3735C58.5001 30.467 58.311 30.598 58.1515 30.7666C57.992 30.9352 57.8678 31.1369 57.7789 31.3716C57.69 31.604 57.6456 31.8615 57.6456 32.144V32.2808C57.6456 32.5291 57.69 32.7627 57.7789 32.9814C57.8701 33.1979 57.9988 33.3859 58.1651 33.5454C58.3315 33.7072 58.5309 33.8348 58.7633 33.9282C58.9957 34.0216 59.2543 34.0684 59.5392 34.0684ZM59.4264 31.0024C59.5471 31.0024 59.6531 31.0218 59.7442 31.0605C59.8377 31.097 59.9163 31.1471 59.9801 31.2109C60.0439 31.277 60.094 31.3545 60.1305 31.4434C60.1669 31.5322 60.1852 31.6268 60.1852 31.7271V31.8022H58.6266C58.6493 31.6815 58.6835 31.5721 58.7291 31.4741C58.7747 31.3761 58.8316 31.2918 58.9 31.2212C58.9661 31.1506 59.0436 31.097 59.1324 31.0605C59.2213 31.0218 59.3193 31.0024 59.4264 31.0024Z" fill="#7C4FFC"/>
<path d="M61.4997 32.1235V32.1953C61.4997 32.4642 61.5327 32.7137 61.5988 32.9438C61.6649 33.1717 61.7606 33.3688 61.8859 33.5352C62.009 33.7015 62.1594 33.8325 62.3371 33.9282C62.5171 34.0216 62.7199 34.0684 62.9455 34.0684C63.1529 34.0684 63.3352 34.0285 63.4924 33.9487C63.6496 33.869 63.7863 33.7573 63.9025 33.6138L63.9504 34H64.8083V28.75H63.8547V30.6333C63.7408 30.5057 63.6097 30.4077 63.4616 30.3394C63.3158 30.2687 63.146 30.2334 62.9523 30.2334C62.7222 30.2334 62.5171 30.279 62.3371 30.3701C62.1594 30.4613 62.0078 30.59 61.8825 30.7563C61.7572 30.9227 61.6615 31.1221 61.5954 31.3545C61.5316 31.5869 61.4997 31.8433 61.4997 32.1235ZM62.4499 32.1953V32.1235C62.4499 31.9686 62.4636 31.8239 62.4909 31.6895C62.5183 31.5527 62.5616 31.4331 62.6208 31.3306C62.68 31.2303 62.7564 31.1517 62.8498 31.0947C62.9455 31.0355 63.0606 31.0059 63.195 31.0059C63.3568 31.0059 63.4912 31.0412 63.5983 31.1118C63.7054 31.1802 63.7909 31.277 63.8547 31.4023V32.8994C63.7909 33.0225 63.7043 33.1193 63.5949 33.1899C63.4878 33.2606 63.3522 33.2959 63.1882 33.2959C63.0537 33.2959 62.9398 33.2674 62.8464 33.2104C62.753 33.1535 62.6766 33.0749 62.6174 32.9746C62.5581 32.8766 62.5148 32.7616 62.4875 32.6294C62.4624 32.495 62.4499 32.3503 62.4499 32.1953Z" fill="#7C4FFC"/>
<path d="M65.7059 30.3018V31.0776H66.7586V33.2275H65.7059V34H68.7205V33.2275H67.719V30.3018H65.7059ZM66.6902 29.355C66.6902 29.4279 66.7028 29.4963 66.7278 29.5601C66.7552 29.6216 66.7928 29.674 66.8406 29.7173C66.8885 29.7629 66.9454 29.7982 67.0115 29.8232C67.0799 29.8483 67.1551 29.8608 67.2371 29.8608C67.4057 29.8608 67.539 29.8141 67.637 29.7207C67.7373 29.625 67.7874 29.5031 67.7874 29.355C67.7874 29.2069 67.7373 29.0861 67.637 28.9927C67.539 28.897 67.4057 28.8491 67.2371 28.8491C67.1551 28.8491 67.0799 28.8617 67.0115 28.8867C66.9454 28.9118 66.8885 28.946 66.8406 28.9893C66.7928 29.0348 66.7552 29.0895 66.7278 29.1533C66.7028 29.2148 66.6902 29.2821 66.6902 29.355Z" fill="#7C4FFC"/>
<path d="M72.6396 32.1885V32.1167C72.6396 31.8934 72.619 31.6838 72.578 31.4878C72.5393 31.2918 72.4789 31.1152 72.3969 30.958C72.3445 30.86 72.2841 30.77 72.2157 30.688C72.1474 30.6037 72.071 30.5319 71.9867 30.4727C71.8819 30.3952 71.7623 30.3359 71.6278 30.2949C71.4957 30.2539 71.3498 30.2334 71.1903 30.2334C71.0741 30.2334 70.9659 30.2459 70.8656 30.271C70.7676 30.2938 70.6765 30.3291 70.5922 30.377C70.5329 30.4089 70.4771 30.4476 70.4247 30.4932C70.3723 30.5365 70.3233 30.5843 70.2777 30.6367V28.75H69.3275V34H70.182L70.2265 33.6069C70.2652 33.6571 70.3062 33.7038 70.3495 33.7471C70.3928 33.7881 70.4395 33.8257 70.4896 33.8599C70.5831 33.9282 70.6879 33.9795 70.8041 34.0137C70.9226 34.0501 71.0536 34.0684 71.1972 34.0684C71.3544 34.0684 71.4979 34.0479 71.6278 34.0068C71.76 33.9681 71.8785 33.9111 71.9833 33.8359C72.0995 33.7562 72.1998 33.6559 72.2841 33.5352C72.3707 33.4144 72.4402 33.2799 72.4926 33.1318C72.5404 32.9974 72.5769 32.8516 72.602 32.6943C72.627 32.5348 72.6396 32.3662 72.6396 32.1885ZM71.6894 32.1167V32.1885C71.6894 32.2842 71.6848 32.3765 71.6757 32.4653C71.6688 32.5542 71.6563 32.6362 71.6381 32.7114C71.6153 32.814 71.5811 32.9062 71.5355 32.9883C71.4923 33.068 71.4353 33.133 71.3646 33.1831C71.3145 33.2196 71.2553 33.248 71.1869 33.2686C71.1186 33.2891 71.0422 33.2993 70.9579 33.2993C70.8599 33.2993 70.7722 33.2879 70.6947 33.2651C70.6195 33.2424 70.5535 33.2093 70.4965 33.166C70.4486 33.1318 70.4065 33.092 70.37 33.0464C70.3358 32.9985 70.3051 32.9461 70.2777 32.8892V31.416C70.2982 31.3727 70.321 31.3328 70.3461 31.2964C70.3712 31.2576 70.3985 31.2235 70.4281 31.1938C70.4896 31.1323 70.5637 31.0856 70.6503 31.0537C70.7369 31.0218 70.8371 31.0059 70.9511 31.0059C71.0354 31.0059 71.1106 31.0161 71.1767 31.0366C71.2427 31.0549 71.302 31.0833 71.3544 31.1221C71.4341 31.1836 71.4934 31.252 71.5321 31.3271C71.5731 31.4001 71.6062 31.4832 71.6313 31.5767C71.6518 31.6564 71.6666 31.7419 71.6757 31.833C71.6848 31.9242 71.6894 32.0187 71.6894 32.1167Z" fill="#7C4FFC"/>
<path d="M73.3594 28.75V29.5259H74.4668V33.2275H73.3594V34H76.4868V33.2275H75.4272V28.75H73.3594Z" fill="#7C4FFC"/>
<path d="M76.8854 32.1167V32.1885C76.8854 32.4596 76.9241 32.7103 77.0016 32.9404C77.079 33.1683 77.193 33.3665 77.3434 33.5352C77.4915 33.7038 77.6738 33.8359 77.8902 33.9316C78.109 34.0251 78.3574 34.0718 78.6354 34.0718C78.9111 34.0718 79.1572 34.0251 79.3736 33.9316C79.5901 33.8359 79.7724 33.7038 79.9205 33.5352C80.0686 33.3665 80.1814 33.1683 80.2589 32.9404C80.3364 32.7103 80.3751 32.4596 80.3751 32.1885V32.1167C80.3751 31.8478 80.3364 31.5994 80.2589 31.3716C80.1814 31.1414 80.0686 30.9421 79.9205 30.7734C79.7701 30.6048 79.5867 30.4727 79.3702 30.377C79.1537 30.2812 78.9065 30.2334 78.6285 30.2334C78.3505 30.2334 78.1033 30.2812 77.8868 30.377C77.6726 30.4727 77.4915 30.6048 77.3434 30.7734C77.193 30.9421 77.079 31.1414 77.0016 31.3716C76.9241 31.5994 76.8854 31.8478 76.8854 32.1167ZM77.8355 32.1885V32.1167C77.8355 31.9663 77.8504 31.8239 77.88 31.6895C77.9096 31.555 77.9563 31.4365 78.0201 31.334C78.0839 31.2314 78.166 31.1506 78.2662 31.0913C78.3665 31.0321 78.4872 31.0024 78.6285 31.0024C78.7721 31.0024 78.894 31.0321 78.9942 31.0913C79.0945 31.1506 79.1765 31.2314 79.2403 31.334C79.3019 31.4365 79.3474 31.555 79.3771 31.6895C79.4067 31.8239 79.4215 31.9663 79.4215 32.1167V32.1885C79.4215 32.3434 79.4067 32.4893 79.3771 32.626C79.3474 32.7604 79.3019 32.8778 79.2403 32.978C79.1765 33.0806 79.0945 33.1615 78.9942 33.2207C78.894 33.2799 78.7743 33.3096 78.6354 33.3096C78.4918 33.3096 78.3687 33.2799 78.2662 33.2207C78.166 33.1615 78.0839 33.0806 78.0201 32.978C77.9563 32.8778 77.9096 32.7604 77.88 32.626C77.8504 32.4893 77.8355 32.3434 77.8355 32.1885Z" fill="#7C4FFC"/>
<path d="M82.5065 33.3096C82.3539 33.3096 82.2274 33.2788 82.1271 33.2173C82.0292 33.1558 81.9517 33.0737 81.8947 32.9712C81.8355 32.8709 81.7945 32.7547 81.7717 32.6226C81.7489 32.4881 81.7375 32.3491 81.7375 32.2056V32.103C81.7375 31.9618 81.7489 31.825 81.7717 31.6929C81.7967 31.5607 81.8389 31.4434 81.8981 31.3408C81.9551 31.2383 82.0326 31.1562 82.1306 31.0947C82.2285 31.0332 82.3527 31.0024 82.5031 31.0024C82.6057 31.0024 82.7002 31.0207 82.7868 31.0571C82.8734 31.0913 82.9475 31.138 83.009 31.1973C83.0705 31.2565 83.1172 31.3271 83.1491 31.4092C83.181 31.4912 83.1947 31.5778 83.1901 31.6689H84.0856C84.0902 31.4502 84.0537 31.2531 83.9763 31.0776C83.8988 30.8999 83.7906 30.7484 83.6516 30.623C83.5103 30.5 83.3428 30.4043 83.1491 30.3359C82.9554 30.2676 82.7447 30.2334 82.5168 30.2334C82.232 30.2334 81.9813 30.2824 81.7648 30.3804C81.5506 30.4784 81.3706 30.6117 81.2248 30.7803C81.079 30.9489 80.9696 31.1471 80.8967 31.375C80.8238 31.6006 80.7873 31.8433 80.7873 32.103V32.2056C80.7873 32.4653 80.8238 32.7091 80.8967 32.937C80.9719 33.1626 81.0824 33.3597 81.2282 33.5283C81.3718 33.6969 81.5518 33.8302 81.7683 33.9282C81.9847 34.0239 82.2365 34.0718 82.5236 34.0718C82.7355 34.0718 82.9361 34.0387 83.1252 33.9727C83.3166 33.9043 83.4841 33.8109 83.6276 33.6924C83.7712 33.5739 83.884 33.4326 83.966 33.2686C84.0503 33.1045 84.0902 32.9268 84.0856 32.7354H83.1901C83.1947 32.8219 83.1787 32.9006 83.1423 32.9712C83.1081 33.0418 83.0591 33.1022 82.9953 33.1523C82.9315 33.2025 82.8575 33.2412 82.7731 33.2686C82.6888 33.2959 82.6 33.3096 82.5065 33.3096Z" fill="#7C4FFC"/>
<path fill-rule="evenodd" clip-rule="evenodd" d="M75 10C73.8954 10 73 10.8954 73 12V16.2C73 17.3046 73.8954 18.2 75 18.2H79.2C80.3046 18.2 81.2 17.3046 81.2 16.2V12C81.2 10.8954 80.3046 10 79.2 10H75ZM78.3615 12.5746C78.4692 12.3325 78.3609 12.0489 78.1195 11.9414C77.8782 11.8338 77.5953 11.9428 77.4876 12.185L76.6592 14.0483C76.5515 14.2904 76.6599 14.574 76.9012 14.6815C77.1425 14.7891 77.4254 14.6801 77.5331 14.4379L78.3615 12.5746ZM80.2167 11.9418C80.458 12.0494 80.5664 12.3329 80.4587 12.5751L78.8089 16.2858C78.7012 16.528 78.4183 16.637 78.177 16.5294C77.9357 16.4219 77.8273 16.1383 77.935 15.8962L79.5848 12.1855C79.6925 11.9433 79.9754 11.8342 80.2167 11.9418ZM76.0236 11.9418C76.2649 12.0494 76.3732 12.333 76.2656 12.5751L74.6157 16.2858C74.5081 16.528 74.2251 16.637 73.9838 16.5295C73.7425 16.4219 73.6342 16.1384 73.7418 15.8962L75.3917 12.1855C75.4993 11.9433 75.7822 11.8343 76.0236 11.9418Z" fill="#7C4FFC"/>
</svg>
