<svg width="170" height="44" viewBox="0 0 170 44" fill="none" xmlns="http://www.w3.org/2000/svg">
<path fill-rule="evenodd" clip-rule="evenodd" d="M0.549805 7.0001C0.549805 3.74162 3.19132 1.1001 6.4498 1.1001H125.45V2.9001H6.4498C4.18544 2.9001 2.3498 4.73573 2.3498 7.0001V37.0001C2.3498 39.2645 4.18544 41.1001 6.44981 41.1001H125.45V42.9001H6.44981C3.19133 42.9001 0.549805 40.2586 0.549805 37.0001V7.0001Z" fill="#7C4FFC"/>
<path fill-rule="evenodd" clip-rule="evenodd" d="M109.55 22.0001C109.55 9.90506 119.355 0.100098 131.45 0.100098H169.45V1.9001H131.45C120.349 1.9001 111.35 10.8992 111.35 22.0001C111.35 33.101 120.349 42.1001 131.45 42.1001H169.45V43.9001H131.45C119.355 43.9001 109.55 34.0951 109.55 22.0001Z" fill="#7C4FFC"/>
<path fill-rule="evenodd" clip-rule="evenodd" d="M18.4497 30.2C22.9784 30.2 26.6497 26.5287 26.6497 22C26.6497 17.4713 22.9784 13.8 18.4497 13.8C13.921 13.8 10.2497 17.4713 10.2497 22C10.2497 26.5287 13.921 30.2 18.4497 30.2ZM18.4497 32C23.9726 32 28.4497 27.5228 28.4497 22C28.4497 16.4772 23.9726 12 18.4497 12C12.9269 12 8.44971 16.4772 8.44971 22C8.44971 27.5228 12.9269 32 18.4497 32Z" fill="#7C4FFC"/>
<path fill-rule="evenodd" clip-rule="evenodd" d="M130.45 30.2C134.978 30.2 138.65 26.5287 138.65 22C138.65 17.4713 134.978 13.8 130.45 13.8C125.921 13.8 122.25 17.4713 122.25 22C122.25 26.5287 125.921 30.2 130.45 30.2ZM130.45 32C135.973 32 140.45 27.5228 140.45 22C140.45 16.4772 135.973 12 130.45 12C124.927 12 120.45 16.4772 120.45 22C120.45 27.5228 124.927 32 130.45 32Z" fill="#7C4FFC"/>
<path fill-rule="evenodd" clip-rule="evenodd" d="M36.1772 22.0003L38.8136 19.3639L40.0864 20.6367L38.7228 22.0003L40.0864 23.3639L38.8136 24.6367L36.1772 22.0003Z" fill="#7C4FFC"/>
<path fill-rule="evenodd" clip-rule="evenodd" d="M101.723 22.0002L99.0863 24.6366L97.8135 23.3638L99.1771 22.0002L97.8135 20.6366L99.0863 19.3638L101.723 22.0002Z" fill="#7C4FFC"/>
<path d="M56.3784 30.8193V30.0605H54.3345V28.8062H56.7134V28.0234H53.3706V33H56.7236V32.2241H54.3345V30.8193H56.3784Z" fill="#7C4FFC"/>
<path d="M59.0874 28.396H58.1372V29.3018H57.2929V30.0024H58.1372V31.6841C58.1372 31.9279 58.1691 32.1375 58.2329 32.313C58.2967 32.4862 58.3878 32.6286 58.5063 32.7402C58.6225 32.8542 58.7627 32.9385 58.9267 32.9932C59.0931 33.0456 59.2776 33.0718 59.4804 33.0718C59.5852 33.0718 59.6912 33.0661 59.7983 33.0547C59.9077 33.0456 60.0125 33.0319 60.1128 33.0137C60.213 32.9954 60.3076 32.9727 60.3964 32.9453C60.4853 32.9157 60.5628 32.8815 60.6289 32.8428L60.5366 32.1899C60.4933 32.2013 60.4409 32.2127 60.3794 32.2241C60.3201 32.2355 60.2563 32.2458 60.1879 32.2549C60.1173 32.2663 60.0433 32.2754 59.9658 32.2822C59.8906 32.2891 59.8165 32.2925 59.7436 32.2925C59.6434 32.2925 59.5522 32.2811 59.4702 32.2583C59.3904 32.2355 59.3221 32.1968 59.2651 32.1421C59.2081 32.0897 59.1637 32.019 59.1318 31.9302C59.1022 31.839 59.0874 31.7262 59.0874 31.5918V30.0024H60.4682V29.3018H59.0874V28.396Z" fill="#7C4FFC"/>
<path d="M62.2885 29.811V27.75H61.3383V33H62.2885V30.3306C62.325 30.2827 62.3648 30.2394 62.4081 30.2007C62.4537 30.1619 62.5038 30.1289 62.5585 30.1016C62.6178 30.0697 62.6838 30.0457 62.7568 30.0298C62.8297 30.0138 62.9083 30.0059 62.9926 30.0059C63.102 30.0059 63.2 30.0207 63.2865 30.0503C63.3731 30.0776 63.4472 30.1209 63.5087 30.1802C63.5702 30.2394 63.6169 30.3169 63.6488 30.4126C63.683 30.5083 63.7001 30.6222 63.7001 30.7544V33H64.6503V30.7612C64.6503 30.4901 64.6173 30.2588 64.5512 30.0674C64.4874 29.8737 64.3974 29.7153 64.2812 29.5923C64.165 29.4692 64.026 29.3792 63.8642 29.3223C63.7024 29.263 63.5247 29.2334 63.331 29.2334C63.1988 29.2334 63.0735 29.2528 62.955 29.2915C62.8365 29.3302 62.7283 29.3849 62.6303 29.4556C62.5665 29.5011 62.505 29.5547 62.4457 29.6162C62.3888 29.6755 62.3363 29.7404 62.2885 29.811Z" fill="#7C4FFC"/>
<path d="M67.1268 33.0684C67.4846 33.0684 67.7945 32.9989 68.0565 32.8599C68.3186 32.7209 68.51 32.5659 68.6307 32.395L68.1556 31.8823C68.0463 32.0236 67.9039 32.1296 67.7284 32.2002C67.5529 32.2708 67.3718 32.3062 67.1849 32.3062C67.0528 32.3062 66.9309 32.2856 66.8192 32.2446C66.7076 32.2036 66.6084 32.1455 66.5219 32.0703C66.4375 31.9974 66.3703 31.9165 66.3202 31.8276C66.2701 31.7365 66.229 31.6169 66.1971 31.4688V31.4585H68.7059V31.0552C68.7059 30.784 68.6683 30.5368 68.5931 30.3135C68.5179 30.0879 68.4086 29.8953 68.265 29.7358C68.1192 29.5763 67.9415 29.4533 67.7318 29.3667C67.5245 29.2778 67.2875 29.2334 67.0209 29.2334C66.7634 29.2334 66.5253 29.2801 66.3065 29.3735C66.0878 29.467 65.8986 29.598 65.7391 29.7666C65.5796 29.9352 65.4554 30.1369 65.3666 30.3716C65.2777 30.604 65.2333 30.8615 65.2333 31.144V31.2808C65.2333 31.5291 65.2777 31.7627 65.3666 31.9814C65.4577 32.1979 65.5865 32.3859 65.7528 32.5454C65.9192 32.7072 66.1185 32.8348 66.351 32.9282C66.5834 33.0216 66.842 33.0684 67.1268 33.0684ZM67.014 30.0024C67.1348 30.0024 67.2408 30.0218 67.3319 30.0605C67.4253 30.097 67.504 30.1471 67.5678 30.2109C67.6316 30.277 67.6817 30.3545 67.7181 30.4434C67.7546 30.5322 67.7728 30.6268 67.7728 30.7271V30.8022H66.2142C66.237 30.6815 66.2712 30.5721 66.3168 30.4741C66.3624 30.3761 66.4193 30.2918 66.4877 30.2212C66.5538 30.1506 66.6312 30.097 66.7201 30.0605C66.809 30.0218 66.9069 30.0024 67.014 30.0024Z" fill="#7C4FFC"/>
<path d="M71.9823 29.2334C71.7339 29.2334 71.5049 29.2938 71.2953 29.4146C71.0856 29.533 70.9056 29.6971 70.7552 29.9067L70.7484 29.8247L70.7108 29.3018H69.8255V33H70.7757V30.7783C70.819 30.6735 70.8737 30.5824 70.9398 30.5049C71.0059 30.4274 71.0856 30.3636 71.179 30.3135C71.2565 30.2702 71.3442 30.2383 71.4422 30.2178C71.5425 30.195 71.6541 30.1836 71.7772 30.1836C71.8957 30.1836 72.0199 30.1916 72.1497 30.2075C72.2819 30.2212 72.4107 30.2428 72.536 30.2725L72.6761 29.3257C72.6009 29.3029 72.5018 29.2824 72.3787 29.2642C72.258 29.2437 72.1258 29.2334 71.9823 29.2334Z" fill="#7C4FFC"/>
<path d="M75.115 33.0684C75.4728 33.0684 75.7827 32.9989 76.0447 32.8599C76.3068 32.7209 76.4982 32.5659 76.6189 32.395L76.1438 31.8823C76.0345 32.0236 75.8921 32.1296 75.7166 32.2002C75.5411 32.2708 75.36 32.3062 75.1731 32.3062C75.041 32.3062 74.9191 32.2856 74.8074 32.2446C74.6958 32.2036 74.5966 32.1455 74.5101 32.0703C74.4257 31.9974 74.3585 31.9165 74.3084 31.8276C74.2583 31.7365 74.2173 31.6169 74.1854 31.4688V31.4585H76.6941V31.0552C76.6941 30.784 76.6565 30.5368 76.5813 30.3135C76.5062 30.0879 76.3968 29.8953 76.2532 29.7358C76.1074 29.5763 75.9297 29.4533 75.72 29.3667C75.5127 29.2778 75.2757 29.2334 75.0091 29.2334C74.7516 29.2334 74.5135 29.2801 74.2947 29.3735C74.076 29.467 73.8869 29.598 73.7273 29.7666C73.5678 29.9352 73.4437 30.1369 73.3548 30.3716C73.2659 30.604 73.2215 30.8615 73.2215 31.144V31.2808C73.2215 31.5291 73.2659 31.7627 73.3548 31.9814C73.4459 32.1979 73.5747 32.3859 73.741 32.5454C73.9074 32.7072 74.1067 32.8348 74.3392 32.9282C74.5716 33.0216 74.8302 33.0684 75.115 33.0684ZM75.0022 30.0024C75.123 30.0024 75.229 30.0218 75.3201 30.0605C75.4135 30.097 75.4922 30.1471 75.556 30.2109C75.6198 30.277 75.6699 30.3545 75.7063 30.4434C75.7428 30.5322 75.761 30.6268 75.761 30.7271V30.8022H74.2024C74.2252 30.6815 74.2594 30.5721 74.305 30.4741C74.3506 30.3761 74.4075 30.2918 74.4759 30.2212C74.542 30.1506 74.6194 30.097 74.7083 30.0605C74.7972 30.0218 74.8952 30.0024 75.0022 30.0024Z" fill="#7C4FFC"/>
<path d="M79.7278 33H80.5891V29.3018H79.6355V31.896C79.6059 31.9552 79.5706 32.0088 79.5296 32.0566C79.4885 32.1045 79.4418 32.1455 79.3894 32.1797C79.3279 32.2184 79.2561 32.248 79.1741 32.2686C79.0943 32.2891 79.0043 32.2993 78.9041 32.2993C78.7924 32.2993 78.6978 32.2856 78.6204 32.2583C78.5429 32.231 78.4802 32.1854 78.4324 32.1216C78.3845 32.0601 78.3492 31.978 78.3264 31.8755C78.3059 31.7729 78.2957 31.6465 78.2957 31.4961V29.3018H77.3455V31.4893C77.3455 31.7695 77.3762 32.0099 77.4378 32.2104C77.5016 32.4087 77.5904 32.5716 77.7044 32.6992C77.8183 32.8291 77.955 32.9237 78.1145 32.9829C78.274 33.0422 78.4495 33.0718 78.6409 33.0718C78.8505 33.0718 79.0431 33.0194 79.2185 32.9146C79.3962 32.8097 79.5478 32.665 79.6731 32.4805L79.7278 33Z" fill="#7C4FFC"/>
<path d="M81.9001 29.3018H81.0832V33H81.948V30.2314C81.9594 30.2018 81.9719 30.1745 81.9856 30.1494C81.9992 30.1243 82.0152 30.1027 82.0334 30.0845C82.0585 30.0594 82.087 30.04 82.1189 30.0264C82.1508 30.0127 82.1872 30.0059 82.2282 30.0059C82.2647 30.0059 82.2989 30.0116 82.3308 30.0229C82.3627 30.0321 82.3912 30.0492 82.4162 30.0742C82.439 30.0993 82.4572 30.1346 82.4709 30.1802C82.4846 30.2257 82.4914 30.2839 82.4914 30.3545V33H83.3288V30.2725C83.3288 30.2451 83.3288 30.2235 83.3288 30.2075C83.3288 30.1916 83.3288 30.1813 83.3288 30.1768C83.3402 30.1517 83.3539 30.13 83.3698 30.1118C83.3858 30.0913 83.404 30.0731 83.4245 30.0571C83.4496 30.0412 83.4758 30.0286 83.5031 30.0195C83.5328 30.0104 83.5658 30.0059 83.6023 30.0059C83.6364 30.0059 83.6695 30.0116 83.7014 30.0229C83.7356 30.0321 83.7652 30.0492 83.7903 30.0742C83.8153 30.1016 83.8347 30.138 83.8484 30.1836C83.8643 30.2292 83.8723 30.2873 83.8723 30.3579V33H84.737V30.3613C84.737 30.1562 84.7165 29.9831 84.6755 29.8418C84.6368 29.6982 84.5821 29.5809 84.5114 29.4897C84.4385 29.4009 84.3531 29.3359 84.2551 29.2949C84.1594 29.2539 84.0557 29.2334 83.9441 29.2334C83.8552 29.2334 83.7732 29.2448 83.698 29.2676C83.6228 29.2904 83.5556 29.3223 83.4963 29.3633C83.4485 29.3952 83.404 29.4339 83.363 29.4795C83.3243 29.5228 83.289 29.5718 83.2571 29.6265C83.2365 29.5695 83.2115 29.5194 83.1819 29.4761C83.1545 29.4305 83.1215 29.3918 83.0827 29.3599C83.0326 29.3166 82.9734 29.2847 82.905 29.2642C82.8366 29.2437 82.7592 29.2334 82.6726 29.2334C82.4948 29.2334 82.3433 29.2801 82.218 29.3735C82.0949 29.4647 81.9981 29.59 81.9275 29.7495L81.9001 29.3018Z" fill="#7C4FFC"/>
<path fill-rule="evenodd" clip-rule="evenodd" d="M60.4497 10C59.3451 10 58.4497 10.8954 58.4497 12V16.2C58.4497 17.3046 59.3451 18.2 60.4497 18.2H64.6497C65.7543 18.2 66.6497 17.3046 66.6497 16.2V12C66.6497 10.8954 65.7543 10 64.6497 10H60.4497ZM60.4497 14.1171L62.4488 10.7998V10.8062L62.4507 10.7998L64.4498 14.1185L62.4507 15.2988L62.4488 15.2969V15.2975L60.4497 14.1171ZM62.4488 15.6778L62.4489 15.6776L64.4494 14.4963L62.4489 17.3135L62.4488 17.3132V17.314L60.4497 14.4968L62.4488 15.6778Z" fill="#7C4FFC"/>
<path d="M92.842 14.3864C92.8544 14.2877 92.8636 14.189 92.8636 14.0842C92.8636 13.9793 92.8544 13.8806 92.842 13.7819L93.4928 13.273C93.5514 13.2268 93.5668 13.1435 93.5298 13.0756L92.913 12.0085C92.8759 11.9407 92.7927 11.916 92.7248 11.9407L91.9569 12.2491C91.7965 12.1257 91.6238 12.0239 91.4356 11.9468L91.3184 11.1295C91.3092 11.0555 91.2444 11 91.1673 11H89.9337C89.8565 11 89.7918 11.0555 89.7825 11.1295L89.6653 11.9468C89.4772 12.0239 89.3045 12.1288 89.1441 12.2491L88.3762 11.9407C88.3052 11.9129 88.225 11.9407 88.188 12.0085L87.5712 13.0756C87.5311 13.1435 87.5496 13.2268 87.6082 13.273L88.259 13.7819C88.2466 13.8806 88.2374 13.9824 88.2374 14.0842C88.2374 14.1859 88.2466 14.2877 88.259 14.3864L87.6082 14.8953C87.5496 14.9416 87.5342 15.0248 87.5712 15.0927L88.188 16.1598C88.225 16.2277 88.3083 16.2523 88.3762 16.2277L89.1441 15.9192C89.3045 16.0426 89.4772 16.1444 89.6653 16.2215L89.7825 17.0388C89.7918 17.1128 89.8565 17.1683 89.9337 17.1683H91.1673C91.2444 17.1683 91.3092 17.1128 91.3184 17.0388L91.4356 16.2215C91.6238 16.1444 91.7965 16.0395 91.9569 15.9192L92.7248 16.2277C92.7958 16.2554 92.8759 16.2277 92.913 16.1598L93.5298 15.0927C93.5668 15.0248 93.5514 14.9416 93.4928 14.8953L92.842 14.3864ZM90.5505 15.1636C89.9552 15.1636 89.471 14.6794 89.471 14.0842C89.471 13.4889 89.9552 13.0047 90.5505 13.0047C91.1457 13.0047 91.6299 13.4889 91.6299 14.0842C91.6299 14.6794 91.1457 15.1636 90.5505 15.1636Z" fill="#7C4FFC"/>
<path fill-rule="evenodd" clip-rule="evenodd" d="M50.9607 12.4889L51.6654 11.7843L50.9583 11.0771L50.2698 11.7657C49.1351 10.9274 47.5276 11.0222 46.4998 12.05C45.472 13.0778 45.3772 14.6853 46.2155 15.82L45.4429 16.5926L46.15 17.2997L46.9387 16.5109C48.0655 17.2656 49.6045 17.1453 50.5998 16.15C51.5951 15.1547 51.7154 13.6157 50.9607 12.4889ZM49.5502 12.4852C48.8177 12.0305 47.8429 12.1211 47.2069 12.7571C46.5709 13.3931 46.4803 14.3679 46.935 15.1004L49.5502 12.4852ZM47.6674 15.7823L50.2321 13.2176C50.6082 13.9342 50.495 14.8405 49.8927 15.4429C49.2903 16.0452 48.384 16.1584 47.6674 15.7823Z" fill="#7C4FFC"/>
<path fill-rule="evenodd" clip-rule="evenodd" d="M73.7495 12.5247L76.5494 10.8999L76.5495 10.9V10.8999L79.3494 12.5247V15.7453L79.3493 15.7454V15.7598L76.5494 17.3846L73.7495 15.7598V12.5247ZM78.5224 13.0034V15.2666L76.5586 16.4074L76.5494 16.4126L74.5764 15.2811V13.0034L76.5494 11.8574L78.5224 13.0034ZM76.5499 15.6434L77.8701 14.8891V13.3803L76.5499 12.6259L75.2443 13.3803V14.8891L76.5499 15.6434Z" fill="#7C4FFC"/>
</svg>
