<svg width="171" height="44" viewBox="0 0 171 44" fill="none" xmlns="http://www.w3.org/2000/svg">
<path fill-rule="evenodd" clip-rule="evenodd" d="M1 7.0001C1 3.74162 3.64152 1.1001 6.9 1.1001H125.9V2.9001H6.9C4.63563 2.9001 2.8 4.73573 2.8 7.0001V37.0001C2.8 39.2645 4.63563 41.1001 6.9 41.1001H125.9V42.9001H6.9C3.64152 42.9001 1 40.2586 1 37.0001V7.0001Z" fill="#7C4FFC"/>
<path fill-rule="evenodd" clip-rule="evenodd" d="M110 22.0001C110 9.90506 119.805 0.100098 131.9 0.100098H169.9V1.9001H131.9C120.799 1.9001 111.8 10.8992 111.8 22.0001C111.8 33.101 120.799 42.1001 131.9 42.1001H169.9V43.9001H131.9C119.805 43.9001 110 34.0951 110 22.0001Z" fill="#7C4FFC"/>
<path fill-rule="evenodd" clip-rule="evenodd" d="M18.8999 30.2C23.4286 30.2 27.0999 26.5287 27.0999 22C27.0999 17.4713 23.4286 13.8 18.8999 13.8C14.3712 13.8 10.6999 17.4713 10.6999 22C10.6999 26.5287 14.3712 30.2 18.8999 30.2ZM18.8999 32C24.4227 32 28.8999 27.5228 28.8999 22C28.8999 16.4772 24.4227 12 18.8999 12C13.3771 12 8.8999 16.4772 8.8999 22C8.8999 27.5228 13.3771 32 18.8999 32Z" fill="#7C4FFC"/>
<path fill-rule="evenodd" clip-rule="evenodd" d="M130.9 30.2C135.429 30.2 139.1 26.5287 139.1 22C139.1 17.4713 135.429 13.8 130.9 13.8C126.371 13.8 122.7 17.4713 122.7 22C122.7 26.5287 126.371 30.2 130.9 30.2ZM130.9 32C136.423 32 140.9 27.5228 140.9 22C140.9 16.4772 136.423 12 130.9 12C125.377 12 120.9 16.4772 120.9 22C120.9 27.5228 125.377 32 130.9 32Z" fill="#7C4FFC"/>
<path fill-rule="evenodd" clip-rule="evenodd" d="M36.6274 22.0003L39.2638 19.3639L40.5366 20.6367L39.173 22.0003L40.5366 23.3639L39.2638 24.6367L36.6274 22.0003Z" fill="#7C4FFC"/>
<path fill-rule="evenodd" clip-rule="evenodd" d="M102.173 22.0002L99.5365 24.6366L98.2637 23.3638L99.6273 22.0002L98.2637 20.6366L99.5365 19.3638L102.173 22.0002Z" fill="#7C4FFC"/>
<path d="M61.2158 31.4414H60.2554C60.2463 31.5918 60.2212 31.7205 60.1802 31.8276C60.1392 31.9347 60.0833 32.0225 60.0127 32.0908C59.9421 32.1592 59.8566 32.2093 59.7563 32.2412C59.6561 32.2731 59.5433 32.2891 59.418 32.2891C59.3245 32.2891 59.2391 32.2788 59.1616 32.2583C59.0864 32.2355 59.0181 32.2013 58.9565 32.1558C58.8996 32.1147 58.8483 32.0635 58.8027 32.002C58.7594 31.9404 58.7218 31.8698 58.6899 31.79C58.6444 31.6738 58.6102 31.5382 58.5874 31.3833C58.5669 31.2261 58.5566 31.0483 58.5566 30.8501V30.1733C58.5566 30.0275 58.5635 29.8919 58.5771 29.7666C58.5908 29.639 58.6125 29.5228 58.6421 29.418C58.6808 29.2835 58.7321 29.1662 58.7959 29.0659C58.862 28.9634 58.9417 28.8848 59.0352 28.8301C59.0898 28.7982 59.1491 28.7743 59.2129 28.7583C59.279 28.7424 59.3496 28.7344 59.4248 28.7344C59.5661 28.7344 59.6868 28.7537 59.7871 28.7925C59.8896 28.8289 59.9751 28.8836 60.0435 28.9565C60.1095 29.0317 60.1597 29.1252 60.1938 29.2368C60.2303 29.3485 60.2531 29.4784 60.2622 29.6265H61.2192C61.1965 29.3667 61.1418 29.1331 61.0552 28.9258C60.9686 28.7184 60.8501 28.543 60.6997 28.3994C60.5493 28.2559 60.367 28.1453 60.1528 28.0679C59.9409 27.9904 59.6982 27.9517 59.4248 27.9517C59.2402 27.9517 59.0671 27.9756 58.9053 28.0234C58.7458 28.069 58.5988 28.1351 58.4644 28.2217C58.314 28.3242 58.1795 28.4495 58.061 28.5977C57.9425 28.7458 57.8468 28.9144 57.7739 29.1035C57.7101 29.2585 57.6623 29.4271 57.6304 29.6094C57.5985 29.7894 57.5825 29.9797 57.5825 30.1802V30.8501C57.5825 31.0643 57.5996 31.2671 57.6338 31.4585C57.6702 31.6499 57.7215 31.8254 57.7876 31.9849C57.856 32.1444 57.9391 32.2902 58.0371 32.4224C58.1374 32.5545 58.2513 32.6673 58.3789 32.7607C58.5179 32.861 58.674 32.9385 58.8472 32.9932C59.0226 33.0456 59.2129 33.0718 59.418 33.0718C59.6777 33.0718 59.9147 33.0342 60.1289 32.959C60.3431 32.8815 60.5277 32.7721 60.6826 32.6309C60.8376 32.4896 60.9606 32.3187 61.0518 32.1182C61.1452 31.9176 61.1999 31.6921 61.2158 31.4414Z" fill="#7C4FFC"/>
<path d="M61.6587 31.1167V31.1885C61.6587 31.4596 61.6974 31.7103 61.7749 31.9404C61.8523 32.1683 61.9663 32.3665 62.1167 32.5352C62.2648 32.7038 62.4471 32.8359 62.6635 32.9316C62.8823 33.0251 63.1307 33.0718 63.4087 33.0718C63.6844 33.0718 63.9305 33.0251 64.1469 32.9316C64.3634 32.8359 64.5457 32.7038 64.6938 32.5352C64.8419 32.3665 64.9547 32.1683 65.0322 31.9404C65.1097 31.7103 65.1484 31.4596 65.1484 31.1885V31.1167C65.1484 30.8478 65.1097 30.5994 65.0322 30.3716C64.9547 30.1414 64.8419 29.9421 64.6938 29.7734C64.5434 29.6048 64.36 29.4727 64.1435 29.377C63.927 29.2812 63.6798 29.2334 63.4018 29.2334C63.1238 29.2334 62.8766 29.2812 62.6601 29.377C62.4459 29.4727 62.2648 29.6048 62.1167 29.7734C61.9663 29.9421 61.8523 30.1414 61.7749 30.3716C61.6974 30.5994 61.6587 30.8478 61.6587 31.1167ZM62.6088 31.1885V31.1167C62.6088 30.9663 62.6237 30.8239 62.6533 30.6895C62.6829 30.555 62.7296 30.4365 62.7934 30.334C62.8572 30.2314 62.9393 30.1506 63.0395 30.0913C63.1398 30.0321 63.2605 30.0024 63.4018 30.0024C63.5454 30.0024 63.6673 30.0321 63.7675 30.0913C63.8678 30.1506 63.9498 30.2314 64.0136 30.334C64.0752 30.4365 64.1207 30.555 64.1504 30.6895C64.18 30.8239 64.1948 30.9663 64.1948 31.1167V31.1885C64.1948 31.3434 64.18 31.4893 64.1504 31.626C64.1207 31.7604 64.0752 31.8778 64.0136 31.978C63.9498 32.0806 63.8678 32.1615 63.7675 32.2207C63.6673 32.2799 63.5476 32.3096 63.4087 32.3096C63.2651 32.3096 63.1421 32.2799 63.0395 32.2207C62.9393 32.1615 62.8572 32.0806 62.7934 31.978C62.7296 31.8778 62.6829 31.7604 62.6533 31.626C62.6237 31.4893 62.6088 31.3434 62.6088 31.1885Z" fill="#7C4FFC"/>
<path d="M68.1684 31.9849C68.1684 32.0418 68.1536 32.0942 68.1239 32.1421C68.0966 32.1899 68.0544 32.2321 67.9975 32.2686C67.9382 32.305 67.8619 32.3346 67.7685 32.3574C67.6773 32.3779 67.5702 32.3882 67.4472 32.3882C67.3446 32.3882 67.2444 32.3779 67.1464 32.3574C67.0507 32.3369 66.9653 32.3039 66.8901 32.2583C66.8149 32.215 66.7533 32.158 66.7055 32.0874C66.6576 32.0145 66.6303 31.9279 66.6235 31.8276H65.7177C65.7177 31.978 65.7542 32.1284 65.8271 32.2788C65.9023 32.4269 66.0116 32.5591 66.1552 32.6753C66.2987 32.7938 66.4765 32.8895 66.6884 32.9624C66.9026 33.0353 67.1487 33.0718 67.4267 33.0718C67.6796 33.0718 67.9086 33.0444 68.1137 32.9897C68.3188 32.9328 68.4942 32.8542 68.6401 32.7539C68.7836 32.6536 68.8941 32.5352 68.9716 32.3984C69.0514 32.2594 69.0912 32.1079 69.0912 31.9438C69.0912 31.7661 69.0514 31.6134 68.9716 31.4858C68.8941 31.356 68.7859 31.2454 68.6469 31.1543C68.5079 31.0654 68.3427 30.9925 68.1513 30.9355C67.9599 30.8786 67.7525 30.8319 67.5292 30.7954C67.3743 30.7726 67.2467 30.7464 67.1464 30.7168C67.0461 30.6849 66.9675 30.6496 66.9106 30.6108C66.8513 30.5744 66.8103 30.5334 66.7875 30.4878C66.7647 30.4399 66.7533 30.3887 66.7533 30.334C66.7533 30.2793 66.7659 30.228 66.7909 30.1802C66.8183 30.13 66.857 30.0868 66.9071 30.0503C66.9618 30.0093 67.0325 29.9774 67.1191 29.9546C67.2057 29.9318 67.3071 29.9204 67.4233 29.9204C67.56 29.9204 67.6762 29.9375 67.7719 29.9717C67.8699 30.0059 67.9474 30.0514 68.0043 30.1084C68.0453 30.1517 68.0761 30.2007 68.0966 30.2554C68.1171 30.3078 68.1274 30.3647 68.1274 30.4263H69.0776C69.0776 30.2554 69.04 30.097 68.9648 29.9512C68.8896 29.8053 68.7813 29.6789 68.6401 29.5718C68.4965 29.467 68.3222 29.3849 68.1171 29.3257C67.912 29.2642 67.6807 29.2334 67.4233 29.2334C67.1772 29.2334 66.9561 29.2642 66.7602 29.3257C66.5642 29.3872 66.3979 29.4704 66.2612 29.5752C66.1244 29.68 66.0196 29.8019 65.9467 29.9409C65.8738 30.0799 65.8373 30.2257 65.8373 30.3784C65.8373 30.5356 65.8726 30.6746 65.9433 30.7954C66.0162 30.9162 66.1165 31.0221 66.2441 31.1133C66.3717 31.2067 66.5243 31.2865 66.7021 31.3525C66.8821 31.4163 67.0803 31.4699 67.2968 31.5132C67.4677 31.5451 67.609 31.577 67.7206 31.6089C67.8323 31.6408 67.9223 31.675 67.9906 31.7114C68.0567 31.7502 68.1023 31.7912 68.1274 31.8345C68.1547 31.8778 68.1684 31.9279 68.1684 31.9849Z" fill="#7C4FFC"/>
<path d="M70.368 29.3018H69.5512V33H70.4159V30.2314C70.4273 30.2018 70.4398 30.1745 70.4535 30.1494C70.4672 30.1243 70.4831 30.1027 70.5013 30.0845C70.5264 30.0594 70.5549 30.04 70.5868 30.0264C70.6187 30.0127 70.6552 30.0059 70.6962 30.0059C70.7326 30.0059 70.7668 30.0116 70.7987 30.0229C70.8306 30.0321 70.8591 30.0492 70.8842 30.0742C70.9069 30.0993 70.9252 30.1346 70.9388 30.1802C70.9525 30.2257 70.9594 30.2839 70.9594 30.3545V33H71.7968V30.2725C71.7968 30.2451 71.7968 30.2235 71.7968 30.2075C71.7968 30.1916 71.7968 30.1813 71.7968 30.1768C71.8082 30.1517 71.8218 30.13 71.8378 30.1118C71.8537 30.0913 71.872 30.0731 71.8925 30.0571C71.9175 30.0412 71.9437 30.0286 71.9711 30.0195C72.0007 30.0104 72.0337 30.0059 72.0702 30.0059C72.1044 30.0059 72.1374 30.0116 72.1693 30.0229C72.2035 30.0321 72.2331 30.0492 72.2582 30.0742C72.2832 30.1016 72.3026 30.138 72.3163 30.1836C72.3322 30.2292 72.3402 30.2873 72.3402 30.3579V33H73.205V30.3613C73.205 30.1562 73.1845 29.9831 73.1434 29.8418C73.1047 29.6982 73.05 29.5809 72.9794 29.4897C72.9065 29.4009 72.821 29.3359 72.723 29.2949C72.6273 29.2539 72.5236 29.2334 72.412 29.2334C72.3231 29.2334 72.2411 29.2448 72.1659 29.2676C72.0907 29.2904 72.0235 29.3223 71.9642 29.3633C71.9164 29.3952 71.872 29.4339 71.8309 29.4795C71.7922 29.5228 71.7569 29.5718 71.725 29.6265C71.7045 29.5695 71.6794 29.5194 71.6498 29.4761C71.6224 29.4305 71.5894 29.3918 71.5507 29.3599C71.5005 29.3166 71.4413 29.2847 71.3729 29.2642C71.3046 29.2437 71.2271 29.2334 71.1405 29.2334C70.9628 29.2334 70.8112 29.2801 70.6859 29.3735C70.5629 29.4647 70.466 29.59 70.3954 29.7495L70.368 29.3018Z" fill="#7C4FFC"/>
<path d="M73.641 31.1167V31.1885C73.641 31.4596 73.6797 31.7103 73.7572 31.9404C73.8346 32.1683 73.9486 32.3665 74.099 32.5352C74.2471 32.7038 74.4294 32.8359 74.6458 32.9316C74.8646 33.0251 75.113 33.0718 75.391 33.0718C75.6667 33.0718 75.9128 33.0251 76.1292 32.9316C76.3457 32.8359 76.528 32.7038 76.6761 32.5352C76.8242 32.3665 76.937 32.1683 77.0145 31.9404C77.092 31.7103 77.1307 31.4596 77.1307 31.1885V31.1167C77.1307 30.8478 77.092 30.5994 77.0145 30.3716C76.937 30.1414 76.8242 29.9421 76.6761 29.7734C76.5257 29.6048 76.3423 29.4727 76.1258 29.377C75.9093 29.2812 75.6621 29.2334 75.3841 29.2334C75.1061 29.2334 74.8589 29.2812 74.6424 29.377C74.4282 29.4727 74.2471 29.6048 74.099 29.7734C73.9486 29.9421 73.8346 30.1414 73.7572 30.3716C73.6797 30.5994 73.641 30.8478 73.641 31.1167ZM74.5912 31.1885V31.1167C74.5912 30.9663 74.606 30.8239 74.6356 30.6895C74.6652 30.555 74.7119 30.4365 74.7757 30.334C74.8395 30.2314 74.9216 30.1506 75.0218 30.0913C75.1221 30.0321 75.2428 30.0024 75.3841 30.0024C75.5277 30.0024 75.6496 30.0321 75.7498 30.0913C75.8501 30.1506 75.9321 30.2314 75.9959 30.334C76.0575 30.4365 76.103 30.555 76.1327 30.6895C76.1623 30.8239 76.1771 30.9663 76.1771 31.1167V31.1885C76.1771 31.3434 76.1623 31.4893 76.1327 31.626C76.103 31.7604 76.0575 31.8778 75.9959 31.978C75.9321 32.0806 75.8501 32.1615 75.7498 32.2207C75.6496 32.2799 75.53 32.3096 75.391 32.3096C75.2474 32.3096 75.1244 32.2799 75.0218 32.2207C74.9216 32.1615 74.8395 32.0806 74.7757 31.978C74.7119 31.8778 74.6652 31.7604 74.6356 31.626C74.606 31.4893 74.5912 31.3434 74.5912 31.1885Z" fill="#7C4FFC"/>
<path d="M80.1507 31.9849C80.1507 32.0418 80.1359 32.0942 80.1063 32.1421C80.0789 32.1899 80.0368 32.2321 79.9798 32.2686C79.9205 32.305 79.8442 32.3346 79.7508 32.3574C79.6596 32.3779 79.5525 32.3882 79.4295 32.3882C79.327 32.3882 79.2267 32.3779 79.1287 32.3574C79.033 32.3369 78.9476 32.3039 78.8724 32.2583C78.7972 32.215 78.7356 32.158 78.6878 32.0874C78.6399 32.0145 78.6126 31.9279 78.6058 31.8276H77.7C77.7 31.978 77.7365 32.1284 77.8094 32.2788C77.8846 32.4269 77.9939 32.5591 78.1375 32.6753C78.2811 32.7938 78.4588 32.8895 78.6707 32.9624C78.8849 33.0353 79.131 33.0718 79.409 33.0718C79.6619 33.0718 79.8909 33.0444 80.096 32.9897C80.3011 32.9328 80.4765 32.8542 80.6224 32.7539C80.7659 32.6536 80.8764 32.5352 80.9539 32.3984C81.0337 32.2594 81.0735 32.1079 81.0735 31.9438C81.0735 31.7661 81.0337 31.6134 80.9539 31.4858C80.8764 31.356 80.7682 31.2454 80.6292 31.1543C80.4902 31.0654 80.325 30.9925 80.1336 30.9355C79.9422 30.8786 79.7348 30.8319 79.5115 30.7954C79.3566 30.7726 79.229 30.7464 79.1287 30.7168C79.0285 30.6849 78.9498 30.6496 78.8929 30.6108C78.8336 30.5744 78.7926 30.5334 78.7698 30.4878C78.747 30.4399 78.7356 30.3887 78.7356 30.334C78.7356 30.2793 78.7482 30.228 78.7732 30.1802C78.8006 30.13 78.8393 30.0868 78.8895 30.0503C78.9441 30.0093 79.0148 29.9774 79.1014 29.9546C79.188 29.9318 79.2894 29.9204 79.4056 29.9204C79.5423 29.9204 79.6585 29.9375 79.7542 29.9717C79.8522 30.0059 79.9297 30.0514 79.9866 30.1084C80.0276 30.1517 80.0584 30.2007 80.0789 30.2554C80.0994 30.3078 80.1097 30.3647 80.1097 30.4263H81.0599C81.0599 30.2554 81.0223 30.097 80.9471 29.9512C80.8719 29.8053 80.7636 29.6789 80.6224 29.5718C80.4788 29.467 80.3045 29.3849 80.0994 29.3257C79.8943 29.2642 79.6631 29.2334 79.4056 29.2334C79.1595 29.2334 78.9384 29.2642 78.7425 29.3257C78.5465 29.3872 78.3802 29.4704 78.2435 29.5752C78.1067 29.68 78.0019 29.8019 77.929 29.9409C77.8561 30.0799 77.8196 30.2257 77.8196 30.3784C77.8196 30.5356 77.8549 30.6746 77.9256 30.7954C77.9985 30.9162 78.0988 31.0221 78.2264 31.1133C78.354 31.2067 78.5066 31.2865 78.6844 31.3525C78.8644 31.4163 79.0626 31.4699 79.2791 31.5132C79.45 31.5451 79.5913 31.577 79.7029 31.6089C79.8146 31.6408 79.9046 31.675 79.9729 31.7114C80.039 31.7502 80.0846 31.7912 80.1097 31.8345C80.137 31.8778 80.1507 31.9279 80.1507 31.9849Z" fill="#7C4FFC"/>
<path fill-rule="evenodd" clip-rule="evenodd" d="M62.899 10.7998L60.8999 14.1171L62.899 15.2975V15.2969L62.9009 15.2988L64.9 14.1185L62.9009 10.7998L62.899 10.8062V10.7998ZM62.8991 15.6776L62.899 15.6778L60.8999 14.4968L62.899 17.314V17.3132L62.8991 17.3135L64.8996 14.4963L62.8991 15.6776Z" fill="#7C4FFC"/>
<path d="M93.2922 14.3864C93.3045 14.2877 93.3138 14.189 93.3138 14.0842C93.3138 13.9793 93.3045 13.8806 93.2922 13.7819L93.943 13.273C94.0016 13.2268 94.017 13.1435 93.98 13.0756L93.3631 12.0085C93.3261 11.9407 93.2429 11.916 93.175 11.9407L92.4071 12.2491C92.2467 12.1257 92.074 12.0239 91.8858 11.9468L91.7686 11.1295C91.7594 11.0555 91.6946 11 91.6175 11H90.3838C90.3067 11 90.242 11.0555 90.2327 11.1295L90.1155 11.9468C89.9274 12.0239 89.7547 12.1288 89.5943 12.2491L88.8263 11.9407C88.7554 11.9129 88.6752 11.9407 88.6382 12.0085L88.0214 13.0756C87.9813 13.1435 87.9998 13.2268 88.0584 13.273L88.7092 13.7819C88.6968 13.8806 88.6876 13.9824 88.6876 14.0842C88.6876 14.1859 88.6968 14.2877 88.7092 14.3864L88.0584 14.8953C87.9998 14.9416 87.9844 15.0248 88.0214 15.0927L88.6382 16.1598C88.6752 16.2277 88.7585 16.2523 88.8263 16.2277L89.5943 15.9192C89.7547 16.0426 89.9274 16.1444 90.1155 16.2215L90.2327 17.0388C90.242 17.1128 90.3067 17.1683 90.3838 17.1683H91.6175C91.6946 17.1683 91.7594 17.1128 91.7686 17.0388L91.8858 16.2215C92.074 16.1444 92.2467 16.0395 92.4071 15.9192L93.175 16.2277C93.2459 16.2554 93.3261 16.2277 93.3631 16.1598L93.98 15.0927C94.017 15.0248 94.0016 14.9416 93.943 14.8953L93.2922 14.3864ZM91.0007 15.1636C90.4054 15.1636 89.9212 14.6794 89.9212 14.0842C89.9212 13.4889 90.4054 13.0047 91.0007 13.0047C91.5959 13.0047 92.0801 13.4889 92.0801 14.0842C92.0801 14.6794 91.5959 15.1636 91.0007 15.1636Z" fill="#7C4FFC"/>
<path fill-rule="evenodd" clip-rule="evenodd" d="M46.8999 10C45.7953 10 44.8999 10.8954 44.8999 12V16.2C44.8999 17.3046 45.7953 18.2 46.8999 18.2H51.0999C52.2045 18.2 53.0999 17.3046 53.0999 16.2V12C53.0999 10.8954 52.2045 10 51.0999 10H46.8999ZM52.1156 11.7843L51.4109 12.4889C52.1656 13.6157 52.0453 15.1547 51.05 16.15C50.0547 17.1453 48.5157 17.2656 47.3889 16.5109L46.6002 17.2997L45.8931 16.5926L46.6657 15.82C45.8274 14.6853 45.9222 13.0778 46.95 12.05C47.9778 11.0222 49.5853 10.9274 50.72 11.7657L51.4085 11.0771L52.1156 11.7843ZM47.6571 12.7571C48.2931 12.1211 49.2679 12.0305 50.0004 12.4852L47.3852 15.1004C46.9305 14.3679 47.0211 13.3931 47.6571 12.7571ZM50.6823 13.2176L48.1176 15.7823C48.8342 16.1584 49.7405 16.0452 50.3429 15.4429C50.9452 14.8405 51.0584 13.9342 50.6823 13.2176Z" fill="#7C4FFC"/>
<path fill-rule="evenodd" clip-rule="evenodd" d="M74.1997 12.5247L76.9996 10.8999L76.9997 10.9V10.8999L79.7996 12.5247V15.7453L79.7995 15.7454V15.7598L76.9996 17.3846L74.1997 15.7598V12.5247ZM78.9726 13.0034V15.2666L77.0088 16.4074L76.9996 16.4126L75.0266 15.2811V13.0034L76.9996 11.8574L78.9726 13.0034ZM77.0001 15.6434L78.3203 14.8891V13.3803L77.0001 12.6259L75.6945 13.3803V14.8891L77.0001 15.6434Z" fill="#7C4FFC"/>
</svg>
