<svg width="170" height="44" viewBox="0 0 170 44" fill="none" xmlns="http://www.w3.org/2000/svg">
<path d="M125 2H6C3.23858 2 1 4.23858 1 7V37C1 39.7614 3.23858 42 6 42H125" stroke="#7C4FFC" stroke-width="1.8"/>
<path d="M169 1H131C119.402 1 110 10.402 110 22V22C110 33.598 119.402 43 131 43H169" stroke="#7C4FFC" stroke-width="1.8"/>
<circle cx="18" cy="22" r="9.1" stroke="#7C4FFC" stroke-width="1.8"/>
<circle cx="130" cy="22" r="9.1" stroke="#7C4FFC" stroke-width="1.8"/>
<path d="M41 21L39 23L37 21" stroke="#7C4FFC" stroke-width="1.8"/>
<path d="M96 23L98 21L100 23" stroke="#7C4FFC" stroke-width="1.8"/>
<path d="M53.5918 16.8193V16.0605H51.5479V14.8062H53.9268V14.0234H50.584V19H53.937V18.2241H51.5479V16.8193H53.5918ZM54.7676 19H55.7212V16.3716C55.7531 16.3215 55.7884 16.2759 55.8271 16.2349C55.8659 16.1938 55.9092 16.1585 55.957 16.1289C56.0163 16.0879 56.0835 16.0571 56.1587 16.0366C56.2362 16.0161 56.3205 16.0059 56.4116 16.0059C56.521 16.0059 56.619 16.0173 56.7056 16.04C56.7922 16.0605 56.8662 16.0981 56.9277 16.1528C56.9893 16.2075 57.036 16.2827 57.0679 16.3784C57.1021 16.4718 57.1191 16.5915 57.1191 16.7373V19H58.0693V16.7236C58.0693 16.4548 58.0374 16.2269 57.9736 16.04C57.9121 15.8509 57.8255 15.696 57.7139 15.5752C57.5999 15.4567 57.4655 15.3701 57.3105 15.3154C57.1556 15.2607 56.9847 15.2334 56.7979 15.2334C56.652 15.2334 56.5142 15.2539 56.3843 15.2949C56.2544 15.3359 56.1348 15.3952 56.0254 15.4727C55.9616 15.5182 55.9012 15.5695 55.8442 15.6265C55.7873 15.6834 55.7349 15.7461 55.687 15.8145L55.6289 15.3018H54.7676V19ZM60.7148 14.396H59.7646V15.3018H58.9204V16.0024H59.7646V17.6841C59.7646 17.9279 59.7965 18.1375 59.8604 18.313C59.9242 18.4862 60.0153 18.6286 60.1338 18.7402C60.25 18.8542 60.3901 18.9385 60.5542 18.9932C60.7205 19.0456 60.9051 19.0718 61.1079 19.0718C61.2127 19.0718 61.3187 19.0661 61.4258 19.0547C61.5352 19.0456 61.64 19.0319 61.7402 19.0137C61.8405 18.9954 61.9351 18.9727 62.0239 18.9453C62.1128 18.9157 62.1903 18.8815 62.2563 18.8428L62.1641 18.1899C62.1208 18.2013 62.0684 18.2127 62.0068 18.2241C61.9476 18.2355 61.8838 18.2458 61.8154 18.2549C61.7448 18.2663 61.6707 18.2754 61.5933 18.2822C61.5181 18.2891 61.444 18.2925 61.3711 18.2925C61.2708 18.2925 61.1797 18.2811 61.0977 18.2583C61.0179 18.2355 60.9495 18.1968 60.8926 18.1421C60.8356 18.0897 60.7912 18.019 60.7593 17.9302C60.7297 17.839 60.7148 17.7262 60.7148 17.5918V16.0024H62.0957V15.3018H60.7148V14.396ZM64.9702 19.0684C65.328 19.0684 65.6379 18.9989 65.8999 18.8599C66.1619 18.7209 66.3534 18.5659 66.4741 18.395L65.999 17.8823C65.8896 18.0236 65.7472 18.1296 65.5718 18.2002C65.3963 18.2708 65.2152 18.3062 65.0283 18.3062C64.8962 18.3062 64.7743 18.2856 64.6626 18.2446C64.5509 18.2036 64.4518 18.1455 64.3652 18.0703C64.2809 17.9974 64.2137 17.9165 64.1636 17.8276C64.1134 17.7365 64.0724 17.6169 64.0405 17.4688V17.4585H66.5493V17.0552C66.5493 16.784 66.5117 16.5368 66.4365 16.3135C66.3613 16.0879 66.252 15.8953 66.1084 15.7358C65.9626 15.5763 65.7848 15.4533 65.5752 15.3667C65.3678 15.2778 65.1309 15.2334 64.8643 15.2334C64.6068 15.2334 64.3687 15.2801 64.1499 15.3735C63.9312 15.467 63.742 15.598 63.5825 15.7666C63.423 15.9352 63.2988 16.1369 63.21 16.3716C63.1211 16.604 63.0767 16.8615 63.0767 17.144V17.2808C63.0767 17.5291 63.1211 17.7627 63.21 17.9814C63.3011 18.1979 63.4299 18.3859 63.5962 18.5454C63.7625 18.7072 63.9619 18.8348 64.1943 18.9282C64.4268 19.0216 64.6854 19.0684 64.9702 19.0684ZM64.8574 16.0024C64.9782 16.0024 65.0841 16.0218 65.1753 16.0605C65.2687 16.097 65.3473 16.1471 65.4111 16.2109C65.4749 16.277 65.5251 16.3545 65.5615 16.4434C65.598 16.5322 65.6162 16.6268 65.6162 16.7271V16.8022H64.0576C64.0804 16.6815 64.1146 16.5721 64.1602 16.4741C64.2057 16.3761 64.2627 16.2918 64.3311 16.2212C64.3971 16.1506 64.4746 16.097 64.5635 16.0605C64.6523 16.0218 64.7503 16.0024 64.8574 16.0024ZM70.0356 15.2334C69.7873 15.2334 69.5583 15.2938 69.3486 15.4146C69.139 15.533 68.959 15.6971 68.8086 15.9067L68.8018 15.8247L68.7642 15.3018H67.8789V19H68.8291V16.7783C68.8724 16.6735 68.9271 16.5824 68.9932 16.5049C69.0592 16.4274 69.139 16.3636 69.2324 16.3135C69.3099 16.2702 69.3976 16.2383 69.4956 16.2178C69.5959 16.195 69.7075 16.1836 69.8306 16.1836C69.9491 16.1836 70.0732 16.1916 70.2031 16.2075C70.3353 16.2212 70.464 16.2428 70.5894 16.2725L70.7295 15.3257C70.6543 15.3029 70.5552 15.2824 70.4321 15.2642C70.3114 15.2437 70.1792 15.2334 70.0356 15.2334ZM76.7759 17.1748H77.5176C77.7887 17.1748 78.0337 17.1361 78.2524 17.0586C78.4712 16.9811 78.658 16.8729 78.813 16.7339C78.9657 16.5972 79.083 16.4342 79.165 16.2451C79.2493 16.056 79.2915 15.8498 79.2915 15.6265C79.2915 15.3872 79.2493 15.1696 79.165 14.9736C79.083 14.7777 78.9657 14.609 78.813 14.4678C78.658 14.3288 78.4712 14.2205 78.2524 14.1431C78.0337 14.0633 77.7887 14.0234 77.5176 14.0234H75.8154V19H76.7759V17.1748ZM76.7759 16.3955V14.8027H77.5176C77.6543 14.8027 77.7728 14.8244 77.873 14.8677C77.9733 14.911 78.0576 14.9702 78.126 15.0454C78.1921 15.1206 78.241 15.2083 78.2729 15.3086C78.3071 15.4089 78.3242 15.5171 78.3242 15.6333C78.3242 15.7336 78.3071 15.8304 78.2729 15.9238C78.241 16.015 78.1921 16.0959 78.126 16.1665C78.0576 16.2371 77.9733 16.293 77.873 16.334C77.7728 16.375 77.6543 16.3955 77.5176 16.3955H76.7759ZM80.1699 14.0234V14.7993H81.1167V18.2275H80.1699V19H83.0479V18.2275H82.0771V14.7993H83.0479V14.0234H80.1699ZM87.4434 19V14.0234H86.4795L86.4761 17.2192L85.1021 14.0234H84.1348V19H85.1021V15.7905L86.4863 19H87.4434Z" fill="#7C4FFC"/>
<line x1="46" y1="28.1" x2="50" y2="28.1" stroke="#7C4FFC" stroke-width="1.8"/>
<line x1="58" y1="28.1" x2="62" y2="28.1" stroke="#7C4FFC" stroke-width="1.8"/>
<line x1="64" y1="28.1" x2="68" y2="28.1" stroke="#7C4FFC" stroke-width="1.8"/>
<line x1="70" y1="28.1" x2="74" y2="28.1" stroke="#7C4FFC" stroke-width="1.8"/>
<line x1="76" y1="28.1" x2="80" y2="28.1" stroke="#7C4FFC" stroke-width="1.8"/>
<line x1="82" y1="28.1" x2="86" y2="28.1" stroke="#7C4FFC" stroke-width="1.8"/>
<line x1="88" y1="28.1" x2="92" y2="28.1" stroke="#7C4FFC" stroke-width="1.8"/>
<line x1="52" y1="28.1" x2="56" y2="28.1" stroke="#7C4FFC" stroke-width="1.8"/>
</svg>
