<svg width="170" height="44" viewBox="0 0 170 44" fill="none" xmlns="http://www.w3.org/2000/svg">
<path fill-rule="evenodd" clip-rule="evenodd" d="M0.549805 7.0001C0.549805 3.74162 3.19132 1.1001 6.4498 1.1001H125.45V2.9001H6.4498C4.18544 2.9001 2.3498 4.73573 2.3498 7.0001V37.0001C2.3498 39.2645 4.18544 41.1001 6.44981 41.1001H125.45V42.9001H6.44981C3.19133 42.9001 0.549805 40.2586 0.549805 37.0001V7.0001Z" fill="#7C4FFC"/>
<path fill-rule="evenodd" clip-rule="evenodd" d="M109.55 22.0001C109.55 9.90506 119.355 0.100098 131.45 0.100098H169.45V1.9001H131.45C120.349 1.9001 111.35 10.8992 111.35 22.0001C111.35 33.101 120.349 42.1001 131.45 42.1001H169.45V43.9001H131.45C119.355 43.9001 109.55 34.0951 109.55 22.0001Z" fill="#7C4FFC"/>
<path fill-rule="evenodd" clip-rule="evenodd" d="M18.4497 30.2C22.9784 30.2 26.6497 26.5287 26.6497 22C26.6497 17.4713 22.9784 13.8 18.4497 13.8C13.921 13.8 10.2497 17.4713 10.2497 22C10.2497 26.5287 13.921 30.2 18.4497 30.2ZM18.4497 32C23.9726 32 28.4497 27.5228 28.4497 22C28.4497 16.4772 23.9726 12 18.4497 12C12.9269 12 8.44971 16.4772 8.44971 22C8.44971 27.5228 12.9269 32 18.4497 32Z" fill="#7C4FFC"/>
<path fill-rule="evenodd" clip-rule="evenodd" d="M130.45 30.2C134.978 30.2 138.65 26.5287 138.65 22C138.65 17.4713 134.978 13.8 130.45 13.8C125.921 13.8 122.25 17.4713 122.25 22C122.25 26.5287 125.921 30.2 130.45 30.2ZM130.45 32C135.973 32 140.45 27.5228 140.45 22C140.45 16.4772 135.973 12 130.45 12C124.927 12 120.45 16.4772 120.45 22C120.45 27.5228 124.927 32 130.45 32Z" fill="#7C4FFC"/>
<path fill-rule="evenodd" clip-rule="evenodd" d="M36.1772 22.0003L38.8136 19.3639L40.0864 20.6367L38.7228 22.0003L40.0864 23.3639L38.8136 24.6367L36.1772 22.0003Z" fill="#7C4FFC"/>
<path fill-rule="evenodd" clip-rule="evenodd" d="M101.723 22.0002L99.0863 24.6366L97.8135 23.3638L99.1771 22.0002L97.8135 20.6366L99.0863 19.3638L101.723 22.0002Z" fill="#7C4FFC"/>
<path d="M44.2566 32.5527H43.3647C43.3563 32.6924 43.333 32.8119 43.2949 32.9114C43.2568 33.0108 43.205 33.0923 43.1394 33.1558C43.0738 33.2192 42.9945 33.2658 42.9014 33.2954C42.8083 33.325 42.7035 33.3398 42.5872 33.3398C42.5004 33.3398 42.4211 33.3303 42.3491 33.3113C42.2793 33.2901 42.2158 33.2584 42.1587 33.2161C42.1058 33.178 42.0582 33.1304 42.0159 33.0732C41.9757 33.0161 41.9408 32.9505 41.9111 32.8765C41.8688 32.7686 41.8371 32.6427 41.8159 32.4988C41.7969 32.3528 41.7874 32.1877 41.7874 32.0037V31.3752C41.7874 31.2398 41.7937 31.1139 41.8064 30.9976C41.8191 30.8791 41.8392 30.7712 41.8667 30.6738C41.9027 30.549 41.9503 30.44 42.0095 30.3469C42.0709 30.2517 42.1449 30.1787 42.2317 30.1279C42.2825 30.0983 42.3375 30.0761 42.3967 30.0613C42.4581 30.0465 42.5237 30.0391 42.5935 30.0391C42.7247 30.0391 42.8368 30.057 42.9299 30.093C43.0251 30.1269 43.1045 30.1777 43.168 30.2454C43.2293 30.3152 43.2759 30.4019 43.3076 30.5056C43.3415 30.6093 43.3626 30.7299 43.3711 30.8674H44.2598C44.2386 30.6262 44.1878 30.4093 44.1074 30.2168C44.027 30.0243 43.917 29.8613 43.7773 29.728C43.6377 29.5947 43.4684 29.4921 43.2695 29.4202C43.0728 29.3482 42.8474 29.3123 42.5935 29.3123C42.4221 29.3123 42.2613 29.3345 42.1111 29.3789C41.963 29.4212 41.8265 29.4826 41.7017 29.563C41.562 29.6582 41.4372 29.7746 41.3271 29.9121C41.2171 30.0496 41.1283 30.2062 41.0605 30.3818C41.0013 30.5257 40.9569 30.6823 40.9272 30.8516C40.8976 31.0187 40.8828 31.1954 40.8828 31.3816V32.0037C40.8828 32.2026 40.8987 32.3909 40.9304 32.5686C40.9643 32.7463 41.0119 32.9093 41.0732 33.0574C41.1367 33.2055 41.2139 33.3409 41.3049 33.4636C41.398 33.5863 41.5038 33.6911 41.6223 33.7778C41.7514 33.8709 41.8963 33.9429 42.0571 33.9937C42.2201 34.0423 42.3967 34.0667 42.5872 34.0667C42.8284 34.0667 43.0484 34.0317 43.2473 33.9619C43.4462 33.89 43.6176 33.7884 43.7615 33.6572C43.9054 33.526 44.0196 33.3674 44.1042 33.1812C44.191 32.995 44.2418 32.7855 44.2566 32.5527Z" fill="#7C4FFC"/>
<path d="M46.9945 30.5024C46.7638 30.5024 46.5512 30.5585 46.3565 30.6707C46.1619 30.7807 45.9947 30.933 45.8551 31.1277L45.8487 31.0515L45.8138 30.5659H44.9918V34H45.8741V31.937C45.9143 31.8397 45.9651 31.755 46.0264 31.6831C46.0878 31.6112 46.1619 31.5519 46.2486 31.5054C46.3206 31.4652 46.402 31.4355 46.493 31.4165C46.5861 31.3953 46.6898 31.3848 46.804 31.3848C46.9141 31.3848 47.0294 31.3922 47.15 31.407C47.2727 31.4197 47.3922 31.4398 47.5086 31.4673L47.6388 30.5881C47.5689 30.567 47.4769 30.5479 47.3626 30.531C47.2505 30.512 47.1278 30.5024 46.9945 30.5024Z" fill="#7C4FFC"/>
<path d="M48.5199 35.387C48.6977 35.387 48.8511 35.3573 48.9801 35.2981C49.1113 35.2389 49.2224 35.1659 49.3134 35.0791C49.4044 34.9924 49.4795 34.8982 49.5387 34.7966C49.6001 34.6951 49.6498 34.6009 49.6879 34.5142L51.4303 30.5659H50.456L49.672 32.5845L49.5419 32.9272L49.4467 32.5781L48.6596 30.5659H47.6947L49.1483 33.854L48.9452 34.2317C48.9198 34.2782 48.8976 34.3142 48.8786 34.3396C48.8616 34.365 48.8341 34.4031 48.7961 34.4539C48.758 34.5046 48.7114 34.5512 48.6564 34.5935C48.6035 34.6379 48.5421 34.6602 48.4723 34.6602C48.4385 34.6602 48.393 34.658 48.3358 34.6538C48.2808 34.6517 48.2353 34.6506 48.1994 34.6506L48.0915 35.3235C48.1676 35.3446 48.2364 35.3605 48.2978 35.3711C48.3612 35.3817 48.4353 35.387 48.5199 35.387Z" fill="#7C4FFC"/>
<path d="M51.4387 35.3203H52.321V33.7017C52.3612 33.7461 52.4036 33.7863 52.448 33.8223C52.4924 33.8582 52.539 33.891 52.5876 33.9207C52.6702 33.9672 52.759 34.0021 52.8542 34.0254C52.9516 34.0508 53.0574 34.0635 53.1716 34.0635C53.3874 34.0635 53.5789 34.019 53.7461 33.9302C53.9132 33.8413 54.0539 33.7186 54.1682 33.562C54.2803 33.4076 54.365 33.2235 54.4221 33.0098C54.4814 32.7961 54.511 32.5644 54.511 32.3147V32.248C54.511 31.9878 54.4814 31.7508 54.4221 31.5371C54.365 31.3213 54.2793 31.1361 54.165 30.9817C54.0508 30.8293 53.9101 30.7119 53.7429 30.6294C53.5758 30.5448 53.3832 30.5024 53.1653 30.5024C53.0595 30.5024 52.96 30.5141 52.8669 30.5374C52.776 30.5585 52.6924 30.5892 52.6162 30.6294C52.5527 30.6632 52.4935 30.7035 52.4385 30.75C52.3835 30.7944 52.3327 30.8452 52.2861 30.9023L52.2544 30.5659H51.4387V35.3203ZM53.6287 32.248V32.3147C53.6287 32.4565 53.616 32.5908 53.5906 32.7178C53.5652 32.8426 53.525 32.9526 53.47 33.0479C53.4149 33.1431 53.343 33.2182 53.2541 33.2732C53.1674 33.3282 53.0616 33.3557 52.9368 33.3557C52.8585 33.3557 52.7876 33.3483 52.7241 33.3335C52.6606 33.3166 52.6046 33.2933 52.5559 33.2637C52.5051 33.2319 52.4596 33.1938 52.4194 33.1494C52.3813 33.105 52.3485 33.0553 52.321 33.0002V31.5657C52.3507 31.5064 52.3856 31.4546 52.4258 31.4102C52.4681 31.3657 52.5168 31.3287 52.5718 31.2991C52.6204 31.2737 52.6744 31.2546 52.7336 31.2419C52.7929 31.2271 52.8585 31.2197 52.9304 31.2197C53.0552 31.2197 53.161 31.2462 53.2478 31.2991C53.3367 31.352 53.4097 31.4239 53.4668 31.5149C53.5218 31.608 53.562 31.718 53.5874 31.845C53.6149 31.9698 53.6287 32.1042 53.6287 32.248Z" fill="#7C4FFC"/>
<path d="M56.4935 29.7249H55.6112V30.5659H54.8272V31.2166H55.6112V32.7781C55.6112 33.0045 55.6408 33.1991 55.7 33.3621C55.7593 33.5229 55.8439 33.6551 55.9539 33.7588C56.0618 33.8646 56.192 33.9429 56.3443 33.9937C56.4988 34.0423 56.6702 34.0667 56.8585 34.0667C56.9558 34.0667 57.0542 34.0614 57.1536 34.0508C57.2552 34.0423 57.3525 34.0296 57.4456 34.0127C57.5387 33.9958 57.6265 33.9746 57.7091 33.9492C57.7916 33.9217 57.8635 33.89 57.9249 33.854L57.8392 33.2478C57.799 33.2584 57.7503 33.269 57.6932 33.2795C57.6382 33.2901 57.5789 33.2996 57.5154 33.3081C57.4499 33.3187 57.3811 33.3271 57.3092 33.3335C57.2393 33.3398 57.1706 33.343 57.1029 33.343C57.0098 33.343 56.9251 33.3324 56.8489 33.3113C56.7749 33.2901 56.7114 33.2542 56.6585 33.2034C56.6056 33.1547 56.5644 33.0891 56.5347 33.0066C56.5072 32.922 56.4935 32.8172 56.4935 32.6924V31.2166H57.7757V30.5659H56.4935V29.7249Z" fill="#7C4FFC"/>
<path d="M58.203 32.2512V32.3179C58.203 32.5697 58.239 32.8024 58.3109 33.0161C58.3829 33.2277 58.4887 33.4118 58.6283 33.5684C58.7659 33.7249 58.9351 33.8477 59.1361 33.9365C59.3393 34.0233 59.5699 34.0667 59.828 34.0667C60.084 34.0667 60.3126 34.0233 60.5136 33.9365C60.7146 33.8477 60.8839 33.7249 61.0214 33.5684C61.1589 33.4118 61.2637 33.2277 61.3356 33.0161C61.4075 32.8024 61.4435 32.5697 61.4435 32.3179V32.2512C61.4435 32.0015 61.4075 31.7709 61.3356 31.5593C61.2637 31.3456 61.1589 31.1605 61.0214 31.0039C60.8817 30.8473 60.7114 30.7246 60.5104 30.6357C60.3094 30.5469 60.0798 30.5024 59.8217 30.5024C59.5635 30.5024 59.334 30.5469 59.133 30.6357C58.9341 30.7246 58.7659 30.8473 58.6283 31.0039C58.4887 31.1605 58.3829 31.3456 58.3109 31.5593C58.239 31.7709 58.203 32.0015 58.203 32.2512ZM59.0854 32.3179V32.2512C59.0854 32.1116 59.0991 31.9793 59.1266 31.8545C59.1541 31.7297 59.1975 31.6196 59.2567 31.5244C59.316 31.4292 59.3922 31.3541 59.4853 31.2991C59.5784 31.2441 59.6905 31.2166 59.8217 31.2166C59.955 31.2166 60.0682 31.2441 60.1613 31.2991C60.2544 31.3541 60.3306 31.4292 60.3898 31.5244C60.4469 31.6196 60.4892 31.7297 60.5167 31.8545C60.5443 31.9793 60.558 32.1116 60.558 32.2512V32.3179C60.558 32.4618 60.5443 32.5972 60.5167 32.7241C60.4892 32.849 60.4469 32.9579 60.3898 33.051C60.3306 33.1462 60.2544 33.2214 60.1613 33.2764C60.0682 33.3314 59.9571 33.3589 59.828 33.3589C59.6947 33.3589 59.5805 33.3314 59.4853 33.2764C59.3922 33.2214 59.316 33.1462 59.2567 33.051C59.1975 32.9579 59.1541 32.849 59.1266 32.7241C59.0991 32.5972 59.0854 32.4618 59.0854 32.3179Z" fill="#7C4FFC"/>
<path d="M62.6643 33.489C62.6643 33.6519 62.7193 33.7884 62.8293 33.8984C62.9394 34.0085 63.0885 34.0635 63.2768 34.0635C63.463 34.0635 63.6111 34.0095 63.7212 33.9016C63.8333 33.7916 63.8894 33.6541 63.8894 33.489C63.8894 33.324 63.8344 33.1854 63.7243 33.0732C63.6164 32.9611 63.4673 32.905 63.2768 32.905C63.0843 32.905 62.9341 32.9622 62.8262 33.0764C62.7182 33.1886 62.6643 33.3261 62.6643 33.489Z" fill="#7C4FFC"/>
<path d="M65.1006 32.2512V32.3179C65.1006 32.5697 65.1366 32.8024 65.2086 33.0161C65.2805 33.2277 65.3863 33.4118 65.5259 33.5684C65.6635 33.7249 65.8327 33.8477 66.0338 33.9365C66.2369 34.0233 66.4675 34.0667 66.7256 34.0667C66.9817 34.0667 67.2102 34.0233 67.4112 33.9365C67.6122 33.8477 67.7815 33.7249 67.919 33.5684C68.0565 33.4118 68.1613 33.2277 68.2332 33.0161C68.3052 32.8024 68.3411 32.5697 68.3411 32.3179V32.2512C68.3411 32.0015 68.3052 31.7709 68.2332 31.5593C68.1613 31.3456 68.0565 31.1605 67.919 31.0039C67.7794 30.8473 67.609 30.7246 67.408 30.6357C67.207 30.5469 66.9774 30.5024 66.7193 30.5024C66.4612 30.5024 66.2316 30.5469 66.0306 30.6357C65.8317 30.7246 65.6635 30.8473 65.5259 31.0039C65.3863 31.1605 65.2805 31.3456 65.2086 31.5593C65.1366 31.7709 65.1006 32.0015 65.1006 32.2512ZM65.983 32.3179V32.2512C65.983 32.1116 65.9967 31.9793 66.0242 31.8545C66.0517 31.7297 66.0951 31.6196 66.1544 31.5244C66.2136 31.4292 66.2898 31.3541 66.3829 31.2991C66.476 31.2441 66.5881 31.2166 66.7193 31.2166C66.8526 31.2166 66.9658 31.2441 67.0589 31.2991C67.152 31.3541 67.2282 31.4292 67.2874 31.5244C67.3445 31.6196 67.3869 31.7297 67.4144 31.8545C67.4419 31.9793 67.4556 32.1116 67.4556 32.2512V32.3179C67.4556 32.4618 67.4419 32.5972 67.4144 32.7241C67.3869 32.849 67.3445 32.9579 67.2874 33.051C67.2282 33.1462 67.152 33.2214 67.0589 33.2764C66.9658 33.3314 66.8547 33.3589 66.7256 33.3589C66.5923 33.3589 66.4781 33.3314 66.3829 33.2764C66.2898 33.2214 66.2136 33.1462 66.1544 33.051C66.0951 32.9579 66.0517 32.849 66.0242 32.7241C65.9967 32.5972 65.983 32.4618 65.983 32.3179Z" fill="#7C4FFC"/>
<path d="M71.1361 30.5024C70.9055 30.5024 70.6928 30.5585 70.4982 30.6707C70.3035 30.7807 70.1364 30.933 69.9967 31.1277L69.9904 31.0515L69.9555 30.5659H69.1334V34H70.0158V31.937C70.056 31.8397 70.1067 31.755 70.1681 31.6831C70.2295 31.6112 70.3035 31.5519 70.3903 31.5054C70.4622 31.4652 70.5437 31.4355 70.6347 31.4165C70.7278 31.3953 70.8314 31.3848 70.9457 31.3848C71.0557 31.3848 71.171 31.3922 71.2916 31.407C71.4144 31.4197 71.5339 31.4398 71.6503 31.4673L71.7804 30.5881C71.7106 30.567 71.6185 30.5479 71.5043 30.531C71.3921 30.512 71.2694 30.5024 71.1361 30.5024Z" fill="#7C4FFC"/>
<path d="M72.03 32.2576V32.3242C72.03 32.5739 72.0617 32.8056 72.1252 33.0193C72.1908 33.2309 72.2839 33.4139 72.4045 33.5684C72.5251 33.7228 72.6701 33.8445 72.8393 33.9333C73.0107 34.0201 73.2033 34.0635 73.417 34.0635C73.5249 34.0635 73.6254 34.0518 73.7185 34.0286C73.8137 34.0053 73.9004 33.9725 73.9787 33.9302C74.0316 33.9006 74.0813 33.8667 74.1279 33.8286C74.1744 33.7905 74.2189 33.7482 74.2612 33.7017V33.8984C74.2612 34.0148 74.2443 34.1195 74.2104 34.2126C74.1787 34.3057 74.1321 34.384 74.0708 34.4475C74.0031 34.5173 73.9184 34.5702 73.8169 34.6062C73.7174 34.6422 73.6032 34.6602 73.4741 34.6602C73.3937 34.6602 73.3154 34.6517 73.2392 34.6348C73.1652 34.62 73.0932 34.5967 73.0234 34.5649C72.9515 34.5332 72.8827 34.4919 72.8171 34.4412C72.7515 34.3925 72.6902 34.3354 72.633 34.2698L72.2363 34.8062C72.3104 34.9014 72.3992 34.9828 72.5029 35.0505C72.6066 35.1204 72.7166 35.1775 72.833 35.2219C72.9494 35.2664 73.0668 35.2992 73.1853 35.3203C73.3038 35.3415 73.4148 35.3521 73.5185 35.3521C73.7597 35.3521 73.9798 35.3193 74.1787 35.2537C74.3797 35.1902 74.5521 35.096 74.696 34.9712C74.8378 34.8464 74.9478 34.693 75.0261 34.511C75.1065 34.329 75.1467 34.1217 75.1467 33.8889V30.5659H74.3437L74.3088 30.8928C74.2665 30.8399 74.2199 30.7923 74.1692 30.75C74.1184 30.7056 74.0634 30.6675 74.0041 30.6357C73.9258 30.5913 73.838 30.5585 73.7407 30.5374C73.6455 30.5141 73.5397 30.5024 73.4233 30.5024C73.2075 30.5024 73.0139 30.5448 72.8425 30.6294C72.6711 30.714 72.5251 30.8336 72.4045 30.988C72.2839 31.1425 72.1908 31.3276 72.1252 31.5435C72.0617 31.7593 72.03 31.9973 72.03 32.2576ZM72.9155 32.3242V32.2576C72.9155 32.1137 72.9303 31.9793 72.9599 31.8545C72.9896 31.7275 73.035 31.6165 73.0964 31.5212C73.1557 31.4281 73.2308 31.3551 73.3217 31.3022C73.4127 31.2472 73.5206 31.2197 73.6455 31.2197C73.7132 31.2197 73.7756 31.2261 73.8327 31.2388C73.892 31.2515 73.9459 31.2694 73.9946 31.2927C74.0517 31.3202 74.1025 31.3562 74.1469 31.4006C74.1914 31.4451 74.2295 31.4969 74.2612 31.5562V33.0098C74.2316 33.0627 74.1967 33.1103 74.1565 33.1526C74.1163 33.1949 74.0697 33.2309 74.0168 33.2605C73.966 33.288 73.9089 33.3092 73.8454 33.324C73.7841 33.3388 73.7153 33.3462 73.6391 33.3462C73.5143 33.3462 73.4064 33.3197 73.3154 33.2668C73.2244 33.2139 73.1493 33.141 73.0901 33.0479C73.0308 32.9569 72.9864 32.85 72.9568 32.7273C72.9292 32.6025 72.9155 32.4681 72.9155 32.3242Z" fill="#7C4FFC"/>
<path d="M82.1935 32.5527H81.3016C81.2932 32.6924 81.2699 32.8119 81.2318 32.9114C81.1937 33.0108 81.1419 33.0923 81.0763 33.1558C81.0107 33.2192 80.9314 33.2658 80.8383 33.2954C80.7452 33.325 80.6404 33.3398 80.5241 33.3398C80.4373 33.3398 80.358 33.3303 80.286 33.3113C80.2162 33.2901 80.1527 33.2584 80.0956 33.2161C80.0427 33.178 79.9951 33.1304 79.9528 33.0732C79.9126 33.0161 79.8777 32.9505 79.848 32.8765C79.8057 32.7686 79.774 32.6427 79.7528 32.4988C79.7338 32.3528 79.7243 32.1877 79.7243 32.0037V31.3752C79.7243 31.2398 79.7306 31.1139 79.7433 30.9976C79.756 30.8791 79.7761 30.7712 79.8036 30.6738C79.8396 30.549 79.8872 30.44 79.9464 30.3469C80.0078 30.2517 80.0818 30.1787 80.1686 30.1279C80.2194 30.0983 80.2744 30.0761 80.3336 30.0613C80.395 30.0465 80.4606 30.0391 80.5304 30.0391C80.6616 30.0391 80.7737 30.057 80.8668 30.093C80.962 30.1269 81.0414 30.1777 81.1049 30.2454C81.1662 30.3152 81.2128 30.4019 81.2445 30.5056C81.2784 30.6093 81.2995 30.7299 81.308 30.8674H82.1967C82.1755 30.6262 82.1247 30.4093 82.0443 30.2168C81.9639 30.0243 81.8539 29.8613 81.7142 29.728C81.5746 29.5947 81.4053 29.4921 81.2064 29.4202C81.0097 29.3482 80.7843 29.3123 80.5304 29.3123C80.359 29.3123 80.1982 29.3345 80.048 29.3789C79.8999 29.4212 79.7634 29.4826 79.6386 29.563C79.4989 29.6582 79.3741 29.7746 79.264 29.9121C79.154 30.0496 79.0652 30.2062 78.9974 30.3818C78.9382 30.5257 78.8938 30.6823 78.8641 30.8516C78.8345 31.0187 78.8197 31.1954 78.8197 31.3816V32.0037C78.8197 32.2026 78.8356 32.3909 78.8673 32.5686C78.9012 32.7463 78.9488 32.9093 79.0101 33.0574C79.0736 33.2055 79.1508 33.3409 79.2418 33.4636C79.3349 33.5863 79.4407 33.6911 79.5592 33.7778C79.6883 33.8709 79.8332 33.9429 79.994 33.9937C80.1569 34.0423 80.3336 34.0667 80.5241 34.0667C80.7653 34.0667 80.9853 34.0317 81.1842 33.9619C81.3831 33.89 81.5545 33.7884 81.6984 33.6572C81.8423 33.526 81.9565 33.3674 82.0411 33.1812C82.1279 32.995 82.1787 32.7855 82.1935 32.5527Z" fill="#7C4FFC"/>
<path d="M83.3476 31.0388V29.125H82.4653V34H83.3476V31.5212C83.3815 31.4768 83.4185 31.4366 83.4587 31.4006C83.501 31.3647 83.5476 31.334 83.5984 31.3086C83.6534 31.279 83.7147 31.2568 83.7824 31.2419C83.8501 31.2271 83.9231 31.2197 84.0014 31.2197C84.103 31.2197 84.194 31.2335 84.2744 31.261C84.3548 31.2864 84.4235 31.3266 84.4807 31.3816C84.5378 31.4366 84.5812 31.5085 84.6108 31.5974C84.6425 31.6863 84.6584 31.7921 84.6584 31.9148V34H85.5407V31.9211C85.5407 31.6694 85.5101 31.4546 85.4487 31.2769C85.3894 31.097 85.3059 30.95 85.198 30.8357C85.09 30.7214 84.961 30.6379 84.8108 30.585C84.6605 30.5299 84.4955 30.5024 84.3156 30.5024C84.1929 30.5024 84.0765 30.5204 83.9665 30.5564C83.8565 30.5924 83.756 30.6431 83.665 30.7087C83.6058 30.7511 83.5486 30.8008 83.4936 30.8579C83.4407 30.9129 83.3921 30.9732 83.3476 31.0388Z" fill="#7C4FFC"/>
<path d="M88.0596 34H88.9546V33.946C88.9102 33.8593 88.8763 33.7556 88.8531 33.635C88.8298 33.5144 88.8182 33.3621 88.8182 33.178V31.7053C88.8182 31.5064 88.7811 31.3319 88.7071 31.1816C88.633 31.0293 88.5304 30.9034 88.3992 30.804C88.268 30.7045 88.1125 30.6294 87.9327 30.5786C87.7549 30.5278 87.5624 30.5024 87.355 30.5024C87.1244 30.5024 86.9191 30.5321 86.7393 30.5913C86.5616 30.6484 86.4113 30.7267 86.2886 30.8262C86.1638 30.9256 86.0686 31.0409 86.003 31.1721C85.9395 31.3033 85.9078 31.4419 85.9078 31.5879H86.7901C86.7901 31.5265 86.7985 31.4705 86.8155 31.4197C86.8345 31.3689 86.8631 31.3255 86.9012 31.2896C86.9435 31.2493 86.9985 31.2187 87.0662 31.1975C87.1339 31.1742 87.2143 31.1626 87.3074 31.1626C87.4132 31.1626 87.5052 31.1764 87.5835 31.2039C87.6639 31.2292 87.7306 31.2663 87.7835 31.3149C87.8343 31.3615 87.8724 31.4176 87.8977 31.4832C87.9231 31.5466 87.9358 31.6186 87.9358 31.699V31.9021H87.4439C87.19 31.9021 86.9646 31.9254 86.7679 31.9719C86.5732 32.0164 86.4092 32.0819 86.2759 32.1687C86.1278 32.2639 86.0167 32.3856 85.9427 32.5337C85.8686 32.6797 85.8316 32.8479 85.8316 33.0383C85.8316 33.1864 85.8612 33.324 85.9204 33.4509C85.9797 33.5758 86.0622 33.6837 86.168 33.7747C86.2738 33.8656 86.3997 33.9365 86.5457 33.9873C86.6938 34.0381 86.8557 34.0635 87.0313 34.0635C87.1392 34.0635 87.2397 34.0529 87.3328 34.0317C87.4259 34.0127 87.5116 33.9852 87.5899 33.9492C87.6661 33.9154 87.7359 33.8752 87.7994 33.8286C87.8628 33.7821 87.9189 33.7323 87.9676 33.6794C87.9781 33.7408 87.9908 33.799 88.0057 33.854C88.0205 33.909 88.0384 33.9577 88.0596 34ZM87.2185 33.3811C87.136 33.3811 87.063 33.3716 86.9995 33.3525C86.9382 33.3314 86.8863 33.3039 86.844 33.27C86.8017 33.234 86.7689 33.1907 86.7456 33.1399C86.7245 33.087 86.7139 33.0299 86.7139 32.9685C86.7139 32.8902 86.7287 32.8183 86.7583 32.7527C86.788 32.685 86.8335 32.6268 86.8948 32.5781C86.9562 32.5316 87.0355 32.4956 87.1329 32.4702C87.2302 32.4427 87.3476 32.429 87.4851 32.429H87.9358V33.0193C87.9104 33.0637 87.8755 33.1082 87.8311 33.1526C87.7867 33.1949 87.7338 33.233 87.6724 33.2668C87.611 33.3007 87.5423 33.3282 87.4661 33.3494C87.3899 33.3705 87.3074 33.3811 87.2185 33.3811Z" fill="#7C4FFC"/>
<path d="M89.5978 30.5659V31.2864H90.5753V33.2827H89.5978V34H92.3971V33.2827H91.4672V30.5659H89.5978ZM90.5118 29.6868C90.5118 29.7545 90.5235 29.818 90.5468 29.8772C90.5721 29.9343 90.6071 29.983 90.6515 30.0232C90.6959 30.0655 90.7488 30.0983 90.8102 30.1216C90.8737 30.1449 90.9435 30.1565 91.0197 30.1565C91.1762 30.1565 91.3 30.1131 91.391 30.0264C91.4841 29.9375 91.5306 29.8243 91.5306 29.6868C91.5306 29.5492 91.4841 29.4371 91.391 29.3503C91.3 29.2615 91.1762 29.217 91.0197 29.217C90.9435 29.217 90.8737 29.2287 90.8102 29.252C90.7488 29.2752 90.6959 29.307 90.6515 29.3472C90.6071 29.3895 90.5721 29.4403 90.5468 29.4995C90.5235 29.5566 90.5118 29.6191 90.5118 29.6868Z" fill="#7C4FFC"/>
<path d="M92.8117 34H93.6972V31.5593C93.7268 31.5128 93.7596 31.4705 93.7956 31.4324C93.8316 31.3943 93.8718 31.3615 93.9162 31.334C93.9712 31.2959 94.0336 31.2673 94.1035 31.2483C94.1754 31.2292 94.2537 31.2197 94.3383 31.2197C94.4399 31.2197 94.5309 31.2303 94.6113 31.2515C94.6917 31.2705 94.7605 31.3054 94.8176 31.3562C94.8747 31.407 94.9181 31.4768 94.9477 31.5657C94.9794 31.6524 94.9953 31.7635 94.9953 31.8989V34H95.8776V31.8862C95.8776 31.6366 95.848 31.425 95.7888 31.2515C95.7316 31.0758 95.6512 30.932 95.5476 30.8198C95.4418 30.7098 95.3169 30.6294 95.173 30.5786C95.0292 30.5278 94.8705 30.5024 94.697 30.5024C94.5616 30.5024 94.4335 30.5215 94.3129 30.5596C94.1923 30.5977 94.0813 30.6527 93.9797 30.7246C93.9204 30.7669 93.8644 30.8145 93.8115 30.8674C93.7586 30.9203 93.7099 30.9785 93.6655 31.042L93.6115 30.5659H92.8117V34Z" fill="#7C4FFC"/>
<path fill-rule="evenodd" clip-rule="evenodd" d="M62.4488 10.7998L60.4497 14.1171L62.4488 15.2975V15.2969L62.4507 15.2988L64.4498 14.1185L62.4507 10.7998L62.4488 10.8062V10.7998ZM62.4489 15.6776L62.4488 15.6778L60.4497 14.4968L62.4488 17.314V17.3132L62.4489 17.3135L64.4494 14.4963L62.4489 15.6776Z" fill="#7C4FFC"/>
<path d="M92.842 14.3864C92.8544 14.2877 92.8636 14.189 92.8636 14.0842C92.8636 13.9793 92.8544 13.8806 92.842 13.7819L93.4928 13.273C93.5514 13.2268 93.5668 13.1435 93.5298 13.0756L92.913 12.0085C92.8759 11.9407 92.7927 11.916 92.7248 11.9407L91.9569 12.2491C91.7965 12.1257 91.6238 12.0239 91.4356 11.9468L91.3184 11.1295C91.3092 11.0555 91.2444 11 91.1673 11H89.9337C89.8565 11 89.7918 11.0555 89.7825 11.1295L89.6653 11.9468C89.4772 12.0239 89.3045 12.1288 89.1441 12.2491L88.3762 11.9407C88.3052 11.9129 88.225 11.9407 88.188 12.0085L87.5712 13.0756C87.5311 13.1435 87.5496 13.2268 87.6082 13.273L88.259 13.7819C88.2466 13.8806 88.2374 13.9824 88.2374 14.0842C88.2374 14.1859 88.2466 14.2877 88.259 14.3864L87.6082 14.8953C87.5496 14.9416 87.5342 15.0248 87.5712 15.0927L88.188 16.1598C88.225 16.2277 88.3083 16.2523 88.3762 16.2277L89.1441 15.9192C89.3045 16.0426 89.4772 16.1444 89.6653 16.2215L89.7825 17.0388C89.7918 17.1128 89.8565 17.1683 89.9337 17.1683H91.1673C91.2444 17.1683 91.3092 17.1128 91.3184 17.0388L91.4356 16.2215C91.6238 16.1444 91.7965 16.0395 91.9569 15.9192L92.7248 16.2277C92.7958 16.2554 92.8759 16.2277 92.913 16.1598L93.5298 15.0927C93.5668 15.0248 93.5514 14.9416 93.4928 14.8953L92.842 14.3864ZM90.5505 15.1636C89.9552 15.1636 89.471 14.6794 89.471 14.0842C89.471 13.4889 89.9552 13.0047 90.5505 13.0047C91.1457 13.0047 91.6299 13.4889 91.6299 14.0842C91.6299 14.6794 91.1457 15.1636 90.5505 15.1636Z" fill="#7C4FFC"/>
<path fill-rule="evenodd" clip-rule="evenodd" d="M50.9607 12.4889L51.6654 11.7843L50.9583 11.0771L50.2698 11.7657C49.1351 10.9274 47.5276 11.0222 46.4998 12.05C45.472 13.0778 45.3772 14.6853 46.2155 15.82L45.4429 16.5926L46.15 17.2997L46.9387 16.5109C48.0655 17.2656 49.6045 17.1453 50.5998 16.15C51.5951 15.1547 51.7154 13.6157 50.9607 12.4889ZM49.5502 12.4852C48.8177 12.0305 47.8429 12.1211 47.2069 12.7571C46.5709 13.3931 46.4803 14.3679 46.935 15.1004L49.5502 12.4852ZM47.6674 15.7823L50.2321 13.2176C50.6082 13.9342 50.495 14.8405 49.8927 15.4429C49.2903 16.0452 48.384 16.1584 47.6674 15.7823Z" fill="#7C4FFC"/>
<path fill-rule="evenodd" clip-rule="evenodd" d="M74.4497 10C73.3451 10 72.4497 10.8954 72.4497 12V16.2C72.4497 17.3046 73.3451 18.2 74.4497 18.2H78.6497C79.7543 18.2 80.6497 17.3046 80.6497 16.2V12C80.6497 10.8954 79.7543 10 78.6497 10H74.4497ZM76.5494 10.8999L73.7495 12.5247V15.7598L76.5494 17.3846L79.3493 15.7598V15.7454L79.3494 15.7453V12.5247L76.5495 10.8999V10.9L76.5494 10.8999ZM78.5224 15.2666V13.0034L76.5494 11.8574L74.5764 13.0034V15.2811L76.5494 16.4126L76.5586 16.4074L78.5224 15.2666ZM77.8701 14.8891L76.5499 15.6434L75.2443 14.8891V13.3803L76.5499 12.6259L77.8701 13.3803V14.8891Z" fill="#7C4FFC"/>
</svg>
